<svg width="24" height="24" viewBox="0 0 24 24" fill="none" xmlns="http://www.w3.org/2000/svg">
<path d="M20.2779 15.7409C19.7102 15.0599 19.0421 14.4788 18.41 13.8617C17.8397 13.3054 17.8037 12.9827 18.2622 12.3407C18.7625 11.64 19.3006 10.9661 19.8055 10.2686C20.2767 9.6167 20.7585 8.96657 21.0065 8.18603C21.1638 7.68945 21.0247 7.4701 20.5154 7.38316C20.4277 7.36794 20.337 7.36715 20.2477 7.36715L17.2265 7.36359C16.8544 7.35806 16.6487 7.5203 16.5171 7.8501C16.3394 8.2959 16.1563 8.7413 15.9446 9.17149C15.4644 10.1469 14.9281 11.0897 14.1763 11.888C14.0105 12.064 13.8271 12.2866 13.55 12.1949C13.2034 12.0684 13.1013 11.4973 13.107 11.3043L13.104 7.8171C13.0369 7.31894 12.9264 7.09683 12.4318 7L9.29341 7.00059C8.87449 7.00059 8.66444 7.16243 8.44075 7.42446C8.31171 7.57582 8.27278 7.67403 8.53797 7.72423C9.05886 7.82303 9.3523 8.16014 9.43016 8.68242C9.55505 9.51691 9.54635 10.3548 9.47442 11.1926C9.45328 11.4372 9.41119 11.6813 9.31416 11.9097C9.1624 12.2688 8.91737 12.3419 8.59547 12.121C8.304 11.921 8.09928 11.6388 7.89891 11.3554C7.14623 10.2919 6.54571 9.14501 6.05604 7.93981C5.91455 7.59163 5.67051 7.38059 5.30158 7.37486C4.39516 7.36043 3.48855 7.35806 2.58213 7.37565C2.03674 7.38592 1.87411 7.65072 2.09621 8.14513C3.08345 10.3411 4.18234 12.4761 5.61676 14.4209C6.35324 15.419 7.19879 16.3001 8.29116 16.9246C9.52916 17.6324 10.8618 17.8454 12.2654 17.7798C12.9226 17.749 13.1201 17.578 13.1505 16.923C13.171 16.4748 13.2218 16.0292 13.4429 15.6265C13.6599 15.2313 13.9885 15.156 14.3673 15.4018C14.5568 15.5249 14.7165 15.6816 14.8673 15.8468C15.2372 16.2515 15.5939 16.6685 15.9778 17.0595C16.4594 17.5496 17.0299 17.8391 17.7472 17.78L20.5239 17.7806C20.9713 17.7513 21.2033 17.2028 20.9464 16.7034C20.766 16.3537 20.5293 16.0422 20.2779 15.7409Z" fill="white"/>
</svg>
