<svg width="64" height="60" viewBox="0 0 64 60" fill="none" xmlns="http://www.w3.org/2000/svg">
<path fill-rule="evenodd" clip-rule="evenodd" d="M33.128 0.171987L32.9587 0.341781V7.56327V14.7848L33.1183 14.9353L33.278 15.0857H40.4696H47.6611L47.8406 14.9056C48.0199 14.7258 48.02 14.7249 47.975 13.8851C47.583 6.58498 42.0579 0.778373 34.8315 0.0719376C33.6421 -0.0443026 33.3251 -0.0256904 33.128 0.171987ZM34.945 1.18217C37.2866 1.43741 39.6473 2.36754 41.51 3.76886C44.599 6.09269 46.508 9.55388 46.8643 13.477L46.9099 13.9786H46.5937C46.3202 13.9786 46.2737 13.9576 46.249 13.8229C46.0999 13.0084 45.8609 12.1876 45.5562 11.4437C43.651 6.79235 43.4957 6.48348 42.593 5.54872C41.7752 4.70189 41.0646 4.29159 38.8578 3.39191C38.1368 3.09799 37.1277 2.6854 36.6154 2.47513C35.8189 2.14814 35.0427 1.91497 34.2523 1.76517C34.0789 1.73237 34.0626 1.70262 34.0626 1.41922C34.0626 1.06185 33.9986 1.07908 34.945 1.18217ZM29.4399 3.04976C24.7964 3.38582 20.5352 6.00074 18.1043 10.0057C16.5676 12.5375 15.8086 15.5979 16.0413 18.3233C16.2693 20.9925 16.9915 23.3397 18.195 25.3227C20.3508 28.875 23.9901 31.2327 28.3087 31.8751C29.4273 32.0415 31.5901 32.0417 32.6827 31.8754C37.057 31.2098 40.6757 28.8514 42.8382 25.2567C44.0024 23.3214 44.7535 20.8567 44.9561 18.3061C45.0103 17.6248 45.0043 17.4448 44.9222 17.2855C44.8673 17.1792 44.8155 17.0848 44.8069 17.0757C44.7984 17.0667 41.7022 17.0434 37.9264 17.0238L31.0613 16.9884L31.0259 10.1039C31.0065 6.31749 30.9832 3.2125 30.9742 3.20399C30.9652 3.19541 30.8661 3.14096 30.7542 3.0829C30.5367 2.97005 30.54 2.97012 29.4399 3.04976ZM29.9228 4.44935V4.74507L29.4226 4.82512C28.7723 4.92919 27.8661 5.23701 26.617 5.77808C26.0635 6.0179 25.1759 6.39084 24.6446 6.60692C21.7229 7.79513 20.7976 8.70381 19.6395 11.5224C19.405 12.0932 19.0424 12.9494 18.8339 13.4251C17.5047 16.4561 17.4009 18.1849 18.4017 20.6209C18.5815 21.0585 18.9517 21.9615 19.2244 22.6274C20.8267 26.5409 21.5882 27.3027 25.4726 28.8786C26.0798 29.125 26.7628 29.4104 26.9905 29.5129C29.5147 30.6499 31.4626 30.6298 34.1814 29.4388C34.6663 29.2264 35.5909 28.8352 36.236 28.5695C38.1911 27.7643 39.1512 27.154 39.9201 26.2274C40.504 25.5238 40.8408 24.888 41.5153 23.2156C41.6995 22.7589 42.0716 21.8572 42.3421 21.2118C42.8484 20.0043 43.1387 19.1161 43.2253 18.5106L43.2748 18.1647L43.601 18.1436C43.9233 18.1228 43.9268 18.1248 43.8967 18.3166C43.88 18.4233 43.848 18.727 43.8254 18.9914C43.7174 20.2577 43.2514 21.9417 42.6549 23.2219C41.1006 26.5574 38.1956 29.1489 34.7181 30.3023C32.692 30.9743 30.7687 31.1398 28.6597 30.8239C24.0678 30.136 20.5444 27.6533 18.5981 23.7345C17.4659 21.4547 16.9601 18.6433 17.2314 16.1381C17.7998 10.8884 20.97 6.74046 25.7308 5.01699C26.4456 4.75822 27.5736 4.46291 28.3359 4.33491C29.2708 4.17798 29.305 4.17342 29.6296 4.16297L29.9228 4.15356V4.44935ZM36.1378 5.18609C36.2487 5.29735 36.3395 5.4504 36.3395 5.5263C36.3395 5.60213 36.3783 5.67817 36.4257 5.69526C36.5659 5.74563 36.7534 5.61251 36.7534 5.46258C36.7534 5.26511 37.0587 4.98385 37.2731 4.98385C37.4833 4.98385 37.8576 5.32419 37.857 5.51475C37.8556 5.98739 37.4691 6.58284 37.05 6.75852C36.5988 6.94754 36.0001 6.84528 35.6249 6.51496C35.231 6.16832 35.1142 5.44521 35.4049 5.15371C35.6327 4.92517 35.8889 4.93652 36.1378 5.18609ZM36.3233 8.69648C37.158 9.21402 37.3338 10.3335 36.6974 11.0791C36.2364 11.6192 35.4556 11.8059 35.1716 11.4438C35.0929 11.3436 35.0285 11.1921 35.0285 11.1072C35.0285 10.8789 35.2695 10.6126 35.5221 10.5619C35.8368 10.4988 35.9945 10.3308 35.9945 10.0586C35.9945 9.78 35.7905 9.55042 35.5429 9.55042C35.4463 9.55042 35.2911 9.47397 35.1979 9.38056C34.9703 9.15237 34.9738 8.83797 35.2063 8.6048C35.3589 8.45175 35.4275 8.43147 35.6921 8.46136C35.8616 8.48053 36.1456 8.58632 36.3233 8.69648ZM41.1076 8.95386C41.4319 9.10844 41.7643 9.43841 41.9489 9.78893C42.1565 10.1833 42.1551 10.9266 41.946 11.3241C41.2723 12.6045 39.6751 12.6227 39.016 11.3575C38.2825 9.94945 39.7231 8.29392 41.1076 8.95386ZM26.9931 9.50656C27.407 9.69981 27.866 10.1973 27.9788 10.5749C28.3213 11.7214 27.4384 12.879 26.2315 12.8656C26.0039 12.8631 25.7187 12.8245 25.5979 12.7798C24.8741 12.5123 24.3727 11.8287 24.3706 11.1072C24.3686 10.404 24.8792 9.68438 25.5503 9.44442C25.9769 9.292 26.5902 9.31836 26.9931 9.50656ZM22.9217 14.0928C22.986 14.1175 23.0781 14.2321 23.1264 14.3473C23.264 14.6753 23.1405 14.9314 22.7677 15.0917C22.4083 15.2462 22.3873 15.4266 22.7185 15.5127C23.1989 15.6375 23.3443 16.1457 22.9876 16.4534C22.8252 16.5935 22.7389 16.6171 22.4919 16.5892C21.64 16.4929 21.1106 15.5155 21.498 14.7542C21.647 14.4616 21.7961 14.3115 22.0919 14.1568C22.3051 14.0453 22.7161 14.0136 22.9217 14.0928ZM27.009 17.822C27.35 17.9648 27.5684 18.1757 27.7225 18.5106C27.8835 18.8604 27.8837 19.1279 27.7232 19.4821C27.3244 20.3628 26.128 20.5101 26.128 19.6785C26.128 19.4627 26.3691 19.1679 26.5456 19.1679C26.6103 19.1679 26.6995 19.124 26.7439 19.0703C26.8324 18.9634 26.8149 18.9453 26.4393 18.754C26.0584 18.5601 26.0284 18.0187 26.3877 17.8232C26.6291 17.6919 26.6981 17.6917 27.009 17.822ZM37.2487 19.2761C38.0618 19.8505 38.0657 21.1118 37.2561 21.6837C36.2375 22.4033 34.8654 21.3954 35.164 20.147C35.2582 19.7534 35.5599 19.3589 35.9146 19.1654C36.2905 18.9604 36.8698 19.0085 37.2487 19.2761ZM25.3548 20.7305C26.1045 21.1052 26.5182 21.8398 26.4575 22.6886C26.312 24.7213 23.5917 25.2689 22.6844 23.4483C22.1814 22.4388 22.5828 21.2336 23.5895 20.7305C23.88 20.5854 24.046 20.5517 24.4721 20.5517C24.8983 20.5517 25.0643 20.5854 25.3548 20.7305ZM33.9798 23.4858C34.3859 23.6977 34.6836 24.1872 34.6836 24.6433C34.6836 25.2646 34.2108 25.8221 33.6018 25.9189C33.351 25.9588 33.2903 25.9415 33.136 25.7868C32.7987 25.4486 32.9399 24.9778 33.417 24.8498C33.7331 24.7651 33.7054 24.5843 33.3532 24.4329C33.0293 24.2936 32.9587 24.1924 32.9587 23.8672C32.9587 23.4456 33.5088 23.2401 33.9798 23.4858ZM27.5943 24.2176C27.6981 24.2995 27.7875 24.4599 27.8161 24.6154C27.8804 24.9646 28.0964 25.1875 28.3704 25.1875C28.6445 25.1875 28.8604 24.9646 28.9247 24.6154C28.9781 24.3258 29.2301 24.0804 29.4744 24.0804C29.559 24.0804 29.71 24.145 29.81 24.2239C29.9628 24.3443 29.9918 24.4221 29.9918 24.7104C29.9918 25.3355 29.6515 25.8561 29.0632 26.1308C28.2201 26.5245 27.1996 26.1318 26.842 25.2762C26.7909 25.1537 26.749 24.8991 26.749 24.7104C26.749 24.4221 26.7781 24.3443 26.9308 24.2239C27.1592 24.0437 27.3712 24.0417 27.5943 24.2176Z" fill="#1B1B1B"/>
<path fill-rule="evenodd" clip-rule="evenodd" d="M33.1281 0.171987L32.9587 0.341781V7.56327V14.7848L33.1183 14.9353L33.2781 15.0857H40.4696H47.6611L47.8406 14.9056C48.02 14.7258 48.02 14.7249 47.975 13.8851C47.583 6.58499 42.0579 0.778373 34.8315 0.0719376C33.6421 -0.0443026 33.3251 -0.0256904 33.1281 0.171987ZM34.945 1.18217C37.2866 1.43741 39.6474 2.36754 41.51 3.76886C44.599 6.09269 46.508 9.55388 46.8643 13.477L46.9099 13.9786H46.5937C46.3202 13.9786 46.2737 13.9576 46.249 13.8229C46.0999 13.0084 45.8609 12.1876 45.5563 11.4437C43.651 6.79235 43.4958 6.48348 42.593 5.54872C41.7752 4.70189 41.0646 4.29159 38.8578 3.39191C38.1368 3.09799 37.1278 2.6854 36.6155 2.47513C35.8189 2.14814 35.0427 1.91497 34.2524 1.76517C34.0789 1.73237 34.0626 1.70262 34.0626 1.41922C34.0626 1.06185 33.9987 1.07908 34.945 1.18217ZM36.1378 5.18609C36.2488 5.29735 36.3395 5.4504 36.3395 5.5263C36.3395 5.60213 36.3783 5.67817 36.4257 5.69526C36.5659 5.74563 36.7535 5.61251 36.7535 5.46258C36.7535 5.26511 37.0588 4.98385 37.2731 4.98385C37.4833 4.98385 37.8576 5.32419 37.857 5.51475C37.8556 5.98739 37.4692 6.58284 37.05 6.75852C36.5988 6.94754 36.0002 6.84528 35.625 6.51496C35.2311 6.16832 35.1142 5.44521 35.4049 5.15371C35.6328 4.92517 35.8889 4.93652 36.1378 5.18609ZM36.3233 8.69648C37.158 9.21402 37.3338 10.3335 36.6974 11.0791C36.2364 11.6192 35.4556 11.8059 35.1716 11.4438C35.0929 11.3436 35.0286 11.1921 35.0286 11.1072C35.0286 10.8789 35.2696 10.6126 35.5222 10.5619C35.8368 10.4988 35.9945 10.3308 35.9945 10.0586C35.9945 9.78 35.7905 9.55042 35.5429 9.55042C35.4463 9.55042 35.2911 9.47397 35.1979 9.38056C34.9703 9.15237 34.9738 8.83797 35.2063 8.6048C35.3589 8.45175 35.4276 8.43147 35.6922 8.46136C35.8616 8.48053 36.1456 8.58632 36.3233 8.69648ZM41.1077 8.95386C41.4319 9.10844 41.7643 9.43841 41.9489 9.78893C42.1565 10.1833 42.1552 10.9266 41.946 11.3241C41.2723 12.6045 39.6751 12.6227 39.016 11.3575C38.2825 9.94945 39.7231 8.29392 41.1077 8.95386Z" fill="#E07153"/>
<path d="M9.28 56V44.8H17.92V56H16.24V46.32H10.96V56H9.28ZM20.2431 56V47.52H21.7631V53.92H21.8431L25.5231 47.52H27.4431V56H25.9231V49.6H25.8431L22.1631 56H20.2431ZM36.0844 57.92V56H29.5244V47.52H31.0444V54.56H34.8844V47.52H36.4044V54.56H37.5244V57.92H36.0844ZM45.4438 57.92V56H38.8838V47.52H40.4038V54.56H44.2438V47.52H45.7638V54.56H46.8837V57.92H45.4438ZM50.8831 54.8C51.5871 54.8 52.1471 54.608 52.5631 54.224C52.9898 53.8293 53.2031 53.328 53.2031 52.72V52.24H50.9631C50.4085 52.24 49.9871 52.3573 49.6991 52.592C49.4218 52.816 49.2831 53.1253 49.2831 53.52C49.2831 53.9147 49.4218 54.2293 49.6991 54.464C49.9871 54.688 50.3818 54.8 50.8831 54.8ZM50.6431 56.16C49.7898 56.16 49.0965 55.904 48.5631 55.392C48.0298 54.88 47.7631 54.256 47.7631 53.52C47.7631 52.7627 48.0458 52.1333 48.6111 51.632C49.1765 51.1307 49.9605 50.88 50.9631 50.88H53.2031V50.48C53.2031 49.9573 53.0378 49.5467 52.7071 49.248C52.3765 48.9493 51.9285 48.8 51.3631 48.8C50.9045 48.8 50.5311 48.9013 50.2431 49.104C49.9551 49.296 49.7685 49.5413 49.6831 49.84H48.0831C48.2431 49.136 48.6218 48.5493 49.2191 48.08C49.8271 47.6 50.5418 47.36 51.3631 47.36C52.4191 47.36 53.2405 47.648 53.8271 48.224C54.4245 48.7893 54.7231 49.5413 54.7231 50.48V56H53.4431L53.2831 54.96H53.2031C53.0218 55.2693 52.6965 55.5467 52.2271 55.792C51.7685 56.0373 51.2405 56.16 50.6431 56.16Z" fill="#1B1B1B"/>
</svg>
