<svg width="64" height="60" viewBox="0 0 64 60" fill="none" xmlns="http://www.w3.org/2000/svg">
<path fill-rule="evenodd" clip-rule="evenodd" d="M26.7717 0.0890068C25.9214 0.276194 25.2873 0.636382 24.6968 1.26757C23.5953 2.44513 23.3409 4.19713 24.0579 5.66838L24.2483 6.059L26.0726 6.05407L27.8967 6.04913L27.3299 5.90488C26.6033 5.71994 26.3161 5.57032 26.0015 5.21288C25.3604 4.48463 25.3781 3.30594 26.0415 2.55038C26.3216 2.23144 26.9005 1.94151 27.3514 1.89438C28.0481 1.82157 28.7349 2.10607 29.1089 2.62238C29.4442 3.08526 29.7992 4.19675 29.9869 5.3715L30.0917 6.02775L31.0192 6.04513L31.9466 6.06244L31.9076 5.59994C31.8235 4.60613 31.3566 2.84538 30.9773 2.09244C30.1954 0.540069 28.4657 -0.283931 26.7717 0.0890068ZM35.553 0.0936943C34.9144 0.230882 34.1614 0.635694 33.7153 1.08194C32.948 1.84919 32.3612 3.37338 32.085 5.31632C32.0343 5.67325 31.9923 5.98638 31.9916 6.01213C31.991 6.03788 32.4118 6.059 32.9268 6.059C33.8482 6.059 33.8636 6.05675 33.8898 5.91838C33.9045 5.84107 33.9601 5.51057 34.0134 5.184C34.2083 3.99069 34.6473 2.79019 35.0282 2.40907C35.5455 1.89151 36.5438 1.73738 37.2459 2.06657C38.4621 2.63669 38.8164 4.22813 37.9521 5.238C37.6698 5.56775 37.3691 5.72194 36.6511 5.90538L36.0842 6.05013L37.8967 6.03894L39.7092 6.02775L39.9114 5.6215C40.2269 4.98744 40.3226 4.51251 40.2889 3.74726C40.2671 3.25251 40.2192 2.97488 40.0952 2.62294C39.4444 0.775444 37.4777 -0.319681 35.553 0.0936943ZM16.4216 8.07588C16.0123 8.34932 15.9851 8.47944 16.0045 10.0702C16.0234 11.6273 16.0275 11.6444 16.4521 11.9614L16.6247 12.0903H31.9905H47.3563L47.5289 11.9614C47.9535 11.6444 47.9576 11.6273 47.9765 10.0702C47.9959 8.47944 47.9687 8.34932 47.5594 8.07588L47.347 7.934H31.9905H16.634L16.4216 8.07588ZM17.553 21.7122C17.553 27.145 17.5736 29.5258 17.6227 29.7591C17.8478 30.8296 18.7139 31.6952 19.7904 31.9256C21.6834 32.3307 43.7159 32.0267 44.1906 31.9267C45.2512 31.7034 46.1369 30.8178 46.3586 29.7591C46.4073 29.5267 46.428 27.1234 46.428 21.7122V13.9965H31.9905H17.553V21.7122ZM27.7335 17.4378C28.7446 17.6709 29.6286 18.5549 29.8617 19.566C30.2181 21.1119 29.1564 22.6719 27.5621 22.9454C26.3866 23.1469 25.1662 22.5281 24.6282 21.4575C24.0593 20.3254 24.254 19.1076 25.1465 18.215C25.8506 17.5109 26.8059 17.2239 27.7335 17.4378ZM34.9257 17.8246C35.3561 18.0453 35.5637 18.6191 35.3569 19.0163C35.1306 19.4506 30.2648 27.8607 30.1831 27.9587C30.1287 28.0239 29.9633 28.1312 29.8156 28.1974C29.0381 28.5452 28.2599 27.6848 28.6559 26.9153C29.0277 26.1929 33.7258 18.1192 33.8559 17.9793C34.1406 17.6728 34.5221 17.6176 34.9257 17.8246ZM26.677 19.3605C26.4311 19.4892 26.178 19.9173 26.178 20.2044C26.178 20.6442 26.6774 21.1215 27.1377 21.1215C27.4341 21.1215 27.7894 20.8931 27.9341 20.6096C28.3509 19.7926 27.4886 18.9357 26.677 19.3605ZM37.537 23.0852C38.6474 23.3809 39.4362 24.2489 39.6318 25.3907C39.8297 26.5463 39.16 27.8148 38.0867 28.317C36.9542 28.847 35.7565 28.6465 34.8923 27.7822C33.7404 26.6304 33.777 24.844 34.975 23.7443C35.6765 23.1003 36.6516 22.8495 37.537 23.0852ZM36.4416 24.9754C35.9964 25.1949 35.8018 25.8078 36.0381 26.2465C36.1659 26.4836 36.5974 26.7465 36.859 26.7465C37.1629 26.7465 37.5371 26.5062 37.6743 26.223C37.8328 25.8955 37.8342 25.7276 37.6813 25.3908C37.4769 24.9405 36.9028 24.7481 36.4416 24.9754Z" fill="#1B1B1B"/>
<path fill-rule="evenodd" clip-rule="evenodd" d="M16.4216 8.07588C16.0123 8.34932 15.9851 8.47944 16.0045 10.0702C16.0234 11.6273 16.0275 11.6444 16.4521 11.9614L16.6247 12.0903H31.9905H47.3563L47.5289 11.9614C47.9535 11.6444 47.9576 11.6273 47.9765 10.0702C47.9959 8.47944 47.9687 8.34932 47.5594 8.07588L47.347 7.93401H31.9905H16.634L16.4216 8.07588Z" fill="#E07153"/>
<path d="M8.42 56L12.58 44.8H14.58L18.74 56H16.98L16.052 53.44H11.108L10.18 56H8.42ZM11.652 51.92H15.508L13.62 46.72H13.54L11.652 51.92ZM19.6963 56V47.52H21.2163V51.44L24.8963 47.52H26.8163L22.8963 51.68L27.0563 56H25.1363L21.2163 51.92V56H19.6963ZM34.4125 57.92V56H27.8525V47.52H29.3725V54.56H33.2125V47.52H34.7325V54.56H35.8525V57.92H34.4125ZM37.2119 56V47.52H38.7319V53.92H38.8119L42.4919 47.52H44.4119V56H42.8919V49.6H42.8119L39.1319 56H37.2119ZM46.4931 56V47.52H48.0131V53.92H48.0931L51.7731 47.52H53.6931V56H52.1731V49.6H52.0931L48.4131 56H46.4931Z" fill="#1B1B1B"/>
</svg>
