<svg width="64" height="60" viewBox="0 0 64 60" fill="none" xmlns="http://www.w3.org/2000/svg">
<path fill-rule="evenodd" clip-rule="evenodd" d="M46.7926 24.5316L41.3637 28.4926C40.9392 28.7709 40.4425 28.9192 39.9348 28.9192C39.4271 28.9192 38.9305 28.7709 38.506 28.4926L33.0771 24.5316C32.8932 24.4012 32.7439 24.2277 32.6425 24.0263C32.541 23.825 32.4904 23.6018 32.4951 23.3764V23.0463C32.291 23.1001 32.0807 23.1263 31.8697 23.1245C31.573 23.1259 31.2786 23.073 31.0011 22.9681V23.5675C30.9944 23.7857 30.9377 23.9994 30.8353 24.1922C30.7328 24.385 30.5875 24.5516 30.4104 24.6793L24.9555 28.675C24.53 28.9552 24.0317 29.1045 23.5223 29.1045C23.0128 29.1045 22.5145 28.9552 22.089 28.675L16.6689 24.7141C16.4828 24.5851 16.3315 24.4122 16.2284 24.2106C16.1253 24.0091 16.0737 23.7851 16.0782 23.5588V14.7076C16.0264 14.5596 15.9999 14.404 16 14.2472C16.0082 14.0031 16.0748 13.7645 16.1942 13.5514C16.3136 13.3383 16.4823 13.1569 16.6862 13.0224L22.1151 9.07019C22.6064 8.72795 23.1929 8.54869 23.7916 8.5577C24.0782 8.5577 23.9479 8.48821 24.2172 8.5577V7.68908C24.2256 7.44403 24.2932 7.20465 24.4142 6.99139C24.5352 6.77812 24.706 6.59729 24.9121 6.46432L30.3322 2.50342C30.8313 2.17501 31.4156 2 32.013 2C32.6104 2 33.1947 2.17501 33.6938 2.50342L39.114 6.46432C39.319 6.59836 39.489 6.77944 39.6099 6.99247C39.7308 7.20551 39.799 7.44434 39.8089 7.68908V8.42742C40.0348 8.3753 39.9653 8.42742 40.1998 8.42742C40.797 8.41986 41.3821 8.5957 41.8762 8.9312L47.3051 12.8921C47.5101 13.0261 47.6802 13.2072 47.801 13.4203C47.9219 13.6333 47.9901 13.8721 48 14.1169C47.998 14.3086 47.9566 14.4978 47.8784 14.6728L47.3833 23.4632C47.3766 23.6814 47.3198 23.8952 47.2174 24.088C47.115 24.2807 46.9697 24.4474 46.7926 24.5751V24.5316ZM16.7036 14.3861C16.7996 14.5256 16.9203 14.6462 17.0597 14.7423L22.4886 18.7032C22.9035 19.006 23.4038 19.1693 23.9175 19.1693C24.4311 19.1693 24.9315 19.006 25.3464 18.7032L30.7057 14.7944C30.8164 14.6331 30.8769 14.4427 30.8795 14.2472C30.8743 14.0739 30.8273 13.9045 30.7426 13.7533C30.658 13.6021 30.538 13.4735 30.393 13.3786L24.9642 9.41763C24.6171 9.17886 24.2041 9.05438 23.7829 9.06152C23.3619 9.05666 22.9496 9.18093 22.6015 9.41763L17.1814 13.3786C17.0348 13.4719 16.9136 13.6 16.8288 13.7516C16.7439 13.9032 16.6979 14.0735 16.6949 14.2472C16.6906 14.2934 16.6906 14.3399 16.6949 14.3861H16.7036ZM22.4365 15.8976L22.1846 15.7065L20.2302 14.2819C20.1476 14.2304 20.0795 14.1587 20.0323 14.0736C19.9851 13.9885 19.9603 13.8928 19.9603 13.7955C19.9603 13.6982 19.9851 13.6024 20.0323 13.5173C20.0795 13.4322 20.1476 13.3606 20.2302 13.3091L23.114 11.207C23.312 11.0791 23.5428 11.0111 23.7785 11.0111C24.0142 11.0111 24.245 11.0791 24.443 11.207L25.2421 11.789C26.05 12.3796 25.5027 13.144 24.9642 13.8476C24.7424 14.152 24.5016 14.4422 24.2432 14.7162C23.9218 15.0202 22.8969 16.2624 22.4365 15.9323V15.8976ZM27.5179 14.4296L24.6428 16.5143C24.4851 16.6167 24.306 16.6816 24.1194 16.7042C23.9327 16.7268 23.7433 16.7064 23.5657 16.6446C22.9403 16.4274 23.6526 16.0626 23.9653 15.7759C24.278 15.4893 24.6168 15.2374 24.8339 15.0029C25.1089 14.7343 25.3617 14.4438 25.5896 14.1343C26.3019 13.2222 26.0065 12.3275 26.8056 12.9095L27.5005 13.422C27.5852 13.4719 27.6554 13.543 27.7041 13.6283C27.7529 13.7136 27.7785 13.8102 27.7785 13.9084C27.7785 14.0067 27.7529 14.1032 27.7041 14.1885C27.6554 14.2738 27.5852 14.345 27.5005 14.3948L27.5179 14.4296ZM33.1553 12.4926L38.5841 8.53165C38.7354 8.44269 38.8609 8.31575 38.9481 8.16339C39.0353 8.01104 39.0811 7.83855 39.0811 7.66303C39.0811 7.4875 39.0353 7.31501 38.9481 7.16266C38.8609 7.0103 38.7354 6.88336 38.5841 6.7944L33.1553 2.8335C32.8081 2.59472 32.3952 2.47022 31.9739 2.47736C31.553 2.4725 31.1407 2.5968 30.7926 2.8335L25.3724 6.7944C25.2211 6.88336 25.0957 7.0103 25.0085 7.16266C24.9213 7.31501 24.8755 7.4875 24.8755 7.66303C24.8755 7.83855 24.9213 8.01104 25.0085 8.16339C25.0957 8.31575 25.2211 8.44269 25.3724 8.53165L30.7926 12.4926C31.1407 12.7293 31.553 12.8536 31.9739 12.8487C32.3952 12.8558 32.8081 12.7313 33.1553 12.4926ZM30.6276 9.3134L30.3757 9.131L28.4213 7.70645C28.3387 7.65494 28.2706 7.58327 28.2234 7.49817C28.1762 7.41307 28.1514 7.31734 28.1514 7.22002C28.1514 7.1227 28.1762 7.027 28.2234 6.9419C28.2706 6.8568 28.3387 6.7851 28.4213 6.73359L31.3051 4.63155C31.5015 4.49935 31.7329 4.42873 31.9696 4.42873C32.2063 4.42873 32.4377 4.49935 32.6341 4.63155L33.4332 5.21351C34.241 5.80417 33.6938 6.55989 33.1553 7.26347C32.9359 7.56977 32.695 7.86004 32.4343 8.13209C32.1216 8.44479 31.088 9.68691 30.6276 9.34815V9.3134ZM33.1118 14.2385C33.2134 14.3762 33.3366 14.4964 33.4766 14.5946L38.8969 18.5555C39.3117 18.8584 39.8121 19.0216 40.3257 19.0216C40.8394 19.0216 41.3397 18.8584 41.7546 18.5555L47.114 14.6467C47.2247 14.4855 47.2851 14.2951 47.2877 14.0995C47.2825 13.9263 47.2356 13.7569 47.1509 13.6056C47.0662 13.4544 46.9463 13.3259 46.8013 13.2309L41.3724 9.26998C41.0222 9.03765 40.6113 8.91374 40.1911 8.91374C39.7709 8.91374 39.3599 9.03765 39.0097 9.26998L33.5809 13.2309C33.4359 13.3259 33.316 13.4544 33.2313 13.6056C33.1466 13.7569 33.0997 13.9263 33.0944 14.0995C33.0944 14.0995 33.0944 14.1951 33.0944 14.2385H33.1118ZM38.8534 15.7499L38.6015 15.5588L36.6471 14.1343C36.5645 14.0828 36.4964 14.0111 36.4492 13.926C36.402 13.8409 36.3772 13.7452 36.3772 13.6478C36.3772 13.5505 36.402 13.4548 36.4492 13.3697C36.4964 13.2846 36.5645 13.2129 36.6471 13.1614L39.5223 11.0593C39.722 10.9317 39.9541 10.8639 40.1911 10.8639C40.4281 10.8639 40.6602 10.9317 40.8599 11.0593L41.6591 11.6413C42.4669 12.232 41.9197 12.9877 41.3724 13.6999C41.1572 13.9934 40.919 14.2693 40.6601 14.5251C40.3388 14.8378 39.3138 16.08 38.8534 15.7499ZM43.9349 14.2819L41.051 16.384C40.8949 16.4862 40.7173 16.5512 40.532 16.5738C40.3467 16.5963 40.1588 16.576 39.9827 16.5143C39.3572 16.2971 40.0695 15.9323 40.3822 15.6457C40.6949 15.359 41.0336 15.1071 41.2508 14.8726C41.5258 14.604 41.7786 14.3135 42.0065 14.0039C42.7188 13.0919 42.4234 12.1972 43.2139 12.7792L43.9175 13.2917C44.0001 13.3432 44.0682 13.4149 44.1154 13.5C44.1626 13.5851 44.1874 13.6808 44.1874 13.7781C44.1874 13.8754 44.1626 13.9712 44.1154 14.0563C44.0682 14.1414 44.0001 14.213 43.9175 14.2645L43.9349 14.2819ZM35.7177 7.82807L32.8339 9.93014C32.6793 10.0357 32.502 10.1033 32.3163 10.1275C32.1307 10.1516 31.9419 10.1316 31.7655 10.0691C31.1401 9.85194 31.8437 9.48712 32.1564 9.20047C32.4691 8.91383 32.8078 8.66194 33.025 8.42742C33.2421 8.19289 33.4767 7.9323 33.7807 7.55879C34.4843 6.63806 34.189 5.75206 34.9881 6.33404L35.6917 6.83783C35.7742 6.88933 35.8423 6.96103 35.8895 7.04613C35.9367 7.13123 35.9615 7.22695 35.9615 7.32428C35.9615 7.4216 35.9367 7.5173 35.8895 7.6024C35.8423 7.6875 35.7742 7.7592 35.6917 7.8107L35.7177 7.82807Z" fill="#1B1B1B"/>
<path fill-rule="evenodd" clip-rule="evenodd" d="M22.4365 15.8976L22.1845 15.7065L20.2301 14.2819C20.1476 14.2304 20.0795 14.1587 20.0323 14.0736C19.9851 13.9885 19.9603 13.8928 19.9603 13.7955C19.9603 13.6982 19.9851 13.6024 20.0323 13.5173C20.0795 13.4322 20.1476 13.3606 20.2301 13.3091L23.114 11.207C23.312 11.0791 23.5427 11.0111 23.7785 11.0111C24.0142 11.0111 24.2449 11.0791 24.443 11.207L25.2421 11.789C26.0499 12.3796 25.5027 13.144 24.9641 13.8476C24.7423 14.152 24.5015 14.4422 24.2431 14.7162C23.9218 15.0202 22.8968 16.2624 22.4365 15.9323V15.8976ZM27.5179 14.4296L24.6427 16.5143C24.485 16.6167 24.306 16.6816 24.1193 16.7042C23.9326 16.7268 23.7432 16.7064 23.5657 16.6446C22.9402 16.4274 23.6525 16.0626 23.9652 15.7759C24.2779 15.4893 24.6167 15.2374 24.8339 15.0029C25.1089 14.7343 25.3616 14.4438 25.5896 14.1343C26.3018 13.2222 26.0065 12.3275 26.8056 12.9095L27.5005 13.422C27.5851 13.4719 27.6553 13.543 27.7041 13.6283C27.7528 13.7136 27.7784 13.8102 27.7784 13.9084C27.7784 14.0067 27.7528 14.1032 27.7041 14.1885C27.6553 14.2738 27.5851 14.345 27.5005 14.3948L27.5179 14.4296ZM30.6275 9.3134L30.3757 9.131L28.4213 7.70645C28.3387 7.65494 28.2706 7.58327 28.2234 7.49817C28.1761 7.41307 28.1514 7.31734 28.1514 7.22002C28.1514 7.1227 28.1761 7.027 28.2234 6.9419C28.2706 6.8568 28.3387 6.7851 28.4213 6.73359L31.305 4.63155C31.5014 4.49935 31.7328 4.42873 31.9695 4.42873C32.2063 4.42873 32.4377 4.49935 32.6341 4.63155L33.4332 5.21351C34.241 5.80417 33.6937 6.55989 33.1552 7.26347C32.9358 7.56977 32.6949 7.86004 32.4343 8.13209C32.1216 8.44479 31.0879 9.68691 30.6275 9.34815V9.3134ZM38.8533 15.7499L38.6015 15.5588L36.6471 14.1343C36.5645 14.0828 36.4964 14.0111 36.4492 13.926C36.4019 13.8409 36.3772 13.7452 36.3772 13.6478C36.3772 13.5505 36.4019 13.4548 36.4492 13.3697C36.4964 13.2846 36.5645 13.2129 36.6471 13.1614L39.5222 11.0593C39.7219 10.9317 39.954 10.8639 40.1911 10.8639C40.4281 10.8639 40.6601 10.9317 40.8599 11.0593L41.659 11.6413C42.4668 12.232 41.9196 12.9877 41.3724 13.6999C41.1571 13.9934 40.9189 14.2693 40.6601 14.5251C40.3387 14.8378 39.3137 16.08 38.8533 15.7499ZM43.9348 14.2819L41.051 16.384C40.8948 16.4862 40.7172 16.5512 40.532 16.5738C40.3467 16.5963 40.1587 16.576 39.9826 16.5143C39.3572 16.2971 40.0694 15.9323 40.3821 15.6457C40.6948 15.359 41.0336 15.1071 41.2508 14.8726C41.5258 14.604 41.7785 14.3135 42.0064 14.0039C42.7187 13.0919 42.4234 12.1972 43.2138 12.7792L43.9174 13.2917C44 13.3432 44.0681 13.4149 44.1153 13.5C44.1626 13.5851 44.1873 13.6808 44.1873 13.7781C44.1873 13.8754 44.1626 13.9712 44.1153 14.0563C44.0681 14.1414 44 14.213 43.9174 14.2645L43.9348 14.2819ZM35.7176 7.82807L32.8338 9.93014C32.6792 10.0357 32.5019 10.1033 32.3163 10.1275C32.1306 10.1516 31.9419 10.1316 31.7654 10.0691C31.14 9.85194 31.8436 9.48712 32.1563 9.20047C32.469 8.91383 32.8078 8.66194 33.0249 8.42742C33.2421 8.19289 33.4766 7.9323 33.7806 7.55879C34.4842 6.63806 34.1889 5.75206 34.988 6.33404L35.6916 6.83783C35.7742 6.88933 35.8423 6.96103 35.8895 7.04613C35.9367 7.13123 35.9615 7.22695 35.9615 7.32428C35.9615 7.4216 35.9367 7.5173 35.8895 7.6024C35.8423 7.6875 35.7742 7.7592 35.6916 7.8107L35.7176 7.82807Z" fill="#E07153"/>
<path d="M9.28 56V44.8H13.6C14.7093 44.8 15.6107 45.1413 16.304 45.824C17.008 46.496 17.36 47.3547 17.36 48.4C17.36 49.4453 17.008 50.3093 16.304 50.992C15.6107 51.664 14.7093 52 13.6 52H10.96V56H9.28ZM10.96 50.48H13.52C14.192 50.48 14.72 50.2933 15.104 49.92C15.488 49.5467 15.68 49.04 15.68 48.4C15.68 47.76 15.488 47.2533 15.104 46.88C14.72 46.5067 14.192 46.32 13.52 46.32H10.96V50.48ZM24.8455 54.992C24.1308 55.7707 23.1815 56.16 21.9975 56.16C20.8135 56.16 19.8642 55.7707 19.1495 54.992C18.4348 54.2133 18.0775 53.136 18.0775 51.76C18.0775 50.384 18.4348 49.3067 19.1495 48.528C19.8642 47.7493 20.8135 47.36 21.9975 47.36C23.1815 47.36 24.1308 47.7493 24.8455 48.528C25.5602 49.3067 25.9175 50.384 25.9175 51.76C25.9175 53.136 25.5602 54.2133 24.8455 54.992ZM20.2535 53.968C20.7015 54.4693 21.2828 54.72 21.9975 54.72C22.7122 54.72 23.2882 54.4693 23.7255 53.968C24.1735 53.456 24.3975 52.72 24.3975 51.76C24.3975 50.8 24.1735 50.0693 23.7255 49.568C23.2882 49.056 22.7122 48.8 21.9975 48.8C21.2828 48.8 20.7015 49.056 20.2535 49.568C19.8162 50.0693 19.5975 50.8 19.5975 51.76C19.5975 52.72 19.8162 53.456 20.2535 53.968ZM26.7225 56.16V54.64H26.9625C27.4425 54.64 27.7732 54.3787 27.9545 53.856C28.1465 53.3227 28.2425 52.3573 28.2425 50.96V47.52H34.3225V56H32.8025V48.96H29.7625V51.04C29.7625 52.8213 29.5652 54.1227 29.1705 54.944C28.7865 55.7547 28.0772 56.16 27.0425 56.16H26.7225ZM35.5194 56.16V54.64H35.7594C36.2394 54.64 36.57 54.3787 36.7514 53.856C36.9434 53.3227 37.0394 52.3573 37.0394 50.96V47.52H43.1194V56H41.5994V48.96H38.5594V51.04C38.5594 52.8213 38.362 54.1227 37.9674 54.944C37.5834 55.7547 36.874 56.16 35.8394 56.16H35.5194ZM46.7163 54.56H48.6363C49.0736 54.56 49.4096 54.448 49.6443 54.224C49.8789 54 49.9963 53.6853 49.9963 53.28C49.9963 52.8747 49.8789 52.56 49.6443 52.336C49.4096 52.112 49.0736 52 48.6363 52H46.7163V54.56ZM45.1963 56V47.52H46.7163V50.56H48.7963C49.5963 50.56 50.2469 50.816 50.7483 51.328C51.2603 51.8293 51.5163 52.48 51.5163 53.28C51.5163 54.08 51.2603 54.736 50.7483 55.248C50.2469 55.7493 49.5963 56 48.7963 56H45.1963ZM52.5563 56V47.52H54.0763V56H52.5563Z" fill="#1B1B1B"/>
</svg>
