<svg width="64" height="60" viewBox="0 0 64 60" fill="none" xmlns="http://www.w3.org/2000/svg">
<path fill-rule="evenodd" clip-rule="evenodd" d="M31.6113 13.5373C32.2222 13.5373 32.8331 13.5373 33.4246 13.5885C34.6951 12.2647 35.6662 10.6555 36.2658 8.88072C41.3664 -5.84642 52.5082 2.92437 39.9022 11.5519C38.8489 12.1373 37.9797 13.0334 37.4003 14.1309C39.4312 14.463 41.3699 15.2556 43.0828 16.4541C40.6585 17.9074 36.45 18.8694 31.6694 18.8694C26.8888 18.8694 22.6125 17.8971 20.1979 16.4234C20.5749 16.1305 20.9738 15.8704 21.3906 15.6456C21.4141 15.5422 21.457 15.4447 21.5167 15.359L23.0682 13.1791C23.2126 12.9962 23.4029 12.8599 23.6172 12.7857C23.8316 12.7115 24.0614 12.7024 24.2804 12.7595L27.1894 13.5169C27.2694 13.5351 27.3436 13.5748 27.4048 13.6322C27.4659 13.6896 27.512 13.7627 27.5385 13.8443C28.9053 13.6604 30.2818 13.5682 31.6597 13.568L31.6113 13.5373ZM47.2622 16.7509C47.2622 25.1737 40.2609 32 31.6306 32C23.0003 32 16.0088 25.1737 16.0088 16.7509C15.9696 15.9993 16.0616 15.2465 16.2804 14.5301C17.3373 11.4598 23.8052 9.07518 31.6306 9.07518C32.6585 9.07518 34.1616 9.16728 35.1313 9.24916L34.2682 10.5694C33.5603 10.5694 32.3288 10.4568 31.621 10.4568C30.9131 10.4568 30.1858 10.4568 29.4876 10.5182C22.8937 10.8764 17.8513 12.8619 17.8513 15.2669C17.8513 17.9176 24.0185 20.077 31.6306 20.077C39.2427 20.077 45.4003 17.9176 45.4003 15.2669C45.4003 13.8648 43.6743 12.5958 40.9203 11.7156L42.4815 10.8867C44.9252 11.9101 46.5737 13.1587 47.0198 14.6222C47.2184 15.3113 47.3036 16.0313 47.2718 16.7509H47.2622ZM37.061 15.5228L35.3155 17.3854C35.1216 17.5901 35.1215 18.1018 35.393 18.0507L39.1458 17.4263C39.4173 17.4263 39.2719 16.976 39.0682 16.7611L37.8367 15.4409C37.7193 15.355 37.5767 15.3161 37.4345 15.3311C37.2924 15.3461 37.16 15.4141 37.061 15.5228ZM24.2901 13.3736L26.4719 13.9467C26.8016 14.0388 26.8209 14.3868 26.6949 14.7245L25.7834 16.9965C25.6894 17.1687 25.5373 17.297 25.3575 17.3559C25.1777 17.4147 24.9834 17.3997 24.8137 17.3138L22.4476 16.1266C22.3774 16.0996 22.3142 16.0555 22.2631 15.9978C22.2121 15.9402 22.1747 15.8706 22.1539 15.7949C22.1331 15.7191 22.1295 15.6392 22.1435 15.5617C22.1575 15.4842 22.1886 15.4112 22.2343 15.3488L23.4173 13.6908C23.5255 13.5528 23.6685 13.4497 23.8298 13.3936C23.991 13.3375 24.164 13.3305 24.3288 13.3736H24.2901ZM32.1058 15.1032L33.1434 16.7509C33.3276 17.0477 33.1434 17.2114 32.7652 17.3035L30.0209 18.0404C29.8193 18.0792 29.6113 18.0496 29.4266 17.9558C29.2419 17.8621 29.0902 17.7089 28.9931 17.5185L28.4888 15.4716C28.4015 15.1339 28.4888 14.9804 28.867 14.919L31.0876 14.6017C31.2842 14.5908 31.4804 14.6319 31.6582 14.7213C31.836 14.8106 31.9899 14.9454 32.1058 15.1134V15.1032Z" fill="#E07153"/>
<path fill-rule="evenodd" clip-rule="evenodd" d="M47.2622 16.7509C47.2622 25.1737 40.2609 32 31.6306 32C23.0003 32 16.0088 25.1737 16.0088 16.7509C15.9696 15.9993 16.0616 15.2465 16.2804 14.5301C17.3373 11.4598 23.8052 9.07518 31.6306 9.07518C32.6585 9.07518 34.1616 9.16729 35.1313 9.24916L34.2682 10.5694C33.5603 10.5694 32.3288 10.4568 31.621 10.4568C30.9131 10.4568 30.1858 10.4568 29.4876 10.5182C22.8937 10.8764 17.8513 12.8619 17.8513 15.2669C17.8513 17.9176 24.0185 20.077 31.6306 20.077C39.2427 20.077 45.4003 17.9176 45.4003 15.2669C45.4003 13.8648 43.6743 12.5958 40.9203 11.7156L42.4815 10.8867C44.9252 11.9101 46.5737 13.1587 47.0198 14.6222C47.2184 15.3113 47.3036 16.0313 47.2718 16.7509H47.2622Z" fill="#1B1B1B"/>
<path d="M17.84 56.16C16.2827 56.16 15.04 55.6587 14.112 54.656C13.184 53.6533 12.72 52.2347 12.72 50.4C12.72 48.5653 13.184 47.1467 14.112 46.144C15.04 45.1413 16.2827 44.64 17.84 44.64C20.176 44.64 21.7227 45.7333 22.48 47.92H20.72C20.176 46.7467 19.216 46.16 17.84 46.16C16.8053 46.16 15.9733 46.528 15.344 47.264C14.7147 47.9893 14.4 49.0347 14.4 50.4C14.4 51.7653 14.7093 52.816 15.328 53.552C15.9573 54.2773 16.7947 54.64 17.84 54.64C19.216 54.64 20.176 54.0533 20.72 52.88H22.48C21.7227 55.0667 20.176 56.16 17.84 56.16ZM24.8944 59.2L26.1744 56L22.7344 47.52H24.3344L26.8944 54H26.9744L29.5344 47.52H31.1344L26.4944 59.2H24.8944ZM32.1806 56V47.52H39.1406V56H37.6206V48.96H33.7006V56H32.1806ZM42.7475 54.56H44.6675C45.1048 54.56 45.4408 54.448 45.6755 54.224C45.9102 54 46.0275 53.6853 46.0275 53.28C46.0275 52.8747 45.9102 52.56 45.6755 52.336C45.4408 52.112 45.1048 52 44.6675 52H42.7475V54.56ZM41.2275 56V47.52H42.7475V50.56H44.8275C45.6275 50.56 46.2782 50.816 46.7795 51.328C47.2915 51.8293 47.5475 52.48 47.5475 53.28C47.5475 54.08 47.2915 54.736 46.7795 55.248C46.2782 55.7493 45.6275 56 44.8275 56H41.2275ZM48.5875 56V47.52H50.1075V56H48.5875Z" fill="#1B1B1B"/>
</svg>
