<svg width="65" height="60" viewBox="0 0 65 60" fill="none" xmlns="http://www.w3.org/2000/svg">
<path fill-rule="evenodd" clip-rule="evenodd" d="M48 18.652C47.9169 18.5388 47.8026 18.4534 47.6714 18.4064C45.1986 17.6083 38.3509 15.3281 36.0683 16.2314C35.5821 16.5099 35.1319 16.8487 34.7282 17.24L19.4158 31.1668C19.3531 31.2389 19.313 31.3283 19.3006 31.4236C19.2883 31.5189 19.3043 31.6158 19.3467 31.7018C19.3862 31.7877 19.4482 31.8609 19.526 31.9135C19.6037 31.9661 19.6942 31.996 19.7876 32L40.1926 29.369C40.7471 29.3187 41.2932 29.1979 41.818 29.0094C44.239 27.7027 46.876 21.6513 47.9568 19.0817C47.999 18.9506 47.999 18.8093 47.9568 18.6783L48 18.652ZM30.7077 7.15441C28.9266 6.14585 27.059 6.09322 26.5403 7.04039C26.0215 7.98756 27.0504 9.56617 28.8315 10.5484C30.6126 11.5307 32.4715 11.6008 32.999 10.6624C33.5264 9.72403 32.4888 8.12788 30.7077 7.15441ZM34.9097 0.0331224C34.7778 -0.0110408 34.6353 -0.0110408 34.5034 0.0331224C32.0479 0.910128 24.9926 3.4622 23.7044 5.55825C23.4749 6.07573 23.3122 6.62104 23.2202 7.18072L19.0008 27.5887C18.9954 27.6839 19.0164 27.7788 19.0616 27.8625C19.1068 27.9462 19.1743 28.0153 19.2563 28.0619C19.3384 28.1086 19.4317 28.1309 19.5257 28.1263C19.6196 28.1217 19.7104 28.0904 19.7876 28.0359L34.685 13.653C35.1036 13.279 35.4727 12.8516 35.783 12.3814C36.9762 9.88189 35.783 3.10264 35.1173 0.383919C35.0904 0.246096 35.0169 0.122075 34.9097 0.0331224ZM32.1084 4.97945C29.1687 3.33068 25.5114 4.32168 24.6208 5.95291C23.7303 7.58414 25.3731 10.2415 28.3041 11.899C31.2352 13.5566 34.3564 13.5741 35.221 11.9516C36.0856 10.3292 35.0308 6.63699 32.0997 4.97945H32.1084ZM40.9966 21.8179C40.132 19.9324 38.6708 18.7747 37.7025 19.1869C36.7341 19.5991 36.6303 21.5285 37.4863 23.4141C38.3423 25.2997 39.8035 26.4573 40.7805 26.0013C41.7575 25.5452 41.844 23.6597 40.9966 21.7829V21.8179ZM43.1754 20.7831C41.7748 17.6873 38.2472 16.2928 36.5785 17.0646C34.9098 17.8364 34.6763 20.976 36.077 24.0806C37.4777 27.1852 39.9591 29.062 41.6278 28.2815C43.2965 27.5009 44.5675 23.8965 43.1754 20.7919V20.7831Z" fill="#1B1B1B"/>
<path fill-rule="evenodd" clip-rule="evenodd" d="M30.7077 7.15441C28.9266 6.14585 27.059 6.09322 26.5403 7.04039C26.0215 7.98756 27.0504 9.56617 28.8315 10.5484C30.6126 11.5307 32.4715 11.6008 32.999 10.6624C33.5264 9.72403 32.4888 8.12788 30.7077 7.15441ZM40.9966 21.8179C40.132 19.9324 38.6708 18.7747 37.7025 19.1869C36.7341 19.5991 36.6303 21.5285 37.4863 23.4141C38.3423 25.2997 39.8035 26.4573 40.7805 26.0013C41.7575 25.5452 41.844 23.6597 40.9966 21.7829V21.8179Z" fill="#E07153"/>
<path d="M0.08 58.32V54.48H1.04C1.41333 53.8827 1.664 53.184 1.792 52.384C1.93067 51.584 2 50.5493 2 49.28V44.8H9.36V54.48H10.72V58.32H9.2V56H1.6V58.32H0.08ZM2.72 54.48H7.68V46.32H3.68V49.28C3.68 51.6053 3.36 53.3387 2.72 54.48ZM15.765 56.16C14.549 56.16 13.5783 55.7707 12.853 54.992C12.1277 54.2133 11.765 53.136 11.765 51.76C11.765 50.384 12.1223 49.3067 12.837 48.528C13.5517 47.7493 14.501 47.36 15.685 47.36C16.8903 47.36 17.845 47.7653 18.549 48.576C19.253 49.3867 19.605 50.3147 19.605 51.36L19.525 52.24H13.349C13.3917 53.0293 13.6317 53.6427 14.069 54.08C14.5063 54.5067 15.0717 54.72 15.765 54.72C16.6397 54.72 17.3063 54.3733 17.765 53.68H19.445C19.157 54.4267 18.693 55.0293 18.053 55.488C17.413 55.936 16.6503 56.16 15.765 56.16ZM13.349 50.96H18.037C17.941 50.2773 17.685 49.7493 17.269 49.376C16.853 48.992 16.325 48.8 15.685 48.8C15.045 48.8 14.517 48.992 14.101 49.376C13.685 49.7493 13.4343 50.2773 13.349 50.96ZM24.89 56.16C23.674 56.16 22.7033 55.7707 21.978 54.992C21.2527 54.2133 20.89 53.136 20.89 51.76C20.89 50.384 21.2527 49.3067 21.978 48.528C22.7033 47.7493 23.674 47.36 24.89 47.36C25.786 47.36 26.5487 47.5947 27.178 48.064C27.8073 48.5227 28.2447 49.1413 28.49 49.92H26.89C26.474 49.1733 25.8073 48.8 24.89 48.8C24.154 48.8 23.5567 49.0613 23.098 49.584C22.6393 50.096 22.41 50.8213 22.41 51.76C22.41 52.6987 22.6393 53.4293 23.098 53.952C23.5567 54.464 24.154 54.72 24.89 54.72C25.8073 54.72 26.474 54.3467 26.89 53.6H28.49C28.2447 54.3787 27.8073 55.0027 27.178 55.472C26.5487 55.9307 25.786 56.16 24.89 56.16ZM33.6869 56.16C32.4709 56.16 31.5002 55.7707 30.7749 54.992C30.0495 54.2133 29.6869 53.136 29.6869 51.76C29.6869 50.384 30.0442 49.3067 30.7589 48.528C31.4735 47.7493 32.4229 47.36 33.6069 47.36C34.8122 47.36 35.7669 47.7653 36.4709 48.576C37.1749 49.3867 37.5269 50.3147 37.5269 51.36L37.4469 52.24H31.2709C31.3135 53.0293 31.5535 53.6427 31.9909 54.08C32.4282 54.5067 32.9935 54.72 33.6869 54.72C34.5615 54.72 35.2282 54.3733 35.6869 53.68H37.3669C37.0789 54.4267 36.6149 55.0293 35.9749 55.488C35.3349 55.936 34.5722 56.16 33.6869 56.16ZM31.2709 50.96H35.9589C35.8629 50.2773 35.6069 49.7493 35.1909 49.376C34.7749 48.992 34.2469 48.8 33.6069 48.8C32.9669 48.8 32.4389 48.992 32.0229 49.376C31.6069 49.7493 31.3562 50.2773 31.2709 50.96ZM39.2119 59.2V47.52H40.4119L40.6519 48.64H40.7319C41.3932 47.7867 42.2732 47.36 43.3719 47.36C44.4492 47.36 45.3185 47.744 45.9799 48.512C46.6412 49.28 46.9719 50.3627 46.9719 51.76C46.9719 53.1573 46.6412 54.24 45.9799 55.008C45.3185 55.776 44.4492 56.16 43.3719 56.16C42.2625 56.16 41.4092 55.76 40.8119 54.96H40.7319V59.2H39.2119ZM43.1319 54.72C43.8359 54.72 44.3959 54.4693 44.8119 53.968C45.2385 53.4667 45.4519 52.7307 45.4519 51.76C45.4519 50.7893 45.2385 50.0533 44.8119 49.552C44.3959 49.0507 43.8359 48.8 43.1319 48.8C42.4172 48.8 41.8359 49.056 41.3879 49.568C40.9505 50.0693 40.7319 50.8 40.7319 51.76C40.7319 52.72 40.9505 53.456 41.3879 53.968C41.8359 54.4693 42.4172 54.72 43.1319 54.72ZM50.2569 56V48.96H47.4569V47.52H54.5769V48.96H51.7769V56H50.2569ZM57.2944 54.56H59.2144C59.6517 54.56 59.9877 54.448 60.2224 54.224C60.457 54 60.5744 53.6853 60.5744 53.28C60.5744 52.8747 60.457 52.56 60.2224 52.336C59.9877 52.112 59.6517 52 59.2144 52H57.2944V54.56ZM55.7744 56V47.52H57.2944V50.56H59.3744C60.1744 50.56 60.825 50.816 61.3264 51.328C61.8384 51.8293 62.0944 52.48 62.0944 53.28C62.0944 54.08 61.8384 54.736 61.3264 55.248C60.825 55.7493 60.1744 56 59.3744 56H55.7744ZM63.1344 56V47.52H64.6544V56H63.1344Z" fill="#1B1B1B"/>
</svg>
