<svg width="24" height="24" viewBox="0 0 24 24" fill="none" xmlns="http://www.w3.org/2000/svg">
<path fill-rule="evenodd" clip-rule="evenodd" d="M23.25 13.989C23.1877 13.9041 23.1019 13.84 23.0036 13.8048C21.149 13.2062 16.0132 11.4961 14.3012 12.1736C13.9366 12.3824 13.5989 12.6365 13.2961 12.93L1.81188 23.3751C1.7648 23.4291 1.73473 23.4962 1.72548 23.5677C1.71624 23.6392 1.72824 23.7118 1.76 23.7763C1.78964 23.8408 1.83616 23.8957 1.89449 23.9351C1.95281 23.9746 2.02069 23.997 2.09072 24L17.3944 22.0267C17.8103 21.989 18.2199 21.8984 18.6135 21.7571C20.4292 20.777 22.407 16.2385 23.2176 14.3113C23.2493 14.213 23.2493 14.107 23.2176 14.0087L23.25 13.989ZM10.2808 5.3658C8.94495 4.60939 7.54427 4.56992 7.1552 5.28029C6.76612 5.99067 7.5378 7.17463 8.87363 7.91131C10.2095 8.648 11.6037 8.70062 11.9992 7.99682C12.3948 7.29303 11.6166 6.09591 10.2808 5.3658ZM13.4323 0.0248418C13.3333 -0.0082806 13.2265 -0.0082806 13.1275 0.0248418C11.2859 0.682596 5.99447 2.59665 5.02827 4.16869C4.85619 4.55679 4.73414 4.96578 4.66513 5.38554L1.50064 20.6915C1.49654 20.7629 1.51231 20.8341 1.54619 20.8969C1.58007 20.9596 1.63069 21.0115 1.69224 21.0464C1.75378 21.0814 1.82378 21.0982 1.89425 21.0947C1.96472 21.0913 2.03278 21.0678 2.09072 21.0269L13.2637 10.2398C13.5777 9.95926 13.8545 9.63867 14.0872 9.28602C14.9821 7.41142 14.0873 2.32698 13.588 0.28794C13.5678 0.184572 13.5127 0.0915565 13.4323 0.0248418ZM11.3313 3.73459C9.12652 2.49801 6.38355 3.24126 5.71563 4.46468C5.04772 5.68811 6.2798 7.6811 8.47808 8.92426C10.6764 10.1674 13.0173 10.1806 13.6658 8.96372C14.3142 7.74688 13.5231 4.97774 11.3248 3.73459H11.3313ZM17.9975 16.3635C17.349 14.9493 16.2531 14.0811 15.5268 14.3902C14.8006 14.6993 14.7228 16.1464 15.3647 17.5606C16.0067 18.9747 17.1026 19.843 17.8354 19.5009C18.5681 19.1589 18.633 17.7447 17.9975 16.3371V16.3635ZM19.6316 15.5873C18.5811 13.2654 15.9354 12.2196 14.6839 12.7984C13.4323 13.3773 13.2572 15.732 14.3077 18.0605C15.3582 20.3889 17.2193 21.7965 18.4708 21.2111C19.7224 20.6257 20.6756 17.9223 19.6316 15.5939V15.5873Z" fill="#1B1B1B"/>
<path fill-rule="evenodd" clip-rule="evenodd" d="M10.2808 5.3658C8.94495 4.60939 7.54427 4.56992 7.1552 5.28029C6.76612 5.99067 7.5378 7.17463 8.87363 7.91131C10.2095 8.648 11.6037 8.70062 11.9992 7.99682C12.3948 7.29303 11.6166 6.09591 10.2808 5.3658ZM17.9975 16.3635C17.349 14.9493 16.2531 14.0811 15.5268 14.3902C14.8006 14.6993 14.7228 16.1464 15.3647 17.5606C16.0067 18.9747 17.1026 19.843 17.8354 19.5009C18.5681 19.1589 18.633 17.7447 17.9975 16.3371V16.3635Z" fill="#E07153"/>
</svg>
