<svg width="24" height="24" viewBox="0 0 24 24" fill="none" xmlns="http://www.w3.org/2000/svg">
<path fill-rule="evenodd" clip-rule="evenodd" d="M21.3304 15.1806C21.0605 16.1169 20.619 16.9956 20.0282 17.7722H13.8752L13.8166 18.1545C13.8166 18.31 13.771 18.4655 13.758 18.6145C13.745 18.7635 13.758 18.9255 13.758 19.0745C13.7552 19.8413 13.9127 20.6003 14.2203 21.3033C13.5549 21.4289 12.8791 21.4918 12.2018 21.4912C10.5723 21.5243 8.96103 21.1459 7.51838 20.3913C6.07573 19.6367 4.84881 18.5305 3.95225 17.1761C3.72629 17.1227 3.50766 17.0422 3.30114 16.9364C2.32447 16.4505 2.10308 13.8394 1.57568 12.8222C1.12955 12.1145 0.600635 11.4621 0 10.8784L2.80629 10.6322L4.89637 11.9604L5.03308 11.8114C5.02987 11.764 5.02987 11.7164 5.03308 11.6689L4.44058 6.75772C3.99783 3.07111 7.49429 0 11.2317 0H13.3022C17.0331 0 20.536 3.07111 20.0933 6.75772L19.5008 11.6689C19.5008 11.7466 19.5008 11.8179 19.5008 11.8892C20.3775 12.8191 21.0201 13.9427 21.376 15.1676L21.3304 15.1806ZM23.9349 18.757C23.9765 19.0098 23.9982 19.2654 23.9999 19.5216C23.9548 20.7245 23.4429 21.8631 22.5717 22.6983C21.7005 23.5334 20.5379 24 19.3282 24C18.1186 24 16.956 23.5334 16.0848 22.6983C15.2136 21.8631 14.7017 20.7245 14.6565 19.5216C14.6583 19.2654 14.68 19.0098 14.7216 18.757H23.9349ZM12.7227 8.39045C15.3271 8.6237 17.4433 8.86343 17.4433 9.40768C17.4433 9.95192 15.0927 10.4379 12.1888 10.4379C9.28483 10.4379 6.92783 9.9584 6.92783 9.40768C6.92783 8.85695 9.04394 8.6237 11.6484 8.39045C11.8112 8.39045 11.3228 6.98448 11.3228 6.66053C11.3228 5.70162 11.7135 4.92413 12.1888 4.92413C12.6641 4.92413 13.0483 5.70162 13.0483 6.66053C13.0483 6.98448 12.5599 8.37749 12.7227 8.39045ZM5.85348 11.0145C6.05533 10.8525 6.26368 10.697 6.50459 10.548C7.38359 10.9886 9.57133 11.2996 12.1237 11.2996C14.676 11.2996 17.0005 10.9627 17.8209 10.5026C18.0944 10.6841 18.3548 10.8784 18.6022 11.0793L19.071 7.19182C19.4552 3.95226 16.4015 1.29582 13.1459 1.29582H11.3358C8.08027 1.29582 5.02658 3.9717 5.41073 7.19182L5.87303 11.0015L5.85348 11.0145Z" fill="#1B1B1B"/>
<path fill-rule="evenodd" clip-rule="evenodd" d="M23.9349 18.757C23.9765 19.0098 23.9982 19.2654 24 19.5216C23.9548 20.7245 23.4429 21.8631 22.5717 22.6983C21.7005 23.5334 20.5379 24 19.3282 24C18.1186 24 16.956 23.5334 16.0848 22.6983C15.2136 21.8631 14.7017 20.7245 14.6565 19.5216C14.6583 19.2654 14.68 19.0098 14.7216 18.757H23.9349Z" fill="#E07153"/>
</svg>
