<svg width="24" height="24" viewBox="0 0 24 24" fill="none" xmlns="http://www.w3.org/2000/svg">
<path fill-rule="evenodd" clip-rule="evenodd" d="M4.29448 0.0756901C3.76332 0.307022 3.63787 1.01313 4.05399 1.4293C4.39551 1.77077 4.88313 1.77077 5.22465 1.4293C5.87806 0.775845 5.14294 -0.293893 4.29448 0.0756901ZM9.76979 1.33922C9.23863 1.57055 9.11317 2.27666 9.5293 2.69283C9.87082 3.0343 10.3584 3.0343 10.7 2.69283C11.3534 2.03938 10.6182 0.969639 9.76979 1.33922ZM15.6952 1.34701C14.7612 1.54765 13.8627 2.24939 13.4387 3.10959C13.1625 3.66965 13.0649 4.13179 13.0638 4.88464L13.0629 5.47692L14.0763 5.47603C15.2788 5.47492 15.6391 5.41343 16.2726 5.10113C17.1361 4.67542 17.8419 3.7631 18.0385 2.81824C18.0807 2.61555 18.1156 2.18321 18.1161 1.85743L18.117 1.26515L17.0772 1.26931C16.4012 1.27204 15.9177 1.29921 15.6952 1.34701ZM2.00696 4.16127C1.23547 4.25409 0.680991 4.49158 0.310197 4.88801C0.0306407 5.18684 -0.0202692 5.32646 0.0294298 5.65792C0.146043 6.43547 2.26604 9.74345 3.92006 11.7288L4.32581 12.2158H4.69413H5.0625L5.03012 12.071C4.5056 9.72408 3.53489 7.91007 1.942 6.29996L1.42811 5.78049L1.69961 5.46702L1.97116 5.15362L2.46715 5.64429C3.06133 6.2322 3.70399 7.01448 4.12448 7.66178C4.73024 8.59416 5.34643 9.93356 5.59055 10.8485C5.65599 11.0937 5.7268 11.3144 5.74786 11.3388C5.80388 11.4036 6.08996 10.6271 6.20089 10.109C6.33398 9.4878 6.33398 8.15261 6.20089 7.53016C6.08217 6.97463 5.81957 6.26642 5.5826 5.86251C5.48368 5.69388 5.21007 5.3602 4.97458 5.12098C4.63527 4.77635 4.46595 4.64926 4.15855 4.50858C3.48835 4.20191 2.71154 4.07651 2.00696 4.16127ZM7.38777 5.15546C7.09452 5.25675 6.79438 5.46997 6.62422 5.69788C6.52319 5.83319 6.52335 5.8354 6.65997 6.17687C7.17544 7.46535 7.29727 9.02782 6.98717 10.3731C6.9171 10.6771 6.84245 10.9733 6.82134 11.0312C6.6834 11.4093 7.35907 10.4018 7.66875 9.76767C7.96873 9.15333 8.23633 8.32598 8.35442 7.64799L8.44845 7.10767L8.61029 7.13236C8.69931 7.14589 8.88647 7.17158 9.0262 7.18948L9.28022 7.22191L9.2469 7.44187C8.98687 9.15559 8.32662 10.6541 7.29674 11.8681L7.00186 12.2158H7.98526H8.96866L8.93312 12.0973C8.91359 12.0321 8.88484 11.7775 8.86931 11.5313C8.78729 10.2331 9.53772 8.94179 10.7016 8.37842C10.9477 8.25938 11.1887 8.16193 11.2372 8.16193C11.4996 8.16193 11.1452 7.15189 10.6623 6.52355C9.82691 5.4366 8.35468 4.82147 7.38777 5.15546ZM19.1158 5.76032C18.4678 6.00987 17.9939 6.38166 17.6992 6.87176C17.5416 7.13394 17.5156 7.22776 17.4958 7.60318C17.4764 7.97271 17.5018 8.1494 17.6746 8.84808C18.0021 10.1721 17.9356 10.6193 17.3584 10.976C17.1267 11.1192 17.0585 11.1351 16.7003 11.1301C16.4805 11.1271 16.1551 11.0858 15.9772 11.0384C15.7993 10.991 15.6334 10.9522 15.6087 10.9522C15.5839 10.9522 15.5636 11.1477 15.5636 11.3866C15.5636 11.6254 15.5473 11.9101 15.5273 12.0192L15.491 12.2176L16.8401 12.2035L18.1894 12.1894L18.3588 11.3471C18.452 10.8838 18.591 10.256 18.6676 9.95193C18.8487 9.2333 19.3237 7.62219 19.3824 7.52711C19.4206 7.46535 19.4888 7.4743 19.7991 7.58192C20.0032 7.65267 20.1702 7.73154 20.1702 7.75707C20.1702 7.78266 20.0764 8.10333 19.9616 8.46976C19.6178 9.56787 19.0646 11.8291 19.0646 12.1365C19.0646 12.2058 19.3275 12.2158 21.1442 12.2158C22.288 12.2158 23.2238 12.1955 23.2238 12.1707C23.2238 12.146 23.0937 12.0027 22.9347 11.8523C22.5084 11.4492 22.1039 11.2795 21.3636 11.1935C20.7157 11.1181 20.4984 11.0337 20.3133 10.7853C20.1821 10.6093 20.1772 10.2982 20.3019 10.0572C20.3532 9.95794 20.5081 9.72934 20.6462 9.54929C21.0678 8.99923 21.1382 8.74942 21.1415 7.7934C21.1445 6.90156 21.0851 6.61142 20.8164 6.20551C20.5914 5.86535 20.2869 5.72184 19.7527 5.70394C19.4641 5.69425 19.2346 5.71457 19.1158 5.76032ZM11.4279 8.97533C11.0645 9.10921 10.7811 9.28005 10.5201 9.52249C10.2817 9.74387 9.95669 10.1773 9.95669 10.2738C9.95669 10.2948 10.1107 10.3631 10.2989 10.4258C10.4871 10.4884 10.6411 10.5529 10.6411 10.5692C10.6411 10.7119 10.4114 11.3208 10.3575 11.3208C10.3199 11.3208 10.1516 11.2735 9.98375 11.2157L9.67844 11.1107L9.7074 11.5185C9.72335 11.7427 9.76168 11.9914 9.79258 12.071L9.84876 12.2158H12.2205H14.5923L14.637 12.0973C14.6616 12.0321 14.6986 11.8788 14.719 11.7564L14.7564 11.534L14.4542 11.638C14.288 11.6951 14.1248 11.7419 14.0916 11.7419C14.0434 11.7419 13.7999 11.1163 13.7999 10.9923C13.7999 10.975 13.9904 10.8975 14.2231 10.82C14.7053 10.6594 14.6987 10.682 14.4195 10.1514C14.1291 9.59951 13.3939 9.03603 12.8128 8.92L12.6417 8.88583V9.28726V9.6887H12.2205H11.7993V9.29384C11.7993 8.85356 11.7871 8.84303 11.4279 8.97533ZM1.42784 10.604C0.393696 11.0364 0.0105294 11.4109 0.00752853 11.992L0.00637032 12.2158H1.61658H3.2268L3.00468 11.9394C2.88249 11.7874 2.58145 11.3965 2.33564 11.0707C2.08009 10.732 1.85213 10.4794 1.80311 10.4806C1.75594 10.4819 1.5871 10.5374 1.42784 10.604ZM12.6417 10.9522V11.3734H12.2205H11.7993V10.9522V10.5311H12.2205H12.6417V10.9522ZM0.0345366 13.4398C0.293403 16.3001 1.40736 18.7272 3.35099 20.6656C5.25914 22.5686 7.69307 23.7067 10.3959 23.9597C11.2389 24.0386 13.2064 23.9957 13.9148 23.8829C18.4804 23.1562 22.1327 19.8282 23.2476 15.3787C23.3758 14.8668 23.5075 14.0584 23.5676 13.4135L23.6007 13.0581H11.8003H0L0.0345366 13.4398ZM3.31367 17.6773C4.19077 18.9312 5.46057 20.071 6.79786 20.805C7.07294 20.956 7.30832 21.0875 7.32091 21.0972C7.33349 21.107 7.26341 21.2811 7.16523 21.4841C7.03335 21.7567 6.96548 21.8452 6.90541 21.8231C6.86077 21.8066 6.57274 21.6497 6.26538 21.4746C4.81095 20.6455 3.42186 19.3539 2.48289 17.9574L2.16896 17.4905L2.52227 17.2769C2.84748 17.0803 2.88101 17.0705 2.94298 17.1534C2.98004 17.203 3.14683 17.4387 3.31367 17.6773ZM8.8511 21.9028V22.324H8.42992H8.00874V21.9028V21.4817H8.42992H8.8511V21.9028Z" fill="#E07153"/>
<path fill-rule="evenodd" clip-rule="evenodd" d="M0.0345366 13.4398C0.293403 16.3001 1.40736 18.7272 3.35099 20.6656C5.25914 22.5686 7.69307 23.7067 10.3959 23.9597C11.2389 24.0386 13.2064 23.9957 13.9148 23.8829C18.4804 23.1562 22.1327 19.8282 23.2476 15.3787C23.3758 14.8668 23.5075 14.0584 23.5676 13.4135L23.6007 13.0581H11.8003H0L0.0345366 13.4398ZM3.31367 17.6773C4.19077 18.9312 5.46057 20.071 6.79786 20.805C7.07294 20.956 7.30832 21.0875 7.32091 21.0972C7.33349 21.107 7.26341 21.2811 7.16523 21.4841C7.03335 21.7567 6.96548 21.8452 6.90541 21.8231C6.86077 21.8065 6.57274 21.6497 6.26538 21.4745C4.81095 20.6455 3.42186 19.3539 2.48289 17.9574L2.16896 17.4905L2.52227 17.2769C2.84748 17.0803 2.88101 17.0705 2.94298 17.1534C2.98004 17.203 3.14683 17.4387 3.31367 17.6773ZM8.8511 21.9028V22.324H8.42992H8.00874V21.9028V21.4817H8.42992H8.8511V21.9028Z" fill="#1B1B1B"/>
</svg>
