<svg width="24" height="24" viewBox="0 0 24 24" fill="none" xmlns="http://www.w3.org/2000/svg">
<path fill-rule="evenodd" clip-rule="evenodd" d="M23.0945 18.3987L19.0228 21.3694C18.7044 21.5782 18.3319 21.6894 17.9511 21.6894C17.5704 21.6894 17.1979 21.5782 16.8795 21.3694L12.8078 18.3987C12.6699 18.3009 12.5579 18.1708 12.4819 18.0198C12.4058 17.8687 12.3678 17.7014 12.3713 17.5323V17.2847C12.2183 17.325 12.0605 17.3448 11.9023 17.3433C11.6798 17.3445 11.459 17.3047 11.2508 17.2261V17.6756C11.2458 17.8392 11.2033 17.9996 11.1264 18.1441C11.0496 18.2887 10.9406 18.4137 10.8078 18.5095L6.71661 21.5062C6.39749 21.7164 6.02381 21.8284 5.64171 21.8284C5.25962 21.8284 4.88589 21.7164 4.56678 21.5062L0.501641 18.5355C0.362067 18.4389 0.248589 18.3092 0.171296 18.158C0.094003 18.0068 0.0552997 17.8388 0.0586496 17.6691V11.0307C0.0197721 10.9197 -6.91475e-05 10.803 1.81056e-07 10.6854C0.0061651 10.5023 0.0561064 10.3233 0.145649 10.1635C0.235193 10.0037 0.361756 9.86768 0.514683 9.76682L4.58634 6.80264C4.95483 6.54596 5.39464 6.41151 5.84366 6.41828C6.05865 6.41828 5.96092 6.36616 6.16288 6.41828V5.76681C6.16922 5.58302 6.21992 5.40349 6.31067 5.24354C6.40142 5.08359 6.52952 4.94797 6.68404 4.84824L10.7492 1.87756C11.1235 1.63126 11.5617 1.5 12.0098 1.5C12.4578 1.5 12.8961 1.63126 13.2703 1.87756L17.3355 4.84824C17.4893 4.94877 17.6168 5.08458 17.7074 5.24436C17.7981 5.40413 17.8493 5.58326 17.8567 5.76681V6.32056C18.0261 6.28147 17.974 6.32056 18.1499 6.32056C18.5978 6.3149 19.0366 6.44677 19.4072 6.6984L23.4788 9.66908C23.6326 9.76961 23.7601 9.90542 23.8508 10.0652C23.9414 10.225 23.9926 10.4041 24 10.5877C23.9985 10.7314 23.9674 10.8733 23.9088 11.0046L23.5374 17.5974C23.5324 17.7611 23.4899 17.9214 23.4131 18.066C23.3363 18.2106 23.2273 18.3355 23.0945 18.4313V18.3987ZM0.527686 10.7896C0.599709 10.8942 0.690251 10.9847 0.794809 11.0567L4.86647 14.0274C5.17762 14.2545 5.55286 14.3769 5.9381 14.3769C6.32334 14.3769 6.69862 14.2545 7.00977 14.0274L11.0293 11.0958C11.1123 10.9749 11.1577 10.8321 11.1596 10.6854C11.1557 10.5555 11.1205 10.4284 11.057 10.315C10.9935 10.2015 10.9035 10.1051 10.7948 10.0339L6.72313 7.06322C6.4628 6.88414 6.15308 6.79078 5.83714 6.79614C5.52145 6.79249 5.21224 6.8857 4.95116 7.06322L0.886023 10.0339C0.776107 10.1039 0.68523 10.2 0.621564 10.3137C0.557899 10.4274 0.523433 10.5551 0.521204 10.6854C0.517965 10.7201 0.517965 10.7549 0.521204 10.7896H0.527686ZM4.82738 11.9232L4.63843 11.7798L3.17263 10.7114C3.1107 10.6728 3.05965 10.6191 3.02424 10.5552C2.98883 10.4914 2.97024 10.4196 2.97024 10.3466C2.97024 10.2736 2.98883 10.2018 3.02424 10.138C3.05965 10.0742 3.1107 10.0204 3.17263 9.98179L5.3355 8.40526C5.48402 8.30933 5.65708 8.2583 5.83388 8.2583C6.01069 8.2583 6.18374 8.30933 6.33226 8.40526L6.9316 8.84173C7.53746 9.28473 7.12704 9.85801 6.72313 10.3857C6.5568 10.614 6.37618 10.8316 6.1824 11.0372C5.94136 11.2652 5.17266 12.1968 4.82738 11.9492V11.9232ZM8.63844 10.8222L6.48209 12.3857C6.36379 12.4625 6.22953 12.5112 6.08951 12.5282C5.9495 12.5451 5.80747 12.5298 5.67428 12.4834C5.20522 12.3206 5.73944 12.0469 5.97397 11.832C6.20849 11.617 6.46256 11.4281 6.62543 11.2522C6.83171 11.0507 7.02126 10.8329 7.1922 10.6007C7.7264 9.91666 7.50488 9.24564 8.10423 9.68213L8.62539 10.0665C8.68888 10.1039 8.74152 10.1572 8.77808 10.2212C8.81464 10.2852 8.83387 10.3576 8.83387 10.4313C8.83387 10.505 8.81464 10.5774 8.77808 10.6414C8.74152 10.7054 8.68888 10.7587 8.62539 10.7961L8.63844 10.8222ZM12.8664 9.36942L16.9381 6.39873C17.0516 6.33202 17.1457 6.23681 17.2111 6.12255C17.2764 6.00828 17.3108 5.87892 17.3108 5.74727C17.3108 5.61562 17.2764 5.48626 17.2111 5.37199C17.1457 5.25773 17.0516 5.16252 16.9381 5.0958L12.8664 2.12512C12.6061 1.94604 12.2964 1.85267 11.9805 1.85802C11.6648 1.85437 11.3556 1.9476 11.0945 2.12512L7.02934 5.0958C6.91585 5.16252 6.82174 5.25773 6.75637 5.37199C6.69099 5.48626 6.6566 5.61562 6.6566 5.74727C6.6566 5.87892 6.69099 6.00828 6.75637 6.12255C6.82174 6.23681 6.91585 6.33202 7.02934 6.39873L11.0945 9.36942C11.3556 9.54694 11.6648 9.64016 11.9805 9.63652C12.2964 9.64187 12.6061 9.5485 12.8664 9.36942ZM10.9707 6.98505L10.7818 6.84825L9.31599 5.77983C9.25405 5.74121 9.20297 5.68745 9.16755 5.62363C9.13214 5.5598 9.11356 5.48801 9.11356 5.41502C9.11356 5.34202 9.13214 5.27025 9.16755 5.20642C9.20297 5.1426 9.25405 5.08882 9.31599 5.0502L11.4788 3.47366C11.6261 3.37452 11.7996 3.32155 11.9772 3.32155C12.1548 3.32155 12.3283 3.37452 12.4756 3.47366L13.0749 3.91013C13.6808 4.35313 13.2703 4.91991 12.8664 5.4476C12.7019 5.67732 12.5212 5.89503 12.3258 6.09907C12.0912 6.33359 11.316 7.26518 10.9707 7.01111V6.98505ZM12.8339 10.6789C12.91 10.7821 13.0024 10.8723 13.1075 10.946L17.1727 13.9167C17.4838 14.1438 17.8591 14.2662 18.2443 14.2662C18.6295 14.2662 19.0048 14.1438 19.316 13.9167L23.3355 10.9851C23.4185 10.8641 23.4638 10.7213 23.4658 10.5746C23.4619 10.4447 23.4267 10.3176 23.3632 10.2042C23.2997 10.0908 23.2097 9.99439 23.101 9.92316L19.0293 6.95248C18.7667 6.77824 18.4585 6.6853 18.1433 6.6853C17.8282 6.6853 17.5199 6.77824 17.2573 6.95248L13.1857 9.92316C13.0769 9.99439 12.987 10.0908 12.9235 10.2042C12.8599 10.3176 12.8247 10.4447 12.8208 10.5746C12.8208 10.5746 12.8208 10.6463 12.8208 10.6789H12.8339ZM17.1401 11.8124L16.9511 11.6691L15.4853 10.6007C15.4234 10.5621 15.3723 10.5083 15.3369 10.4445C15.3015 10.3806 15.2829 10.3089 15.2829 10.2359C15.2829 10.1629 15.3015 10.0911 15.3369 10.0273C15.3723 9.96344 15.4234 9.90969 15.4853 9.87106L17.6417 8.2945C17.7915 8.19878 17.9656 8.14792 18.1433 8.14792C18.3211 8.14792 18.4951 8.19878 18.6449 8.2945L19.2443 8.73099C19.8502 9.17399 19.4397 9.74076 19.0293 10.275C18.8679 10.495 18.6892 10.702 18.4951 10.8938C18.2541 11.1284 17.4853 12.06 17.1401 11.8124ZM20.9511 10.7114L18.7883 12.288C18.6712 12.3647 18.538 12.4134 18.399 12.4303C18.2601 12.4473 18.1191 12.432 17.987 12.3857C17.5179 12.2228 18.0521 11.9492 18.2866 11.7342C18.5212 11.5193 18.7752 11.3303 18.9381 11.1544C19.1444 10.953 19.3339 10.7351 19.5049 10.503C20.0391 9.81892 19.8176 9.14793 20.4104 9.58441L20.9381 9.96877C21 10.0074 21.0511 10.0612 21.0865 10.125C21.122 10.1888 21.1405 10.2606 21.1405 10.3336C21.1405 10.4066 21.122 10.4784 21.0865 10.5422C21.0511 10.606 21 10.6598 20.9381 10.6984L20.9511 10.7114ZM14.7883 5.87105L12.6254 7.4476C12.5094 7.52678 12.3765 7.57749 12.2372 7.5956C12.098 7.61371 11.9565 7.5987 11.8241 7.55182C11.3551 7.38895 11.8828 7.11534 12.1173 6.90036C12.3518 6.68537 12.6059 6.49646 12.7687 6.32056C12.9316 6.14467 13.1075 5.94923 13.3355 5.6691C13.8632 4.97854 13.6417 4.31405 14.2411 4.75053L14.7687 5.12837C14.8307 5.167 14.8817 5.22077 14.9171 5.28459C14.9526 5.34842 14.9711 5.42022 14.9711 5.49321C14.9711 5.5662 14.9526 5.63798 14.9171 5.7018C14.8817 5.76563 14.8307 5.8194 14.7687 5.85803L14.7883 5.87105Z" fill="#1B1B1B"/>
<path fill-rule="evenodd" clip-rule="evenodd" d="M4.82734 11.9232L4.63839 11.7798L3.17259 10.7114C3.11066 10.6728 3.05962 10.6191 3.0242 10.5552C2.98879 10.4914 2.9702 10.4196 2.9702 10.3466C2.9702 10.2736 2.98879 10.2018 3.0242 10.138C3.05962 10.0742 3.11066 10.0204 3.17259 9.98179L5.33546 8.40526C5.48398 8.30933 5.65704 8.2583 5.83384 8.2583C6.01065 8.2583 6.18371 8.30933 6.33222 8.40526L6.93156 8.84173C7.53742 9.28473 7.127 9.85801 6.72309 10.3857C6.55676 10.614 6.37615 10.8316 6.18236 11.0372C5.94132 11.2652 5.17262 12.1968 4.82734 11.9492V11.9232ZM8.6384 10.8222L6.48205 12.3857C6.36376 12.4625 6.22949 12.5112 6.08948 12.5282C5.94947 12.5451 5.80743 12.5298 5.67424 12.4834C5.20518 12.3206 5.7394 12.0469 5.97393 11.832C6.20845 11.617 6.46253 11.4281 6.62539 11.2522C6.83167 11.0507 7.02122 10.8329 7.19216 10.6007C7.72637 9.91666 7.50484 9.24564 8.10419 9.68213L8.62536 10.0665C8.68884 10.1039 8.74148 10.1572 8.77804 10.2212C8.8146 10.2852 8.83383 10.3576 8.83383 10.4313C8.83383 10.505 8.8146 10.5774 8.77804 10.6414C8.74148 10.7054 8.68884 10.7587 8.62536 10.7961L8.6384 10.8222ZM10.9707 6.98505L10.7817 6.84825L9.31595 5.77983C9.25401 5.74121 9.20293 5.68745 9.16751 5.62363C9.1321 5.5598 9.11352 5.48801 9.11352 5.41502C9.11352 5.34202 9.1321 5.27025 9.16751 5.20642C9.20293 5.1426 9.25401 5.08882 9.31595 5.0502L11.4788 3.47366C11.6261 3.37452 11.7996 3.32155 11.9772 3.32155C12.1547 3.32155 12.3282 3.37452 12.4755 3.47366L13.0749 3.91013C13.6807 4.35313 13.2703 4.91991 12.8664 5.4476C12.7019 5.67732 12.5212 5.89503 12.3257 6.09907C12.0912 6.33359 11.3159 7.26518 10.9707 7.01111V6.98505ZM17.14 11.8124L16.9511 11.6691L15.4853 10.6007C15.4234 10.5621 15.3723 10.5083 15.3369 10.4445C15.3015 10.3806 15.2829 10.3089 15.2829 10.2359C15.2829 10.1629 15.3015 10.0911 15.3369 10.0273C15.3723 9.96344 15.4234 9.90969 15.4853 9.87106L17.6417 8.2945C17.7915 8.19878 17.9655 8.14792 18.1433 8.14792C18.3211 8.14792 18.4951 8.19878 18.6449 8.2945L19.2443 8.73099C19.8501 9.17399 19.4397 9.74076 19.0293 10.275C18.8678 10.495 18.6892 10.702 18.4951 10.8938C18.254 11.1284 17.4853 12.06 17.14 11.8124ZM20.9511 10.7114L18.7882 12.288C18.6711 12.3647 18.5379 12.4134 18.399 12.4303C18.26 12.4473 18.1191 12.432 17.9869 12.3857C17.5179 12.2228 18.0521 11.9492 18.2866 11.7342C18.5211 11.5193 18.7752 11.3303 18.9381 11.1544C19.1443 10.953 19.3339 10.7351 19.5048 10.503C20.039 9.81892 19.8175 9.14793 20.4104 9.58441L20.9381 9.96877C21 10.0074 21.0511 10.0612 21.0865 10.125C21.1219 10.1888 21.1405 10.2606 21.1405 10.3336C21.1405 10.4066 21.1219 10.4784 21.0865 10.5422C21.0511 10.606 21 10.6598 20.9381 10.6984L20.9511 10.7114ZM14.7882 5.87105L12.6254 7.4476C12.5094 7.52678 12.3764 7.57749 12.2372 7.5956C12.098 7.61371 11.9564 7.5987 11.8241 7.55182C11.355 7.38895 11.8827 7.11534 12.1172 6.90036C12.3518 6.68537 12.6058 6.49646 12.7687 6.32056C12.9316 6.14467 13.1075 5.94923 13.3355 5.6691C13.8632 4.97854 13.6417 4.31405 14.241 4.75053L14.7687 5.12837C14.8306 5.167 14.8817 5.22077 14.9171 5.28459C14.9525 5.34842 14.9711 5.42022 14.9711 5.49321C14.9711 5.5662 14.9525 5.63798 14.9171 5.7018C14.8817 5.76563 14.8306 5.8194 14.7687 5.85803L14.7882 5.87105Z" fill="#E07153"/>
</svg>
