<svg width="24" height="25" viewBox="0 0 24 25" fill="none" xmlns="http://www.w3.org/2000/svg">
<path fill-rule="evenodd" clip-rule="evenodd" d="M8.07881 0.0667551C7.44103 0.207146 6.96548 0.477286 6.52261 0.950677C5.69648 1.83385 5.5057 3.14785 6.04345 4.25129L6.18623 4.54425L7.55442 4.54055L8.92256 4.53685L8.49745 4.42866C7.95248 4.28996 7.73705 4.17774 7.50112 3.90966C7.02033 3.36347 7.03359 2.47946 7.53112 1.91279C7.74117 1.67358 8.17537 1.45613 8.51358 1.42079C9.03609 1.36618 9.5512 1.57955 9.8317 1.96679C10.0832 2.31394 10.3494 3.14757 10.4902 4.02863L10.5688 4.52082L11.2644 4.53385L11.96 4.54683L11.9307 4.19996C11.8676 3.4546 11.5174 2.13404 11.233 1.56933C10.6465 0.405052 9.34927 -0.212948 8.07881 0.0667551ZM14.6648 0.0702707C14.1858 0.173161 13.6211 0.476771 13.2864 0.811458C12.711 1.3869 12.2709 2.53004 12.0637 3.98724C12.0257 4.25494 11.9942 4.48978 11.9937 4.5091C11.9932 4.52841 12.3089 4.54425 12.6951 4.54425C13.3862 4.54425 13.3977 4.54257 13.4174 4.43879C13.4284 4.3808 13.4701 4.13293 13.5101 3.888C13.6562 2.99302 13.9854 2.09265 14.2711 1.8068C14.6591 1.41863 15.4078 1.30304 15.9344 1.54993C16.8465 1.97752 17.1123 3.1711 16.464 3.9285C16.2524 4.17582 16.0268 4.29146 15.4883 4.42903L15.0632 4.5376L16.4226 4.52921L17.7819 4.52082L17.9336 4.21613C18.1702 3.74058 18.242 3.38438 18.2167 2.81044C18.2003 2.43938 18.1644 2.23116 18.0714 1.96721C17.5833 0.581583 16.1083 -0.23976 14.6648 0.0702707ZM0.316218 6.05691C0.00923331 6.26199 -0.0112042 6.35958 0.00337395 7.55264C0.0175771 8.72044 0.020624 8.73333 0.339046 8.97103L0.468515 9.06769H11.9929H23.5172L23.6467 8.97103C23.9651 8.73333 23.9682 8.72044 23.9824 7.55264C23.997 6.35958 23.9765 6.26199 23.6695 6.05691L23.5103 5.9505H11.9929H0.475499L0.316218 6.05691ZM1.16475 16.2841C1.16475 20.3587 1.18022 22.1444 1.21701 22.3193C1.38586 23.1222 2.03545 23.7714 2.84283 23.9442C4.26257 24.248 20.7869 24.02 21.1429 23.9451C21.9384 23.7775 22.6027 23.1134 22.769 22.3193C22.8055 22.1451 22.821 20.3426 22.821 16.2841V10.4974H11.9929H1.16475V16.2841ZM8.80012 13.0784C9.55842 13.2532 10.2215 13.9162 10.3963 14.6745C10.6636 15.8339 9.86733 17.004 8.67155 17.209C7.78992 17.3602 6.87464 16.896 6.47119 16.0931C6.04448 15.2441 6.1905 14.3307 6.85987 13.6613C7.38797 13.1332 8.10441 12.918 8.80012 13.0784ZM14.1943 13.3685C14.5171 13.534 14.6728 13.9643 14.5177 14.2622C14.348 14.588 10.6986 20.8955 10.6373 20.969C10.5965 21.0179 10.4725 21.0984 10.3617 21.148C9.77855 21.4089 9.19491 20.7636 9.49195 20.1864C9.77077 19.6447 13.2944 13.5894 13.3919 13.4844C13.6054 13.2546 13.8915 13.2132 14.1943 13.3685ZM8.00775 14.5204C7.82334 14.6169 7.6335 14.938 7.6335 15.1533C7.6335 15.4831 8.00808 15.8411 8.35331 15.8411C8.57559 15.8411 8.84208 15.6698 8.95055 15.4572C9.26316 14.8445 8.61642 14.2018 8.00775 14.5204ZM16.1528 17.3139C16.9856 17.5357 17.5771 18.1867 17.7238 19.043C17.8723 19.9097 17.37 20.8611 16.565 21.2377C15.7156 21.6352 14.8174 21.4849 14.1692 20.8367C13.3053 19.9728 13.3328 18.633 14.2313 17.8082C14.7574 17.3252 15.4887 17.1371 16.1528 17.3139ZM15.3312 18.7316C14.9973 18.8962 14.8514 19.3559 15.0286 19.6849C15.1245 19.8627 15.4481 20.0599 15.6442 20.0599C15.8722 20.0599 16.1528 19.8797 16.2557 19.6672C16.3746 19.4216 16.3756 19.2957 16.261 19.0431C16.1077 18.7054 15.6771 18.5611 15.3312 18.7316Z" fill="#1B1B1B"/>
<path fill-rule="evenodd" clip-rule="evenodd" d="M0.316218 6.05685C0.00923331 6.26192 -0.0112042 6.35952 0.00337395 7.55258C0.0175771 8.72038 0.020624 8.73327 0.339046 8.97097L0.468515 9.06763H11.9929H23.5172L23.6467 8.97097C23.9651 8.73327 23.9682 8.72038 23.9824 7.55258C23.997 6.35952 23.9765 6.26192 23.6695 6.05685L23.5103 5.95044H11.9929H0.475499L0.316218 6.05685Z" fill="#E07153"/>
</svg>
