<svg width="24" height="24" viewBox="0 0 24 24" fill="none" xmlns="http://www.w3.org/2000/svg">
<path fill-rule="evenodd" clip-rule="evenodd" d="M3.18125 20.3843H5.23823C5.31479 20.3723 5.3931 20.3785 5.46679 20.4025C5.54047 20.4266 5.60744 20.4676 5.66224 20.5224C5.71704 20.5772 5.75813 20.6442 5.78214 20.7179C5.80614 20.7916 5.81239 20.8699 5.80038 20.9464V23.0481C5.81271 23.1245 5.8066 23.2027 5.7826 23.2762C5.75861 23.3497 5.71743 23.4164 5.66244 23.4708C5.60744 23.5251 5.54022 23.5656 5.46644 23.5887C5.39265 23.6119 5.31443 23.6171 5.23823 23.6039H3.18125C3.10505 23.6171 3.02683 23.6119 2.95304 23.5887C2.87926 23.5656 2.81207 23.5251 2.75708 23.4708C2.70209 23.4164 2.66087 23.3497 2.63687 23.2762C2.61288 23.2027 2.60677 23.1245 2.61909 23.0481V20.9464C2.60709 20.8699 2.61338 20.7916 2.63738 20.7179C2.66139 20.6442 2.70244 20.5772 2.75724 20.5224C2.81203 20.4676 2.879 20.4266 2.95269 20.4025C3.02638 20.3785 3.10469 20.3723 3.18125 20.3843ZM0.4855 16.8325H14.9928C14.1074 16.4613 13.3733 15.802 12.9095 14.9614C12.4457 14.1207 12.2795 13.1481 12.4376 12.2012H20.8124C20.9788 13.1488 20.8161 14.1249 20.3513 14.9674C19.8865 15.8099 19.1476 16.468 18.2571 16.8325H23.4954C23.917 16.8325 24 16.9092 24 17.3308V19.2472C24 19.6688 23.917 19.7455 23.4954 19.7455H0.498289C0.0766756 19.7455 0 19.6688 0 19.2472V17.3308C0 16.9092 0.0766756 16.8325 0.498289 16.8325H0.4855ZM18.7426 20.3843H20.806C20.882 20.3734 20.9596 20.3805 21.0325 20.405C21.1053 20.4295 21.1714 20.4707 21.2254 20.5254C21.2794 20.5801 21.3199 20.6466 21.3436 20.7197C21.3673 20.7928 21.3735 20.8705 21.3617 20.9464V23.0481C21.3738 23.1238 21.3677 23.2013 21.3441 23.2743C21.3204 23.3472 21.2798 23.4135 21.2256 23.4677C21.1714 23.5219 21.105 23.5625 21.0321 23.5862C20.9592 23.6099 20.8817 23.6159 20.806 23.6039H18.7426C18.6667 23.6156 18.589 23.6094 18.5159 23.5858C18.4428 23.5621 18.3762 23.5216 18.3216 23.4676C18.2669 23.4136 18.2257 23.3475 18.2012 23.2746C18.1767 23.2018 18.1696 23.1242 18.1805 23.0481V20.9464C18.1685 20.8699 18.1747 20.7916 18.1987 20.7179C18.2227 20.6442 18.2638 20.5772 18.3186 20.5224C18.3734 20.4676 18.4403 20.4266 18.514 20.4025C18.5877 20.3785 18.6661 20.3723 18.7426 20.3843Z" fill="#1B1B1B"/>
<path fill-rule="evenodd" clip-rule="evenodd" d="M0.0703125 5.69178L9.21804 5.18711L22.8502 0L23.9106 1.46926L13.0509 5.02103L23.3804 4.58663L23.1504 6.36891L9.32662 6.23476L1.04771 9.23077L0.715514 8.59196L7.27608 6.15171L0.172544 6.23476L0.0703125 5.6726V5.69178Z" fill="#E07153"/>
</svg>
