<svg width="40" height="20" viewBox="0 0 40 20" fill="none" xmlns="http://www.w3.org/2000/svg">
<path fill-rule="evenodd" clip-rule="evenodd" d="M0 10.8657L15.3483 9.991L38.2208 1L40 3.54672L21.7792 9.70312L39.1104 8.95017L38.7245 12.0395L15.5305 11.8069L1.6399 17L1.08254 15.8927L12.0901 11.663L0.171526 11.8069L0 10.8325V10.8657Z" fill="#E07153"/>
<circle cx="20" cy="10" r="10" fill="#1B1B1B"/>
<path d="M16.6036 15V13.67L20.9436 9.47C21.457 8.97533 21.7136 8.462 21.7136 7.93C21.7136 6.90333 21.1303 6.39 19.9636 6.39C19.4503 6.39 19.0256 6.53 18.6896 6.81C18.3536 7.09 18.1483 7.46333 18.0736 7.93H16.6036C16.7156 7.08067 17.061 6.39 17.6396 5.858C18.2183 5.326 18.993 5.06 19.9636 5.06C20.9903 5.06 21.793 5.326 22.3716 5.858C22.9596 6.38067 23.2536 7.07133 23.2536 7.93C23.2536 8.406 23.1416 8.826 22.9176 9.19C22.703 9.54467 22.395 9.918 21.9936 10.31L18.5636 13.67H23.3936V15H16.6036Z" fill="white"/>
</svg>
