<svg width="40" height="20" viewBox="0 0 40 20" fill="none" xmlns="http://www.w3.org/2000/svg">
<path fill-rule="evenodd" clip-rule="evenodd" d="M0 10.8657L15.3483 9.991L38.2208 1L40 3.54672L21.7792 9.70312L39.1104 8.95017L38.7245 12.0395L15.5305 11.8069L1.6399 17L1.08254 15.8927L12.0901 11.663L0.171526 11.8069L0 10.8325V10.8657Z" fill="#E07153"/>
<circle cx="20" cy="10" r="10" fill="#1B1B1B"/>
<path d="M19.9295 15.14C18.9401 15.14 18.1235 14.8973 17.4795 14.412C16.8355 13.9267 16.4621 13.2127 16.3595 12.27H17.8295C17.8948 12.718 18.1281 13.0867 18.5295 13.376C18.9308 13.6653 19.3975 13.81 19.9295 13.81C20.5455 13.81 21.0261 13.67 21.3715 13.39C21.7168 13.11 21.8895 12.7367 21.8895 12.27C21.8895 11.8127 21.7075 11.444 21.3435 11.164C20.9795 10.8747 20.4941 10.73 19.8875 10.73H19.1595V9.47H19.8875C20.4848 9.47 20.9421 9.33 21.2595 9.05C21.5861 8.77 21.7495 8.39667 21.7495 7.93C21.7495 7.46333 21.5908 7.09 21.2735 6.81C20.9561 6.53 20.5081 6.39 19.9295 6.39C19.4255 6.39 18.9868 6.53 18.6135 6.81C18.2495 7.08067 18.0348 7.454 17.9695 7.93H16.4995C16.6395 7.006 17.0128 6.29667 17.6195 5.802C18.2261 5.30733 18.9961 5.06 19.9295 5.06C20.9375 5.06 21.7355 5.31667 22.3235 5.83C22.9208 6.334 23.2195 7.01067 23.2195 7.86C23.2195 8.38267 23.0888 8.83067 22.8275 9.204C22.5661 9.57733 22.2068 9.85267 21.7495 10.03C22.2441 10.2073 22.6361 10.5013 22.9255 10.912C23.2148 11.3133 23.3595 11.7893 23.3595 12.34C23.3595 13.1613 23.0515 13.8333 22.4355 14.356C21.8288 14.8787 20.9935 15.14 19.9295 15.14Z" fill="white"/>
</svg>
