<svg width="64" height="60" viewBox="0 0 64 60" fill="none" xmlns="http://www.w3.org/2000/svg">
<path fill-rule="evenodd" clip-rule="evenodd" d="M16.2408 12.9885C16.2408 13.4928 17.0243 14.3665 17.4747 14.3395L23.9683 13.9342C22.8155 12.7183 22.2121 9.07967 22.2121 7.35043L16.3668 10.8179C15.6283 11.2502 16.2318 12.0518 16.2408 12.9885Z" fill="#E07153"/>
<path fill-rule="evenodd" clip-rule="evenodd" d="M29.2102 4.01802C25.4095 4.50437 24.2476 5.81931 23.302 6.89108C23.1123 9.24924 23.603 11.6123 24.716 13.6999L25.9499 13.5559L25.7878 9.05262C25.3645 6.21559 28.1294 4.34225 29.2102 4V4.01802Z" fill="#E07153"/>
<path fill-rule="evenodd" clip-rule="evenodd" d="M37.2977 7.70163C38.5496 8.75539 39.5583 9.98027 40.8102 11.043C37.6219 12.8984 36.8384 12.9524 35.0731 16.9242L33.6681 15.8795C33.6681 11.8446 33.3979 9.57497 37.2707 7.77368L37.2977 7.70163Z" fill="#E07153"/>
<path fill-rule="evenodd" clip-rule="evenodd" d="M41.576 11.8086C42.5306 12.4493 43.3432 13.2798 43.963 14.2482C44.5828 15.2167 44.9966 16.3023 45.1785 17.4376C43.044 18.3383 39.7746 21.4365 38.7839 20.1396L35.8298 17.987C37.6311 13.6279 40.0178 12.8983 41.5939 11.8446L41.576 11.8086Z" fill="#E07153"/>
<path fill-rule="evenodd" clip-rule="evenodd" d="M38.3878 7.41347L41.7832 10.5297L45.692 9.53899C45.1066 8.89053 44.1879 6.68394 38.3878 7.41347Z" fill="#E07153"/>
<path fill-rule="evenodd" clip-rule="evenodd" d="M46.4484 10.3856L42.7737 11.2863C44.4525 12.6889 45.5634 14.6545 45.899 16.8162C48.601 15.9156 48.6009 12.8624 46.4484 10.3856Z" fill="#E07153"/>
<path fill-rule="evenodd" clip-rule="evenodd" d="M32.3714 4.08106H32.9117C36.6854 3.97298 39.0362 4.83761 40.252 6.43175C39.5241 6.36404 38.7914 6.36404 38.0635 6.43175C36.6416 6.60307 35.3313 7.28811 34.3792 8.35798C33.4272 9.42784 32.8989 10.8088 32.8938 12.2409V24.7419C32.8812 25.0793 32.9458 25.415 33.0829 25.7236L39.6666 26.8944C39.8536 26.9303 40.0436 26.9484 40.234 26.9485C41.6211 26.9312 42.9574 26.4233 44.0058 25.515C45.0543 24.6066 45.7474 23.3564 45.9621 21.9859C45.9816 21.7672 45.9816 21.5472 45.9621 21.3284V18.7256C45.9711 18.5546 45.9711 18.3832 45.9621 18.2122L47.232 17.3116C47.3329 17.7822 47.3842 18.2622 47.3851 18.7436V21.2834C47.3835 21.585 47.3595 21.886 47.3131 22.184C47.1232 23.9282 46.2916 25.5394 44.98 26.7045C43.6683 27.8697 41.9704 28.5056 40.216 28.4886C39.9533 28.4853 39.6913 28.4612 39.4325 28.4165L26.0218 26.0208C24.5965 25.7299 23.333 24.9132 22.4823 23.7332C21.5464 22.5092 21.0343 21.0138 21.0233 19.4731V15.186L22.4102 15.114V19.4821C22.4199 20.6668 22.8186 21.8155 23.5451 22.7515C24.1866 23.6709 25.1516 24.3142 26.247 24.5528L27.8772 24.841C27.1349 23.8309 26.7371 22.6089 26.7423 21.3554V8.79145C26.7423 5.81932 29.7235 4.08106 32.3624 4.08106H32.3714Z" fill="#1B1B1B"/>
<path d="M17.34 56.16C15.7827 56.16 14.54 55.6587 13.612 54.656C12.684 53.6533 12.22 52.2347 12.22 50.4C12.22 48.5653 12.684 47.1467 13.612 46.144C14.54 45.1413 15.7827 44.64 17.34 44.64C19.676 44.64 21.2227 45.7333 21.98 47.92H20.22C19.676 46.7467 18.716 46.16 17.34 46.16C16.3053 46.16 15.4733 46.528 14.844 47.264C14.2147 47.9893 13.9 49.0347 13.9 50.4C13.9 51.7653 14.2093 52.816 14.828 53.552C15.4573 54.2773 16.2947 54.64 17.34 54.64C18.716 54.64 19.676 54.0533 20.22 52.88H21.98C21.2227 55.0667 19.676 56.16 17.34 56.16ZM24.3944 59.2L25.6744 56L22.2344 47.52H23.8344L26.3944 54H26.4744L29.0344 47.52H30.6344L25.9944 59.2H24.3944ZM31.6806 56V47.52H33.2006V54.56H36.1606V47.52H37.6806V54.56H40.6406V47.52H42.1606V56H31.6806ZM44.2431 56V47.52H45.7631V53.92H45.8431L49.5231 47.52H51.4431V56H49.9231V49.6H49.8431L46.1631 56H44.2431Z" fill="#1B1B1B"/>
</svg>
