<svg width="64" height="60" viewBox="0 0 64 60" fill="none" xmlns="http://www.w3.org/2000/svg">
<path fill-rule="evenodd" clip-rule="evenodd" d="M20.2417 27.1791H22.9843C23.0864 27.1631 23.1908 27.1714 23.289 27.2034C23.3873 27.2355 23.4766 27.2902 23.5497 27.3633C23.6227 27.4363 23.6775 27.5257 23.7095 27.6239C23.7415 27.7221 23.7499 27.8266 23.7338 27.9286V30.7309C23.7503 30.8327 23.7421 30.9369 23.7101 31.0349C23.6781 31.133 23.6232 31.2219 23.5499 31.2944C23.4766 31.3669 23.387 31.4208 23.2886 31.4517C23.1902 31.4826 23.0859 31.4895 22.9843 31.4719H20.2417C20.1401 31.4895 20.0358 31.4826 19.9374 31.4517C19.839 31.4208 19.7494 31.3669 19.6761 31.2944C19.6028 31.2219 19.5478 31.133 19.5158 31.0349C19.4838 30.9369 19.4757 30.8327 19.4921 30.7309V27.9286C19.4761 27.8266 19.4845 27.7221 19.5165 27.6239C19.5485 27.5257 19.6032 27.4363 19.6763 27.3633C19.7494 27.2902 19.8387 27.2355 19.9369 27.2034C20.0352 27.1714 20.1396 27.1631 20.2417 27.1791ZM16.6473 22.4434H35.9904C34.8099 21.9485 33.8311 21.0694 33.2127 19.9485C32.5943 18.8277 32.3726 17.5309 32.5835 16.2683H43.7498C43.9718 17.5318 43.7549 18.8333 43.1351 19.9566C42.5154 21.0799 41.5301 21.9574 40.3428 22.4434H47.3271C47.8893 22.4434 48 22.5456 48 23.1078V25.663C48 26.2252 47.8893 26.3274 47.3271 26.3274H16.6644C16.1022 26.3274 16 26.2252 16 25.663V23.1078C16 22.5456 16.1022 22.4434 16.6644 22.4434H16.6473ZM40.9902 27.1791H43.7413C43.8427 27.1646 43.9461 27.1741 44.0433 27.2067C44.1404 27.2394 44.2285 27.2944 44.3006 27.3673C44.3726 27.4401 44.4266 27.5289 44.4581 27.6264C44.4897 27.7238 44.498 27.8274 44.4823 27.9286V30.7309C44.4984 30.8319 44.4903 30.9352 44.4587 31.0324C44.4272 31.1297 44.3731 31.2181 44.3008 31.2903C44.2285 31.3626 44.14 31.4168 44.0428 31.4483C43.9456 31.4799 43.8422 31.488 43.7413 31.4719H40.9902C40.8889 31.4876 40.7854 31.4793 40.6879 31.4477C40.5904 31.4162 40.5016 31.3622 40.4288 31.2902C40.3559 31.2181 40.3009 31.13 40.2682 31.0329C40.2356 30.9357 40.2261 30.8323 40.2406 30.7309V27.9286C40.2246 27.8266 40.233 27.7221 40.265 27.6239C40.297 27.5257 40.3517 27.4363 40.4248 27.3633C40.4978 27.2902 40.5871 27.2355 40.6854 27.2034C40.7836 27.1714 40.8881 27.1631 40.9902 27.1791Z" fill="#1B1B1B"/>
<path fill-rule="evenodd" clip-rule="evenodd" d="M16.0938 7.58904L28.2907 6.91615L46.4669 0L47.8808 1.95901L33.4012 6.6947L47.1738 6.11551L46.8672 8.49188L28.4355 8.31301L17.3969 12.3077L16.954 11.4559L25.7014 8.20228L16.2301 8.31301L16.0938 7.56347V7.58904Z" fill="#E07153"/>
<path d="M18.84 56.16C17.2827 56.16 16.04 55.6587 15.112 54.656C14.184 53.6533 13.72 52.2347 13.72 50.4C13.72 48.5653 14.184 47.1467 15.112 46.144C16.04 45.1413 17.2827 44.64 18.84 44.64C21.176 44.64 22.7227 45.7333 23.48 47.92H21.72C21.176 46.7467 20.216 46.16 18.84 46.16C17.8053 46.16 16.9733 46.528 16.344 47.264C15.7147 47.9893 15.4 49.0347 15.4 50.4C15.4 51.7653 15.7093 52.816 16.328 53.552C16.9573 54.2773 17.7947 54.64 18.84 54.64C20.216 54.64 21.176 54.0533 21.72 52.88H23.48C22.7227 55.0667 21.176 56.16 18.84 56.16ZM28.3744 56.16C27.1584 56.16 26.1877 55.7707 25.4624 54.992C24.737 54.2133 24.3744 53.136 24.3744 51.76C24.3744 50.384 24.7317 49.3067 25.4464 48.528C26.161 47.7493 27.1104 47.36 28.2944 47.36C29.4997 47.36 30.4544 47.7653 31.1584 48.576C31.8624 49.3867 32.2144 50.3147 32.2144 51.36L32.1344 52.24H25.9584C26.001 53.0293 26.241 53.6427 26.6784 54.08C27.1157 54.5067 27.681 54.72 28.3744 54.72C29.249 54.72 29.9157 54.3733 30.3744 53.68H32.0544C31.7664 54.4267 31.3024 55.0293 30.6624 55.488C30.0224 55.936 29.2597 56.16 28.3744 56.16ZM25.9584 50.96H30.6464C30.5504 50.2773 30.2944 49.7493 29.8784 49.376C29.4624 48.992 28.9344 48.8 28.2944 48.8C27.6544 48.8 27.1264 48.992 26.7104 49.376C26.2944 49.7493 26.0437 50.2773 25.9584 50.96ZM35.5069 56V48.96H32.7069V47.52H39.8269V48.96H37.0269V56H35.5069ZM42.5444 54.56H44.4644C44.9017 54.56 45.2377 54.448 45.4724 54.224C45.707 54 45.8244 53.6853 45.8244 53.28C45.8244 52.8747 45.707 52.56 45.4724 52.336C45.2377 52.112 44.9017 52 44.4644 52H42.5444V54.56ZM41.0244 56V47.52H42.5444V50.56H44.6244C45.4244 50.56 46.075 50.816 46.5764 51.328C47.0884 51.8293 47.3444 52.48 47.3444 53.28C47.3444 54.08 47.0884 54.736 46.5764 55.248C46.075 55.7493 45.4244 56 44.6244 56H41.0244ZM48.3844 56V47.52H49.9044V56H48.3844Z" fill="#1B1B1B"/>
</svg>
