<svg width="64" height="60" viewBox="0 0 64 60" fill="none" xmlns="http://www.w3.org/2000/svg">
<path fill-rule="evenodd" clip-rule="evenodd" d="M18.2287 15.6753H41.8183L40.4425 13.5467L42.552 12.23L44.5147 15.2514L40.8461 31.9999H19.6687L16 15.2514L20.4207 8.03606H34.9945L33.9215 9.69558H21.9066L18.2379 15.6392L18.2287 15.6753Z" fill="#1B1B1B"/>
<path fill-rule="evenodd" clip-rule="evenodd" d="M32.1331 14.602L42.5521 0L44.9917 0.901915L34.9029 13.7001L46.826 4.97856L48 7.24238L36.7464 14.6291L32.1331 14.602Z" fill="#E07153"/>
<path d="M19.1572 55.9999L16.2772 44.7999H18.0372L20.1972 53.8399H20.2772L22.4372 44.7999H24.5172L26.6772 53.8399H26.7572L28.9172 44.7999H30.6772L27.7972 55.9999H25.6372L23.5092 47.0399H23.4452L21.3172 55.9999H19.1572ZM37.9314 54.9919C37.2168 55.7706 36.2674 56.1599 35.0834 56.1599C33.8994 56.1599 32.9501 55.7706 32.2354 54.9919C31.5208 54.2133 31.1634 53.1359 31.1634 51.7599C31.1634 50.3839 31.5208 49.3066 32.2354 48.5279C32.9501 47.7493 33.8994 47.3599 35.0834 47.3599C36.2674 47.3599 37.2168 47.7493 37.9314 48.5279C38.6461 49.3066 39.0034 50.3839 39.0034 51.7599C39.0034 53.1359 38.6461 54.2133 37.9314 54.9919ZM33.3394 53.9679C33.7874 54.4693 34.3688 54.7199 35.0834 54.7199C35.7981 54.7199 36.3741 54.4693 36.8114 53.9679C37.2594 53.4559 37.4834 52.7199 37.4834 51.7599C37.4834 50.7999 37.2594 50.0693 36.8114 49.5679C36.3741 49.0559 35.7981 48.7999 35.0834 48.7999C34.3688 48.7999 33.7874 49.0559 33.3394 49.5679C32.9021 50.0693 32.6834 50.7999 32.6834 51.7599C32.6834 52.7199 32.9021 53.4559 33.3394 53.9679ZM40.7684 55.9999V44.7999H42.2884V51.4399L45.9684 47.5199H47.8884L43.9684 51.6799L48.1284 55.9999H46.2084L42.2884 51.9199V55.9999H40.7684Z" fill="#1B1B1B"/>
</svg>
