<svg width="64" height="60" viewBox="0 0 64 60" fill="none" xmlns="http://www.w3.org/2000/svg">
<path fill-rule="evenodd" clip-rule="evenodd" d="M21.726 0.10092C21.0178 0.409363 20.8505 1.35083 21.4053 1.90574C21.8607 2.36103 22.5108 2.36103 22.9662 1.90574C23.8374 1.03446 22.8573 -0.391857 21.726 0.10092ZM29.0264 1.78563C28.3182 2.09407 28.1509 3.03554 28.7057 3.59045C29.1611 4.04574 29.8112 4.04574 30.2666 3.59045C31.1378 2.71917 30.1577 1.29285 29.0264 1.78563ZM36.927 1.79602C35.6815 2.06354 34.4836 2.99918 33.9182 4.14612C33.55 4.89287 33.4199 5.50905 33.4184 6.51286L33.4172 7.30256L34.7684 7.30137C36.3717 7.2999 36.8521 7.21791 37.6967 6.8015C38.8482 6.2339 39.7892 5.01747 40.0513 3.75765C40.1076 3.4874 40.1541 2.91095 40.1548 2.47657L40.156 1.68686L38.7696 1.69241C37.8683 1.69606 37.2236 1.73228 36.927 1.79602ZM18.676 5.54836C17.6473 5.67212 16.908 5.98877 16.4136 6.51735C16.0409 6.91578 15.973 7.10194 16.0392 7.5439C16.1947 8.58063 19.0214 12.9913 21.2267 15.6384L21.7677 16.2877H22.2588H22.75L22.7068 16.0946C22.0075 12.9654 20.7132 10.5468 18.5893 8.39994L17.9041 7.70732L18.2661 7.28937L18.6282 6.87149L19.2895 7.52572C20.0818 8.3096 20.9387 9.35264 21.4993 10.2157C22.307 11.4589 23.1286 13.2447 23.4541 14.4646C23.5413 14.7917 23.6357 15.0859 23.6638 15.1184C23.7385 15.2048 24.1199 14.1694 24.2679 13.4787C24.4453 12.6504 24.4453 10.8701 24.2679 10.0402C24.1096 9.29951 23.7594 8.35523 23.4435 7.81668C23.3116 7.59184 22.9468 7.14694 22.6328 6.82797C22.1804 6.36846 21.9546 6.19901 21.5447 6.01144C20.6511 5.60255 19.6154 5.43534 18.676 5.54836ZM25.8504 6.87395C25.4594 7.009 25.0592 7.2933 24.8323 7.59718C24.6976 7.77758 24.6978 7.78053 24.88 8.23582C25.5673 9.95381 25.7297 12.0371 25.3162 13.8308C25.2228 14.2362 25.1233 14.6311 25.0951 14.7083C24.9112 15.2123 25.8121 13.8691 26.225 13.0236C26.625 12.2044 26.9818 11.1013 27.1392 10.1973L27.2646 9.47689L27.4804 9.50981C27.5991 9.52785 27.8486 9.56211 28.0349 9.58598L28.3736 9.62922L28.3292 9.9225C27.9825 12.2075 27.1022 14.2055 25.729 15.8242L25.3358 16.2877H26.647H27.9582L27.9108 16.1297C27.8848 16.0428 27.8465 15.7033 27.8257 15.3751C27.7164 13.6441 28.717 11.9224 30.2689 11.1712C30.5969 11.0125 30.9182 10.8826 30.983 10.8826C31.3328 10.8826 30.8603 9.53586 30.2164 8.69807C29.1025 7.24879 27.1396 6.42862 25.8504 6.87395ZM41.4877 7.68043C40.6237 8.01316 39.9918 8.50889 39.599 9.16234C39.3888 9.51192 39.3541 9.63701 39.3278 10.1376C39.3019 10.6303 39.3358 10.8659 39.5661 11.7974C40.0028 13.5628 39.9142 14.1591 39.1445 14.6346C38.8356 14.8256 38.7447 14.8468 38.2671 14.8402C37.974 14.8361 37.5401 14.7811 37.3029 14.7179C37.0657 14.6547 36.8446 14.603 36.8116 14.603C36.7785 14.603 36.7515 14.8636 36.7515 15.1821C36.7515 15.5006 36.7297 15.8802 36.703 16.0256L36.6546 16.2901L38.4535 16.2713L40.2525 16.2526L40.4784 15.1294C40.6027 14.5117 40.788 13.6746 40.8901 13.2692C41.1317 12.3111 41.7649 10.1629 41.8432 10.0361C41.8941 9.95381 41.9851 9.96574 42.3988 10.1092C42.671 10.2036 42.8937 10.3087 42.8937 10.3428C42.8937 10.3769 42.7685 10.8044 42.6155 11.293C42.1571 12.7572 41.4195 15.7721 41.4195 16.182C41.4195 16.2743 41.77 16.2877 44.1923 16.2877C45.7173 16.2877 46.965 16.2607 46.965 16.2277C46.965 16.1947 46.7916 16.0036 46.5796 15.8031C46.0112 15.2656 45.4719 15.0394 44.4849 14.9246C43.621 14.8241 43.3313 14.7116 43.0844 14.3804C42.9095 14.1457 42.903 13.7309 43.0691 13.4096C43.1376 13.2772 43.3442 12.9725 43.5282 12.7324C44.0904 11.999 44.1843 11.6659 44.1886 10.3912C44.1926 9.20208 44.1134 8.81522 43.7552 8.27401C43.4551 7.82047 43.0492 7.62912 42.337 7.60525C41.9522 7.59233 41.6461 7.61943 41.4877 7.68043ZM31.2372 11.9671C30.7527 12.1456 30.3749 12.3734 30.0268 12.6967C29.7089 12.9918 29.2756 13.5697 29.2756 13.6984C29.2756 13.7264 29.4809 13.8175 29.7319 13.901C29.9828 13.9845 30.1881 14.0705 30.1881 14.0922C30.1881 14.2825 29.8819 15.0943 29.8101 15.0943C29.7599 15.0943 29.5355 15.0313 29.3117 14.9543L28.9046 14.8143L28.9432 15.3579C28.9645 15.657 29.0156 15.9885 29.0568 16.0946L29.1317 16.2877H32.294H35.4564L35.516 16.1297C35.5488 16.0428 35.5981 15.8384 35.6254 15.6752L35.6752 15.3786L35.2722 15.5173C35.0506 15.5935 34.8331 15.6559 34.7888 15.6559C34.7245 15.6559 34.3999 14.8218 34.3999 14.6564C34.3999 14.6334 34.6538 14.53 34.9641 14.4266C35.6071 14.2125 35.5982 14.2427 35.226 13.5352C34.8388 12.7994 33.8585 12.048 33.0837 11.8933L32.8556 11.8478V12.383V12.9183H32.294H31.7324V12.3918C31.7324 11.8047 31.7161 11.7907 31.2372 11.9671ZM17.9038 14.1386C16.5249 14.7152 16.014 15.2145 16.01 15.9893L16.0085 16.2877H18.1554H20.3024L20.0062 15.9192C19.8433 15.7165 19.4419 15.1953 19.1142 14.7609C18.7735 14.3093 18.4695 13.9725 18.4042 13.9742C18.3413 13.9758 18.1161 14.0498 17.9038 14.1386ZM32.8556 14.603V15.1645H32.294H31.7324V14.603V14.0414H32.294H32.8556V14.603ZM16.046 17.9197C16.3912 21.7335 17.8765 24.9696 20.468 27.5542C23.0122 30.0915 26.2574 31.6089 29.8612 31.9463C30.9851 32.0514 33.6085 31.9942 34.5531 31.8439C40.6406 30.875 45.5103 26.4376 46.9968 20.5049C47.1678 19.8224 47.3433 18.7446 47.4234 17.8846L47.4676 17.4108H31.7338H16L16.046 17.9197ZM20.4182 23.5697C21.5877 25.2416 23.2808 26.7614 25.0638 27.74C25.4306 27.9413 25.7444 28.1167 25.7612 28.1297C25.778 28.1427 25.6846 28.3748 25.5536 28.6455C25.3778 29.0089 25.2873 29.127 25.2072 29.0974C25.1477 29.0754 24.7636 28.8663 24.3538 28.6327C22.4146 27.5274 20.5625 25.8052 19.3105 23.9432L18.8919 23.3207L19.363 23.0359C19.7966 22.7737 19.8413 22.7606 19.924 22.8713C19.9734 22.9373 20.1958 23.2516 20.4182 23.5697ZM27.8015 29.2038V29.7654H27.2399H26.6783V29.2038V28.6422H27.2399H27.8015V29.2038Z" fill="#E07153"/>
<path fill-rule="evenodd" clip-rule="evenodd" d="M16.046 17.9198C16.3912 21.7335 17.8765 24.9696 20.468 27.5542C23.0122 30.0915 26.2574 31.6089 29.8612 31.9463C30.9851 32.0514 33.6085 31.9942 34.5531 31.8439C40.6406 30.875 45.5103 26.4376 46.9968 20.5049C47.1678 19.8224 47.3433 18.7446 47.4234 17.8847L47.4676 17.4108H31.7338H16L16.046 17.9198ZM20.4182 23.5697C21.5877 25.2416 23.2808 26.7614 25.0638 27.74C25.4306 27.9413 25.7444 28.1167 25.7612 28.1297C25.778 28.1427 25.6846 28.3748 25.5536 28.6455C25.3778 29.0089 25.2873 29.127 25.2072 29.0974C25.1477 29.0754 24.7636 28.8663 24.3538 28.6328C22.4146 27.5274 20.5625 25.8052 19.3105 23.9432L18.8919 23.3207L19.363 23.0359C19.7966 22.7738 19.8413 22.7606 19.924 22.8713C19.9734 22.9373 20.1958 23.2516 20.4182 23.5697ZM27.8015 29.2038V29.7654H27.2399H26.6783V29.2038V28.6422H27.2399H27.8015V29.2038Z" fill="#1B1B1B"/>
<path d="M10.34 56.16C8.78267 56.16 7.54 55.6587 6.612 54.656C5.684 53.6533 5.22 52.2347 5.22 50.4C5.22 48.5653 5.684 47.1467 6.612 46.144C7.54 45.1413 8.78267 44.64 10.34 44.64C12.676 44.64 14.2227 45.7333 14.98 47.92H13.22C12.676 46.7467 11.716 46.16 10.34 46.16C9.30533 46.16 8.47333 46.528 7.844 47.264C7.21467 47.9893 6.9 49.0347 6.9 50.4C6.9 51.7653 7.20933 52.816 7.828 53.552C8.45733 54.2773 9.29467 54.64 10.34 54.64C11.716 54.64 12.676 54.0533 13.22 52.88H14.98C14.2227 55.0667 12.676 56.16 10.34 56.16ZM18.9144 54.8C19.6184 54.8 20.1784 54.608 20.5944 54.224C21.021 53.8293 21.2344 53.328 21.2344 52.72V52.24H18.9944C18.4397 52.24 18.0184 52.3573 17.7304 52.592C17.453 52.816 17.3144 53.1253 17.3144 53.52C17.3144 53.9147 17.453 54.2293 17.7304 54.464C18.0184 54.688 18.413 54.8 18.9144 54.8ZM18.6744 56.16C17.821 56.16 17.1277 55.904 16.5944 55.392C16.061 54.88 15.7944 54.256 15.7944 53.52C15.7944 52.7627 16.077 52.1333 16.6424 51.632C17.2077 51.1307 17.9917 50.88 18.9944 50.88H21.2344V50.48C21.2344 49.9573 21.069 49.5467 20.7384 49.248C20.4077 48.9493 19.9597 48.8 19.3944 48.8C18.9357 48.8 18.5624 48.9013 18.2744 49.104C17.9864 49.296 17.7997 49.5413 17.7144 49.84H16.1144C16.2744 49.136 16.653 48.5493 17.2504 48.08C17.8584 47.6 18.573 47.36 19.3944 47.36C20.4504 47.36 21.2717 47.648 21.8584 48.224C22.4557 48.7893 22.7544 49.5413 22.7544 50.48V56H21.4744L21.3144 54.96H21.2344C21.053 55.2693 20.7277 55.5467 20.2584 55.792C19.7997 56.0373 19.2717 56.16 18.6744 56.16ZM23.8788 56.16V54.64H24.1188C24.5988 54.64 24.9294 54.3787 25.1108 53.856C25.3028 53.3227 25.3988 52.3573 25.3988 50.96V47.52H31.4788V56H29.9588V48.96H26.9188V51.04C26.9188 52.8213 26.7214 54.1227 26.3268 54.944C25.9428 55.7547 25.2334 56.16 24.1988 56.16H23.8788ZM36.1956 54.8C36.8996 54.8 37.4596 54.608 37.8756 54.224C38.3023 53.8293 38.5156 53.328 38.5156 52.72V52.24H36.2756C35.721 52.24 35.2996 52.3573 35.0116 52.592C34.7343 52.816 34.5956 53.1253 34.5956 53.52C34.5956 53.9147 34.7343 54.2293 35.0116 54.464C35.2996 54.688 35.6943 54.8 36.1956 54.8ZM35.9556 56.16C35.1023 56.16 34.409 55.904 33.8756 55.392C33.3423 54.88 33.0756 54.256 33.0756 53.52C33.0756 52.7627 33.3583 52.1333 33.9236 51.632C34.489 51.1307 35.273 50.88 36.2756 50.88H38.5156V50.48C38.5156 49.9573 38.3503 49.5467 38.0196 49.248C37.689 48.9493 37.241 48.8 36.6756 48.8C36.217 48.8 35.8436 48.9013 35.5556 49.104C35.2676 49.296 35.081 49.5413 34.9956 49.84H33.3956C33.5556 49.136 33.9343 48.5493 34.5316 48.08C35.1396 47.6 35.8543 47.36 36.6756 47.36C37.7316 47.36 38.553 47.648 39.1396 48.224C39.737 48.7893 40.0356 49.5413 40.0356 50.48V56H38.7556L38.5956 54.96H38.5156C38.3343 55.2693 38.009 55.5467 37.5396 55.792C37.081 56.0373 36.553 56.16 35.9556 56.16ZM43.8038 56V48.96H41.0038V47.52H48.1238V48.96H45.3238V56H43.8038ZM50.8413 54.56H52.7613C53.1986 54.56 53.5346 54.448 53.7693 54.224C54.0039 54 54.1213 53.6853 54.1213 53.28C54.1213 52.8747 54.0039 52.56 53.7693 52.336C53.5346 52.112 53.1986 52 52.7613 52H50.8413V54.56ZM49.3213 56V47.52H50.8413V50.56H52.9213C53.7213 50.56 54.3719 50.816 54.8733 51.328C55.3853 51.8293 55.6413 52.48 55.6413 53.28C55.6413 54.08 55.3853 54.736 54.8733 55.248C54.3719 55.7493 53.7213 56 52.9213 56H49.3213ZM56.6813 56V47.52H58.2013V56H56.6813Z" fill="#1B1B1B"/>
</svg>
