<svg width="64" height="60" viewBox="0 0 64 60" fill="none" xmlns="http://www.w3.org/2000/svg">
<path fill-rule="evenodd" clip-rule="evenodd" d="M44.4405 20.2408C44.0807 21.4892 43.492 22.6607 42.7042 23.6963H34.5002L34.4221 24.206C34.4221 24.4133 34.3613 24.6206 34.344 24.8193C34.3266 25.018 34.344 25.234 34.344 25.4327C34.3403 26.4551 34.5502 27.4671 34.9604 28.4044C34.0732 28.5719 33.1721 28.6558 32.2691 28.655C30.0964 28.6991 27.948 28.1945 26.0245 27.1884C24.101 26.1822 22.4651 24.7074 21.2697 22.9015C20.9684 22.8302 20.6769 22.7229 20.4015 22.5819C19.0993 21.934 18.8041 18.4525 18.1009 17.0962C17.5061 16.1527 16.8008 15.2827 16 14.5046L19.7417 14.1763L22.5285 15.9473L22.7108 15.7486C22.7065 15.6853 22.7065 15.6218 22.7108 15.5585L21.9208 9.0103C21.3304 4.09481 25.9924 0 30.9756 0H33.7363C38.7108 0 43.3814 4.09481 42.791 9.0103L42.001 15.5585C42.001 15.6622 42.001 15.7572 42.001 15.8522C43.17 17.0922 44.0268 18.5902 44.5013 20.2235L44.4405 20.2408ZM47.9131 25.0094C47.9686 25.3464 47.9976 25.6872 47.9999 26.0288C47.9397 27.6326 47.2571 29.1508 46.0956 30.2644C44.934 31.3779 43.3839 32 41.771 32C40.1581 32 38.608 31.3779 37.4464 30.2644C36.2848 29.1508 35.6022 27.6326 35.542 26.0288C35.5443 25.6872 35.5733 25.3464 35.6288 25.0094H47.9131ZM32.9636 11.1873C36.4362 11.4983 39.2577 11.8179 39.2577 12.5436C39.2577 13.2692 36.1236 13.9171 32.2517 13.9171C28.3798 13.9171 25.2371 13.2779 25.2371 12.5436C25.2371 11.8093 28.0586 11.4983 31.5312 11.1873C31.7482 11.1873 31.0971 9.31265 31.0971 8.8807C31.0971 7.60216 31.618 6.56551 32.2517 6.56551C32.8855 6.56551 33.3977 7.60216 33.3977 8.8807C33.3977 9.31265 32.7466 11.17 32.9636 11.1873ZM23.8046 14.686C24.0738 14.47 24.3516 14.2627 24.6728 14.064C25.8448 14.6514 28.7618 15.0661 32.1649 15.0661C35.5681 15.0661 38.6673 14.6169 39.7612 14.0035C40.1258 14.2454 40.4731 14.5046 40.803 14.7724L41.428 9.5891C41.9402 5.26969 37.8687 1.72776 33.5279 1.72776H31.1144C26.7737 1.72776 22.7021 5.2956 23.2143 9.5891L23.8307 14.6687L23.8046 14.686Z" fill="#1B1B1B"/>
<path fill-rule="evenodd" clip-rule="evenodd" d="M47.9131 25.0094C47.9686 25.3464 47.9976 25.6872 47.9999 26.0288C47.9398 27.6326 47.2571 29.1508 46.0956 30.2644C44.934 31.3779 43.3839 32 41.771 32C40.1581 32 38.608 31.3779 37.4464 30.2644C36.2848 29.1508 35.6022 27.6326 35.542 26.0288C35.5444 25.6872 35.5734 25.3464 35.6288 25.0094H47.9131Z" fill="#E07153"/>
<path d="M1.28 56V44.8H2.96V49.6H8.4V44.8H10.08V56H8.4V51.12H2.96V56H1.28ZM15.0394 54.8C15.7434 54.8 16.3034 54.608 16.7194 54.224C17.146 53.8293 17.3594 53.328 17.3594 52.72V52.24H15.1194C14.5647 52.24 14.1434 52.3573 13.8554 52.592C13.578 52.816 13.4394 53.1253 13.4394 53.52C13.4394 53.9147 13.578 54.2293 13.8554 54.464C14.1434 54.688 14.538 54.8 15.0394 54.8ZM14.7994 56.16C13.946 56.16 13.2527 55.904 12.7194 55.392C12.186 54.88 11.9194 54.256 11.9194 53.52C11.9194 52.7627 12.202 52.1333 12.7674 51.632C13.3327 51.1307 14.1167 50.88 15.1194 50.88H17.3594V50.48C17.3594 49.9573 17.194 49.5467 16.8634 49.248C16.5327 48.9493 16.0847 48.8 15.5194 48.8C15.0607 48.8 14.6874 48.9013 14.3994 49.104C14.1114 49.296 13.9247 49.5413 13.8394 49.84H12.2394C12.3994 49.136 12.778 48.5493 13.3754 48.08C13.9834 47.6 14.698 47.36 15.5194 47.36C16.5754 47.36 17.3967 47.648 17.9834 48.224C18.5807 48.7893 18.8794 49.5413 18.8794 50.48V56H17.5994L17.4394 54.96H17.3594C17.178 55.2693 16.8527 55.5467 16.3834 55.792C15.9247 56.0373 15.3967 56.16 14.7994 56.16ZM20.8838 56V47.52H27.8438V56H26.3238V48.96H22.4038V56H20.8838ZM29.9306 56V47.52H31.4506V53.92H31.5306L35.2106 47.52H37.1306V56H35.6106V49.6H35.5306L31.8506 56H29.9306ZM41.1319 56V48.96H38.3319V47.52H45.4519V48.96H42.6519V56H41.1319ZM46.6494 56V47.52H48.1694V51.44L51.8494 47.52H53.7694L49.8494 51.68L54.0094 56H52.0894L48.1694 51.92V56H46.6494ZM54.8056 56V47.52H56.3256V53.92H56.4056L60.0856 47.52H62.0056V56H60.4856V49.6H60.4056L56.7256 56H54.8056Z" fill="#1B1B1B"/>
</svg>
