<svg width="113" height="104" viewBox="0 0 113 104" fill="none" xmlns="http://www.w3.org/2000/svg">
<path fill-rule="evenodd" clip-rule="evenodd" d="M65.5033 4.43811C65.1297 4.05573 60.9008 -1.28904 57.7844 0.291449C54.6679 1.88044 54.7868 5.95912 54.7868 5.95912C54.7868 5.95912 48.9361 4.76951 46.4395 6.72388C43.9429 8.67825 44.8091 11.6693 44.8091 11.6693C44.8091 11.6693 37.0817 12.7994 34.8314 16.0539C32.5811 19.3083 34.1945 20.9568 34.1945 20.9568C34.1945 20.9568 26.8407 21.6791 25.5924 25.4178C24.3357 29.1651 26.3227 32.2326 26.3227 32.2326C26.3227 32.2326 22.3401 31.094 21.5844 34.289C20.8286 37.484 21.5674 40.8744 21.5674 40.8744C21.5674 40.8744 13.8314 47.0094 13.5767 49.9154C13.3219 52.83 16.311 53.4843 16.311 53.4843C16.311 53.4843 10.3244 56.9087 11.0632 60.0357C11.8019 63.1627 15.0458 63.5535 15.0458 63.5535C15.0458 63.5535 11.9293 66.723 13.6616 71.6514C15.3939 76.5799 17.6357 77.2681 17.6357 77.2681C17.6357 77.2681 15.5128 80.6585 17.3725 83.6071C19.2321 86.5556 22.8496 86.5301 22.8496 86.5301C22.8496 86.5301 21.1003 88.1871 24.3356 90.6853C27.571 93.175 31.4262 93.9313 31.4262 93.9313C31.4262 93.9313 27.6899 94.6195 29.8043 96.7693C31.9187 98.9191 38.5253 99.0211 38.5253 99.0211C38.5253 99.0211 38.1431 102.862 43.7476 102.479C49.3522 102.097 50.6004 99.9388 50.6004 99.9388C50.6004 99.9388 56.3153 106.541 58.3194 102.768C60.3234 98.9871 60.4508 97.5341 60.4508 97.5341C60.4508 97.5341 63.5587 102.012 66.4289 99.6414C69.2991 97.2707 70.1738 94.73 70.1738 94.73C70.1738 94.73 79.141 97.5001 79.7694 93.3874C80.3977 89.2748 79.7779 88.646 79.7779 88.646C79.7779 88.646 85.6286 89.0538 87.0128 85.434C88.3969 81.8227 87.1486 78.9761 87.1486 78.9761C87.1486 78.9761 93.0079 78.5937 94.0099 74.5915C95.0119 70.5978 94.2732 68.5244 94.2732 67.7257C94.2732 66.9355 93.8995 68.397 95.8951 63.3071C97.8991 58.2173 97.4066 56.6538 97.4066 56.6538C97.4066 56.6538 101.134 59.1265 101.27 53.4503C101.406 47.7826 101.406 47.7826 101.406 47.7826C101.406 47.7826 103.648 47.9441 104.149 45.2929C104.65 42.6418 102.417 41.1548 102.417 41.1548C102.417 41.1548 105.533 40.8914 104.913 36.5663C104.302 32.2496 101.933 30.6352 101.933 30.6352C101.933 30.6352 106.425 29.1226 106.425 25.1714C106.433 21.2202 100.71 19.6312 100.71 19.6312C100.71 19.6312 106.077 15.578 103.835 13.0373C101.601 10.4967 94.9864 13.2923 94.9864 13.2923C94.9864 13.2923 96.8631 10.1823 92.9994 8.63576C89.1442 7.08926 85.9003 9.34103 85.9003 9.34103C85.9003 9.34103 87.4034 3.47792 83.7944 2.97658C80.1855 2.47524 78.3088 5.58524 78.3088 5.58524C78.3088 5.58524 73.3412 0.537869 69.97 0.546366C66.6327 0.563361 65.5033 4.43811 65.5033 4.43811Z" fill="white"/>
<path fill-rule="evenodd" clip-rule="evenodd" d="M33.4727 94.1352L32.2159 92.8606C32.2159 92.8606 28.7683 90.9063 25.8387 89.4872C22.9175 88.0682 24.5904 85.7824 24.5904 85.7824C24.5904 85.7824 22.0769 85.2301 19.5718 83.3437C17.0668 81.4573 19.7926 76.4694 19.7926 76.4694L21.6777 75.9426C21.6777 75.9426 22.3146 72.5947 23.5714 72.5437C24.8281 72.4927 26.9086 76.6054 27.8512 77.778C28.7853 78.9506 33.2944 77.5401 33.5066 75.0929C33.7189 72.6456 37.5912 74.804 37.5912 74.804C37.5912 74.804 40.9284 77.7525 42.1936 78.1434C43.4504 78.5342 47.5434 71.6005 47.5434 71.6005C47.5434 71.6005 48.3756 75.5432 50.7787 77.0982C53.1819 78.6532 56.0181 75.5432 56.0181 75.5432C56.0181 75.5432 56.2134 81.5083 58.4043 83.9555C60.5951 86.4027 63.2191 83.9725 63.2191 83.9725C63.2191 83.9725 63.219 83.9725 64.255 87.023C65.2995 90.0735 68.849 90.8043 68.849 90.8043C68.849 90.8043 72.0929 91.654 74.8187 88.4421C77.5445 85.2216 76.084 82.6299 76.084 82.6299C76.084 82.6299 81.4167 83.3947 83.4123 80.9815C85.4078 78.5682 81.8583 71.422 81.8583 71.422C81.8583 71.422 83.7435 72.8836 85.6201 73.6908C87.5053 74.4896 90.0188 72.1698 90.2311 68.8389C90.4434 65.5079 89.2036 61.3613 89.2036 61.3613C89.2036 61.3613 90.7661 64.2843 91.0803 63.4941C91.3944 62.7039 94.3326 60.0357 94.5449 57.1466C94.7572 54.2576 93.2541 49.1762 93.2541 49.1762L95.1817 52.3542C95.1817 52.3542 97.6868 53.6798 98.6888 50.4848C99.6908 47.2898 98.3916 42.9732 98.3916 42.9732C98.3916 42.9732 99.9031 45.174 101.109 44.0694C102.315 42.9647 100.803 40.2116 100.803 40.2116L98.7737 36.8127C98.7737 36.8127 100.812 38.1043 101.805 37.9003C102.799 37.6879 103.75 35.878 103.071 33.5328C102.391 31.179 98.2642 28.103 98.2642 28.103C98.2642 28.103 100.302 29.1737 101.245 28.9102C102.187 28.6468 103.189 25.6728 102.62 23.54C102.052 21.4072 96.4555 19.1554 96.4555 19.1554C96.4555 19.1554 99.5465 17.9743 100.803 16.4703C102.06 14.9747 101.754 12.7824 101.754 12.7824C102.935 13.5217 103.767 14.2185 104.344 14.8048C104.005 17.1075 100.71 19.6057 100.71 19.6057C100.71 19.6057 106.433 21.1947 106.425 25.146C106.416 29.0972 101.933 30.6097 101.933 30.6097C101.933 30.6097 104.293 32.2242 104.913 36.5408C105.525 40.8574 102.417 41.1293 102.417 41.1293C102.417 41.1293 104.658 42.6163 104.149 45.2675C103.648 47.9271 101.406 47.7572 101.406 47.7572C101.406 47.7572 101.406 47.7572 101.27 53.4248C101.134 59.0925 97.4066 56.6283 97.4066 56.6283C97.4066 56.6283 97.8991 58.1833 95.8951 63.2817C93.891 68.38 94.2731 66.91 94.2731 67.7002C94.2731 68.4905 95.0119 70.5638 94.0099 74.566C93.0079 78.5597 87.1486 78.9506 87.1486 78.9506C87.1486 78.9506 88.3884 81.7972 87.0127 85.4085C85.6371 89.0284 79.7778 88.6205 79.7778 88.6205C79.7778 88.6205 80.3977 89.2493 79.7693 93.362C79.141 97.4746 70.1737 94.7045 70.1737 94.7045C70.1737 94.7045 69.2991 97.2452 66.4289 99.616C63.5587 101.978 60.4508 97.5086 60.4508 97.5086C60.4508 97.5086 60.3234 98.9617 58.3194 102.743C56.3153 106.516 50.6004 99.9134 50.6004 99.9134C50.6004 99.9134 49.3521 102.08 43.7476 102.454C38.1431 102.828 38.5252 98.9957 38.5252 98.9957C38.5252 98.9957 37.4468 98.9787 36.0202 98.8087C34.186 97.7805 31.7744 96.387 31.2733 95.8687C30.4412 95.0444 33.4727 94.1352 33.4727 94.1352Z" fill="#E8E2BD"/>
<path fill-rule="evenodd" clip-rule="evenodd" d="M70.1228 1.11566C70.437 1.14965 73.944 1.94839 75.2857 3.40992C76.6274 4.87145 78.0201 5.71268 78.0201 5.71268C78.0201 5.71268 77.8842 5.67019 77.4766 7.15722C77.069 8.64424 76.6614 9.94432 76.6614 9.94432C76.6614 9.94432 75.2772 5.87413 73.4855 3.96225C71.6938 2.04186 70.1228 1.11566 70.1228 1.11566Z" fill="#E8E2BD"/>
<path fill-rule="evenodd" clip-rule="evenodd" d="M80.9666 3.99627C80.9666 3.99627 84.0151 3.03608 84.8982 3.93679C85.7899 4.8375 85.8069 8.05796 85.6455 8.8652C85.4842 9.67244 85.2974 10.1058 85.2974 10.1058L83.1404 12.3661C83.1404 12.3661 84.5501 8.48283 84.0151 6.63042C83.4716 4.77802 80.9666 3.99627 80.9666 3.99627Z" fill="#E8E2BD"/>
<path fill-rule="evenodd" clip-rule="evenodd" d="M92.0903 9.07763C91.8695 9.04364 93.9158 10.2671 92.9224 12.1447C91.9205 14.0139 87.7346 15.4158 87.7346 15.4158C87.7346 15.4158 91.029 15.8746 91.8695 15.5092C92.7016 15.1439 94.2809 13.6316 94.2809 13.6316C94.2809 13.6316 97.0063 9.85927 92.0903 9.07763Z" fill="#E8E2BD"/>
<path fill-rule="evenodd" clip-rule="evenodd" d="M74.895 62.398C74.895 62.398 79.455 63.8425 81.0175 62.4404C82.5885 61.0384 82.2998 58.9651 82.6904 59.05C83.081 59.135 86.4777 60.3246 87.7259 58.9226C88.9742 57.5205 89.1865 56.5264 89.1865 56.5264C89.1865 56.5264 87.5901 58.4212 85.8663 58.4128C84.134 58.3958 81.8752 56.5603 81.8752 56.5603C81.8752 56.5603 82.0026 60.0442 80.058 61.1913C78.1219 62.3385 74.895 62.398 74.895 62.398Z" fill="#E8E2BD"/>
<path fill-rule="evenodd" clip-rule="evenodd" d="M68.3057 69.3572C68.3057 69.3572 68.934 70.9887 70.3437 70.4279C71.7618 69.867 72.7044 68.1676 72.7044 68.1676C72.7044 68.1676 74.6659 70.4873 75.4472 70.6233C76.2369 70.7592 78.1985 70.5893 78.1985 70.5893C78.1985 70.5893 76.3133 72.5012 74.5895 71.7449C72.8657 70.9887 72.8657 70.9887 72.8657 70.9887C72.8657 70.9887 69.7917 74.0222 68.3057 69.3572Z" fill="#E8E2BD"/>
<path fill-rule="evenodd" clip-rule="evenodd" d="M71.4896 75.5772C71.4896 75.5772 69.9613 76.6307 69.1717 76.104C68.3735 75.5772 69.783 78.5254 71.4896 75.5772Z" fill="#E8E2BD"/>
<path fill-rule="evenodd" clip-rule="evenodd" d="M68.4238 77.3192C68.4238 77.3192 65.3502 79.4347 63.7624 78.3727C62.1662 77.3107 65.0021 83.2325 68.4238 77.3192Z" fill="#E8E2BD"/>
<path fill-rule="evenodd" clip-rule="evenodd" d="M61.5964 70.5296C61.5964 70.5296 57.4699 70.8015 56.4001 69.0003C55.3303 67.1991 55.2284 74.047 61.5964 70.5296Z" fill="#E8E2BD"/>
<path fill-rule="evenodd" clip-rule="evenodd" d="M36.6054 65.5334C36.6054 65.5334 33.8884 68.6005 31.9356 67.9548C29.9827 67.3091 34.4913 72.6362 36.6054 65.5334Z" fill="#E8E2BD"/>
<path fill-rule="evenodd" clip-rule="evenodd" d="M60.3999 1.16669C60.3999 1.16669 63.1508 2.4751 64.2037 3.66457C65.2565 4.86254 65.2565 4.86254 65.2565 4.86254L63.1424 8.42245C63.1424 8.42245 62.981 3.40968 60.3999 1.16669Z" fill="#E8E2BD"/>
<path fill-rule="evenodd" clip-rule="evenodd" d="M46.0912 8.24493C46.0912 8.24493 45.3864 9.01809 46.4393 10.335C47.4921 11.6519 49.3685 11.6944 49.3685 11.6944C49.3685 11.6944 47.9591 12.1277 46.7874 12.1787C45.6157 12.2296 44.3251 10.5474 46.0912 8.24493Z" fill="#E8E2BD"/>
<path fill-rule="evenodd" clip-rule="evenodd" d="M36.521 15.4166C36.7503 15.2042 36.4022 17.8975 37.5144 18.5347C38.6267 19.1719 41.4455 18.6707 41.4455 18.6707C41.4455 18.6707 39.5691 20.115 37.455 20.5823C35.3493 21.0496 34.9333 20.6333 34.9333 20.6333C34.9333 20.6333 33.9993 17.6936 36.521 15.4166Z" fill="#E8E2BD"/>
<path fill-rule="evenodd" clip-rule="evenodd" d="M27.1803 24.8145C27.1803 24.8145 26.416 27.5167 28.2842 28.4174C30.1609 29.3266 34.5511 28.5788 33.9652 28.9782C33.3793 29.3776 29.1589 31.5444 28.038 31.7823C26.9256 32.0202 26.9255 32.0202 26.9255 32.0202C26.9255 32.0202 24.7177 27.5252 27.1803 24.8145Z" fill="#E8E2BD"/>
<path fill-rule="evenodd" clip-rule="evenodd" d="M22.357 34.0766C22.5523 33.3374 21.8221 36.3961 23.3504 37.4411C24.8702 38.4861 27.9184 38.724 27.9184 38.724C27.9184 38.724 23.4014 40.5932 22.7561 40.0664C22.1108 39.5397 21.4146 37.5855 22.357 34.0766Z" fill="#E8E2BD"/>
<path fill-rule="evenodd" clip-rule="evenodd" d="M24.8027 45.3694C24.7688 45.0126 20.8711 48.454 18.0518 49.0743C15.2411 49.6946 14.5957 49.0403 14.5957 49.0403C14.5957 49.0403 13.8824 53.4079 17.2281 53.6968C20.5569 53.9857 25.2018 49.754 24.8027 45.3694Z" fill="#E8E2BD"/>
<path fill-rule="evenodd" clip-rule="evenodd" d="M74.1139 30.2188C74.1139 30.2188 64.6796 27.6102 61.0197 24.1008C61.0197 24.1008 52.6045 38.6141 60.1451 42.3869C67.6772 46.1682 71.7532 34.6459 74.1139 30.2188Z" fill="#3C2012"/>
<path fill-rule="evenodd" clip-rule="evenodd" d="M71.9485 34.6033C69.5878 33.2013 62.1067 29.5135 57.0287 35.674C56.8334 38.5036 57.5297 41.0868 60.1366 42.3953C65.7666 45.2079 69.4605 39.5148 71.9485 34.6033Z" fill="#DF3255"/>
<path fill-rule="evenodd" clip-rule="evenodd" d="M64.5692 41.9365C64.5692 41.9365 67.2186 40.4155 67.6432 39.3024C68.0762 38.1977 68.883 36.3284 65.5712 35.0623C62.2595 33.8047 61.0962 33.7537 59.2875 35.1302C57.8779 36.2009 57.1136 39.2004 59.6526 40.8234C62.1916 42.4379 62.7266 42.8967 64.5692 41.9365Z" fill="#EA5160"/>
<path fill-rule="evenodd" clip-rule="evenodd" d="M64.4921 40.5001C64.4921 40.5001 63.3289 41.7491 61.2826 40.6021C59.2279 39.4551 58.226 38.5885 58.9562 37.7474C59.6779 36.9062 60.2637 37.3565 61.4015 38.1892C62.5477 39.0303 63.4732 39.3871 63.7194 39.4126C63.9741 39.4296 65.2138 39.4806 64.4921 40.5001Z" fill="#EF787B"/>
<path fill-rule="evenodd" clip-rule="evenodd" d="M79.0305 42.7008C80.4654 43.4739 82.0871 43.253 82.6475 42.2165C83.1993 41.1799 82.4861 39.7101 81.0512 38.9369C79.6163 38.1638 77.9946 38.3762 77.4343 39.4127C76.8739 40.4578 77.5956 41.9361 79.0305 42.7008Z" fill="#EA5160"/>
<path fill-rule="evenodd" clip-rule="evenodd" d="M49.4792 28.6718C50.9142 29.4449 52.5359 29.224 53.0963 28.196C53.6482 27.1595 52.935 25.6896 51.5 24.9165C50.0651 24.1433 48.4434 24.3557 47.883 25.3923C47.3226 26.4288 48.0443 27.8986 49.4792 28.6718Z" fill="#EA5160"/>
<path d="M85.9598 37.6539C85.756 37.6539 85.5522 37.6029 85.3569 37.501C84.7115 37.1696 84.4652 36.3793 84.7964 35.7335C85.1276 35.0878 85.8749 33.1334 85.3739 31.8673C85.2465 31.5359 84.9663 31.06 84.0662 30.7541C83.3613 30.5077 82.7415 30.5332 82.1555 30.8221C80.7799 31.5019 79.8543 33.5328 79.642 34.187C79.4127 34.8753 78.6824 35.2492 77.9861 35.0283C77.2983 34.8073 76.9247 34.0596 77.1455 33.3713C77.2643 33.0059 78.3937 29.76 80.9922 28.4769C82.2065 27.8736 83.5736 27.8056 84.9408 28.2899C86.3334 28.7828 87.3354 29.692 87.8195 30.9241C88.8469 33.5158 87.31 36.6173 87.1316 36.9572C86.8939 37.3905 86.4353 37.6539 85.9598 37.6539Z" fill="#3C200E"/>
<path d="M56.8843 23.7864C56.689 23.7864 56.4937 23.7439 56.2984 23.6504C55.653 23.3275 55.3813 22.5458 55.704 21.8915C56.0267 21.2372 56.7315 19.2658 56.205 18.0167C56.0691 17.6938 55.7804 17.218 54.8803 16.9206C54.1755 16.6912 53.5471 16.7252 52.9697 17.0226C51.6025 17.7278 50.7193 19.7757 50.5155 20.43C50.3032 21.1267 49.5645 21.5091 48.8766 21.2967C48.1803 21.0843 47.7982 20.345 48.0105 19.6567C48.1209 19.2913 49.1823 16.0199 51.7638 14.6858C52.9696 14.057 54.3283 13.9635 55.704 14.4224C57.1051 14.8812 58.1241 15.7735 58.6336 16.9971C59.7121 19.5717 58.2345 22.6987 58.0562 23.0386C57.8269 23.5145 57.3599 23.7864 56.8843 23.7864Z" fill="#3C200E"/>
<path fill-rule="evenodd" clip-rule="evenodd" d="M56.0776 42.5993C56.0776 42.5993 57.7929 47.6722 64.3145 46.4741C64.3145 46.4741 60.8584 48.4029 57.657 46.814C54.4557 45.2165 56.0776 42.5993 56.0776 42.5993Z" fill="#E8E2BD"/>
<path d="M29.6453 35.364C29.2292 35.364 28.8216 35.1686 28.5669 34.8032C28.5074 34.7183 22.5208 26.2975 16.5002 27.81C10.2503 29.3735 8.13591 33.4777 8.0425 33.6561C7.71982 34.3019 6.93007 34.5738 6.28471 34.2509C5.63934 33.9365 5.36762 33.1548 5.68181 32.5005C5.7922 32.2795 8.35669 27.1387 15.8548 25.2608C23.6332 23.3149 30.4265 32.8828 30.7068 33.2992C31.1229 33.894 30.9785 34.7098 30.3841 35.1261C30.1718 35.2876 29.9085 35.364 29.6453 35.364Z" fill="#312E2D"/>
<path d="M102.81 74.4854C102.419 74.4854 102.028 74.307 101.774 73.9756C101.332 73.4062 101.434 72.5735 102.011 72.1317L108.779 66.8888C108.83 66.8464 108.881 66.8124 108.932 66.7869C109.314 66.566 109.45 66.4045 109.476 66.3535C109.204 64.9345 101.646 61.629 93.2989 59.3603C92.6026 59.1733 92.1865 58.4511 92.3733 57.7458C92.5601 57.049 93.2819 56.6327 93.9867 56.8196C99.2516 58.2556 111.564 62.0199 112.074 66.0901C112.176 66.8973 111.947 68.053 110.316 69.0132L103.616 74.205C103.37 74.3919 103.09 74.4854 102.81 74.4854Z" fill="#312E2D"/>
<path fill-rule="evenodd" clip-rule="evenodd" d="M3.19362 42.5782C3.19362 42.5782 -0.474789 41.601 0.0516958 38.8309C0.586672 36.0608 2.65863 30.4441 7.94046 32.6704C13.2138 34.8967 13.1289 37.3354 10.8361 38.525C8.54338 39.7146 7.82159 37.8282 7.82159 37.8282C7.82159 37.8282 7.56684 43.4025 3.19362 42.5782Z" fill="#312E2D"/>
<path fill-rule="evenodd" clip-rule="evenodd" d="M103.132 73.0324C103.132 73.0324 101.196 71.027 98.7846 73.6357C96.3814 76.2443 96.6447 79.3203 98.9205 80.8583C101.196 82.3963 102.869 80.7903 102.869 79.1844C102.869 77.5784 102.869 77.5784 102.869 77.5784C102.869 77.5784 106.402 75.641 103.132 73.0324Z" fill="#312E2D"/>
</svg>
