<svg width="40" height="64" viewBox="0 0 40 64" fill="none" xmlns="http://www.w3.org/2000/svg">
<g clip-path="url(#clip0_850_23018)">
<path d="M11.4413 19.6849C11.5001 19.6849 11.5589 19.6563 11.6178 19.6276C11.7648 19.5418 11.8237 19.3415 11.7354 19.1985C10.6178 17.3959 10.2648 15.9653 10.7354 15.1356C11.2648 14.22 12.5884 14.077 13.3531 14.0484C13.5295 14.0484 13.6766 13.9053 13.6766 13.7336C13.6766 13.562 13.5295 13.4189 13.3531 13.4189C12.4707 13.4189 10.8531 13.6192 10.1766 14.8209C9.55894 15.8795 9.91189 17.4818 11.1766 19.5132C11.206 19.6276 11.3237 19.6849 11.4413 19.6849Z" fill="#3C2012"/>
<path fill-rule="evenodd" clip-rule="evenodd" d="M26.5588 63.6611C27.0294 64.0045 27.4118 63.4895 27.4118 63.4895L8.5 1.4592C7.26471 1.2303 6 2.17449 6 2.17449L26.5588 63.6611Z" fill="#EEC357"/>
<path fill-rule="evenodd" clip-rule="evenodd" d="M26.8234 63.7756C26.8822 63.7756 26.9411 63.7756 26.9999 63.7756L8.70577 6.86682L6.99989 1.63087C6.82341 1.71671 6.67636 1.77393 6.5293 1.85977L26.7058 63.2892L26.8234 63.7756Z" fill="#F5E0B3"/>
<path fill-rule="evenodd" clip-rule="evenodd" d="M26.5588 63.6611C26.7059 63.7756 26.8529 63.8042 26.9706 63.7756L6.91176 1.6881C6.38235 1.88838 6 2.17449 6 2.17449L26.5588 63.6611Z" fill="#F3D99A"/>
<path fill-rule="evenodd" clip-rule="evenodd" d="M11.4706 21.2013C11.4706 21.2013 10.7059 21.2299 10.6471 20.6863C10.5883 20.1427 10.6471 18.9696 11.7942 19.084C12.9412 19.1985 13.0589 19.6563 12.7059 19.9996C12.353 20.343 12.0883 20.0568 12.0883 20.0568C12.0883 20.0568 12.353 21.1155 11.4706 21.2013Z" fill="#3C2012"/>
<path d="M17.2943 27.3814C17.3825 27.3814 17.4707 27.3528 17.5296 27.267C17.6472 27.1239 17.6178 26.9523 17.4707 26.8378C14.2943 24.32 15.2943 18.5976 15.2943 18.5404C15.3237 18.3687 15.206 18.2257 15.0296 18.1685C14.8531 18.1398 14.706 18.2543 14.6472 18.426C14.5884 18.6835 13.5884 24.5775 17.0296 27.3242C17.1472 27.3528 17.2355 27.3814 17.2943 27.3814Z" fill="#3C2012"/>
<path fill-rule="evenodd" clip-rule="evenodd" d="M17.2941 26.8378C17.2941 26.8378 15.2352 27.5531 15.8529 28.6404C16.4411 29.7276 17.9117 27.9251 18.1176 27.6962C18.2941 27.4673 17.9705 26.6661 17.2941 26.8378Z" fill="#3C2012"/>
<path d="M26.5298 27.8392C26.5592 27.8392 26.5886 27.8392 26.618 27.8392C26.7945 27.782 26.8827 27.6389 26.8533 27.4673C25.7945 23.5475 28.4416 18.5404 28.471 18.4832C28.5592 18.3401 28.5004 18.1398 28.3239 18.054C28.1769 17.9682 27.971 18.0254 27.8827 18.1971C27.7651 18.3973 25.118 23.4616 26.2063 27.6103C26.2651 27.7534 26.3827 27.8392 26.5298 27.8392Z" fill="#3C2012"/>
<path fill-rule="evenodd" clip-rule="evenodd" d="M26.6768 27.3528C26.6768 27.3528 24.5886 26.752 24.4121 27.9823C24.2357 29.2126 26.5004 28.5831 26.7945 28.5259C27.0886 28.4401 27.3239 27.6103 26.6768 27.3528Z" fill="#3C2012"/>
<path fill-rule="evenodd" clip-rule="evenodd" d="M11.6173 5.72233C11.235 6.26596 10.9408 7.00986 11.3232 9.75659C11.6173 11.8452 12.0291 15.1928 12.4114 17.7393C12.882 20.8579 13.2055 22.1169 16.6761 22.403C19.4997 22.6319 26.2644 22.1169 29.3526 20.5718C30.5291 19.9996 31.5585 18.2257 31.3232 16.5662C31.1761 15.3645 29.8232 4.6637 29.8232 4.6637C29.8232 4.6637 29.8232 2.37476 27.3526 2.06003C25.2644 1.71669 14.7644 1.80253 11.6173 5.72233Z" fill="#2E5753"/>
<path fill-rule="evenodd" clip-rule="evenodd" d="M14.7051 22.0596C15.2051 22.2313 15.8521 22.3744 16.6757 22.4316C19.4992 22.6605 26.2639 22.1455 29.3521 20.6004C30.0286 20.2571 30.6463 19.5418 31.0286 18.6548C31.0874 18.054 31.1168 17.2529 31.0286 16.509C30.8521 14.9639 29.6757 5.03565 29.6757 5.03565C29.6757 5.03565 29.3521 3.86257 28.5286 3.43339C27.7051 3.00421 25.3521 5.52205 25.3521 5.52205L22.0874 6.60929C22.0874 6.60929 25.9698 6.52346 26.4698 7.75376C26.4698 7.75376 27.8816 16.1942 27.7345 18.2543C27.5874 20.2857 25.7933 20.8865 24.1463 21.1441C22.5286 21.4016 17.3815 22.6319 14.7051 22.0596Z" fill="#1E3E3B"/>
<path fill-rule="evenodd" clip-rule="evenodd" d="M17.9707 22.4602C21.206 22.4888 26.6766 21.9166 29.3531 20.5718C29.7942 20.3716 30.206 19.9996 30.5295 19.5132C30.6766 18.7693 30.7648 17.8537 30.6472 16.9381C30.3825 15.0498 29.3531 5.77957 29.3531 5.77957C29.3531 5.77957 29.0883 4.66371 28.706 4.4062C28.3236 4.1487 26.1472 5.80818 26.1472 5.80818L26.2648 6.23735C26.2648 6.23735 27.3531 6.46625 27.5589 7.26738C27.7648 8.0685 29.0295 17.5962 29.0001 18.5404C29.0001 19.4846 27.8531 20.858 25.3825 21.3157C23.4119 21.6591 20.206 22.3458 17.9707 22.4602Z" fill="#15312E"/>
<path fill-rule="evenodd" clip-rule="evenodd" d="M18.3821 2.80394C16.5586 3.2045 13.941 3.94841 12.8821 4.94982C11.1762 6.58069 10.088 7.86822 15.2939 7.8396C20.4704 7.81099 29.9115 6.49485 29.4704 4.00563C29.1174 1.94559 25.7645 2.03142 22.3821 2.26031C20.9998 2.37476 19.7057 2.48921 18.3821 2.80394Z" fill="#718280"/>
<path fill-rule="evenodd" clip-rule="evenodd" d="M24.9709 3.86258C24.9709 3.86258 25.1179 3.94841 24.765 4.06286C24.412 4.17731 24.412 4.03425 24.412 4.03425C24.412 4.03425 24.2944 4.34898 24.7062 4.32037C25.1179 4.26314 25.1768 3.9198 24.9709 3.86258Z" fill="#F1EFE5"/>
<path fill-rule="evenodd" clip-rule="evenodd" d="M17.7061 3.11867C16.059 3.51923 14.059 4.14869 13.1473 4.94982C11.4708 6.43763 10.4414 7.63932 15.4414 7.55349C20.4414 7.49626 29.5002 6.23735 29.1178 3.97702C28.7649 2.14587 25.7061 2.17448 22.5002 2.43198C20.8531 2.54643 19.3237 2.7181 17.7061 3.11867Z" fill="white"/>
<path fill-rule="evenodd" clip-rule="evenodd" d="M14.5002 4.12008C13.9414 4.37759 13.4708 4.63509 13.1473 4.92121C11.4708 6.40902 10.4414 7.61071 15.4414 7.52488C20.4414 7.46765 29.5002 6.20874 29.1178 3.94841C28.8237 2.28893 26.2649 2.17448 23.412 2.34615C23.4708 2.37476 23.559 2.40338 23.6473 2.43199C24.0002 2.57505 23.8531 2.63227 24.2355 2.57505C24.5884 2.51782 24.559 2.4606 24.7355 2.51782C24.912 2.57505 25.2649 2.37476 25.2943 2.60366C25.2943 2.83255 24.8826 2.86116 25.2649 2.88978C25.6473 2.91839 25.4708 2.91839 25.6473 2.91839C25.8237 2.88978 26.1767 2.91839 26.1767 2.91839C26.1767 2.91839 26.5002 2.63227 26.2943 2.88978C26.0884 3.14728 26.0296 3.14728 26.412 3.17589C26.8237 3.20451 26.6473 3.11867 26.9414 3.26173C27.2649 3.40479 27.3531 3.4334 27.3531 3.4334C27.3531 3.4334 26.8826 3.4334 26.9414 3.66229C27.0002 3.89119 26.9414 3.71952 26.9708 3.94841C27.0296 4.14869 26.559 3.71952 26.6473 4.14869C26.7355 4.57787 26.912 4.57787 26.7355 4.63509C26.559 4.69232 26.8826 4.23453 26.2355 4.52064C25.6179 4.77815 25.4708 4.60648 25.4414 4.8926C25.412 5.17871 25.1179 5.06427 24.9414 5.32177C24.7649 5.57928 24.5002 5.57928 24.3531 5.55067C24.2061 5.49344 24.559 5.17871 24.0884 5.52206C23.6473 5.8654 23.1473 5.29316 22.8237 5.6365C22.5002 5.97984 21.8531 6.20874 21.8531 6.20874C21.8531 6.20874 21.1473 5.92262 20.9414 6.29457C20.7061 6.63791 20.0002 6.46624 19.7649 6.55208C19.559 6.58069 19.1473 6.63791 18.6473 6.29457C18.1767 5.97984 17.7061 5.8654 17.5002 6.06568C17.2943 6.26596 17.412 6.20874 16.8237 6.23735C16.2355 6.23735 16.059 6.26596 16.059 6.26596C16.059 6.26596 15.7943 6.09429 15.5002 6.20874C15.1767 6.32318 14.8826 5.92262 14.6767 6.09429C14.4708 6.26596 14.1767 6.00846 13.9708 6.15151C13.7649 6.29457 13.5002 6.29457 13.2943 6.32318C13.0884 6.3518 12.9414 6.46624 12.912 6.29457C12.8826 6.1229 12.3237 6.46624 12.912 6.06568C13.5002 5.66511 13.3826 5.43622 13.3826 5.43622C13.3826 5.43622 12.8531 5.40761 13.3531 5.1501C13.8531 4.8926 13.8531 4.80676 14.059 4.74954C14.2355 4.69232 13.9708 4.94982 14.3531 4.43481C14.3826 4.32036 14.4414 4.23453 14.5002 4.12008Z" fill="#F1EFE5"/>
<path fill-rule="evenodd" clip-rule="evenodd" d="M12.5002 5.55068C11.3237 6.75237 11.1472 7.61072 15.4413 7.5535C20.4413 7.49628 29.5002 6.23736 29.1178 3.97703C28.8825 2.6895 27.3237 2.34616 25.2943 2.31755C25.4413 2.432 25.5884 2.51783 25.7354 2.60367C26.1472 2.83256 26.559 2.60367 26.559 2.60367C26.559 2.60367 26.6178 2.71811 26.8237 2.9184C27.059 3.11868 27.206 2.86117 27.206 2.86117C27.206 2.86117 27.6472 3.03284 27.559 3.26174C27.4413 3.49063 27.6472 3.43341 27.8237 3.54786C28.0002 3.6623 28.3237 4.49204 28.0002 4.46343C27.6472 4.46343 27.4413 4.09148 27.3237 4.3776C27.206 4.66371 27.5296 5.1215 26.9707 5.17873C26.4413 5.20734 25.7943 5.03567 25.8237 5.40762C25.8531 5.77957 25.206 6.15152 24.5296 6.12291C23.8825 6.0943 22.6178 6.29458 22.6472 6.46625C22.6766 6.63792 22.5002 6.49487 21.7943 6.69515C21.1178 6.89543 20.0002 6.89543 19.6766 7.03849C19.3825 7.18155 18.4413 7.43905 18.4119 7.03849C18.3825 6.63792 18.0002 6.43764 17.559 6.66654C17.1178 6.92404 16.6472 6.83821 16.4707 6.83821C16.2943 6.86682 16.1766 6.55209 15.6178 6.69515C15.059 6.83821 14.9707 6.98127 14.9707 6.98127C14.9707 6.98127 14.9119 6.72376 14.5002 6.78098C14.0884 6.83821 13.6766 6.86682 13.5884 6.95265C13.5002 7.00988 13.2354 6.63792 12.7649 6.75237C12.2943 6.86682 12.3237 7.23877 12.2354 6.78098C12.1472 6.3232 12.0296 6.38042 12.206 6.06569C12.2943 5.92263 12.4119 5.75096 12.5002 5.55068Z" fill="#E7E5D8"/>
<path fill-rule="evenodd" clip-rule="evenodd" d="M26.2069 3.37618C26.2657 3.37618 26.501 3.34757 26.5304 3.51924C26.5892 3.69091 26.5304 3.77674 26.4716 3.77674C26.4127 3.77674 26.2069 3.80535 26.2363 3.74813C26.2657 3.69091 26.4127 3.6623 26.3245 3.57646C26.2363 3.51924 26.001 3.4334 26.001 3.4334L26.2069 3.37618Z" fill="#F1EFE5"/>
<path fill-rule="evenodd" clip-rule="evenodd" d="M25.8234 4.03424C25.8234 4.03424 25.9705 4.12008 25.6175 4.23452C25.2646 4.34897 25.2646 4.20591 25.2646 4.20591C25.2646 4.20591 25.1469 4.52064 25.5587 4.49203C25.9705 4.43481 26.0293 4.09146 25.8234 4.03424Z" fill="#F1EFE5"/>
<path fill-rule="evenodd" clip-rule="evenodd" d="M24.9123 4.69232C24.9123 4.69232 25.0593 4.77816 24.7064 4.8926C24.3534 5.00705 24.3534 4.86399 24.3534 4.86399C24.3534 4.86399 24.2358 5.17872 24.6476 5.15011C25.0593 5.1215 25.1182 4.74955 24.9123 4.69232Z" fill="#F1EFE5"/>
<path fill-rule="evenodd" clip-rule="evenodd" d="M25.3231 3.00421C25.3819 3.00421 25.6172 2.9756 25.6466 3.14727C25.676 3.31894 25.6466 3.40478 25.5878 3.40478C25.529 3.40478 25.3231 3.43339 25.3525 3.37617C25.3819 3.31894 25.529 3.29033 25.4407 3.2045C25.3525 3.11866 25.1172 3.03283 25.1172 3.03283L25.3231 3.00421Z" fill="#F1EFE5"/>
<path fill-rule="evenodd" clip-rule="evenodd" d="M13.5588 5.49345C13.5588 5.49345 13.4411 5.6079 13.7941 5.63651C14.1764 5.63651 14.147 5.52207 14.147 5.52207C14.147 5.52207 14.3529 5.80818 13.9411 5.8654C13.5294 5.92263 13.3823 5.6079 13.5588 5.49345Z" fill="#F1EFE5"/>
<path fill-rule="evenodd" clip-rule="evenodd" d="M14.912 5.60789C14.912 5.60789 14.9709 5.83678 15.1179 5.86539C15.2944 5.92262 15.5591 5.894 15.5591 5.894C15.5591 5.894 15.265 5.83678 15.1767 5.75095C15.0885 5.66511 14.8826 5.55066 14.912 5.60789Z" fill="#F1EFE5"/>
<path fill-rule="evenodd" clip-rule="evenodd" d="M14.001 5.1501C14.001 5.1501 14.0304 5.29316 14.1186 5.32177C14.2069 5.35038 14.3245 5.35038 14.3245 5.35038C14.3245 5.35038 14.1774 5.29316 14.1186 5.23593C14.0892 5.17871 14.001 5.09287 14.001 5.1501Z" fill="#F1EFE5"/>
<path fill-rule="evenodd" clip-rule="evenodd" d="M18.8816 3.49062C18.4698 3.60507 17.9404 3.6909 17.411 3.80535C17.0581 3.89119 15.0287 4.57787 15.411 5.55067C15.5581 5.89401 16.1169 6.1229 17.1757 6.20874C19.0287 6.3518 25.8522 5.66511 25.5581 4.09147C25.3522 2.947 23.5581 2.97561 21.7051 3.09006C20.7345 3.14728 19.8228 3.23312 18.8816 3.49062Z" fill="#E7E5D8"/>
<path fill-rule="evenodd" clip-rule="evenodd" d="M18.9403 3.46201C18.5286 3.54785 18.0286 3.63368 17.558 3.74813C17.2345 3.83397 15.2933 4.46342 15.6462 5.379C15.7639 5.72234 16.3227 5.92262 17.2933 6.00846C19.0286 6.15152 25.5286 5.49345 25.2639 4.00564C25.0874 2.91839 23.3815 2.947 21.5874 3.06145C20.705 3.14728 19.8227 3.23312 18.9403 3.46201Z" fill="#C94B17"/>
<path fill-rule="evenodd" clip-rule="evenodd" d="M18.882 3.46201C18.7055 3.57646 18.5585 3.71952 18.4997 3.80535C18.2644 4.06286 18.1467 4.23453 17.9702 4.92121C17.882 5.29316 17.882 5.72234 17.9114 6.00846C17.7349 6.00846 17.5879 6.00846 17.4702 6.00846C17.4408 5.55067 17.4997 4.83538 17.882 4.37759C18.1467 4.09147 18.3232 3.77674 18.4114 3.54785C18.5879 3.54785 18.7644 3.51924 18.882 3.46201ZM17.0585 3.9198C16.9997 4.09147 16.9114 4.26314 16.8232 4.34898C16.6173 4.57787 16.382 4.92121 16.3526 5.17872C16.3526 5.29316 16.3526 5.57928 16.4114 5.8654C16.2938 5.83679 16.1761 5.80817 16.0879 5.75095C16.0879 5.6365 16.0879 5.49344 16.1173 5.379C16.1761 4.77815 16.4114 4.6637 16.7644 4.20592C16.8232 4.14869 16.8526 4.06286 16.882 4.00563C16.9408 3.97702 16.9997 3.94841 17.0585 3.9198ZM19.2938 5.97984C19.2644 5.75095 19.2055 5.35039 19.2644 4.94982C19.3232 4.34898 19.5585 4.23453 19.9114 3.77674C20.0291 3.60507 20.1467 3.40479 20.2055 3.23312C20.2349 3.23312 20.2938 3.23312 20.3526 3.20451C20.2349 3.46201 20.1467 3.77674 19.9997 3.9198C19.7938 4.14869 19.5585 4.49203 19.5291 4.74954C19.4997 4.92121 19.5879 5.6365 19.6467 5.95123C19.5291 5.95123 19.4114 5.97984 19.2938 5.97984ZM20.7349 5.83679C20.6761 5.40761 20.6761 4.52065 21.1173 4.00563C21.4114 3.66229 21.5879 3.29034 21.7055 3.09006C21.8526 3.09006 21.9997 3.06145 22.1467 3.06145C21.9702 3.20451 21.8232 3.31895 21.7349 3.4334C21.5291 3.69091 21.382 3.86258 21.2055 4.54926C21.0879 5.00705 21.1173 5.52206 21.1467 5.80817C20.9997 5.77956 20.882 5.80817 20.7349 5.83679ZM23.1467 4.4062C23.2349 4.03425 23.4114 3.83396 23.6467 3.54785C23.7349 3.40479 23.7938 3.23312 23.8232 3.09006C23.882 3.09006 23.9408 3.11867 23.9997 3.11867C23.9408 3.31895 23.882 3.57646 23.7938 3.71952C23.6467 3.94841 23.4997 4.17731 23.382 4.63509C23.3232 4.86399 23.382 5.1501 23.4408 5.35039C23.3232 5.379 23.2055 5.40761 23.0585 5.43622C23.0879 5.12149 23.0879 4.6637 23.1467 4.4062Z" fill="#D87B4A"/>
<path fill-rule="evenodd" clip-rule="evenodd" d="M18.9405 3.46201C18.5581 3.54784 18.0581 3.63368 17.5876 3.74812C17.264 3.83396 15.3817 4.40619 15.7052 5.23593C15.8228 5.52205 16.3523 5.72233 17.3228 5.77956C19.0287 5.86539 25.3523 5.23593 25.117 3.89118C24.9405 2.94699 23.2934 2.97561 21.5581 3.09005C20.6758 3.14728 19.8228 3.23311 18.9405 3.46201Z" fill="#EE8744"/>
<path fill-rule="evenodd" clip-rule="evenodd" d="M18.9113 3.46201C18.7348 3.57646 18.5878 3.71952 18.4995 3.83397C18.2642 4.09147 18.1466 4.26314 17.9701 4.94982C17.9113 5.20733 17.8819 5.52206 17.8819 5.77956C17.7348 5.77956 17.5878 5.77956 17.4407 5.77956C17.4407 5.35039 17.529 4.80676 17.8525 4.43481C18.1172 4.12008 18.2937 3.80535 18.4113 3.57646C18.6172 3.51924 18.7642 3.49062 18.9113 3.46201ZM17.0584 3.89119C16.9995 4.06286 16.9113 4.26314 16.8231 4.34898C16.6172 4.57787 16.3819 4.92121 16.3525 5.17872C16.3525 5.26455 16.3525 5.40761 16.3819 5.60789C16.2642 5.57928 16.176 5.55067 16.1172 5.52206C16.1172 5.46483 16.1172 5.43622 16.1172 5.379C16.176 4.77815 16.4113 4.66371 16.7642 4.20592C16.8231 4.12008 16.8819 4.03425 16.9113 3.97702C16.9701 3.94841 16.9995 3.9198 17.0584 3.89119ZM19.2642 5.69373C19.2348 5.49345 19.2348 5.20733 19.2642 4.94982C19.3231 4.34898 19.5584 4.23453 19.9113 3.77674C20.0289 3.60507 20.1466 3.40479 20.2054 3.23312C20.2642 3.23312 20.2937 3.23312 20.3525 3.20451C20.2348 3.46201 20.1466 3.77674 19.9995 3.9198C19.7937 4.14869 19.5584 4.49204 19.529 4.74954C19.4995 4.8926 19.5584 5.32178 19.6172 5.66512C19.4701 5.66512 19.3819 5.66512 19.2642 5.69373ZM20.7054 5.52206C20.7054 5.06427 20.7642 4.4062 21.1172 3.97702C21.4113 3.63368 21.6172 3.26173 21.7054 3.06145C21.8525 3.06145 21.9995 3.03284 22.1466 3.03284C21.9701 3.1759 21.7937 3.29034 21.7348 3.40479C21.5289 3.66229 21.3819 3.83397 21.2054 4.52065C21.1172 4.83538 21.1172 5.17872 21.1172 5.46483C20.9995 5.49345 20.8525 5.52206 20.7054 5.52206ZM23.1466 4.4062C23.2348 4.03425 23.4113 3.83397 23.6466 3.54785C23.7348 3.40479 23.7937 3.23312 23.8231 3.06145C23.8819 3.06145 23.9407 3.09006 23.9995 3.09006C23.9113 3.29034 23.8819 3.54785 23.7937 3.69091C23.6466 3.9198 23.4995 4.14869 23.3819 4.60648C23.3525 4.74954 23.3525 4.8926 23.3819 5.03566C23.2937 5.06427 23.2054 5.09288 23.0878 5.12149C23.0878 4.86399 23.1172 4.57787 23.1466 4.4062Z" fill="#F3A663"/>
<path fill-rule="evenodd" clip-rule="evenodd" d="M26.2933 9.06991C26.2933 9.06991 27.5286 17.682 27.2051 18.7693C26.8815 19.8565 25.6757 20.486 24.411 20.7721C23.1462 21.0582 22.411 21.2013 22.411 21.2013C22.411 21.2013 21.8815 21.1155 22.6168 20.6291C23.3815 20.1427 26.6757 19.8279 26.5874 17.9109C26.4992 15.994 26.2639 10.5005 26.1168 9.81382C25.9992 9.09852 26.2345 8.32601 26.2933 9.06991Z" fill="#416260"/>
<path fill-rule="evenodd" clip-rule="evenodd" d="M12.5588 8.18294C12.5588 8.18294 11.7647 7.8396 11.7647 8.52628C11.7353 9.24158 12.0294 12.1314 12.353 14.9353C12.6765 17.7393 13.2941 20.2857 13.9118 20.8293C14.5294 21.373 14.7353 20.5432 14.3236 19.7421C13.9118 18.941 13.7353 17.5676 13.3824 14.9639C13.0588 12.3889 12.7059 9.72798 13 9.2988C13.2941 8.86962 13.353 8.44045 12.5588 8.18294Z" fill="#416260"/>
<path fill-rule="evenodd" clip-rule="evenodd" d="M14.4115 8.44044C13.9115 8.44044 13.9409 8.78378 14.3233 8.86962C14.7056 8.95545 15.9409 8.95545 16.2644 8.92684C16.588 8.89823 16.2644 8.41183 15.8821 8.38322C15.4409 8.35461 14.4115 8.44044 14.4115 8.44044Z" fill="#416260"/>
<path fill-rule="evenodd" clip-rule="evenodd" d="M12.2647 8.38323C12.2647 8.38323 11.8235 8.12572 11.8824 8.84101C11.9412 9.55631 12.3235 14.5061 12.6765 16.5662C13.0294 18.6262 13.5 20.3429 13.7941 20.6004C14.0882 20.8579 14.0588 20.5718 13.8824 20.0854C13.7059 19.6276 13 15.7937 12.8235 14.3917C12.6471 12.9897 12.3529 9.7852 12.3824 9.35603C12.4118 8.92685 12.5882 8.41184 12.2647 8.38323Z" fill="#536D6A"/>
<path fill-rule="evenodd" clip-rule="evenodd" d="M12.2647 8.38323C12.2647 8.38323 11.8235 8.12572 11.8824 8.84101C11.9412 9.55631 12.3235 14.5061 12.6765 16.5662C13.0294 18.6262 13.5 20.3429 13.7941 20.6004C14.0294 20.8007 14.0588 20.6863 14 20.4002C13.7647 19.9996 13.5 19.4274 13.2941 18.6262C12.6176 16.0798 12.1765 10.4433 12.2059 9.44186C12.2059 8.8124 12.3235 8.5549 12.4118 8.44045C12.3824 8.41184 12.3529 8.38323 12.2647 8.38323Z" fill="#627976"/>
<path fill-rule="evenodd" clip-rule="evenodd" d="M18.9406 3.46201C18.9994 3.46201 19.0288 3.4334 19.0877 3.4334C18.8818 3.57646 18.6465 3.74813 18.5582 3.86258C18.323 4.12008 18.2053 4.29175 18.0288 4.94982C17.9406 5.32177 17.9406 5.75095 17.97 6.03707C17.823 6.03707 17.6759 6.03707 17.5288 6.03707C17.4994 5.57928 17.5582 4.86399 17.9406 4.43481C18.2347 4.12008 18.4112 3.77674 18.5288 3.54785C18.6759 3.51923 18.823 3.49062 18.9406 3.46201ZM17.1465 3.89119C17.0582 4.09147 16.9994 4.29175 16.8818 4.4062C16.6759 4.63509 16.4406 4.97843 16.4112 5.20733C16.4112 5.32178 16.4112 5.60789 16.47 5.92262C16.3524 5.89401 16.2347 5.8654 16.1465 5.83679C16.1465 5.69373 16.1465 5.57928 16.1759 5.43622C16.2641 4.86399 16.47 4.72093 16.823 4.29175C16.8818 4.20592 16.9406 4.09147 16.9994 4.00563C17.0288 3.94841 17.0877 3.9198 17.1465 3.89119ZM19.3524 5.97984C19.323 5.77956 19.2641 5.35039 19.323 4.94982C19.4112 4.37759 19.6171 4.23453 19.97 3.80535C20.1171 3.60507 20.2053 3.40479 20.2641 3.23312C20.323 3.23312 20.3524 3.23312 20.4112 3.20451C20.2935 3.46201 20.1759 3.80535 20.0288 3.97702C19.823 4.20592 19.5877 4.54926 19.5582 4.77815C19.5288 4.94982 19.6171 5.69373 19.6759 5.97984C19.5877 5.95123 19.47 5.95123 19.3524 5.97984ZM20.7641 5.83679C20.7053 5.43622 20.7053 4.54926 21.1465 4.03425C21.47 3.66229 21.6759 3.29034 21.7641 3.09006C21.9406 3.09006 22.0877 3.06145 22.2641 3.06145C22.0582 3.20451 21.8524 3.34756 21.7641 3.46201C21.5288 3.71952 21.4112 3.89119 21.2347 4.54926C21.1171 5.00705 21.1465 5.52206 21.1759 5.77956C21.0582 5.77956 20.9112 5.80817 20.7641 5.83679ZM23.2053 4.4062C23.2935 4.03425 23.4994 3.86258 23.7053 3.57646C23.823 3.4334 23.8818 3.23312 23.9112 3.09006C23.97 3.09006 24.0288 3.11867 24.0877 3.11867C23.9994 3.31895 23.9406 3.57646 23.8524 3.71952C23.7053 3.94841 23.5582 4.17731 23.4406 4.60648C23.3818 4.83538 23.4406 5.12149 23.4994 5.32177C23.3818 5.35039 23.2641 5.379 23.1171 5.43622C23.1171 5.12149 23.1465 4.6637 23.2053 4.4062Z" fill="#F09241"/>
<path fill-rule="evenodd" clip-rule="evenodd" d="M18.9406 3.46201C18.9994 3.46201 19.0288 3.4334 19.0877 3.4334C18.8818 3.57646 18.6465 3.74813 18.5582 3.86258C18.323 4.12008 18.2053 4.29175 18.0288 4.94982C17.97 5.20733 17.9406 5.52206 17.9406 5.75095C17.7935 5.75095 17.6465 5.75095 17.4994 5.75095C17.4994 5.32178 17.5877 4.77815 17.9112 4.43481C18.2053 4.12008 18.3818 3.77674 18.4994 3.54785C18.6759 3.51924 18.823 3.49062 18.9406 3.46201ZM16.1465 5.55067C16.1465 5.49345 16.1465 5.43622 16.1759 5.379C16.2641 4.80676 16.47 4.66371 16.823 4.23453C16.8818 4.14869 16.9406 4.03425 16.9994 3.94841C17.0582 3.9198 17.1171 3.9198 17.1465 3.89119C17.0582 4.09147 16.9994 4.29175 16.8818 4.4062C16.6759 4.63509 16.4406 4.97844 16.4112 5.20733C16.4112 5.29316 16.4112 5.46484 16.4406 5.63651C16.323 5.60789 16.2347 5.57928 16.1465 5.55067ZM19.323 5.66512C19.2935 5.46483 19.2935 5.17872 19.323 4.92121C19.4112 4.34898 19.6171 4.20592 19.97 3.77674C20.1171 3.57646 20.2053 3.37618 20.2641 3.20451C20.2935 3.20451 20.2935 3.20451 20.323 3.20451C20.2053 3.46201 20.0877 3.80535 19.9406 3.97702C19.7347 4.20592 19.4994 4.54926 19.47 4.77815C19.4406 4.92121 19.4994 5.35039 19.5582 5.66512C19.5288 5.66512 19.4112 5.66512 19.323 5.66512ZM20.7347 5.52206C20.7053 5.06427 20.7935 4.43481 21.1465 4.00564C21.47 3.63368 21.6759 3.26173 21.7641 3.06145C21.9406 3.06145 22.0877 3.03284 22.2641 3.03284C22.0582 3.1759 21.8524 3.31895 21.7641 3.4334C21.5288 3.69091 21.4112 3.86258 21.2347 4.52065C21.1465 4.83538 21.1465 5.17872 21.1465 5.46484C21.0288 5.49345 20.8818 5.49345 20.7347 5.52206ZM23.2053 4.4062C23.2935 4.03425 23.4994 3.86258 23.7053 3.57646C23.823 3.4334 23.8818 3.23312 23.9112 3.09006C23.97 3.09006 24.0288 3.11867 24.0877 3.11867C23.9994 3.31895 23.9406 3.57646 23.8524 3.71952C23.7053 3.94841 23.5582 4.17731 23.4406 4.60648C23.4112 4.74954 23.4112 4.8926 23.4406 5.03566C23.3524 5.06427 23.2641 5.09288 23.1465 5.12149C23.1465 4.83538 23.1465 4.57787 23.2053 4.4062Z" fill="#FDC649"/>
<path fill-rule="evenodd" clip-rule="evenodd" d="M18.9406 3.46201C18.9994 3.46201 19.0288 3.4334 19.0877 3.4334C18.8818 3.57646 18.6465 3.74813 18.5582 3.86258C18.323 4.12008 18.2053 4.29175 18.0288 4.94982C17.97 5.20733 17.9406 5.52206 17.9406 5.75095C17.7935 5.75095 17.6465 5.75095 17.4994 5.75095C17.4994 5.32178 17.5877 4.77815 17.9112 4.43481C18.2053 4.12008 18.3818 3.77674 18.4994 3.54785C18.6759 3.51924 18.823 3.49062 18.9406 3.46201ZM16.1465 5.55067C16.1465 5.49345 16.1465 5.43622 16.1759 5.379C16.2641 4.80676 16.47 4.66371 16.823 4.23453C16.8818 4.14869 16.9406 4.03425 16.9994 3.94841C17.0582 3.9198 17.1171 3.9198 17.1465 3.89119C17.0582 4.09147 16.9994 4.29175 16.8818 4.4062C16.6759 4.63509 16.4406 4.97844 16.4112 5.20733C16.4112 5.29316 16.4112 5.46484 16.4406 5.63651C16.323 5.60789 16.2347 5.57928 16.1465 5.55067ZM19.323 5.66512C19.2935 5.46483 19.2935 5.17872 19.323 4.92121C19.4112 4.34898 19.6171 4.20592 19.97 3.77674C20.1171 3.57646 20.2053 3.37618 20.2641 3.20451C20.2935 3.20451 20.2935 3.20451 20.323 3.20451C20.2053 3.46201 20.0877 3.80535 19.9406 3.97702C19.7347 4.20592 19.4994 4.54926 19.47 4.77815C19.4406 4.92121 19.4994 5.35039 19.5582 5.66512C19.5288 5.66512 19.4112 5.66512 19.323 5.66512ZM20.7347 5.52206C20.7053 5.06427 20.7935 4.43481 21.1465 4.00564C21.47 3.63368 21.6759 3.26173 21.7641 3.06145C21.9406 3.06145 22.0877 3.03284 22.2641 3.03284C22.0582 3.1759 21.8524 3.31895 21.7641 3.4334C21.5288 3.69091 21.4112 3.86258 21.2347 4.52065C21.1465 4.83538 21.1465 5.17872 21.1465 5.46484C21.0288 5.49345 20.8818 5.49345 20.7347 5.52206ZM23.2053 4.4062C23.2935 4.03425 23.4994 3.86258 23.7053 3.57646C23.823 3.4334 23.8818 3.23312 23.9112 3.09006C23.97 3.09006 24.0288 3.11867 24.0877 3.11867C23.9994 3.31895 23.9406 3.57646 23.8524 3.71952C23.7053 3.94841 23.5582 4.17731 23.4406 4.60648C23.4112 4.74954 23.4112 4.8926 23.4406 5.03566C23.3524 5.06427 23.2641 5.09288 23.1465 5.12149C23.1465 4.83538 23.1465 4.57787 23.2053 4.4062Z" fill="#FDC649"/>
<path fill-rule="evenodd" clip-rule="evenodd" d="M18.0592 3.80536C18.0592 3.80536 17.8239 3.86258 17.5592 3.91981C17.3239 4.00564 17.2357 3.86258 17.2063 4.03425C17.1474 4.20592 16.9121 4.29176 17.1474 4.26315C17.3827 4.23453 17.618 4.06286 17.7945 4.06286C17.9416 4.06286 18.1769 3.83397 18.0592 3.80536Z" fill="#F29D50"/>
<path fill-rule="evenodd" clip-rule="evenodd" d="M16.6171 4.23452C16.6171 4.23452 16.0583 4.46341 15.9407 4.63509C15.823 4.80676 15.7348 5.09287 15.8524 4.94981C15.9701 4.80676 16.0289 4.83537 16.1465 4.6637C16.2936 4.46341 16.823 4.14869 16.6171 4.23452Z" fill="#F29D50"/>
<path fill-rule="evenodd" clip-rule="evenodd" d="M19.1464 3.54785C19.1464 3.54785 19.4993 3.46202 19.7346 3.4334C19.9699 3.40479 20.0876 3.31896 19.9699 3.4334C19.8523 3.54785 19.8523 3.6623 19.6758 3.71952C19.4993 3.77675 19.2935 3.80536 19.0876 3.86258C18.8817 3.89119 18.4699 4.03425 18.617 3.94842C18.7346 3.83397 19.1464 3.54785 19.1464 3.54785Z" fill="#F29D50"/>
<path fill-rule="evenodd" clip-rule="evenodd" d="M20.5289 3.34755L20.3818 3.63367C20.3818 3.63367 20.8524 3.462 21.0289 3.462C21.2054 3.462 21.5289 3.462 21.4407 3.31894C21.3524 3.20449 21.1171 3.17588 20.5289 3.34755Z" fill="#F29D50"/>
<path fill-rule="evenodd" clip-rule="evenodd" d="M22.205 3.31896C22.2638 3.23312 22.3226 3.11868 22.5579 3.14729C22.7932 3.1759 23.2932 3.14729 23.4109 3.20451C23.5285 3.26174 23.6756 3.37618 23.5285 3.43341C23.352 3.46202 23.2344 3.46202 22.9109 3.43341C22.5579 3.40479 22.0285 3.40479 22.205 3.31896Z" fill="#F29D50"/>
<path fill-rule="evenodd" clip-rule="evenodd" d="M24.2931 3.49062C24.2931 3.49062 24.1754 3.49062 24.1754 3.40478C24.1754 3.31895 24.1166 3.2045 24.2931 3.26173C24.4695 3.31895 24.9401 3.4334 24.9401 3.66229C24.9401 3.9198 24.8813 3.9198 24.7637 3.71951C24.6754 3.51923 24.2931 3.49062 24.2931 3.49062Z" fill="#F29D50"/>
<path fill-rule="evenodd" clip-rule="evenodd" d="M23.6176 4.54926C23.5588 4.6351 23.5588 4.77816 23.8235 4.69232C24.0882 4.60648 24.2941 4.43481 24.1176 4.43481C23.9411 4.46343 23.6176 4.54926 23.6176 4.54926Z" fill="#F29D50"/>
<path fill-rule="evenodd" clip-rule="evenodd" d="M21.4991 4.9212C21.4991 4.9212 21.3226 5.17871 21.4697 5.20732C21.6167 5.23593 22.5285 5.15009 22.6755 5.00704C22.8226 4.86398 22.9991 4.74953 22.7638 4.77814C22.4991 4.77814 21.4991 4.9212 21.4991 4.9212Z" fill="#F29D50"/>
<path fill-rule="evenodd" clip-rule="evenodd" d="M20.4704 5.12149C20.4704 5.12149 19.8528 5.12149 19.8528 5.23594C19.8528 5.379 19.6175 5.52206 19.9116 5.46483C20.2057 5.40761 20.4998 5.379 20.5292 5.29316C20.5881 5.20733 20.4704 5.12149 20.4704 5.12149Z" fill="#F29D50"/>
<path fill-rule="evenodd" clip-rule="evenodd" d="M19.1466 5.23594C19.1466 5.23594 18.5878 5.37899 18.4407 5.37899C18.2937 5.37899 18.176 5.35038 18.176 5.43622C18.176 5.52205 18.0878 5.57928 18.4113 5.57928C18.7349 5.57928 19.176 5.60789 19.176 5.43622C19.1466 5.29316 19.1172 5.20732 19.1466 5.23594Z" fill="#F29D50"/>
<path fill-rule="evenodd" clip-rule="evenodd" d="M17.3235 5.55067C17.3235 5.55067 16.9706 5.57928 16.8235 5.55067C16.6765 5.49345 16.6176 5.43622 16.6176 5.40761C16.6176 5.35039 16.5294 5.379 16.7941 5.379C17.0588 5.379 17.3235 5.32178 17.3235 5.32178V5.55067Z" fill="#F29D50"/>
<path fill-rule="evenodd" clip-rule="evenodd" d="M17.7947 3.89119C17.7947 3.89119 17.4712 4.00564 17.383 4.00564C17.2653 4.00564 17.1771 4.12008 17.2653 4.12008C17.383 4.12008 17.4418 4.06286 17.5595 4.03425C17.6771 4.06286 17.8536 3.9198 17.7947 3.89119Z" fill="#F5B881"/>
<path fill-rule="evenodd" clip-rule="evenodd" d="M19.6462 3.49062C19.6462 3.49062 19.2639 3.54784 19.205 3.57645C19.1168 3.60506 18.9109 3.71951 19.0286 3.71951C19.1462 3.71951 19.205 3.6909 19.3227 3.66229C19.4403 3.66229 19.7345 3.51923 19.6462 3.49062Z" fill="#F5B881"/>
<path fill-rule="evenodd" clip-rule="evenodd" d="M21.1171 3.31895C21.1171 3.31895 20.823 3.31895 20.7642 3.34757C20.676 3.37618 20.5583 3.40479 20.5583 3.40479C20.5583 3.40479 20.4407 3.51924 20.5289 3.49063C20.6171 3.49063 20.676 3.4334 20.823 3.40479C20.9701 3.40479 21.2054 3.31895 21.1171 3.31895Z" fill="#F5B881"/>
<path fill-rule="evenodd" clip-rule="evenodd" d="M23.2355 3.2045C23.2355 3.2045 22.7355 3.17589 22.6473 3.2045C22.559 3.2045 22.4708 3.2045 22.4414 3.23312C22.412 3.23312 22.2649 3.31895 22.412 3.31895C22.559 3.31895 22.5884 3.29034 22.7355 3.31895C22.912 3.31895 23.2943 3.23312 23.2355 3.2045Z" fill="#F5B881"/>
<path fill-rule="evenodd" clip-rule="evenodd" d="M23.1473 3.86256C23.1473 3.86256 23.0297 4.14868 22.9414 4.26313C22.8826 4.34896 22.6767 4.60647 22.4414 4.60647C22.2061 4.63508 21.9708 4.46341 22.1179 4.29174C22.265 4.12007 22.3826 4.12007 22.5591 4.00562C22.765 3.89117 23.2355 3.69089 23.1473 3.86256Z" fill="#F29D50"/>
<path fill-rule="evenodd" clip-rule="evenodd" d="M23.9407 3.80535C23.9407 3.80535 23.7348 4.03424 23.7054 4.1773C23.676 4.32036 23.4995 4.6637 23.676 4.63509C23.8525 4.60648 24.2348 4.57787 24.176 4.32036C24.1172 4.12008 24.029 3.63368 23.9407 3.80535Z" fill="#F29D50"/>
<path fill-rule="evenodd" clip-rule="evenodd" d="M22.9109 4.06287C22.9109 4.06287 22.7933 4.26315 22.705 4.32037C22.5874 4.3776 22.4697 4.43482 22.4697 4.3776C22.4697 4.32037 22.5286 4.23454 22.6462 4.17731C22.7638 4.1487 22.9403 4.00564 22.9109 4.06287Z" fill="#F5B881"/>
<path fill-rule="evenodd" clip-rule="evenodd" d="M20.7348 4.43481C20.7348 4.43481 20.6466 4.83538 20.5583 4.86399C20.4995 4.8926 20.2348 4.97843 20.2936 4.86399C20.323 4.74954 20.3819 4.69232 20.4701 4.63509C20.5289 4.57787 20.7642 4.37759 20.7348 4.43481Z" fill="#F29D50"/>
<path fill-rule="evenodd" clip-rule="evenodd" d="M25.6767 11.5877C25.6767 11.5877 25.1767 10.5863 24.0591 10.9297C22.9414 11.273 22.8238 12.0169 22.8238 12.0169C22.6473 10.4147 25.3238 9.87104 25.6767 11.5877Z" fill="#3C2012"/>
<path fill-rule="evenodd" clip-rule="evenodd" d="M24.3534 11.788C24.8828 11.7308 25.3534 12.2172 25.4122 12.8753C25.471 13.5333 25.1181 14.1056 24.5887 14.1628C24.0592 14.22 23.5887 13.7336 23.5298 13.0756C23.471 12.4175 23.8239 11.8453 24.3534 11.788Z" fill="white"/>
<path fill-rule="evenodd" clip-rule="evenodd" d="M24.4711 12.0742C24.9122 12.0169 25.324 12.4461 25.3828 12.9897C25.4417 13.5334 25.1475 14.0198 24.7064 14.077C24.2652 14.1342 23.8534 13.705 23.7946 13.1614C23.7358 12.5892 24.0299 12.1028 24.4711 12.0742Z" fill="#3C2012"/>
<path fill-rule="evenodd" clip-rule="evenodd" d="M25.2947 12.9325C25.2947 12.9325 25.2947 13.3045 25.03 13.6192C24.7359 13.9339 24.3535 13.9625 24.3535 13.9625C24.3535 13.9625 24.8535 14.0484 25.0888 13.7909C25.2947 13.5334 25.4123 13.1042 25.2947 12.9325Z" fill="#878787"/>
<path fill-rule="evenodd" clip-rule="evenodd" d="M25.2947 12.9325C25.2947 12.9325 25.2947 13.3045 25.03 13.6192C24.7359 13.9339 24.3535 13.9625 24.3535 13.9625C24.3535 13.9625 24.3829 13.9625 24.4123 13.9625C24.5594 13.9625 24.7653 13.9339 24.9123 13.8767C25.0888 13.7909 25.2065 13.5906 25.2947 13.3617C25.3535 13.1614 25.3241 13.0183 25.2947 12.9325Z" fill="#706F6F"/>
<path fill-rule="evenodd" clip-rule="evenodd" d="M25.2946 12.9611C25.2946 13.0756 25.2358 13.3617 25.0299 13.5906C24.7652 13.8767 24.4416 13.9053 24.3828 13.9339C24.5005 13.9625 24.7946 13.9053 24.9416 13.8195C25.0887 13.7336 25.2652 13.4475 25.2946 13.3045C25.2946 13.19 25.2946 13.047 25.2946 12.9611Z" fill="#575756"/>
<path fill-rule="evenodd" clip-rule="evenodd" d="M25.2651 13.1042C25.2356 13.2472 25.1768 13.4189 25.0298 13.5906C24.8239 13.8195 24.5592 13.9053 24.4121 13.9053C24.5592 13.9053 24.7356 13.8481 24.8533 13.8195C24.9709 13.7623 25.118 13.562 25.2062 13.3903C25.2651 13.3331 25.2651 13.19 25.2651 13.1042Z" fill="#3C3C3B"/>
<path fill-rule="evenodd" clip-rule="evenodd" d="M24.4417 12.2744C24.5887 12.3031 24.677 12.4747 24.6181 12.675C24.5593 12.8467 24.4123 12.9611 24.2652 12.9325C24.1181 12.9039 24.0299 12.7322 24.0887 12.532C24.1476 12.3603 24.2946 12.2458 24.4417 12.2744Z" fill="white"/>
<path fill-rule="evenodd" clip-rule="evenodd" d="M14.2356 12.5033C14.2356 12.5033 14.5003 11.4161 15.6768 11.5019C16.8532 11.5877 17.1179 12.303 17.1179 12.303C16.9121 10.6722 14.2062 10.7294 14.2356 12.5033Z" fill="#3C2012"/>
<path fill-rule="evenodd" clip-rule="evenodd" d="M18.7062 14.2486C18.4709 14.1342 17.6179 13.9625 17.9415 14.9353C18.265 15.8795 19.4415 16.1084 20.4121 16.0512C21.4121 15.9939 22.4709 14.7636 22.4121 14.22C22.3532 13.6764 21.7062 13.7908 21.2944 13.9911C20.9121 14.1628 19.1179 14.3917 18.7062 14.2486Z" fill="#3C2012"/>
<path fill-rule="evenodd" clip-rule="evenodd" d="M18.7061 14.2486C18.6473 14.22 18.5296 14.1914 18.4414 14.1628C18.4708 14.3058 18.5885 14.5061 18.9708 14.592C19.5296 14.7064 20.5591 14.5633 21.0591 14.3917C21.4414 14.2486 21.5591 14.0483 21.5885 13.8481C21.5002 13.8767 21.412 13.9053 21.3238 13.9625C20.912 14.1628 19.1179 14.3917 18.7061 14.2486Z" fill="white"/>
<path fill-rule="evenodd" clip-rule="evenodd" d="M18.7061 14.2486C18.6473 14.22 18.5296 14.1914 18.4414 14.1628C18.4708 14.2772 18.5591 14.4775 18.8826 14.5633C18.8238 14.5061 18.7061 14.4203 18.7061 14.3631C18.6767 14.3058 18.7649 14.3058 18.8532 14.3058C18.9414 14.3345 19.5885 14.3631 20.1179 14.2772C20.6767 14.1914 21.0296 14.1056 21.1473 14.0769C21.2355 14.0483 21.4414 13.9911 21.2943 14.2772C21.5002 14.1628 21.5885 13.9911 21.5885 13.8481C21.5002 13.8767 21.412 13.9053 21.3238 13.9625C20.912 14.1628 19.1179 14.3917 18.7061 14.2486Z" fill="#E4E2D8"/>
<path fill-rule="evenodd" clip-rule="evenodd" d="M18.5293 15.6506C19.0293 15.9939 19.7646 16.0512 20.4116 16.0225C20.8822 15.9939 21.3822 15.7078 21.7646 15.3359C21.3234 14.9925 20.794 14.735 20.1469 14.7636C19.4705 14.8209 18.8822 15.1356 18.5293 15.6506Z" fill="#EA5160"/>
<path fill-rule="evenodd" clip-rule="evenodd" d="M18.5293 15.6506C18.6469 15.7364 18.794 15.7937 18.9411 15.8509C18.8822 15.7937 18.8234 15.6792 18.8234 15.5934C18.8528 15.4217 19.2352 15.0212 19.8528 14.9639C20.4705 14.9067 21.2352 15.1356 21.2352 15.3645C21.2352 15.5076 21.1469 15.7078 20.9999 15.8795C21.2646 15.7651 21.4999 15.5648 21.7352 15.3645C21.294 15.0212 20.7646 14.7636 20.1175 14.7923C19.4705 14.8209 18.8822 15.1356 18.5293 15.6506Z" fill="#DF3255"/>
<path fill-rule="evenodd" clip-rule="evenodd" d="M20.0583 15.9081C20.0583 15.9081 19.4112 15.8509 19.323 15.7651C19.2642 15.6792 19.323 15.6792 19.5583 15.6506C19.823 15.6506 20.1465 15.7078 20.3818 15.7078C20.6171 15.7078 20.6759 15.7364 20.5583 15.8223C20.47 15.9081 20.3818 15.9367 20.0583 15.9081Z" fill="#EF787B"/>
<path fill-rule="evenodd" clip-rule="evenodd" d="M24.7053 14.6206C25.0288 14.592 25.2641 14.735 25.2935 14.9067C25.2935 15.0784 25.0583 15.2214 24.7347 15.25C24.4112 15.2787 24.1759 15.1356 24.1465 14.9639C24.1465 14.7923 24.3818 14.6492 24.7053 14.6206Z" fill="#EA5160"/>
<path fill-rule="evenodd" clip-rule="evenodd" d="M15.912 15.3073C16.1767 15.3073 16.3826 15.3931 16.3826 15.5362C16.3826 15.6792 16.1767 15.7937 15.912 15.8223C15.6473 15.8223 15.4414 15.7364 15.4414 15.5934C15.4414 15.4503 15.6473 15.3359 15.912 15.3073Z" fill="#EA5160"/>
<path fill-rule="evenodd" clip-rule="evenodd" d="M19.4121 16.5376C19.4121 16.5376 19.7356 16.9095 20.5003 16.8237C21.2651 16.7379 21.7651 16.3373 21.118 16.4231C20.4415 16.509 19.4121 16.5376 19.4121 16.5376Z" fill="#416260"/>
<path fill-rule="evenodd" clip-rule="evenodd" d="M19.1767 13.7622C19.1767 13.7622 19.912 13.9339 20.5002 13.7622C21.1179 13.5906 21.1767 13.2758 20.6767 13.4189C20.1473 13.5333 20.1179 13.562 19.7943 13.5333C19.5002 13.4761 18.8237 13.562 19.1767 13.7622Z" fill="#416260"/>
<path fill-rule="evenodd" clip-rule="evenodd" d="M15.6473 12.4747C16.1767 12.4175 16.6473 12.9039 16.7061 13.5619C16.7649 14.22 16.412 14.7923 15.8826 14.8495C15.3532 14.9067 14.8826 14.4203 14.8238 13.7622C14.765 13.1042 15.1179 12.5319 15.6473 12.4747Z" fill="white"/>
<path fill-rule="evenodd" clip-rule="evenodd" d="M15.7936 12.7608C16.2347 12.7036 16.6465 13.1328 16.7053 13.6764C16.7642 14.22 16.47 14.7064 16.0289 14.7636C15.5877 14.8209 15.1759 14.3917 15.1171 13.8481C15.0289 13.2758 15.3524 12.7894 15.7936 12.7608Z" fill="#3C2012"/>
<path fill-rule="evenodd" clip-rule="evenodd" d="M16.5877 13.6192C16.5877 13.6192 16.5877 13.9911 16.323 14.3059C16.0288 14.6206 15.6465 14.6492 15.6465 14.6492C15.6465 14.6492 16.1465 14.735 16.3818 14.4775C16.6171 14.22 16.7053 13.7908 16.5877 13.6192Z" fill="#878787"/>
<path fill-rule="evenodd" clip-rule="evenodd" d="M16.5877 13.6192C16.5877 13.6192 16.5877 13.9911 16.323 14.3059C16.0288 14.6206 15.6465 14.6492 15.6465 14.6492C15.6465 14.6492 15.6759 14.6492 15.7053 14.6492C15.8524 14.6492 16.0582 14.6206 16.2053 14.5634C16.3818 14.4775 16.4994 14.2772 16.5877 14.0483C16.6465 13.8481 16.6171 13.705 16.5877 13.6192C16.6171 13.6192 16.5877 13.6192 16.5877 13.6192Z" fill="#706F6F"/>
<path fill-rule="evenodd" clip-rule="evenodd" d="M16.5875 13.6478C16.5875 13.7622 16.5287 14.0483 16.3228 14.2772C16.0581 14.5634 15.7346 14.592 15.6758 14.6206C15.7934 14.6492 16.0875 14.592 16.2346 14.5061C16.3817 14.4203 16.5581 14.1342 16.5875 13.9911C16.617 13.8767 16.5875 13.7336 16.5875 13.6478Z" fill="#575756"/>
<path fill-rule="evenodd" clip-rule="evenodd" d="M16.5873 13.7908C16.5579 13.9339 16.4991 14.1056 16.352 14.2772C16.1461 14.5061 15.8814 14.592 15.7344 14.592C15.8814 14.592 16.0579 14.5348 16.1756 14.5061C16.2932 14.4489 16.4403 14.2486 16.5285 14.077C16.5579 14.0197 16.5579 13.9053 16.5873 13.7908Z" fill="#3C3C3B"/>
<path fill-rule="evenodd" clip-rule="evenodd" d="M15.7356 12.9611C15.8827 12.9897 15.9709 13.1614 15.9121 13.3617C15.8533 13.5333 15.7062 13.6478 15.5592 13.6192C15.4121 13.5906 15.3239 13.4189 15.3827 13.2186C15.4415 13.0469 15.5886 12.9325 15.7356 12.9611Z" fill="white"/>
<path fill-rule="evenodd" clip-rule="evenodd" d="M20.2646 63.9186C20.5294 64.4336 21.1176 64.1475 21.1176 64.1475L33.2352 0.515006C32.2352 -0.257511 30.6764 0.0572184 30.6764 0.0572184L20.2646 63.9186Z" fill="#EEC357"/>
<path fill-rule="evenodd" clip-rule="evenodd" d="M20.4404 64.1475C20.4993 64.1761 20.5581 64.2048 20.5875 64.2048L30.8816 5.40762L31.7934 0C31.6169 0 31.4404 0 31.2934 0L20.5581 63.6325L20.4404 64.1475Z" fill="#F5E0B3"/>
<path fill-rule="evenodd" clip-rule="evenodd" d="M20.2646 63.9186C20.3529 64.0903 20.4705 64.1761 20.5882 64.2047L31.7058 -2.02446e-05C31.1176 -0.028632 30.647 0.0572032 30.647 0.0572032L20.2646 63.9186Z" fill="#F3D99A"/>
<path fill-rule="evenodd" clip-rule="evenodd" d="M28.9111 9.5277C28.9111 9.5277 28.4111 10.0713 28.7934 10.4719C29.1758 10.8725 30.1464 11.5591 30.7934 10.6149C31.4405 9.67076 31.1464 9.29881 30.617 9.35603C30.0875 9.41325 30.1758 9.78521 30.1758 9.78521C30.1758 9.78521 29.5581 8.89824 28.9111 9.5277Z" fill="#3C2012"/>
<path d="M30.883 14.077C30.9124 14.077 30.9418 14.077 31.0006 14.0484C31.6771 13.8195 32.0888 13.4189 32.2065 12.9325C32.383 12.1886 31.9124 11.2444 30.7359 9.98549C30.6183 9.87104 30.4124 9.84243 30.2947 9.95687C30.1771 10.0713 30.1477 10.2716 30.2653 10.3861C31.2653 11.4447 31.7359 12.2458 31.5888 12.7608C31.53 13.0469 31.2653 13.2758 30.7653 13.4475C30.5889 13.5047 30.53 13.6764 30.5889 13.8481C30.6477 13.9911 30.7653 14.077 30.883 14.077Z" fill="#3C2012"/>
</g>
<defs>
<clipPath id="clip0_850_23018">
<rect width="40" height="64" fill="white"/>
</clipPath>
</defs>
</svg>
