<svg width="80" height="80" viewBox="0 0 80 80" fill="none" xmlns="http://www.w3.org/2000/svg">
<g clip-path="url(#clip0_969_7949)">
<path opacity="0.03" d="M61.0187 74.5713C61.0672 77.3578 48.0575 79.7599 31.941 79.952C15.873 80.1442 2.81479 78.0304 2.76625 75.2439C2.7177 72.4575 15.7274 70.0554 31.8439 69.8632C47.9119 69.671 61.0187 71.7849 61.0187 74.5713Z" fill="#4A7085"/>
<path opacity="0.03" d="M60.194 74.5233C60.2425 77.1656 47.6211 79.4236 31.9901 79.6158C16.359 79.8079 3.6891 77.7902 3.6891 75.1959C3.64056 72.5536 16.2619 70.2476 31.893 70.1034C47.4755 69.9113 60.1454 71.881 60.194 74.5233Z" fill="#4A7085"/>
<path opacity="0.03" d="M59.2709 74.5233C59.3195 76.9735 47.0865 79.0873 31.9894 79.2315C16.8923 79.4236 4.61074 77.598 4.61074 75.1479C4.5622 72.6977 16.7952 70.5839 31.8923 70.4398C46.9894 70.2476 59.2224 72.0732 59.2709 74.5233Z" fill="#4A7085"/>
<path opacity="0.03" d="M58.2511 74.4753C58.2511 76.7813 46.5035 78.7991 31.9404 78.9432C17.3773 79.1354 5.5812 77.4059 5.5812 75.0999C5.53266 72.7938 17.3288 70.7761 31.8433 70.632C46.4064 70.4398 58.2026 72.1693 58.2511 74.4753Z" fill="#4A7085"/>
<path opacity="0.03" d="M57.2813 74.3791C57.3299 76.589 45.9707 78.5107 31.9901 78.6548C17.9609 78.799 6.60172 77.1655 6.60172 74.9556C6.55317 72.7457 17.9124 70.824 31.893 70.6799C45.8736 70.5357 57.2328 72.2172 57.2813 74.3791Z" fill="#4A7085"/>
<path opacity="0.03" d="M56.2618 74.3311C56.3103 76.445 45.4365 78.3186 31.9899 78.4627C18.5433 78.6069 7.62101 77.0215 7.62101 74.9076C7.57247 72.7938 18.4948 70.9201 31.9414 70.776C45.2909 70.6319 56.2132 72.2173 56.2618 74.3311Z" fill="#4A7085"/>
<path opacity="0.03" d="M55.4358 74.2831C55.4843 76.3489 44.9503 78.1745 31.9406 78.3186C18.9309 78.4627 8.34839 76.9254 8.34839 74.8596C8.34839 72.7937 18.8338 70.9681 31.8435 70.824C44.8532 70.6318 55.4358 72.1692 55.4358 74.2831Z" fill="#4A7085"/>
<path opacity="0.03" d="M54.3684 74.3312C54.417 76.2529 44.3684 77.9824 31.9412 78.1265C19.5626 78.2706 9.46551 76.8294 9.46551 74.8596C9.41696 72.938 19.4655 71.2084 31.8927 71.0643C44.2713 70.9202 54.3199 72.3614 54.3684 74.3312Z" fill="#4A7085"/>
<path opacity="0.03" d="M53.4462 74.3311C53.4462 76.1567 43.8345 77.7902 31.9413 77.9343C20.0481 78.0784 10.3394 76.6852 10.3394 74.8596C10.3394 73.034 19.951 71.4006 31.8442 71.2565C43.786 71.1123 53.4462 72.4575 53.4462 74.3311Z" fill="#4A7085"/>
<path d="M22.2323 73.3222C21.844 73.3222 21.5042 73.0339 21.4556 72.6496C20.242 62.2725 28.2517 50.8865 28.5916 50.4061C28.8343 50.0698 29.3197 49.9737 29.6595 50.2139C29.9993 50.4542 30.0964 50.9346 29.8537 51.2709C29.7566 51.3669 21.844 62.7049 23.009 72.4574C23.0576 72.8898 22.7663 73.2261 22.3294 73.2741C22.3294 73.3222 22.2809 73.3222 22.2323 73.3222Z" fill="#3C2012"/>
<path fill-rule="evenodd" clip-rule="evenodd" d="M22.6211 72.1692C22.6211 72.1692 17.8638 70.0073 17.0386 72.9378C16.2133 75.8204 21.7959 75.0997 22.524 75.0036C23.3007 74.9556 24.1259 73.0339 22.6211 72.1692Z" fill="#3C2012"/>
<path d="M45.7762 73.3221C45.7277 73.3221 45.7277 73.3221 45.6791 73.3221C45.2422 73.2741 44.951 72.8897 44.9995 72.5054C46.2131 62.7048 38.2519 51.4149 38.1548 51.3188C37.9121 50.9825 38.0092 50.5021 38.349 50.2619C38.6888 50.0217 39.1743 50.1178 39.417 50.4541C39.7568 50.9345 47.7665 62.3205 46.5044 72.6976C46.4558 73.0339 46.116 73.3221 45.7762 73.3221Z" fill="#3C2012"/>
<path fill-rule="evenodd" clip-rule="evenodd" d="M45.3882 72.1691C45.3882 72.1691 50.1455 70.0072 50.9707 72.9377C51.796 75.8203 46.2134 75.0996 45.4853 75.0036C44.7086 74.9555 43.8833 73.0338 45.3882 72.1691Z" fill="#3C2012"/>
<path d="M59.9514 44.3528C58.0582 44.3528 55.5825 43.6803 52.3786 42.3351C51.9902 42.1909 51.7961 41.7105 51.9902 41.3262C52.1359 40.9419 52.6213 40.7497 53.0097 40.9419C57.7184 42.9596 60.631 43.392 62.1359 42.287C63.3009 41.4223 63.7378 39.5006 63.398 36.4739C63.3495 36.0416 63.6407 35.7053 64.0776 35.6572C64.5145 35.6092 64.8543 35.8974 64.9029 36.3298C65.2912 39.933 64.7087 42.287 63.0097 43.5361C62.233 44.0646 61.2135 44.3528 59.9514 44.3528Z" fill="#3C2012"/>
<path fill-rule="evenodd" clip-rule="evenodd" d="M61.9897 32.3904C61.9897 32.3904 63.4945 31.3815 64.3198 32.4384C65.145 33.4953 66.5042 35.9935 64.0285 37.1946C61.5528 38.3956 60.679 37.5789 61.0188 36.3778C61.3101 35.1768 62.2324 35.5131 62.2324 35.5131C62.2324 35.5131 60.3392 33.6875 61.9897 32.3904Z" fill="#3C2012"/>
<path fill-rule="evenodd" clip-rule="evenodd" d="M0.145391 53.4327C-0.291502 54.2014 0.291022 54.874 0.291022 54.874L78.9318 27.2018C79.2716 25.136 78.1551 22.9741 78.1551 22.9741L0.145391 53.4327Z" fill="#EEC357"/>
<path fill-rule="evenodd" clip-rule="evenodd" d="M0 53.9131C0 54.0092 0 54.1053 0 54.2014L72.1845 27.2017L78.7864 24.7036C78.6893 24.4153 78.6408 24.1271 78.5437 23.8868L0.631068 53.721L0 53.9131Z" fill="#F5E0B3"/>
<path fill-rule="evenodd" clip-rule="evenodd" d="M0.145631 53.4327C0 53.721 0 53.9612 0 54.1534L78.7379 24.5595C78.4951 23.6467 78.1553 23.0221 78.1553 23.0221L0.145631 53.4327Z" fill="#F3D99A"/>
<path fill-rule="evenodd" clip-rule="evenodd" d="M0.63117 55.0181C0.194277 55.7867 0.776801 56.4593 0.776801 56.4593L79.9515 31.8618C80.3399 29.796 79.2234 27.586 79.2234 27.586L0.63117 55.0181Z" fill="#EEC357"/>
<path fill-rule="evenodd" clip-rule="evenodd" d="M0.437012 55.4985C0.437012 55.5946 0.437012 55.6906 0.437012 55.7867L73.1555 31.6216L79.806 29.3636C79.7574 29.0753 79.6603 28.7871 79.5632 28.5469L1.06808 55.3063L0.437012 55.4985Z" fill="#F5E0B3"/>
<path fill-rule="evenodd" clip-rule="evenodd" d="M0.631187 55.0181C0.485555 55.2583 0.437012 55.4985 0.437012 55.6906L79.7574 29.1714C79.5147 28.2586 79.1749 27.586 79.1749 27.586L0.631187 55.0181Z" fill="#F3D99A"/>
<path d="M5.87309 55.3545C5.58183 55.3545 5.33911 55.2104 5.19348 54.9221C1.06727 46.9952 2.91193 45.5539 7.13523 43.2959C7.91193 42.8635 8.78572 42.4312 9.70805 41.8547C10.0479 41.6145 10.5333 41.7586 10.776 42.0949C11.0187 42.4312 10.8731 42.9116 10.5333 43.1518C9.56242 43.7763 8.68863 44.2568 7.86339 44.6891C4.17407 46.6589 2.96047 47.3315 6.60125 54.2976C6.79542 54.6819 6.64979 55.1143 6.26144 55.3064C6.11581 55.3064 6.01873 55.3545 5.87309 55.3545Z" fill="#3C2012"/>
<path fill-rule="evenodd" clip-rule="evenodd" d="M52.8638 20.9563C53.9318 22.1574 54.9027 23.8388 54.9027 30.6128C54.9027 35.7533 55.0483 44.0165 54.9998 50.31C54.9512 57.9967 54.5629 61.1675 46.4075 62.9451C39.8056 64.3863 23.5434 65.2991 15.6308 62.6088C12.6697 61.5999 9.6114 57.6604 9.6114 53.5769C9.6114 50.5983 9.22305 24.3192 9.22305 24.3192C9.22305 24.3192 8.44635 18.7464 14.2231 17.209C19.0774 15.6717 44.0774 12.4529 52.8638 20.9563Z" fill="#2E5753"/>
<path fill-rule="evenodd" clip-rule="evenodd" d="M50.9703 61.4078C49.8053 62.0323 48.349 62.5128 46.4072 62.9451C39.8053 64.3864 23.5431 65.2992 15.6305 62.6088C13.9315 62.0323 12.1839 60.4469 11.0189 58.4772C10.6791 57.036 10.3393 55.1623 10.2907 53.2887C10.2422 49.4453 9.70819 25.088 9.70819 25.088C9.70819 25.088 10.048 22.1574 11.8927 20.8603C13.6888 19.6112 20.0965 24.8478 20.0965 24.8478L28.2519 26.4332C28.2519 26.4332 18.98 27.4901 18.2033 30.6609C18.2033 30.6609 17.6694 51.5592 18.6888 56.4114C19.7082 61.3117 24.2228 62.1284 28.2033 62.2245C32.1839 62.3686 44.8053 63.6658 50.9703 61.4078Z" fill="#1E3E3B"/>
<path fill-rule="evenodd" clip-rule="evenodd" d="M43.3977 63.4735C35.7278 64.5785 22.5239 64.9628 15.6792 62.6088C14.6113 62.2244 13.4948 61.4557 12.5239 60.4469C11.9414 58.7174 11.4074 56.5074 11.4074 54.2975C11.4074 49.6374 10.7763 26.9135 10.7763 26.9135C10.7763 26.9135 11.0676 24.1271 11.8928 23.4064C12.7181 22.6858 18.4462 25.9527 18.4462 25.9527L18.3006 27.0096C18.3006 27.0096 15.7763 27.9224 15.5821 29.9402C15.388 31.9579 15.5821 55.4025 15.9219 57.6604C16.2617 59.9184 19.4171 62.9451 25.4365 63.1853C30.1938 63.3294 37.9608 63.9059 43.3977 63.4735Z" fill="#15312E"/>
<path fill-rule="evenodd" clip-rule="evenodd" d="M35.8256 16.0559C40.2431 16.4403 46.7479 17.4011 49.612 19.515C54.2236 22.8779 57.2334 25.7124 44.9033 27.2978C32.5732 28.8832 9.70909 28.7871 9.95181 22.5897C10.0974 17.4492 18.0101 16.5844 26.1654 16.0559C29.4664 15.8638 32.5732 15.7677 35.8256 16.0559Z" fill="#718280"/>
<path fill-rule="evenodd" clip-rule="evenodd" d="M37.5246 16.6325C41.6023 17.0649 46.5537 17.9296 48.9324 19.5631C53.3984 22.6378 56.2625 25.184 44.3692 26.6252C32.476 28.0665 10.4858 27.9704 10.6799 22.3495C10.8741 17.8336 18.2042 16.9688 25.8741 16.4884C29.8061 16.2482 33.544 16.2001 37.5246 16.6325Z" fill="white"/>
<path fill-rule="evenodd" clip-rule="evenodd" d="M45.4372 18.0257C46.845 18.4581 48.0586 18.9385 48.9324 19.5631C53.3984 22.6378 56.2625 25.184 44.3692 26.6253C32.476 28.0665 10.4858 27.9704 10.6799 22.3495C10.8741 18.2179 16.9421 17.161 23.7867 16.6325C23.6411 16.6805 23.4469 16.7766 23.2527 16.9208C22.476 17.3531 22.8159 17.4973 21.9421 17.4973C21.0683 17.4973 21.1654 17.3531 20.777 17.4973C20.3887 17.6414 19.4663 17.3531 19.5149 17.8816C19.5634 18.4581 20.5343 18.362 19.6605 18.5542C18.7867 18.6983 19.1751 18.6983 18.7867 18.6983C18.3984 18.6983 17.5731 18.8424 17.5731 18.8424C17.5731 18.8424 16.6993 18.2659 17.2819 18.8424C17.8644 19.4189 18.01 19.4189 17.0877 19.5631C16.0197 19.7552 16.4081 19.515 15.7285 19.9955C15.0489 20.4278 14.8547 20.572 14.8547 20.572C14.8547 20.572 15.8256 20.3317 15.777 20.9083C15.7285 21.4848 15.8256 21.0524 15.777 21.5808C15.7285 22.0613 16.6508 20.9083 16.6023 21.9652C16.5537 23.0221 16.1168 23.0701 16.5537 23.1182C16.9906 23.1662 16.1168 22.2054 17.6702 22.6858C19.2722 23.1182 19.5149 22.6378 19.7091 23.3104C19.9032 23.9829 20.5343 23.6466 21.0197 24.2232C21.5052 24.7997 22.1362 24.7036 22.5246 24.5594C22.8644 24.4153 21.9421 23.7427 23.1071 24.4153C24.2722 25.0879 25.2916 23.5025 26.1654 24.2232C27.0392 24.9438 28.6411 25.2801 28.6411 25.2801C28.6411 25.2801 30.243 24.3673 30.8741 25.184C31.5052 25.9527 33.2042 25.2801 33.7382 25.4722C34.2722 25.6644 35.2916 25.6644 36.311 24.7036C37.3304 23.7427 38.4469 23.3584 38.9809 23.7427C39.5149 24.1271 39.2236 24.079 40.6799 23.9349C42.1362 23.7427 42.5246 23.7427 42.5246 23.7427C42.5246 23.7427 43.0586 23.2623 43.8353 23.4064C44.612 23.5506 45.1945 22.4936 45.777 22.8299C46.311 23.1662 46.8935 22.4456 47.476 22.7338C48.01 23.0221 48.6411 22.878 49.1751 22.878C49.6605 22.878 50.0489 23.1182 50.0489 22.7338C50.0489 22.3495 51.5537 22.9741 50.0003 22.1573C48.4469 21.3887 48.6896 20.7641 48.6896 20.7641C48.6896 20.7641 49.9032 20.5239 48.6411 20.0915C47.379 19.6592 47.3304 19.4189 46.845 19.3709C46.4081 19.3229 47.1362 19.8033 46.0683 18.6983C45.777 18.4581 45.6314 18.2179 45.4372 18.0257Z" fill="#F1EFE5"/>
<path fill-rule="evenodd" clip-rule="evenodd" d="M50.7288 20.8121C53.9326 23.3103 54.6122 25.3761 44.4181 26.6252C32.5249 28.0665 10.5346 27.9704 10.7288 22.3495C10.8258 19.1787 14.4666 17.7855 19.2239 17.1129C18.9326 17.4011 18.5443 17.6894 18.253 17.9296C17.3307 18.6022 16.2627 18.1698 16.2627 18.1698C16.2627 18.1698 16.1656 18.5061 15.7288 18.9865C15.2433 19.515 14.7579 18.9865 14.7579 18.9865C14.7579 18.9865 13.7385 19.515 14.0783 20.0435C14.4181 20.5719 13.9812 20.4758 13.5443 20.8121C13.1559 21.1965 12.6705 23.2623 13.4472 23.1181C14.2724 22.974 14.6123 22.0132 15.0491 22.6377C15.4375 23.2623 14.855 24.5114 16.1656 24.4153C17.4763 24.3192 18.8841 23.7427 18.9812 24.6074C19.0783 25.4722 20.7288 26.1928 22.2822 25.9526C23.8356 25.6644 26.8938 25.7605 26.8938 26.1928C26.8938 26.6252 27.2822 26.1928 28.9812 26.4811C30.6802 26.7693 33.3501 26.385 34.1268 26.6733C34.9035 26.9615 37.2336 27.2017 37.1365 26.2409C37.0394 25.28 37.9132 24.6555 39.0297 25.0879C40.1462 25.5683 41.2627 25.184 41.6511 25.184C42.0394 25.184 42.2822 24.4153 43.6414 24.5594C45.0006 24.7035 45.2919 25.0879 45.2919 25.0879C45.2919 25.0879 45.3889 24.4633 46.3598 24.4633C47.3307 24.4633 48.3016 24.4153 48.5443 24.5594C48.787 24.7035 49.2724 23.6946 50.4375 23.7907C51.6025 23.8868 51.6511 24.7996 51.6996 23.6946C51.7482 22.5897 52.0394 22.6858 51.554 21.9651C51.3113 21.6769 51.02 21.2445 50.7288 20.8121Z" fill="#E7E5D8"/>
<path fill-rule="evenodd" clip-rule="evenodd" d="M17.3795 19.9954C17.2824 20.0435 16.6513 19.9954 16.6513 20.4758C16.6028 20.9563 16.7484 21.1004 16.894 21.1004C17.0397 21.1004 17.5736 21.1004 17.428 20.9563C17.3309 20.8121 16.9911 20.8121 17.1853 20.5719C17.3795 20.3317 17.9134 20.0435 17.9134 20.0435L17.3795 19.9954Z" fill="#F1EFE5"/>
<path fill-rule="evenodd" clip-rule="evenodd" d="M18.4959 21.4847C18.4959 21.4847 18.1561 21.7249 19.0299 21.869C19.9037 22.0131 19.9037 21.7249 19.9037 21.7249C19.9037 21.7249 20.292 22.4936 19.2726 22.4936C18.3017 22.4936 18.0105 21.6768 18.4959 21.4847Z" fill="#F1EFE5"/>
<path fill-rule="evenodd" clip-rule="evenodd" d="M20.9221 22.7339C20.9221 22.7339 20.5823 22.9741 21.4561 23.1183C22.3299 23.2624 22.3299 22.9261 22.3299 22.9261C22.3299 22.9261 22.7182 23.6948 21.6988 23.6948C20.6794 23.7428 20.4367 22.9261 20.9221 22.7339Z" fill="#F1EFE5"/>
<path fill-rule="evenodd" clip-rule="evenodd" d="M19.3204 18.7944C19.2233 18.8424 18.5922 18.7944 18.5922 19.2748C18.5437 19.7552 18.6893 19.8994 18.8349 19.8994C18.9806 19.8994 19.5146 19.8994 19.3689 19.7552C19.2718 19.6111 18.932 19.6111 19.1262 19.3709C19.3204 19.1307 19.8544 18.8424 19.8544 18.8424L19.3204 18.7944Z" fill="#F1EFE5"/>
<path fill-rule="evenodd" clip-rule="evenodd" d="M48.1551 21.0524C48.1551 21.0524 48.4949 21.2926 47.6211 21.4367C46.7473 21.5809 46.7473 21.2446 46.7473 21.2446C46.7473 21.2446 46.359 22.0132 47.3784 22.0132C48.3492 22.0613 48.592 21.2446 48.1551 21.0524Z" fill="#F1EFE5"/>
<path fill-rule="evenodd" clip-rule="evenodd" d="M45 21.7729C45 21.7729 44.9515 22.3014 44.5631 22.4936C44.1748 22.6857 43.5437 22.6857 43.5437 22.6857C43.5437 22.6857 44.2233 22.3975 44.4175 22.2053C44.6117 21.9651 45 21.5808 45 21.7729Z" fill="#F1EFE5"/>
<path fill-rule="evenodd" clip-rule="evenodd" d="M46.9415 20.3318C46.9415 20.3318 46.9415 20.6681 46.7474 20.8122C46.5532 20.9083 46.2134 20.9563 46.2134 20.9563C46.2134 20.9563 46.5532 20.7642 46.6503 20.62C46.7474 20.4759 46.9415 20.1877 46.9415 20.3318Z" fill="#F1EFE5"/>
<path fill-rule="evenodd" clip-rule="evenodd" d="M19.0777 33.7835C19.0777 33.7835 18.9806 54.9701 20.1457 57.5163C21.3107 60.0625 24.3204 61.1675 27.4758 61.4558C30.5826 61.744 32.3787 61.8401 32.3787 61.8401C32.3787 61.8401 33.6408 61.4558 31.6505 60.543C29.7088 59.6302 21.7476 59.8704 21.3107 55.2583C20.8738 50.5982 19.6117 37.2426 19.7088 35.513C19.8059 33.7835 18.9806 31.9579 19.0777 33.7835Z" fill="#416260"/>
<path fill-rule="evenodd" clip-rule="evenodd" d="M51.4561 27.2018C51.4561 27.2018 53.2037 26.0968 53.4949 27.7783C53.7862 29.5078 54.0775 36.57 54.2716 43.488C54.4173 50.4061 53.8347 56.6996 52.5241 58.2369C51.2619 59.7743 50.4852 57.8046 51.1648 55.7868C51.8444 53.721 51.8444 50.31 51.7474 43.9204C51.6503 37.5308 51.6017 30.949 50.7765 30.0362C49.9512 29.0754 49.6114 28.0665 51.4561 27.2018Z" fill="#416260"/>
<path fill-rule="evenodd" clip-rule="evenodd" d="M47.1352 28.4028C48.3488 28.2587 48.3973 29.0754 47.5236 29.4117C46.6498 29.748 43.7371 30.1804 42.9604 30.1804C42.1838 30.1804 42.7663 28.9313 43.6886 28.7391C44.6109 28.595 47.1352 28.4028 47.1352 28.4028Z" fill="#416260"/>
<path fill-rule="evenodd" clip-rule="evenodd" d="M52.1842 27.5861C52.1842 27.5861 53.1551 26.8655 53.2522 28.595C53.3493 30.3245 54.126 42.4311 53.9318 47.5236C53.7376 52.616 53.2522 56.8918 52.6211 57.6604C51.99 58.3811 51.9415 57.6604 52.2327 56.4594C52.4755 55.2583 52.9124 45.7941 52.8638 42.335C52.8153 38.876 52.4269 31.0451 52.2327 29.9882C52.0386 28.9313 51.4075 27.7783 52.1842 27.5861Z" fill="#536D6A"/>
<path fill-rule="evenodd" clip-rule="evenodd" d="M52.1842 27.5861C52.1842 27.5861 53.155 26.8655 53.2521 28.595C53.3492 30.3245 54.1259 42.4311 53.9317 47.5236C53.7376 52.616 53.2521 56.8918 52.6211 57.6604C52.1842 58.237 52.0385 57.9487 52.0871 57.2761C52.524 56.2192 52.9123 54.7779 53.155 52.7602C53.9317 46.3706 53.0579 32.6305 52.6696 30.1804C52.4269 28.6911 52.0871 28.1146 51.8444 27.8744C51.8929 27.7302 51.99 27.6342 52.1842 27.5861Z" fill="#627976"/>
<path fill-rule="evenodd" clip-rule="evenodd" d="M21.3586 39.6927C21.3586 39.6927 22.2324 37.1465 24.9994 37.5789C27.7664 38.0113 28.3004 39.8369 28.3004 39.8369C28.2033 35.8494 21.6984 35.3689 21.3586 39.6927Z" fill="#3C2012"/>
<path fill-rule="evenodd" clip-rule="evenodd" d="M24.6594 39.7408C23.3972 39.7888 22.4263 41.0859 22.4749 42.7194C22.5234 44.3047 23.5914 45.6019 24.8535 45.5538C26.1157 45.5058 27.0865 44.2087 27.038 42.5752C26.9409 40.9898 25.8729 39.7408 24.6594 39.7408Z" fill="white"/>
<path fill-rule="evenodd" clip-rule="evenodd" d="M24.4163 39.8848C23.3483 39.9329 22.5231 41.0379 22.5716 42.383C22.6202 43.7282 23.4939 44.8332 24.5619 44.7851C25.6299 44.7371 26.4551 43.6321 26.4066 42.2869C26.4066 40.8937 25.4842 39.8368 24.4163 39.8848Z" fill="#3C2012"/>
<path fill-rule="evenodd" clip-rule="evenodd" d="M22.7654 42.1909C22.7654 42.1909 22.8624 43.1037 23.6391 43.7762C24.4158 44.4488 25.3382 44.3528 25.3382 44.3528C25.3382 44.3528 24.1731 44.7371 23.5421 44.2086C22.9595 43.6802 22.5712 42.6713 22.7654 42.1909Z" fill="#878787"/>
<path fill-rule="evenodd" clip-rule="evenodd" d="M22.7658 42.1909C22.7658 42.1909 22.8629 43.1037 23.6396 43.7762C24.4163 44.4488 25.3386 44.3528 25.3386 44.3528C25.3386 44.3528 25.2901 44.3528 25.193 44.4008C24.8532 44.4488 24.3678 44.4488 23.9794 44.3528C23.5425 44.2086 23.1542 43.7762 22.9115 43.2478C22.7173 42.8154 22.7173 42.4311 22.7173 42.2869C22.7658 42.2389 22.7658 42.2389 22.7658 42.1909Z" fill="#706F6F"/>
<path fill-rule="evenodd" clip-rule="evenodd" d="M22.8137 42.3351C22.8623 42.6233 23.0564 43.2479 23.639 43.7763C24.3186 44.3528 25.1438 44.3528 25.338 44.3528C25.0467 44.4489 24.3671 44.4009 23.9788 44.2567C23.5904 44.0646 23.105 43.4881 22.9594 43.1037C22.8623 42.8635 22.8137 42.5272 22.8137 42.3351Z" fill="#575756"/>
<path fill-rule="evenodd" clip-rule="evenodd" d="M22.9114 42.6712C23.0085 43.0075 23.2512 43.4399 23.6881 43.7762C24.2706 44.2566 24.9502 44.3527 25.2415 44.3527C24.9502 44.4007 24.4648 44.3527 24.1735 44.2566C23.8822 44.1605 23.4454 43.7281 23.2026 43.3918C23.0085 43.1997 22.9114 42.8634 22.9114 42.6712Z" fill="#3C3C3B"/>
<path fill-rule="evenodd" clip-rule="evenodd" d="M24.5621 40.3652C24.2223 40.5094 24.1252 40.9417 24.2709 41.3741C24.465 41.8065 24.8534 42.0467 25.1932 41.9026C25.533 41.7585 25.6301 41.3261 25.4845 40.8937C25.3388 40.4613 24.9019 40.2211 24.5621 40.3652Z" fill="white"/>
<path fill-rule="evenodd" clip-rule="evenodd" d="M48.8827 38.2034C48.8827 38.2034 47.9118 35.7052 45.1448 36.2337C42.3778 36.8102 41.9409 38.6358 41.9409 38.6358C41.9409 34.6483 48.3972 33.8797 48.8827 38.2034Z" fill="#3C2012"/>
<path fill-rule="evenodd" clip-rule="evenodd" d="M24.7086 46.7069C23.9804 46.7549 23.3979 47.1393 23.4464 47.5717C23.495 48.004 24.126 48.2923 24.8542 48.1962C25.5824 48.1482 26.1649 47.7638 26.1163 47.3314C26.1163 46.9471 25.4853 46.6589 24.7086 46.7069Z" fill="#EA5160"/>
<path fill-rule="evenodd" clip-rule="evenodd" d="M45.8736 45.5539C45.2425 45.602 44.757 45.9382 44.8056 46.2745C44.8541 46.6108 45.3881 46.851 45.9706 46.803C46.6017 46.755 47.0872 46.4187 47.0386 46.0824C47.0386 45.7461 46.5046 45.5059 45.8736 45.5539Z" fill="#EA5160"/>
<path fill-rule="evenodd" clip-rule="evenodd" d="M45.5334 38.6358C44.2712 38.6838 43.3004 39.981 43.3489 41.6144C43.3975 43.1998 44.4654 44.4969 45.7275 44.4489C46.9897 44.4008 47.9605 43.1037 47.912 41.4703C47.8635 39.8369 46.7955 38.5878 45.5334 38.6358Z" fill="white"/>
<path fill-rule="evenodd" clip-rule="evenodd" d="M45.3393 38.7319C44.2713 38.7799 43.446 39.8849 43.4946 41.2301C43.5431 42.5752 44.4169 43.6802 45.4849 43.6322C46.5528 43.5841 47.3781 42.4792 47.3295 41.134C47.281 39.7888 46.4072 38.6838 45.3393 38.7319Z" fill="#3C2012"/>
<path fill-rule="evenodd" clip-rule="evenodd" d="M43.6892 41.0859C43.6892 41.0859 43.7862 41.9987 44.5629 42.6713C45.3396 43.3439 46.262 43.2478 46.262 43.2478C46.262 43.2478 45.0969 43.6321 44.4659 43.1036C43.8833 42.5271 43.4464 41.5183 43.6892 41.0859Z" fill="#878787"/>
<path fill-rule="evenodd" clip-rule="evenodd" d="M43.6888 41.0859C43.6888 41.0859 43.7859 41.9987 44.5626 42.6713C45.3393 43.3439 46.2616 43.2478 46.2616 43.2478C46.2616 43.2478 46.2131 43.2478 46.116 43.2958C45.7762 43.3439 45.2907 43.3439 44.9024 43.2478C44.4655 43.1036 44.0772 42.6713 43.8344 42.1428C43.6403 41.7104 43.6403 41.3261 43.6403 41.182C43.6888 41.0859 43.6888 41.0859 43.6888 41.0859Z" fill="#706F6F"/>
<path fill-rule="evenodd" clip-rule="evenodd" d="M43.6892 41.1819C43.7378 41.4702 43.9319 42.0947 44.5144 42.6232C45.1941 43.1997 46.0193 43.1997 46.2135 43.1997C45.9222 43.2958 45.2426 43.2478 44.8543 43.1036C44.4659 42.9115 43.9805 42.335 43.8348 41.9506C43.7378 41.7104 43.7378 41.3741 43.6892 41.1819Z" fill="#575756"/>
<path fill-rule="evenodd" clip-rule="evenodd" d="M43.7867 41.5183C43.8838 41.8546 44.1266 42.287 44.5634 42.6233C45.146 43.1037 45.8256 43.1998 46.1168 43.1998C45.8256 43.2478 45.3401 43.1998 45.0489 43.1037C44.7576 43.0076 44.3207 42.5752 44.078 42.2389C43.9324 42.0468 43.8353 41.7585 43.7867 41.5183Z" fill="#3C3C3B"/>
<path fill-rule="evenodd" clip-rule="evenodd" d="M45.4851 39.2123C45.1453 39.3565 45.0482 39.7888 45.1938 40.2212C45.388 40.6536 45.7764 40.8938 46.1162 40.7497C46.456 40.6056 46.5531 40.1732 46.4074 39.7408C46.2133 39.3084 45.8249 39.0682 45.4851 39.2123Z" fill="white"/>
<path fill-rule="evenodd" clip-rule="evenodd" d="M32.5242 13.9421C33.7863 13.9421 34.8543 14.9029 34.8543 16.104C34.8543 17.3051 33.7863 18.2659 32.5242 18.2659C31.2621 18.2659 30.1941 17.3051 30.1941 16.104C30.1941 14.9029 31.2135 13.9421 32.5242 13.9421Z" fill="#DB3715"/>
<path fill-rule="evenodd" clip-rule="evenodd" d="M32.5724 14.0863C33.8345 14.0863 34.8054 15.0471 34.8054 16.2002C34.8054 17.3532 33.786 18.314 32.5724 18.314C31.3102 18.314 30.3394 17.3532 30.3394 16.2002C30.3394 14.9991 31.3588 14.0863 32.5724 14.0863Z" fill="#BE2218"/>
<path fill-rule="evenodd" clip-rule="evenodd" d="M33.4951 14.3264C34.1747 14.6627 34.6601 15.3353 34.6601 16.152C34.6601 17.257 33.6893 18.1698 32.4757 18.1698C31.7961 18.1698 31.2135 17.8816 30.8252 17.4492C31.1165 17.5933 31.4563 17.6894 31.7961 17.6894C33.0097 17.6894 33.9805 16.7766 33.9805 15.6716C34.0291 15.0951 33.8349 14.6627 33.4951 14.3264Z" fill="#AC2014"/>
<path fill-rule="evenodd" clip-rule="evenodd" d="M32.0393 14.3265C32.5247 14.3265 32.9616 14.6628 32.9616 15.0951C32.9616 15.5275 32.5733 15.8638 32.0393 15.8638C31.5538 15.8638 31.1169 15.5275 31.1169 15.0951C31.1169 14.6628 31.5538 14.3265 32.0393 14.3265Z" fill="#DB3715"/>
<path fill-rule="evenodd" clip-rule="evenodd" d="M33.6409 14.951C33.6409 14.951 34.3205 15.5755 34.1749 16.2481C34.0292 16.9207 34.6118 16.5364 34.6118 16.104C34.6118 15.7196 34.5632 15.2873 34.369 15.0951C34.1749 14.9029 33.4953 14.7108 33.6409 14.951Z" fill="#DB3715"/>
<path fill-rule="evenodd" clip-rule="evenodd" d="M31.9414 14.7108C32.1355 14.7108 32.2812 14.855 32.2812 14.9991C32.2812 15.1913 32.1355 15.2874 31.9414 15.2874C31.7472 15.2874 31.6016 15.1432 31.6016 14.9991C31.6016 14.855 31.7472 14.7108 31.9414 14.7108Z" fill="#E26037"/>
<path fill-rule="evenodd" clip-rule="evenodd" d="M45.0964 14.6628C46.6012 14.6628 47.8148 15.8158 47.8148 17.2571C47.8148 18.6983 46.6012 19.8514 45.0964 19.8514C43.5915 19.8514 42.3779 18.6983 42.3779 17.2571C42.4265 15.8158 43.6401 14.6628 45.0964 14.6628Z" fill="#DB3715"/>
<path fill-rule="evenodd" clip-rule="evenodd" d="M45.1935 14.855C46.6498 14.855 47.8149 15.9599 47.8149 17.3532C47.8149 18.7464 46.6498 19.8514 45.1935 19.8514C43.7372 19.8514 42.5721 18.7464 42.5721 17.3532C42.6207 15.9599 43.7857 14.855 45.1935 14.855Z" fill="#BE2218"/>
<path fill-rule="evenodd" clip-rule="evenodd" d="M46.3099 15.0952C47.1352 15.4795 47.6691 16.2962 47.6691 17.2571C47.6691 18.6023 46.5526 19.6592 45.1449 19.6592C44.3682 19.6592 43.6886 19.3229 43.2031 18.7944C43.5429 18.9866 43.9313 19.0827 44.3682 19.0827C45.7759 19.0827 46.8924 18.0258 46.8924 16.6806C46.8924 16.056 46.6497 15.5276 46.3099 15.0952Z" fill="#AC2014"/>
<path fill-rule="evenodd" clip-rule="evenodd" d="M44.5628 15.1432C45.1454 15.1432 45.6308 15.5755 45.6308 16.056C45.6308 16.5364 45.1454 16.9688 44.5628 16.9688C43.9803 16.9688 43.4949 16.5364 43.4949 16.056C43.4949 15.5755 43.9803 15.1432 44.5628 15.1432Z" fill="#DB3715"/>
<path fill-rule="evenodd" clip-rule="evenodd" d="M44.4655 15.6237C44.7082 15.6237 44.8539 15.7678 44.8539 16.008C44.8539 16.2482 44.6597 16.3923 44.4655 16.3923C44.2228 16.3923 44.0771 16.2482 44.0771 16.008C44.0771 15.7678 44.2228 15.6237 44.4655 15.6237Z" fill="#E26037"/>
<path fill-rule="evenodd" clip-rule="evenodd" d="M41.6979 15.2873C43.2028 15.2873 44.4164 16.4403 44.4164 17.8816C44.4164 19.3229 43.2028 20.4759 41.6979 20.4759C40.1931 20.4759 38.9795 19.3229 38.9795 17.8816C38.9795 16.4403 40.1931 15.2873 41.6979 15.2873Z" fill="#C8231A"/>
<path fill-rule="evenodd" clip-rule="evenodd" d="M41.7951 15.4795C43.2514 15.4795 44.4164 16.5845 44.4164 17.9777C44.4164 19.3709 43.2514 20.4759 41.7951 20.4759C40.3388 20.4759 39.1737 19.3709 39.1737 17.9777C39.1737 16.5845 40.3388 15.4795 41.7951 15.4795Z" fill="#AD2419"/>
<path fill-rule="evenodd" clip-rule="evenodd" d="M42.8629 15.7197C43.6882 16.1521 44.2707 16.9688 44.2707 17.8816C44.2707 19.2268 43.1542 20.2837 41.7464 20.2837C40.9697 20.2837 40.2901 19.9474 39.8047 19.4189C40.1445 19.6111 40.5328 19.7072 40.9697 19.7072C42.3775 19.7072 43.494 18.6503 43.494 17.3051C43.494 16.6805 43.2513 16.1521 42.8629 15.7197Z" fill="#941D0E"/>
<path fill-rule="evenodd" clip-rule="evenodd" d="M41.1644 15.7677C41.7469 15.7677 42.2324 16.2 42.2324 16.6805C42.2324 17.1609 41.7469 17.5933 41.1644 17.5933C40.5819 17.5933 40.0964 17.1609 40.0964 16.6805C40.0964 16.2 40.5819 15.7677 41.1644 15.7677Z" fill="#BE2218"/>
<path fill-rule="evenodd" clip-rule="evenodd" d="M43.0569 16.5364C43.0569 16.5364 43.8336 17.2571 43.688 18.0738C43.4938 18.8905 44.1734 18.4101 44.1734 17.9297C44.1734 17.4492 44.1249 16.9688 43.8821 16.7286C43.6394 16.4884 42.8142 16.2001 43.0569 16.5364Z" fill="#BE2218"/>
<path fill-rule="evenodd" clip-rule="evenodd" d="M27.0873 14.3745C28.5922 14.3745 29.8058 15.5276 29.8058 16.9688C29.8058 18.4101 28.5922 19.5631 27.0873 19.5631C25.5825 19.5631 24.3689 18.4101 24.3689 16.9688C24.3689 15.5276 25.5825 14.3745 27.0873 14.3745Z" fill="#DB3715"/>
<path fill-rule="evenodd" clip-rule="evenodd" d="M27.1845 14.5667C28.6408 14.5667 29.8058 15.6717 29.8058 17.0649C29.8058 18.4581 28.6408 19.5631 27.1845 19.5631C25.7282 19.5631 24.5631 18.4581 24.5631 17.0649C24.5631 15.6717 25.7282 14.5667 27.1845 14.5667Z" fill="#BE2218"/>
<path fill-rule="evenodd" clip-rule="evenodd" d="M28.2521 14.807C29.0773 15.2394 29.6113 16.008 29.6113 16.9689C29.6113 18.314 28.4948 19.371 27.087 19.371C26.3103 19.371 25.6307 19.0347 25.1453 18.5062C25.4851 18.6984 25.8734 18.7945 26.3103 18.7945C27.7181 18.7945 28.8346 17.7375 28.8346 16.3924C28.8346 15.7678 28.6404 15.2394 28.2521 14.807Z" fill="#AC2014"/>
<path fill-rule="evenodd" clip-rule="evenodd" d="M26.505 14.8549C27.0875 14.8549 27.5729 15.2873 27.5729 15.7677C27.5729 16.2962 27.0875 16.6805 26.505 16.6805C25.9224 16.6805 25.437 16.2481 25.437 15.7677C25.4856 15.2873 25.9224 14.8549 26.505 14.8549Z" fill="#DB3715"/>
<path fill-rule="evenodd" clip-rule="evenodd" d="M28.4463 15.6237C28.4463 15.6237 29.223 16.3443 29.0774 17.161C28.8832 17.9777 29.5628 17.4973 29.5628 17.0169C29.5628 16.5365 29.5142 16.056 29.2715 15.8158C29.0288 15.5276 28.2036 15.2874 28.4463 15.6237Z" fill="#DB3715"/>
<path fill-rule="evenodd" clip-rule="evenodd" d="M26.4078 15.3354C26.6505 15.3354 26.7961 15.4795 26.7961 15.7197C26.7961 15.9119 26.6019 16.1041 26.4078 16.1041C26.165 16.1041 26.0194 15.9599 26.0194 15.7197C26.0194 15.4795 26.2136 15.3354 26.4078 15.3354Z" fill="#E26037"/>
<path fill-rule="evenodd" clip-rule="evenodd" d="M28.9318 16.008C30.4367 16.008 31.6503 17.161 31.6503 18.6023C31.6503 20.0435 30.4367 21.1965 28.9318 21.1965C27.427 21.1965 26.2134 20.0435 26.2134 18.6023C26.2134 17.209 27.427 16.008 28.9318 16.008Z" fill="#DB3715"/>
<path fill-rule="evenodd" clip-rule="evenodd" d="M29.029 16.2002C30.4853 16.2002 31.6503 17.3051 31.6503 18.6984C31.6503 20.0916 30.4853 21.1965 29.029 21.1965C27.5726 21.1965 26.4076 20.0916 26.4076 18.6984C26.4076 17.3051 27.5726 16.2002 29.029 16.2002Z" fill="#BE2218"/>
<path fill-rule="evenodd" clip-rule="evenodd" d="M30.0965 16.4883C30.9218 16.8727 31.4558 17.6894 31.4558 18.6502C31.4558 19.9954 30.3393 21.0523 28.9315 21.0523C28.1548 21.0523 27.4752 20.716 26.9897 20.1876C27.3296 20.3798 27.7179 20.4758 28.1548 20.4758C29.5626 20.4758 30.6791 19.4189 30.6791 18.0737C30.6791 17.4492 30.4849 16.9207 30.0965 16.4883Z" fill="#AC2014"/>
<path fill-rule="evenodd" clip-rule="evenodd" d="M28.3495 16.5364C28.932 16.5364 29.4174 16.9688 29.4174 17.4492C29.4174 17.9777 28.932 18.362 28.3495 18.362C27.7669 18.362 27.2815 17.9296 27.2815 17.4492C27.33 16.9207 27.7669 16.5364 28.3495 16.5364Z" fill="#DB3715"/>
<path fill-rule="evenodd" clip-rule="evenodd" d="M30.2908 17.2571C30.2908 17.2571 31.0675 17.9778 30.9218 18.7945C30.7277 19.6112 31.4073 19.1308 31.4073 18.6503C31.4073 18.1699 31.3587 17.6895 31.116 17.4493C30.8733 17.2091 30.048 16.9689 30.2908 17.2571Z" fill="#DB3715"/>
<path fill-rule="evenodd" clip-rule="evenodd" d="M28.2522 16.9688C28.495 16.9688 28.6406 17.113 28.6406 17.3532C28.6406 17.5453 28.4464 17.7375 28.2522 17.7375C28.0095 17.7375 27.8639 17.5934 27.8639 17.3532C27.8639 17.161 28.0581 16.9688 28.2522 16.9688Z" fill="#E26037"/>
<path fill-rule="evenodd" clip-rule="evenodd" d="M32.8149 16.9688C34.3197 16.9688 35.5333 18.1218 35.5333 19.5631C35.5333 21.0043 34.3197 22.1574 32.8149 22.1574C31.31 22.1574 30.0964 21.0043 30.0964 19.5631C30.0964 18.1218 31.31 16.9688 32.8149 16.9688Z" fill="#C8231A"/>
<path fill-rule="evenodd" clip-rule="evenodd" d="M32.912 17.161C34.3683 17.161 35.5334 18.2659 35.5334 19.6592C35.5334 21.0524 34.3683 22.1574 32.912 22.1574C31.4557 22.1574 30.2906 21.0524 30.2906 19.6592C30.2906 18.2659 31.4557 17.161 32.912 17.161Z" fill="#AD2419"/>
<path fill-rule="evenodd" clip-rule="evenodd" d="M33.9796 17.4012C34.8048 17.7856 35.3388 18.6023 35.3388 19.5631C35.3388 20.9083 34.2223 21.9652 32.8145 21.9652C32.0379 21.9652 31.3582 21.6289 30.8728 21.1005C31.2126 21.2927 31.601 21.3887 32.0379 21.3887C33.4456 21.3887 34.5621 20.3318 34.5621 18.9866C34.6107 18.4101 34.3679 17.8336 33.9796 17.4012Z" fill="#AC2014"/>
<path fill-rule="evenodd" clip-rule="evenodd" d="M32.2813 17.4492C32.8639 17.4492 33.3493 17.8815 33.3493 18.362C33.3493 18.8424 32.8639 19.2748 32.2813 19.2748C31.6988 19.2748 31.2134 18.8424 31.2134 18.362C31.2134 17.8815 31.6988 17.4492 32.2813 17.4492Z" fill="#BE2218"/>
<path fill-rule="evenodd" clip-rule="evenodd" d="M34.1738 18.2179C34.1738 18.2179 34.9505 18.9386 34.8049 19.7553C34.6107 20.572 35.2903 20.0916 35.2903 19.6111C35.2903 19.1307 35.2418 18.6503 34.9991 18.4101C34.7563 18.1699 33.9311 17.8816 34.1738 18.2179Z" fill="#BE2218"/>
<path fill-rule="evenodd" clip-rule="evenodd" d="M30.0964 20.0916C31.6012 20.0916 32.8148 21.2446 32.8148 22.6858C32.8148 24.1271 31.6012 25.2801 30.0964 25.2801C28.5915 25.2801 27.3779 24.1271 27.3779 22.6858C27.3779 21.2446 28.5915 20.0916 30.0964 20.0916Z" fill="#DB3715"/>
<path fill-rule="evenodd" clip-rule="evenodd" d="M30.1935 20.2837C31.6498 20.2837 32.8149 21.3887 32.8149 22.7819C32.8149 24.1751 31.6498 25.2801 30.1935 25.2801C28.7372 25.2801 27.5721 24.1751 27.5721 22.7819C27.5721 21.3887 28.7372 20.2837 30.1935 20.2837Z" fill="#BE2218"/>
<path fill-rule="evenodd" clip-rule="evenodd" d="M31.2611 20.524C32.0863 20.9083 32.6203 21.725 32.6203 22.6859C32.6203 24.0311 31.5038 25.088 30.096 25.088C29.3193 25.088 28.6397 24.7517 28.1543 24.2232C28.4941 24.4154 28.8825 24.5115 29.3193 24.5115C30.7271 24.5115 31.8436 23.4546 31.8436 22.1094C31.8436 21.4848 31.6494 20.9564 31.2611 20.524Z" fill="#AC2014"/>
<path fill-rule="evenodd" clip-rule="evenodd" d="M29.5628 20.5719C30.1454 20.5719 30.6308 21.0043 30.6308 21.4847C30.6308 22.0132 30.1454 22.3975 29.5628 22.3975C28.9803 22.3975 28.4949 21.9651 28.4949 21.4847C28.4949 20.9562 28.9803 20.5719 29.5628 20.5719Z" fill="#DB3715"/>
<path fill-rule="evenodd" clip-rule="evenodd" d="M31.4552 21.2926C31.4552 21.2926 32.2319 22.0133 32.0863 22.83C31.8921 23.6467 32.6203 23.1663 32.6203 22.6858C32.6203 22.2054 32.5717 21.725 32.329 21.4848C32.0377 21.2446 31.2125 21.0044 31.4552 21.2926Z" fill="#DB3715"/>
<path fill-rule="evenodd" clip-rule="evenodd" d="M29.4168 21.0524C29.6595 21.0524 29.8051 21.1965 29.8051 21.4367C29.8051 21.6769 29.611 21.8211 29.4168 21.8211C29.1741 21.8211 29.0284 21.6769 29.0284 21.4367C29.0284 21.1965 29.2226 21.0524 29.4168 21.0524Z" fill="#E26037"/>
<path fill-rule="evenodd" clip-rule="evenodd" d="M34.5629 21.0043C36.0678 21.0043 37.2814 22.1573 37.2814 23.5986C37.2814 25.0399 36.0678 26.1929 34.5629 26.1929C33.0581 26.1929 31.8445 25.0399 31.8445 23.5986C31.8445 22.1573 33.0581 21.0043 34.5629 21.0043Z" fill="#DB3715"/>
<path fill-rule="evenodd" clip-rule="evenodd" d="M34.6601 21.1965C36.1164 21.1965 37.2814 22.3015 37.2814 23.6947C37.2814 25.0879 36.1164 26.1929 34.6601 26.1929C33.2037 26.1929 32.0387 25.0879 32.0387 23.6947C32.0387 22.3015 33.2037 21.1965 34.6601 21.1965Z" fill="#BE2218"/>
<path fill-rule="evenodd" clip-rule="evenodd" d="M35.7276 21.4368C36.5529 21.8211 37.0869 22.6378 37.0869 23.5987C37.0869 24.9438 35.9704 26.0008 34.5626 26.0008C33.7859 26.0008 33.1063 25.6645 32.6208 25.136C32.9607 25.3282 33.349 25.4243 33.7859 25.4243C35.1937 25.4243 36.3102 24.3673 36.3102 23.0222C36.3102 22.3976 36.116 21.8691 35.7276 21.4368Z" fill="#AC2014"/>
<path fill-rule="evenodd" clip-rule="evenodd" d="M33.9806 21.4847C34.5631 21.4847 35.0485 21.9171 35.0485 22.3975C35.0485 22.9259 34.5631 23.3103 33.9806 23.3103C33.398 23.3103 32.9126 22.8779 32.9126 22.3975C32.9611 21.869 33.398 21.4847 33.9806 21.4847Z" fill="#DB3715"/>
<path fill-rule="evenodd" clip-rule="evenodd" d="M35.9219 22.2054C35.9219 22.2054 36.6986 22.926 36.5529 23.7427C36.3588 24.5595 37.0384 24.079 37.0384 23.5986C37.0384 23.1182 36.9898 22.6378 36.7471 22.3976C36.5044 22.1574 35.6792 21.9171 35.9219 22.2054Z" fill="#DB3715"/>
<path fill-rule="evenodd" clip-rule="evenodd" d="M33.8833 21.9652C34.1261 21.9652 34.2717 22.1093 34.2717 22.3495C34.2717 22.5417 34.0775 22.7339 33.8833 22.7339C33.6406 22.7339 33.495 22.5897 33.495 22.3495C33.495 22.1093 33.6892 21.9652 33.8833 21.9652Z" fill="#E26037"/>
<path fill-rule="evenodd" clip-rule="evenodd" d="M36.9896 15.0471C38.4944 15.0471 39.708 16.2002 39.708 17.6414C39.708 19.0827 38.4944 20.2357 36.9896 20.2357C35.4847 20.2357 34.2711 19.0827 34.2711 17.6414C34.2711 16.2002 35.4847 15.0471 36.9896 15.0471Z" fill="#DB3715"/>
<path fill-rule="evenodd" clip-rule="evenodd" d="M37.0867 15.2393C38.543 15.2393 39.708 16.3443 39.708 17.7375C39.708 19.1307 38.543 20.2357 37.0867 20.2357C35.6304 20.2357 34.4653 19.1307 34.4653 17.7375C34.4653 16.3443 35.6304 15.2393 37.0867 15.2393Z" fill="#BE2218"/>
<path fill-rule="evenodd" clip-rule="evenodd" d="M38.1543 15.4796C38.9795 15.8639 39.5135 16.6806 39.5135 17.6415C39.5135 18.9867 38.397 20.0436 36.9892 20.0436C36.2125 20.0436 35.5329 19.7073 35.0475 19.1788C35.3873 19.371 35.7756 19.4671 36.2125 19.4671C37.6203 19.4671 38.7368 18.4102 38.7368 17.065C38.7853 16.4404 38.5426 15.912 38.1543 15.4796Z" fill="#AC2014"/>
<path fill-rule="evenodd" clip-rule="evenodd" d="M36.456 15.5275C37.0385 15.5275 37.524 15.9599 37.524 16.4403C37.524 16.9688 37.0385 17.3531 36.456 17.3531C35.8735 17.3531 35.3881 16.9207 35.3881 16.4403C35.3881 15.9599 35.8735 15.5275 36.456 15.5275Z" fill="#DB3715"/>
<path fill-rule="evenodd" clip-rule="evenodd" d="M36.3589 16.008C36.6016 16.008 36.7472 16.1521 36.7472 16.3923C36.7472 16.5845 36.553 16.7767 36.3589 16.7767C36.1161 16.7767 35.9705 16.6325 35.9705 16.3923C35.922 16.1521 36.1161 16.008 36.3589 16.008Z" fill="#E26037"/>
<path fill-rule="evenodd" clip-rule="evenodd" d="M37.6696 18.0737C39.1745 18.0737 40.3881 19.2267 40.3881 20.668C40.3881 22.1093 39.1745 23.2623 37.6696 23.2623C36.1648 23.2623 34.9512 22.1093 34.9512 20.668C34.9512 19.2267 36.1648 18.0737 37.6696 18.0737Z" fill="#DB3715"/>
<path fill-rule="evenodd" clip-rule="evenodd" d="M37.7667 18.2659C39.223 18.2659 40.3881 19.3709 40.3881 20.7641C40.3881 22.1573 39.223 23.2623 37.7667 23.2623C36.3104 23.2623 35.1454 22.1573 35.1454 20.7641C35.1454 19.3709 36.3104 18.2659 37.7667 18.2659Z" fill="#BE2218"/>
<path fill-rule="evenodd" clip-rule="evenodd" d="M38.8343 18.5541C39.6596 18.9384 40.1936 19.7551 40.1936 20.716C40.1936 22.0611 39.077 23.1181 37.6693 23.1181C36.8926 23.1181 36.213 22.7818 35.7275 22.2533C36.0673 22.4455 36.4557 22.5416 36.8926 22.5416C38.3003 22.5416 39.4169 21.4846 39.4169 20.1395C39.4654 19.5149 39.2227 18.9384 38.8343 18.5541Z" fill="#AC2014"/>
<path fill-rule="evenodd" clip-rule="evenodd" d="M37.1361 18.5541C37.7186 18.5541 38.204 18.9865 38.204 19.4669C38.204 19.9953 37.7186 20.3797 37.1361 20.3797C36.5536 20.3797 36.0681 19.9473 36.0681 19.4669C36.0681 18.9865 36.5536 18.5541 37.1361 18.5541Z" fill="#DB3715"/>
<path fill-rule="evenodd" clip-rule="evenodd" d="M39.0286 19.3229C39.0286 19.3229 39.8053 20.0435 39.6597 20.8602C39.4655 21.6769 40.1451 21.1965 40.1451 20.7161C40.1451 20.2357 40.0966 19.7552 39.8539 19.515C39.6112 19.2748 38.8345 19.0346 39.0286 19.3229Z" fill="#DB3715"/>
<path fill-rule="evenodd" clip-rule="evenodd" d="M37.0387 19.0346C37.2815 19.0346 37.4271 19.1787 37.4271 19.4189C37.4271 19.6111 37.2329 19.8032 37.0387 19.8032C36.796 19.8032 36.6504 19.6591 36.6504 19.4189C36.6504 19.1787 36.796 19.0346 37.0387 19.0346Z" fill="#E26037"/>
<path fill-rule="evenodd" clip-rule="evenodd" d="M49.9507 18.266C51.2613 18.266 52.3293 19.2749 52.3293 20.524C52.3293 21.7731 51.2613 22.7819 49.9507 22.7819C48.64 22.7819 47.572 21.7731 47.572 20.524C47.572 19.2749 48.64 18.266 49.9507 18.266Z" fill="#DB3715"/>
<path fill-rule="evenodd" clip-rule="evenodd" d="M50.0474 18.4102C51.3095 18.4102 52.3775 19.4191 52.3775 20.6201C52.3775 21.8212 51.3581 22.8301 50.0474 22.8301C48.7367 22.8301 47.7173 21.8212 47.7173 20.6201C47.7173 19.4191 48.7367 18.4102 50.0474 18.4102Z" fill="#BE2218"/>
<path fill-rule="evenodd" clip-rule="evenodd" d="M50.9704 18.6504C51.6986 18.9867 52.184 19.7073 52.184 20.524C52.184 21.677 51.1646 22.6379 49.951 22.6379C49.2714 22.6379 48.6403 22.3496 48.252 21.8692C48.5432 22.0133 48.883 22.1094 49.2714 22.1094C50.485 22.1094 51.5044 21.1485 51.5044 19.9955C51.5044 19.5151 51.3102 19.0347 50.9704 18.6504Z" fill="#AC2014"/>
<path fill-rule="evenodd" clip-rule="evenodd" d="M49.4648 18.6984C49.9988 18.6984 50.3871 19.0828 50.3871 19.5151C50.3871 19.9475 49.9502 20.3319 49.4648 20.3319C48.9308 20.3319 48.5425 19.9475 48.5425 19.5151C48.5425 19.0347 48.9308 18.6984 49.4648 18.6984Z" fill="#DB3715"/>
<path fill-rule="evenodd" clip-rule="evenodd" d="M51.1648 19.3709C51.1648 19.3709 51.8444 19.9955 51.6988 20.7161C51.5532 21.4367 52.1357 21.0044 52.1357 20.572C52.1357 20.1396 52.0871 19.7553 51.893 19.5151C51.6502 19.2748 50.9706 19.0827 51.1648 19.3709Z" fill="#DB3715"/>
<path fill-rule="evenodd" clip-rule="evenodd" d="M46.0192 16.6806C47.5241 16.6806 48.7377 17.8336 48.7377 19.2749C48.7377 20.7161 47.5241 21.8691 46.0192 21.8691C44.5144 21.8691 43.3008 20.7161 43.3008 19.2749C43.3008 17.8336 44.5144 16.6806 46.0192 16.6806Z" fill="#DB3715"/>
<path fill-rule="evenodd" clip-rule="evenodd" d="M46.1164 16.8247C47.5727 16.8247 48.7377 17.9297 48.7377 19.3229C48.7377 20.7161 47.5727 21.8211 46.1164 21.8211C44.66 21.8211 43.495 20.7161 43.495 19.3229C43.495 17.9777 44.66 16.8247 46.1164 16.8247Z" fill="#BE2218"/>
<path fill-rule="evenodd" clip-rule="evenodd" d="M47.1839 17.113C48.0092 17.4974 48.5432 18.3141 48.5432 19.2749C48.5432 20.6201 47.4267 21.677 46.0189 21.677C45.2422 21.677 44.5626 21.3407 44.0771 20.8123C44.417 21.0044 44.8053 21.1005 45.2422 21.1005C46.65 21.1005 47.7665 20.0436 47.7665 18.6984C47.7665 18.0739 47.5238 17.5454 47.1839 17.113Z" fill="#AC2014"/>
<path fill-rule="evenodd" clip-rule="evenodd" d="M45.4369 17.1609C46.0194 17.1609 46.5048 17.5933 46.5048 18.0737C46.5048 18.6022 46.0194 18.9865 45.4369 18.9865C44.8543 18.9865 44.3689 18.5542 44.3689 18.0737C44.4174 17.5453 44.8543 17.1609 45.4369 17.1609Z" fill="#DB3715"/>
<path fill-rule="evenodd" clip-rule="evenodd" d="M45.3396 17.5934C45.5824 17.5934 45.728 17.7375 45.728 17.9778C45.728 18.1699 45.5338 18.3621 45.3396 18.3621C45.0969 18.3621 44.9513 18.218 44.9513 17.9778C44.9513 17.7856 45.1455 17.5934 45.3396 17.5934Z" fill="#E26037"/>
<path fill-rule="evenodd" clip-rule="evenodd" d="M41.9409 19.3228C43.4457 19.3228 44.6593 20.4758 44.6593 21.9171C44.6593 23.3583 43.4457 24.5114 41.9409 24.5114C40.436 24.5114 39.2224 23.3583 39.2224 21.9171C39.2224 20.4758 40.436 19.3228 41.9409 19.3228Z" fill="#DB3715"/>
<path fill-rule="evenodd" clip-rule="evenodd" d="M42.038 19.515C43.4943 19.515 44.6593 20.62 44.6593 22.0132C44.6593 23.4064 43.4943 24.5114 42.038 24.5114C40.5817 24.5114 39.4166 23.4064 39.4166 22.0132C39.4166 20.62 40.5817 19.515 42.038 19.515Z" fill="#BE2218"/>
<path fill-rule="evenodd" clip-rule="evenodd" d="M43.1056 19.7552C43.9308 20.1396 44.4648 20.9563 44.4648 21.9171C44.4648 23.2623 43.3483 24.3192 41.9405 24.3192C41.1638 24.3192 40.4842 23.983 39.9988 23.4545C40.3386 23.6467 40.7269 23.7427 41.1638 23.7427C42.5716 23.7427 43.6881 22.6858 43.6881 21.3406C43.6881 20.7161 43.4939 20.1876 43.1056 19.7552Z" fill="#AC2014"/>
<path fill-rule="evenodd" clip-rule="evenodd" d="M41.4073 19.8032C41.9898 19.8032 42.4753 20.2355 42.4753 20.716C42.4753 21.1964 41.9898 21.6288 41.4073 21.6288C40.8248 21.6288 40.3394 21.1964 40.3394 20.716C40.3394 20.2355 40.8248 19.8032 41.4073 19.8032Z" fill="#DB3715"/>
<path fill-rule="evenodd" clip-rule="evenodd" d="M43.2998 20.5719C43.2998 20.5719 44.0765 21.2926 43.9309 22.1093C43.7367 22.926 44.4163 22.4456 44.4163 21.9652C44.4163 21.4847 44.3678 21.0043 44.125 20.7641C43.8823 20.4758 43.0571 20.2356 43.2998 20.5719Z" fill="#DB3715"/>
<path fill-rule="evenodd" clip-rule="evenodd" d="M41.2613 20.2837C41.504 20.2837 41.6496 20.4278 41.6496 20.668C41.6496 20.8602 41.4554 21.0523 41.2613 21.0523C41.0186 21.0523 40.8729 20.9082 40.8729 20.668C40.8729 20.4278 41.0671 20.2837 41.2613 20.2837Z" fill="#E26037"/>
<path fill-rule="evenodd" clip-rule="evenodd" d="M46.5038 20.3798C48.0087 20.3798 49.2223 21.5328 49.2223 22.9741C49.2223 24.4153 48.0087 25.5683 46.5038 25.5683C44.999 25.5683 43.7854 24.4153 43.7854 22.9741C43.7854 21.5328 44.999 20.3798 46.5038 20.3798Z" fill="#C8231A"/>
<path fill-rule="evenodd" clip-rule="evenodd" d="M46.601 20.572C48.0573 20.572 49.2223 21.6769 49.2223 23.0701C49.2223 24.4634 48.0573 25.5683 46.601 25.5683C45.1447 25.5683 43.9796 24.4634 43.9796 23.0701C43.9796 21.6769 45.1447 20.572 46.601 20.572Z" fill="#AD2419"/>
<path fill-rule="evenodd" clip-rule="evenodd" d="M47.6686 20.8122C48.4938 21.1966 49.0278 22.0133 49.0278 22.9741C49.0278 24.3193 47.9113 25.3762 46.5035 25.3762C45.7268 25.3762 45.0472 25.0399 44.5618 24.5115C44.9016 24.7036 45.2899 24.7997 45.7268 24.7997C47.1346 24.7997 48.2511 23.7428 48.2511 22.3976C48.2511 21.7731 48.0569 21.2446 47.6686 20.8122Z" fill="#AC2014"/>
<path fill-rule="evenodd" clip-rule="evenodd" d="M45.9703 20.8601C46.5528 20.8601 47.0383 21.2925 47.0383 21.7729C47.0383 22.3014 46.5528 22.6857 45.9703 22.6857C45.3878 22.6857 44.9023 22.2534 44.9023 21.7729C44.9023 21.2925 45.3878 20.8601 45.9703 20.8601Z" fill="#DB3715"/>
<path fill-rule="evenodd" clip-rule="evenodd" d="M42.7659 23.3585C44.2708 23.3585 45.4844 24.5115 45.4844 25.9527C45.4844 26.1449 45.4844 26.3371 45.4358 26.4812C45.096 26.5292 44.7562 26.5773 44.4164 26.6253C43.1543 26.7694 41.7465 26.9136 40.2902 27.0577C40.1446 26.7214 40.0475 26.3851 40.0475 26.0008C40.0475 24.5115 41.2611 23.3585 42.7659 23.3585Z" fill="#DB3715"/>
<path fill-rule="evenodd" clip-rule="evenodd" d="M42.8631 23.5506C44.3194 23.5506 45.4844 24.6556 45.4844 26.0488C45.4844 26.1929 45.4844 26.3371 45.4359 26.4812C45.0961 26.5292 44.7563 26.5773 44.4165 26.6253C43.2029 26.7694 41.8436 26.9136 40.4359 27.0097C40.2902 26.7214 40.2417 26.3851 40.2417 26.0488C40.2417 24.6556 41.4067 23.5506 42.8631 23.5506Z" fill="#BE2218"/>
<path fill-rule="evenodd" clip-rule="evenodd" d="M43.9305 23.8388C44.7558 24.2231 45.2898 25.0399 45.2898 26.0007C45.2898 26.1929 45.2898 26.385 45.2412 26.5292C44.95 26.5772 44.7072 26.6252 44.416 26.6252L44.1733 26.6733C44.416 26.289 44.5616 25.8566 44.5616 25.4242C44.5131 24.7996 44.3189 24.2712 43.9305 23.8388Z" fill="#AC2014"/>
<path fill-rule="evenodd" clip-rule="evenodd" d="M42.1836 23.8869C42.7661 23.8869 43.2515 24.3192 43.2515 24.7997C43.2515 25.3281 42.7661 25.7125 42.1836 25.7125C41.601 25.7125 41.1156 25.2801 41.1156 24.7997C41.1641 24.2712 41.601 23.8869 42.1836 23.8869Z" fill="#DB3715"/>
<path fill-rule="evenodd" clip-rule="evenodd" d="M44.1249 24.6076C44.1249 24.6076 44.9016 25.3282 44.7559 26.1449C44.5618 26.9617 45.2414 26.4812 45.2414 26.0008C45.2414 25.5204 45.1928 25.04 44.9501 24.7998C44.7074 24.5595 43.8822 24.3193 44.1249 24.6076Z" fill="#DB3715"/>
<path fill-rule="evenodd" clip-rule="evenodd" d="M42.0863 24.3193C42.3291 24.3193 42.4747 24.4634 42.4747 24.7036C42.4747 24.8958 42.2805 25.088 42.0863 25.088C41.8436 25.088 41.698 24.9438 41.698 24.7036C41.698 24.5115 41.8922 24.3193 42.0863 24.3193Z" fill="#E26037"/>
<path fill-rule="evenodd" clip-rule="evenodd" d="M38.2522 22.5897C39.757 22.5897 40.9706 23.7427 40.9706 25.184C40.9706 25.9527 40.6308 26.6253 40.0968 27.1057C39.0289 27.2018 37.8638 27.2498 36.7473 27.2978C36.0192 26.8174 35.5823 26.0487 35.5823 25.184C35.5823 23.7427 36.7959 22.5897 38.2522 22.5897Z" fill="#DB3715"/>
<path fill-rule="evenodd" clip-rule="evenodd" d="M38.3489 22.7339C39.8052 22.7339 40.9703 23.8389 40.9703 25.2321C40.9703 25.9527 40.6304 26.5773 40.145 27.0577C39.077 27.1538 37.9605 27.2018 36.844 27.2499C36.1644 26.8175 35.7275 26.0488 35.7275 25.2321C35.7275 23.8869 36.9411 22.7339 38.3489 22.7339Z" fill="#BE2218"/>
<path fill-rule="evenodd" clip-rule="evenodd" d="M39.4178 23.0222C40.2431 23.4065 40.777 24.2232 40.777 25.184C40.777 25.9527 40.3887 26.6734 39.7576 27.1057C38.8353 27.1538 37.913 27.2499 36.9906 27.2979C36.7479 27.1538 36.5052 26.9616 36.311 26.7694C36.6508 26.9616 37.0392 27.0577 37.4761 27.0577C38.8838 27.0577 40.0003 26.0008 40.0003 24.6556C40.0489 23.983 39.8062 23.4545 39.4178 23.0222Z" fill="#AC2014"/>
<path fill-rule="evenodd" clip-rule="evenodd" d="M37.7183 23.0701C38.3009 23.0701 38.7863 23.5024 38.7863 23.9829C38.7863 24.5113 38.3009 24.8957 37.7183 24.8957C37.1358 24.8957 36.6504 24.4633 36.6504 23.9829C36.6504 23.4544 37.1358 23.0701 37.7183 23.0701Z" fill="#DB3715"/>
<path fill-rule="evenodd" clip-rule="evenodd" d="M39.6109 23.7908C39.6109 23.7908 40.3876 24.5114 40.242 25.3281C40.0478 26.1448 40.7274 25.6644 40.7274 25.184C40.7274 24.7036 40.6789 24.2232 40.4362 23.983C40.1934 23.7427 39.4167 23.5025 39.6109 23.7908Z" fill="#DB3715"/>
<path fill-rule="evenodd" clip-rule="evenodd" d="M37.6211 23.5025C37.8639 23.5025 38.0095 23.6467 38.0095 23.8869C38.0095 24.079 37.8153 24.2712 37.6211 24.2712C37.3784 24.2712 37.2328 24.1271 37.2328 23.8869C37.2328 23.6947 37.3784 23.5025 37.6211 23.5025Z" fill="#E26037"/>
<path fill-rule="evenodd" clip-rule="evenodd" d="M50.0964 20.8122C51.6012 20.8122 52.8148 21.9652 52.8148 23.4065C52.8148 23.5986 52.8148 23.7428 52.7663 23.9349C52.475 24.6556 51.4071 25.2801 49.174 25.8086C48.1546 25.4723 47.3779 24.5114 47.3779 23.3584C47.3779 21.9652 48.5915 20.8122 50.0964 20.8122Z" fill="#DB3715"/>
<path fill-rule="evenodd" clip-rule="evenodd" d="M50.1935 20.9563C51.6498 20.9563 52.8149 22.0613 52.8149 23.4545C52.8149 23.5506 52.8149 23.6947 52.7663 23.7908C52.5236 24.5114 51.5042 25.184 49.2226 25.7605C48.2518 25.3762 47.5721 24.5114 47.5721 23.4545C47.5721 22.1093 48.7372 20.9563 50.1935 20.9563Z" fill="#BE2218"/>
<path fill-rule="evenodd" clip-rule="evenodd" d="M51.2611 21.2446C52.0863 21.629 52.6203 22.4457 52.6203 23.4065C52.6203 23.7428 52.5232 24.1272 52.3776 24.4154C51.8922 24.8958 50.9698 25.3282 49.465 25.7606C48.931 25.6165 48.4941 25.3762 48.1543 24.9919C48.4941 25.1841 48.8825 25.2802 49.3193 25.2802C50.7271 25.2802 51.8436 24.2232 51.8436 22.8781C51.8436 22.2055 51.6494 21.677 51.2611 21.2446Z" fill="#AC2014"/>
<path fill-rule="evenodd" clip-rule="evenodd" d="M49.514 21.2925C50.0965 21.2925 50.582 21.7249 50.582 22.2053C50.582 22.7338 50.0965 23.1181 49.514 23.1181C48.9315 23.1181 48.446 22.6858 48.446 22.2053C48.4946 21.6769 48.9315 21.2925 49.514 21.2925Z" fill="#DB3715"/>
<path fill-rule="evenodd" clip-rule="evenodd" d="M51.4553 22.0133C51.4553 22.0133 52.232 22.7339 52.0864 23.5506C51.8922 24.3673 52.5718 23.8869 52.5718 23.4065C52.5718 22.9261 52.5233 22.4456 52.2806 22.2054C52.0378 21.9652 51.2126 21.725 51.4553 22.0133Z" fill="#DB3715"/>
<path fill-rule="evenodd" clip-rule="evenodd" d="M49.4168 21.725C49.6595 21.725 49.8051 21.8691 49.8051 22.1093C49.8051 22.3015 49.611 22.4937 49.4168 22.4937C49.1741 22.4937 49.0284 22.3496 49.0284 22.1093C49.0284 21.9172 49.2226 21.725 49.4168 21.725Z" fill="#E26037"/>
<path fill-rule="evenodd" clip-rule="evenodd" d="M47.5231 23.983C48.6396 23.983 49.6105 24.6556 49.9989 25.5684C48.7367 25.9527 47.0377 26.289 44.8047 26.5773C44.8047 25.136 46.0183 23.983 47.5231 23.983Z" fill="#DB3715"/>
<path fill-rule="evenodd" clip-rule="evenodd" d="M47.6204 24.1751C48.6398 24.1751 49.5622 24.7516 49.9991 25.5683C48.7855 25.9046 47.1835 26.2409 45.0476 26.5292C45.0476 25.232 46.2127 24.1751 47.6204 24.1751Z" fill="#BE2218"/>
<path fill-rule="evenodd" clip-rule="evenodd" d="M48.6877 24.4154C49.2217 24.6556 49.6101 25.088 49.8528 25.5684C49.6586 25.6165 49.4644 25.6645 49.2703 25.7126C49.2217 25.2802 49.0275 24.7998 48.6877 24.4154Z" fill="#AC2014"/>
<path fill-rule="evenodd" clip-rule="evenodd" d="M46.9896 24.4633C47.5721 24.4633 48.0575 24.8957 48.0575 25.3761C48.0575 25.6644 47.9119 25.9527 47.6206 26.0968C47.3294 26.1448 47.0381 26.1929 46.7469 26.2409C46.31 26.1448 45.9701 25.7605 45.9701 25.3281C45.9216 24.8957 46.407 24.4633 46.9896 24.4633Z" fill="#DB3715"/>
<path fill-rule="evenodd" clip-rule="evenodd" d="M48.8821 25.2321C48.8821 25.2321 49.1248 25.4723 49.319 25.7606C49.5131 25.7125 49.7073 25.6645 49.853 25.6165C49.8044 25.5204 49.7559 25.4723 49.7073 25.4243C49.4646 25.1841 48.6394 24.8958 48.8821 25.2321Z" fill="#DB3715"/>
<path fill-rule="evenodd" clip-rule="evenodd" d="M46.8923 24.9438C47.135 24.9438 47.2806 25.088 47.2806 25.3282C47.2806 25.5684 47.0864 25.7125 46.8923 25.7125C46.6495 25.7125 46.5039 25.5684 46.5039 25.3282C46.5039 25.088 46.6495 24.9438 46.8923 24.9438Z" fill="#E26037"/>
<path fill-rule="evenodd" clip-rule="evenodd" d="M34.3681 23.4065C35.8729 23.4065 37.0865 24.5595 37.0865 26.0008C37.0865 26.4812 36.9409 26.9136 36.7467 27.2979C35.2419 27.394 33.6885 27.4421 32.1351 27.4421C31.8438 27.0097 31.6982 26.5293 31.6982 26.0008C31.6496 24.5595 32.8632 23.4065 34.3681 23.4065Z" fill="#DB3715"/>
<path fill-rule="evenodd" clip-rule="evenodd" d="M34.417 23.5986C35.8733 23.5986 37.0384 24.7036 37.0384 26.0968C37.0384 26.5292 36.9413 26.9135 36.6986 27.2979C35.2423 27.394 33.7374 27.442 32.184 27.442C31.9413 27.0577 31.7957 26.5772 31.7957 26.0968C31.8442 24.7036 33.0092 23.5986 34.417 23.5986Z" fill="#BE2218"/>
<path fill-rule="evenodd" clip-rule="evenodd" d="M35.5333 23.839C36.3586 24.2233 36.8925 25.04 36.8925 26.0009C36.8925 26.4813 36.7469 26.9137 36.5042 27.298C36.0188 27.298 35.5819 27.346 35.0964 27.346C35.7275 26.9137 36.1159 26.193 36.1159 25.4243C36.1159 24.7998 35.8731 24.2713 35.5333 23.839Z" fill="#AC2014"/>
<path fill-rule="evenodd" clip-rule="evenodd" d="M33.7852 23.8869C34.3678 23.8869 34.8532 24.3192 34.8532 24.7997C34.8532 25.3281 34.3678 25.7125 33.7852 25.7125C33.2027 25.7125 32.7173 25.2801 32.7173 24.7997C32.7173 24.3192 33.2027 23.8869 33.7852 23.8869Z" fill="#DB3715"/>
<path fill-rule="evenodd" clip-rule="evenodd" d="M35.6788 24.6556C35.6788 24.6556 36.4555 25.3762 36.3098 26.193C36.1157 27.0097 36.7953 26.5292 36.7953 26.0488C36.7953 25.5684 36.7467 25.088 36.504 24.8478C36.3098 24.6076 35.4846 24.3193 35.6788 24.6556Z" fill="#DB3715"/>
<path fill-rule="evenodd" clip-rule="evenodd" d="M33.6879 24.3674C33.9306 24.3674 34.0763 24.5115 34.0763 24.7517C34.0763 24.9439 33.8821 25.136 33.6879 25.136C33.4452 25.136 33.2996 24.9919 33.2996 24.7517C33.2996 24.5115 33.4937 24.3674 33.6879 24.3674Z" fill="#E26037"/>
<path fill-rule="evenodd" clip-rule="evenodd" d="M27.135 23.1181C28.6398 23.1181 29.8534 24.2711 29.8534 25.7124C29.8534 26.385 29.6107 26.9615 29.1738 27.4419C27.766 27.4419 26.3583 27.3939 24.999 27.2978C24.6592 26.8654 24.4165 26.2889 24.4165 25.7124C24.4165 24.2711 25.6301 23.1181 27.135 23.1181Z" fill="#DB3715"/>
<path fill-rule="evenodd" clip-rule="evenodd" d="M27.2321 23.3103C28.6884 23.3103 29.8534 24.4153 29.8534 25.8085C29.8534 26.433 29.6107 27.0095 29.2224 27.4419C27.8631 27.4419 26.5039 27.3939 25.1447 27.2978C24.8049 26.8654 24.6107 26.337 24.6107 25.8085C24.6107 24.4153 25.7758 23.3103 27.2321 23.3103Z" fill="#BE2218"/>
<path fill-rule="evenodd" clip-rule="evenodd" d="M28.2997 23.5506C29.1249 23.9349 29.6589 24.7516 29.6589 25.7125C29.6589 26.385 29.3677 26.9616 28.9308 27.3939C28.3968 27.3939 27.8143 27.3939 27.2803 27.3459C28.2511 27.0096 28.9308 26.1448 28.9308 25.0879C28.9308 24.5114 28.688 23.9829 28.2997 23.5506Z" fill="#AC2014"/>
<path fill-rule="evenodd" clip-rule="evenodd" d="M26.6014 23.5985C27.1839 23.5985 27.6694 24.0309 27.6694 24.5113C27.6694 25.0397 27.1839 25.4241 26.6014 25.4241C26.0189 25.4241 25.5334 24.9917 25.5334 24.5113C25.5334 24.0309 26.0189 23.5985 26.6014 23.5985Z" fill="#DB3715"/>
<path fill-rule="evenodd" clip-rule="evenodd" d="M28.4939 24.3673C28.4939 24.3673 29.2706 25.0879 29.125 25.9046C28.9308 26.7213 29.6104 26.2409 29.6104 25.7605C29.6104 25.2801 29.5619 24.7996 29.3191 24.5594C29.0764 24.2712 28.2512 24.031 28.4939 24.3673Z" fill="#DB3715"/>
<path fill-rule="evenodd" clip-rule="evenodd" d="M26.5042 24.079C26.747 24.079 26.8926 24.2231 26.8926 24.4633C26.8926 24.6555 26.6984 24.8477 26.5042 24.8477C26.2615 24.8477 26.1159 24.7035 26.1159 24.4633C26.0673 24.2231 26.2615 24.079 26.5042 24.079Z" fill="#E26037"/>
<path fill-rule="evenodd" clip-rule="evenodd" d="M21.7467 13.75C23.2516 13.75 24.4652 14.903 24.4652 16.3443C24.4652 17.7855 23.2516 18.9385 21.7467 18.9385C20.2419 18.9385 19.0283 17.7855 19.0283 16.3443C19.0283 14.903 20.2419 13.75 21.7467 13.75Z" fill="#DB3715"/>
<path fill-rule="evenodd" clip-rule="evenodd" d="M21.8438 13.9422C23.3001 13.9422 24.4651 15.0471 24.4651 16.4404C24.4651 17.8336 23.3001 18.9385 21.8438 18.9385C20.3875 18.9385 19.2224 17.8336 19.2224 16.4404C19.2224 15.0471 20.3875 13.9422 21.8438 13.9422Z" fill="#BE2218"/>
<path fill-rule="evenodd" clip-rule="evenodd" d="M22.9114 14.1824C23.7367 14.5668 24.2706 15.3835 24.2706 16.3443C24.2706 17.6895 23.1541 18.7464 21.7464 18.7464C20.9697 18.7464 20.2901 18.4101 19.8046 17.8817C20.1444 18.0738 20.5328 18.1699 20.9697 18.1699C22.3774 18.1699 23.4939 17.113 23.4939 15.7678C23.5425 15.1433 23.2998 14.6148 22.9114 14.1824Z" fill="#AC2014"/>
<path fill-rule="evenodd" clip-rule="evenodd" d="M21.2132 14.2303C21.7957 14.2303 22.2812 14.6627 22.2812 15.1431C22.2812 15.6716 21.7957 16.0559 21.2132 16.0559C20.6307 16.0559 20.1453 15.6236 20.1453 15.1431C20.1453 14.6627 20.6307 14.2303 21.2132 14.2303Z" fill="#DB3715"/>
<path fill-rule="evenodd" clip-rule="evenodd" d="M23.1058 14.9991C23.1058 14.9991 23.8825 15.7197 23.7369 16.5365C23.5427 17.3532 24.2223 16.8728 24.2223 16.3923C24.2223 15.9119 24.1738 15.4315 23.931 15.1913C23.6883 14.903 22.9116 14.6628 23.1058 14.9991Z" fill="#DB3715"/>
<path fill-rule="evenodd" clip-rule="evenodd" d="M21.1159 14.7108C21.3586 14.7108 21.5042 14.855 21.5042 15.0952C21.5042 15.3354 21.3101 15.4795 21.1159 15.4795C20.8732 15.4795 20.7275 15.3354 20.7275 15.0952C20.7275 14.855 20.8732 14.7108 21.1159 14.7108Z" fill="#E26037"/>
<path fill-rule="evenodd" clip-rule="evenodd" d="M13.8828 16.6325C15.3877 16.6325 16.6013 17.7855 16.6013 19.2268C16.6013 20.668 15.3877 21.821 13.8828 21.821C12.378 21.821 11.1644 20.668 11.1644 19.2268C11.1644 17.8336 12.378 16.6325 13.8828 16.6325Z" fill="#DB3715"/>
<path fill-rule="evenodd" clip-rule="evenodd" d="M13.9799 16.8247C15.4362 16.8247 16.6012 17.9296 16.6012 19.3229C16.6012 20.7161 15.4362 21.8211 13.9799 21.8211C12.5236 21.8211 11.3585 20.7161 11.3585 19.3229C11.3585 17.9296 12.5236 16.8247 13.9799 16.8247Z" fill="#BE2218"/>
<path fill-rule="evenodd" clip-rule="evenodd" d="M15.0475 17.1129C15.8728 17.4972 16.4068 18.3139 16.4068 19.2747C16.4068 20.6199 15.2902 21.6769 13.8825 21.6769C13.1058 21.6769 12.4262 21.3406 11.9407 20.8121C12.2805 21.0043 12.6689 21.1003 13.1058 21.1003C14.5136 21.1003 15.6301 20.0434 15.6301 18.6982C15.6301 18.0737 15.4359 17.5452 15.0475 17.1129Z" fill="#AC2014"/>
<path fill-rule="evenodd" clip-rule="evenodd" d="M13.3493 17.1609C13.9318 17.1609 14.4172 17.5933 14.4172 18.0737C14.4172 18.6022 13.9318 18.9865 13.3493 18.9865C12.7667 18.9865 12.2813 18.5541 12.2813 18.0737C12.2813 17.5453 12.7667 17.1609 13.3493 17.1609Z" fill="#DB3715"/>
<path fill-rule="evenodd" clip-rule="evenodd" d="M15.2418 17.8816C15.2418 17.8816 16.0185 18.6023 15.8728 19.419C15.6786 20.2357 16.3583 19.7553 16.3583 19.2749C16.3583 18.7944 16.3097 18.314 16.067 18.0738C15.8243 17.8336 14.999 17.5934 15.2418 17.8816Z" fill="#DB3715"/>
<path fill-rule="evenodd" clip-rule="evenodd" d="M13.2519 17.5934C13.4947 17.5934 13.6403 17.7375 13.6403 17.9777C13.6403 18.2179 13.4461 18.362 13.2519 18.362C13.0092 18.362 12.8636 18.2179 12.8636 17.9777C12.8636 17.7375 13.0092 17.5934 13.2519 17.5934Z" fill="#E26037"/>
<path fill-rule="evenodd" clip-rule="evenodd" d="M18.5436 14.807C20.0484 14.807 21.262 15.96 21.262 17.4012C21.262 18.8425 20.0484 19.9955 18.5436 19.9955C17.0387 19.9955 15.8251 18.8425 15.8251 17.4012C15.8737 15.96 17.0873 14.807 18.5436 14.807Z" fill="#DB3715"/>
<path fill-rule="evenodd" clip-rule="evenodd" d="M18.6406 14.9991C20.097 14.9991 21.262 16.1041 21.262 17.4973C21.262 18.8906 20.097 19.9955 18.6406 19.9955C17.1843 19.9955 16.0193 18.8906 16.0193 17.4973C16.0193 16.1041 17.2329 14.9991 18.6406 14.9991Z" fill="#BE2218"/>
<path fill-rule="evenodd" clip-rule="evenodd" d="M19.7572 15.2393C20.5824 15.6237 21.1164 16.4404 21.1164 17.4012C21.1164 18.7464 19.9999 19.8033 18.5921 19.8033C17.8154 19.8033 17.1358 19.4671 16.6504 18.9386C16.9902 19.1308 17.3785 19.2268 17.8154 19.2268C19.2232 19.2268 20.3397 18.1699 20.3397 16.8247C20.3397 16.2002 20.097 15.6717 19.7572 15.2393Z" fill="#AC2014"/>
<path fill-rule="evenodd" clip-rule="evenodd" d="M18.01 15.2873C18.5926 15.2873 19.078 15.7197 19.078 16.2001C19.078 16.7286 18.5926 17.1129 18.01 17.1129C17.4275 17.1129 16.9421 16.6805 16.9421 16.2001C16.9421 15.7197 17.4275 15.2873 18.01 15.2873Z" fill="#DB3715"/>
<path fill-rule="evenodd" clip-rule="evenodd" d="M19.9026 16.0561C19.9026 16.0561 20.6793 16.7767 20.5337 17.5934C20.3395 18.4102 21.0191 17.9297 21.0191 17.4493C21.0191 16.9689 20.9706 16.4885 20.7278 16.2483C20.4851 15.96 19.7084 15.7198 19.9026 16.0561Z" fill="#DB3715"/>
<path fill-rule="evenodd" clip-rule="evenodd" d="M17.9127 15.7678C18.1554 15.7678 18.3011 15.9119 18.3011 16.1522C18.3011 16.3924 18.1069 16.5365 17.9127 16.5365C17.67 16.5365 17.5244 16.3924 17.5244 16.1522C17.5244 15.9119 17.67 15.7678 17.9127 15.7678Z" fill="#E26037"/>
<path fill-rule="evenodd" clip-rule="evenodd" d="M17.0873 18.9386C18.5921 18.9386 19.8057 20.0916 19.8057 21.5329C19.8057 22.9741 18.5921 24.1271 17.0873 24.1271C15.5824 24.1271 14.3688 22.9741 14.3688 21.5329C14.3688 20.0916 15.5824 18.9386 17.0873 18.9386Z" fill="#C8231A"/>
<path fill-rule="evenodd" clip-rule="evenodd" d="M17.1844 19.1308C18.6407 19.1308 19.8057 20.2357 19.8057 21.629C19.8057 23.0222 18.6407 24.1271 17.1844 24.1271C15.728 24.1271 14.563 23.0222 14.563 21.629C14.563 20.2357 15.728 19.1308 17.1844 19.1308Z" fill="#AD2419"/>
<path fill-rule="evenodd" clip-rule="evenodd" d="M18.252 19.371C19.0772 19.7554 19.6112 20.5721 19.6112 21.5329C19.6112 22.8781 18.4947 23.935 17.0869 23.935C16.3103 23.935 15.6306 23.5987 15.1452 23.0703C15.485 23.2624 15.8734 23.3585 16.3102 23.3585C17.718 23.3585 18.8345 22.3016 18.8345 20.9564C18.8345 20.3799 18.5918 19.8034 18.252 19.371Z" fill="#AC2014"/>
<path fill-rule="evenodd" clip-rule="evenodd" d="M16.5049 19.4189C17.0874 19.4189 17.5729 19.8513 17.5729 20.3317C17.5729 20.8602 17.0874 21.2445 16.5049 21.2445C15.9224 21.2445 15.437 20.8122 15.437 20.3317C15.4855 19.8513 15.9224 19.4189 16.5049 19.4189Z" fill="#BE2218"/>
<path fill-rule="evenodd" clip-rule="evenodd" d="M18.3984 20.1877C18.3984 20.1877 19.1751 20.9083 19.0295 21.7251C18.8353 22.5418 19.5149 22.0614 19.5149 21.5809C19.5149 21.1005 19.4664 20.6201 19.2237 20.3799C19.0295 20.1397 18.2043 19.8514 18.3984 20.1877Z" fill="#BE2218"/>
<path fill-rule="evenodd" clip-rule="evenodd" d="M13.4459 19.7072C14.9508 19.7072 16.1644 20.8602 16.1644 22.3015C16.1644 23.7427 14.9508 24.8958 13.4459 24.8958C12.8149 24.8958 12.2323 24.7036 11.7469 24.3193C11.5527 24.1751 11.4071 24.031 11.31 23.8869C10.9702 23.4545 10.7275 22.878 10.7275 22.3015C10.7275 20.8602 11.9411 19.7072 13.4459 19.7072Z" fill="#DB3715"/>
<path fill-rule="evenodd" clip-rule="evenodd" d="M13.543 19.8994C14.9993 19.8994 16.1643 21.0044 16.1643 22.3976C16.1643 23.7908 14.9993 24.8958 13.543 24.8958C12.0867 24.8958 10.9216 23.7908 10.9216 22.3976C10.9216 21.0044 12.0867 19.8994 13.543 19.8994Z" fill="#BE2218"/>
<path fill-rule="evenodd" clip-rule="evenodd" d="M14.6106 20.1876C15.4359 20.5719 15.9699 21.3886 15.9699 22.3495C15.9699 23.6946 14.8534 24.7516 13.4456 24.7516C12.6689 24.7516 11.9893 24.4153 11.5038 23.8868C11.8437 24.079 12.232 24.1751 12.6689 24.1751C14.0767 24.1751 15.1932 23.1181 15.1932 21.773C15.2417 21.1484 14.999 20.6199 14.6106 20.1876Z" fill="#AC2014"/>
<path fill-rule="evenodd" clip-rule="evenodd" d="M12.9124 20.2356C13.4949 20.2356 13.9803 20.668 13.9803 21.1484C13.9803 21.6769 13.4949 22.0612 12.9124 22.0612C12.3299 22.0612 11.8444 21.6288 11.8444 21.1484C11.8444 20.62 12.3299 20.2356 12.9124 20.2356Z" fill="#DB3715"/>
<path fill-rule="evenodd" clip-rule="evenodd" d="M14.8049 20.9563C14.8049 20.9563 15.5816 21.677 15.4359 22.4937C15.2418 23.3104 15.9214 22.83 15.9214 22.3496C15.9214 21.8691 15.8728 21.3887 15.6301 21.1485C15.3874 20.9083 14.5621 20.6681 14.8049 20.9563Z" fill="#DB3715"/>
<path fill-rule="evenodd" clip-rule="evenodd" d="M12.815 20.6681C13.0578 20.6681 13.2034 20.8122 13.2034 21.0524C13.2034 21.2926 13.0092 21.4367 12.815 21.4367C12.5723 21.4367 12.4267 21.2926 12.4267 21.0524C12.4267 20.8122 12.5723 20.6681 12.815 20.6681Z" fill="#E26037"/>
<path fill-rule="evenodd" clip-rule="evenodd" d="M24.4653 14.7108C25.9701 14.7108 27.1837 15.8639 27.1837 17.3051C27.1837 18.7464 25.9701 19.8994 24.4653 19.8994C22.9604 19.8994 21.7468 18.7464 21.7468 17.3051C21.7468 15.8639 22.9604 14.7108 24.4653 14.7108Z" fill="#C8231A"/>
<path fill-rule="evenodd" clip-rule="evenodd" d="M24.5624 14.903C26.0187 14.903 27.1838 16.008 27.1838 17.4012C27.1838 18.7944 26.0187 19.8994 24.5624 19.8994C23.1061 19.8994 21.941 18.7944 21.941 17.4012C21.941 16.008 23.1061 14.903 24.5624 14.903Z" fill="#AD2419"/>
<path fill-rule="evenodd" clip-rule="evenodd" d="M25.63 15.1433C26.4552 15.5276 26.9892 16.3443 26.9892 17.3052C26.9892 18.6504 25.8727 19.7073 24.4649 19.7073C23.6882 19.7073 23.0086 19.371 22.5232 18.8425C22.863 19.0347 23.2513 19.1308 23.6882 19.1308C25.096 19.1308 26.2125 18.0738 26.2125 16.7287C26.2125 16.1041 25.9698 15.5757 25.63 15.1433Z" fill="#AC2014"/>
<path fill-rule="evenodd" clip-rule="evenodd" d="M23.8829 15.1912C24.4654 15.1912 24.9509 15.6236 24.9509 16.104C24.9509 16.6325 24.4654 17.0168 23.8829 17.0168C23.3004 17.0168 22.8149 16.5844 22.8149 16.104C22.8635 15.6236 23.3004 15.1912 23.8829 15.1912Z" fill="#BE2218"/>
<path fill-rule="evenodd" clip-rule="evenodd" d="M25.8242 15.96C25.8242 15.96 26.6009 16.6806 26.4553 17.4973C26.2611 18.314 26.9407 17.8336 26.9407 17.3532C26.9407 16.8728 26.8922 16.3923 26.6495 16.1521C26.4067 15.9119 25.5815 15.6237 25.8242 15.96Z" fill="#BE2218"/>
<path fill-rule="evenodd" clip-rule="evenodd" d="M21.5038 18.3141C23.0086 18.3141 24.2222 19.4671 24.2222 20.9083C24.2222 22.3496 23.0086 23.5026 21.5038 23.5026C19.9989 23.5026 18.7853 22.3496 18.7853 20.9083C18.7853 19.5151 19.9989 18.3141 21.5038 18.3141Z" fill="#DB3715"/>
<path fill-rule="evenodd" clip-rule="evenodd" d="M21.6009 18.5062C23.0572 18.5062 24.2222 19.6112 24.2222 21.0044C24.2222 22.3976 23.0572 23.5026 21.6009 23.5026C20.1445 23.5026 18.9795 22.3976 18.9795 21.0044C18.9795 19.6112 20.1445 18.5062 21.6009 18.5062Z" fill="#BE2218"/>
<path fill-rule="evenodd" clip-rule="evenodd" d="M22.6685 18.7944C23.4937 19.1787 24.0277 19.9955 24.0277 20.9563C24.0277 22.3015 22.9112 23.3584 21.5035 23.3584C20.7268 23.3584 20.0471 23.0221 19.5617 22.4936C19.9015 22.6858 20.2899 22.7819 20.7268 22.7819C22.1345 22.7819 23.251 21.725 23.251 20.3798C23.251 19.7552 23.0569 19.2268 22.6685 18.7944Z" fill="#AC2014"/>
<path fill-rule="evenodd" clip-rule="evenodd" d="M20.9702 18.8425C21.5528 18.8425 22.0382 19.2748 22.0382 19.7553C22.0382 20.2837 21.5528 20.6681 20.9702 20.6681C20.3877 20.6681 19.9023 20.2357 19.9023 19.7553C19.9023 19.2268 20.3877 18.8425 20.9702 18.8425Z" fill="#DB3715"/>
<path fill-rule="evenodd" clip-rule="evenodd" d="M22.8628 19.5632C22.8628 19.5632 23.6395 20.2838 23.4939 21.1005C23.2997 21.9172 23.9793 21.4368 23.9793 20.9564C23.9793 20.476 23.9308 19.9956 23.688 19.7554C23.4453 19.5151 22.6201 19.2749 22.8628 19.5632Z" fill="#DB3715"/>
<path fill-rule="evenodd" clip-rule="evenodd" d="M20.8241 19.2749C21.0669 19.2749 21.2125 19.419 21.2125 19.6592C21.2125 19.8994 21.0183 20.0436 20.8241 20.0436C20.5814 20.0436 20.4358 19.8994 20.4358 19.6592C20.4358 19.419 20.63 19.2749 20.8241 19.2749Z" fill="#E26037"/>
<path fill-rule="evenodd" clip-rule="evenodd" d="M25.3392 19.1307C26.844 19.1307 28.0576 20.2837 28.0576 21.725C28.0576 23.1662 26.844 24.3193 25.3392 24.3193C23.8343 24.3193 22.6207 23.1662 22.6207 21.725C22.6207 20.2837 23.8343 19.1307 25.3392 19.1307Z" fill="#DB3715"/>
<path fill-rule="evenodd" clip-rule="evenodd" d="M25.4363 19.3229C26.8926 19.3229 28.0577 20.4278 28.0577 21.8211C28.0577 23.2143 26.8926 24.3192 25.4363 24.3192C23.98 24.3192 22.8149 23.2143 22.8149 21.8211C22.8149 20.4278 23.98 19.3229 25.4363 19.3229Z" fill="#BE2218"/>
<path fill-rule="evenodd" clip-rule="evenodd" d="M26.5039 19.6111C27.3291 19.9954 27.8631 20.8121 27.8631 21.7729C27.8631 23.1181 26.7466 24.1751 25.3388 24.1751C24.5621 24.1751 23.8825 23.8388 23.3971 23.3103C23.7369 23.5025 24.1252 23.5985 24.5621 23.5985C25.9699 23.5985 27.0864 22.5416 27.0864 21.1964C27.0864 20.5719 26.8922 19.9954 26.5039 19.6111Z" fill="#AC2014"/>
<path fill-rule="evenodd" clip-rule="evenodd" d="M24.7568 19.6111C25.3393 19.6111 25.8248 20.0434 25.8248 20.5239C25.8248 21.0523 25.3393 21.4367 24.7568 21.4367C24.1743 21.4367 23.6888 21.0043 23.6888 20.5239C23.7374 20.0434 24.1743 19.6111 24.7568 19.6111Z" fill="#DB3715"/>
<path fill-rule="evenodd" clip-rule="evenodd" d="M26.6981 20.3798C26.6981 20.3798 27.4748 21.1005 27.3292 21.9172C27.135 22.7339 27.8146 22.2535 27.8146 21.7731C27.8146 21.2926 27.7661 20.8122 27.5234 20.572C27.2806 20.3318 26.4554 20.0916 26.6981 20.3798Z" fill="#DB3715"/>
<path fill-rule="evenodd" clip-rule="evenodd" d="M24.6596 20.0916C24.9023 20.0916 25.0479 20.2357 25.0479 20.4759C25.0479 20.6681 24.8538 20.8602 24.6596 20.8602C24.4169 20.8602 24.2712 20.7161 24.2712 20.4759C24.2712 20.2837 24.4654 20.0916 24.6596 20.0916Z" fill="#E26037"/>
<path fill-rule="evenodd" clip-rule="evenodd" d="M23.0578 23.0222C24.5627 23.0222 25.7762 24.1752 25.7762 25.6164C25.7762 26.241 25.5335 26.8175 25.1452 27.2979C23.6403 27.2018 22.1355 27.1057 20.7277 26.9136C20.485 26.5292 20.3394 26.0968 20.3394 25.6164C20.3394 24.1752 21.5529 23.0222 23.0578 23.0222Z" fill="#DB3715"/>
<path fill-rule="evenodd" clip-rule="evenodd" d="M23.1553 23.2143C24.6116 23.2143 25.7767 24.3192 25.7767 25.7125C25.7767 26.337 25.534 26.8655 25.1942 27.2978C23.6893 27.2018 22.2815 27.1057 20.9223 26.9615C20.6796 26.5772 20.5825 26.1929 20.5825 25.7125C20.534 24.3192 21.699 23.2143 23.1553 23.2143Z" fill="#BE2218"/>
<path fill-rule="evenodd" clip-rule="evenodd" d="M24.2229 23.5026C25.0481 23.8869 25.5821 24.7036 25.5821 25.6645C25.5821 26.289 25.3394 26.8655 24.9025 27.2979C24.417 27.2498 23.9316 27.2498 23.4462 27.2018C24.2714 26.8175 24.8054 26.0008 24.8054 25.0399C24.8054 24.4634 24.6112 23.8869 24.2229 23.5026Z" fill="#AC2014"/>
<path fill-rule="evenodd" clip-rule="evenodd" d="M22.5243 23.5025C23.1068 23.5025 23.5922 23.9349 23.5922 24.4153C23.5922 24.9438 23.1068 25.3281 22.5243 25.3281C21.9417 25.3281 21.4563 24.8957 21.4563 24.4153C21.4563 23.9349 21.9417 23.5025 22.5243 23.5025Z" fill="#DB3715"/>
<path fill-rule="evenodd" clip-rule="evenodd" d="M24.4167 24.2713C24.4167 24.2713 25.1934 24.9919 25.0478 25.8086C24.8536 26.6253 25.5332 26.1449 25.5332 25.6645C25.5332 25.1841 25.4847 24.7037 25.242 24.4635C24.9993 24.2232 24.174 23.983 24.4167 24.2713Z" fill="#DB3715"/>
<path fill-rule="evenodd" clip-rule="evenodd" d="M22.4271 23.983C22.6698 23.983 22.8154 24.1271 22.8154 24.3673C22.8154 24.5595 22.6213 24.7517 22.4271 24.7517C22.1844 24.7517 22.0387 24.6075 22.0387 24.3673C21.9902 24.1752 22.1844 23.983 22.4271 23.983Z" fill="#E26037"/>
<path fill-rule="evenodd" clip-rule="evenodd" d="M30.9696 23.0222C32.4745 23.0222 33.6881 24.1752 33.6881 25.6164C33.6881 26.289 33.3968 26.9136 32.9599 27.394C31.6493 27.442 30.3386 27.442 29.0764 27.394C28.591 26.9136 28.2997 26.289 28.2997 25.6164C28.2512 24.1752 29.4648 23.0222 30.9696 23.0222Z" fill="#DB3715"/>
<path fill-rule="evenodd" clip-rule="evenodd" d="M31.0662 23.2143C32.5225 23.2143 33.6875 24.3192 33.6875 25.7125C33.6875 26.385 33.4448 26.9615 33.0079 27.3939C31.7458 27.442 30.4351 27.442 29.173 27.3939C28.7361 26.9615 28.4448 26.337 28.4448 25.6644C28.4448 24.3192 29.6099 23.2143 31.0662 23.2143Z" fill="#BE2218"/>
<path fill-rule="evenodd" clip-rule="evenodd" d="M32.1351 23.5025C32.9604 23.8868 33.4943 24.7036 33.4943 25.6644C33.4943 26.385 33.1545 27.0096 32.6691 27.442C31.9895 27.442 31.2613 27.442 30.5817 27.442C31.7953 27.2498 32.7176 26.2409 32.7176 25.0398C32.7176 24.4633 32.4749 23.8868 32.1351 23.5025ZM29.271 27.442C29.174 27.3459 29.1254 27.2978 29.0283 27.2017C29.271 27.2978 29.5138 27.3939 29.7565 27.442C29.6108 27.442 29.4167 27.442 29.271 27.442Z" fill="#AC2014"/>
<path fill-rule="evenodd" clip-rule="evenodd" d="M30.3868 23.5025C30.9693 23.5025 31.4548 23.9349 31.4548 24.4153C31.4548 24.9438 30.9693 25.3281 30.3868 25.3281C29.8043 25.3281 29.3188 24.8957 29.3188 24.4153C29.3674 23.9349 29.8043 23.5025 30.3868 23.5025Z" fill="#DB3715"/>
<path fill-rule="evenodd" clip-rule="evenodd" d="M32.3293 24.2713C32.3293 24.2713 33.106 24.9919 32.9604 25.8086C32.7662 26.6253 33.4458 26.1449 33.4458 25.6645C33.4458 25.1841 33.3973 24.7037 33.1546 24.4635C32.9119 24.2232 32.0866 23.983 32.3293 24.2713Z" fill="#DB3715"/>
<path fill-rule="evenodd" clip-rule="evenodd" d="M30.2895 23.983C30.5322 23.983 30.6778 24.1271 30.6778 24.3673C30.6778 24.5595 30.4837 24.7517 30.2895 24.7517C30.0468 24.7517 29.9011 24.6075 29.9011 24.3673C29.9011 24.1752 30.0953 23.983 30.2895 23.983Z" fill="#E26037"/>
<path fill-rule="evenodd" clip-rule="evenodd" d="M19.2712 22.2054C20.776 22.2054 21.9896 23.3584 21.9896 24.7997C21.9896 25.7125 21.5042 26.5292 20.7275 26.9616C19.4654 26.8175 18.2518 26.6253 17.1353 26.3851C16.7469 25.9527 16.5527 25.3762 16.5527 24.7516C16.5527 23.3584 17.7663 22.2054 19.2712 22.2054Z" fill="#DB3715"/>
<path fill-rule="evenodd" clip-rule="evenodd" d="M19.3682 22.3495C20.8246 22.3495 21.9896 23.4545 21.9896 24.8477C21.9896 25.7125 21.5042 26.4812 20.8246 26.9135C19.611 26.7694 18.3974 26.5772 17.3294 26.3851C16.9896 25.9527 16.7469 25.4242 16.7469 24.8477C16.7469 23.5026 17.9119 22.3495 19.3682 22.3495Z" fill="#BE2218"/>
<path fill-rule="evenodd" clip-rule="evenodd" d="M20.4359 22.6378C21.2611 23.0222 21.7951 23.8389 21.7951 24.7997C21.7951 25.7125 21.2611 26.5293 20.4844 26.9136C19.7563 26.8175 19.0281 26.7214 18.3485 26.6253C18.3971 26.6253 18.4456 26.6253 18.4941 26.6253C19.9019 26.6253 21.0184 25.5684 21.0184 24.2232C21.0184 23.5987 20.8242 23.0702 20.4359 22.6378ZM17.4262 26.4332C17.3776 26.3851 17.3776 26.3851 17.3291 26.3371C17.4747 26.3851 17.5718 26.4332 17.7175 26.4812C17.6204 26.4812 17.5233 26.4332 17.4262 26.4332Z" fill="#AC2014"/>
<path fill-rule="evenodd" clip-rule="evenodd" d="M18.7376 22.6858C19.3202 22.6858 19.8056 23.1181 19.8056 23.5986C19.8056 24.127 19.3202 24.5114 18.7376 24.5114C18.1551 24.5114 17.6697 24.079 17.6697 23.5986C17.6697 23.0701 18.1551 22.6858 18.7376 22.6858Z" fill="#DB3715"/>
<path fill-rule="evenodd" clip-rule="evenodd" d="M20.6301 23.4065C20.6301 23.4065 21.4068 24.1271 21.2612 24.9438C21.067 25.7605 21.7466 25.2801 21.7466 24.7997C21.7466 24.3193 21.6981 23.8389 21.4554 23.5986C21.2126 23.3584 20.3874 23.1182 20.6301 23.4065Z" fill="#DB3715"/>
<path fill-rule="evenodd" clip-rule="evenodd" d="M18.5916 23.1182C18.8343 23.1182 18.9799 23.2624 18.9799 23.5026C18.9799 23.6947 18.7858 23.8869 18.5916 23.8869C18.3489 23.8869 18.2032 23.7428 18.2032 23.5026C18.2032 23.3104 18.3974 23.1182 18.5916 23.1182Z" fill="#E26037"/>
<path fill-rule="evenodd" clip-rule="evenodd" d="M15.0479 22.3015C16.5528 22.3015 17.7663 23.4545 17.7663 24.8958C17.7663 25.4723 17.5722 25.9527 17.2809 26.3851C15.2421 25.9527 13.543 25.4242 12.378 24.7036C12.4265 23.4065 13.5916 22.3015 15.0479 22.3015Z" fill="#DB3715"/>
<path fill-rule="evenodd" clip-rule="evenodd" d="M15.1446 22.4936C16.6009 22.4936 17.766 23.5986 17.766 24.9918C17.766 25.5202 17.5718 26.0007 17.2805 26.385C15.2902 26.0007 13.6883 25.4722 12.5233 24.8477C12.6203 23.5505 13.7368 22.4936 15.1446 22.4936Z" fill="#BE2218"/>
<path fill-rule="evenodd" clip-rule="evenodd" d="M16.213 22.7819C17.0382 23.1662 17.5722 23.9829 17.5722 24.9438C17.5722 25.4722 17.378 26.0007 17.0382 26.385C16.6498 26.289 16.31 26.2409 15.9217 26.1448C16.4557 25.7125 16.7469 25.0879 16.7469 24.3673C16.844 23.7427 16.6013 23.2143 16.213 22.7819Z" fill="#AC2014"/>
<path fill-rule="evenodd" clip-rule="evenodd" d="M14.5141 22.8299C15.0966 22.8299 15.582 23.2623 15.582 23.7427C15.582 24.2712 15.0966 24.6555 14.5141 24.6555C13.9315 24.6555 13.4461 24.2231 13.4461 23.7427C13.4461 23.2142 13.9315 22.8299 14.5141 22.8299Z" fill="#DB3715"/>
<path fill-rule="evenodd" clip-rule="evenodd" d="M16.4066 23.5506C16.4066 23.5506 17.1833 24.2712 17.0377 25.088C16.8435 25.9047 17.5231 25.4243 17.5231 24.9438C17.5231 24.4634 17.4746 23.983 17.2319 23.7428C16.9892 23.5026 16.2125 23.2624 16.4066 23.5506Z" fill="#DB3715"/>
<path fill-rule="evenodd" clip-rule="evenodd" d="M14.4168 23.2623C14.6596 23.2623 14.8052 23.4065 14.8052 23.6467C14.8052 23.8388 14.611 24.031 14.4168 24.031C14.1741 24.031 14.0285 23.8869 14.0285 23.6467C13.9799 23.4545 14.1741 23.2623 14.4168 23.2623Z" fill="#E26037"/>
<path fill-rule="evenodd" clip-rule="evenodd" d="M38.1551 48.4364C38.1551 48.4364 37.5726 49.3973 35.825 49.3973C34.0774 49.3973 32.8638 48.6286 34.3202 48.6286C35.825 48.6766 38.1551 48.4364 38.1551 48.4364Z" fill="#416260"/>
<path fill-rule="evenodd" clip-rule="evenodd" d="M37.9605 42.3831C37.9605 42.3831 36.3586 42.9596 34.9508 42.7194C33.543 42.4792 33.3003 41.8066 34.5139 41.9507C35.7275 42.0948 35.776 42.1429 36.5042 41.9987C37.1838 41.8546 38.6887 41.8546 37.9605 42.3831Z" fill="#416260"/>
<path fill-rule="evenodd" clip-rule="evenodd" d="M30.6796 43.5361C33.8349 44.1126 36.4563 44.0165 39.4174 43.0076C40.631 42.5752 41.2621 42.8635 41.1165 43.9204C40.8252 45.4097 40 47.1873 35.1941 47.5236C30.3398 47.8599 29.0776 45.0734 29.3203 44.0645C29.5145 43.0076 30.1941 43.488 30.6796 43.5361Z" fill="#3C2012"/>
<path fill-rule="evenodd" clip-rule="evenodd" d="M40.6795 45.2175C40.0485 46.2745 38.6407 47.2353 35.1941 47.4755C32.6213 47.6677 31.0679 46.9471 30.1941 46.1303C30.1941 44.593 31.0193 44.593 31.0193 44.593C31.0193 44.593 37.6213 44.7371 39.2718 44.3528C40.0485 44.2087 40.4368 44.641 40.6795 45.2175Z" fill="white"/>
<path fill-rule="evenodd" clip-rule="evenodd" d="M40.2426 45.7941C39.4659 46.6108 38.0096 47.3314 35.1941 47.5236C32.6213 47.7157 31.0679 46.9951 30.1941 46.1784C30.1941 46.1304 30.1941 46.0823 30.1941 46.0343L30.2426 46.0823C30.631 46.5627 32.7184 47.2834 35.0485 47.3314C37.3786 47.3795 40.097 45.8421 40.097 45.8421L40.2426 45.7941Z" fill="#E4E2D8"/>
<path fill-rule="evenodd" clip-rule="evenodd" d="M40.6798 45.2175C40.5342 45.4577 40.34 45.746 40.0973 45.9862C40.0487 45.5538 39.9517 44.9773 39.7575 44.8812C39.4662 44.7371 38.9322 45.5057 36.942 45.5538C34.9517 45.6018 31.3594 45.4097 31.1167 45.3136C30.9711 45.2175 30.6313 45.842 30.6313 46.5627C30.4856 46.4666 30.3886 46.3705 30.2429 46.2264C30.2429 44.689 31.0682 44.689 31.0682 44.689C31.0682 44.689 37.6701 44.8332 39.3206 44.4488C40.0487 44.2086 40.4371 44.641 40.6798 45.2175Z" fill="#E4E2D8"/>
<path fill-rule="evenodd" clip-rule="evenodd" d="M30.679 43.536C33.8344 44.1125 36.4557 44.0164 39.4169 43.0076C39.8538 42.8634 40.1936 42.8154 40.4849 42.8154C40.4363 43.3439 40.0965 44.0164 39.1256 44.5449C37.8635 45.2655 32.5237 45.1695 31.1159 44.8332C29.9994 44.593 29.9023 43.6802 29.9023 43.3439C30.1936 43.3919 30.4849 43.488 30.679 43.536Z" fill="white"/>
<path fill-rule="evenodd" clip-rule="evenodd" d="M30.679 43.536C33.8344 44.1125 36.4557 44.0164 39.4169 43.0076C39.8538 42.8634 40.1936 42.8154 40.4849 42.8154C40.4363 43.2958 40.1451 43.8723 39.3684 44.4008L39.4169 44.3527C40.1936 42.9595 39.3684 43.3439 38.5431 43.6802C37.6693 44.0645 34.4655 44.2086 33.5431 44.1606C32.6208 44.1606 31.4557 43.8723 31.1645 43.8243C30.8732 43.7762 30.679 43.8723 30.7276 44.2086C30.7761 44.4969 31.1645 44.7371 31.3101 44.8332C31.2616 44.8332 31.1645 44.7851 31.1159 44.7851C29.9994 44.5449 29.9023 43.6321 29.9023 43.2958C30.1936 43.3919 30.4849 43.488 30.679 43.536Z" fill="#E4E2D8"/>
<path fill-rule="evenodd" clip-rule="evenodd" d="M9.27102 55.931C9.27102 55.931 8.54287 57.5644 7.23219 57.132C5.97005 56.6516 3.44578 55.2584 4.95064 52.9524C6.40695 50.6463 7.572 50.8866 7.96034 52.0396C8.34869 53.1926 7.37782 53.3847 7.37782 53.3847C7.37782 53.3847 9.99918 53.9612 9.27102 55.931Z" fill="#3C2012"/>
</g>
<defs>
<clipPath id="clip0_969_7949">
<rect width="80" height="80" fill="white"/>
</clipPath>
</defs>
</svg>
