<svg width="64" height="64" viewBox="0 0 64 64" fill="none" xmlns="http://www.w3.org/2000/svg">
<g clip-path="url(#clip0_766_11077)">
<g opacity="0.3">
<path opacity="0.3" d="M32.9841 64C45.0428 64 54.8183 63.0113 54.8183 61.7918C54.8183 60.5723 45.0428 59.5836 32.9841 59.5836C20.9255 59.5836 11.15 60.5723 11.15 61.7918C11.15 63.0113 20.9255 64 32.9841 64Z" fill="#1B1B1B"/>
</g>
<path d="M39.6127 58.3464L39.2503 60.8502H35.0493C34.4704 60.8502 34.0739 60.3155 34.1736 59.7807C34.1882 59.6969 34.215 59.6131 34.2563 59.5342C34.5823 58.8886 35.1661 58.3809 36.0053 58.3217L35.9786 58.3143L35.2829 54.7163C35.2829 54.7163 36.5794 54.1322 37.9075 54.5388C38.4257 54.6966 38.9462 55.0046 39.3987 55.5566L39.6127 58.3464Z" fill="white"/>
<path d="M39.3062 60.9169H35.0494C34.7648 60.9169 34.4972 60.7912 34.3172 60.5694C34.1348 60.3452 34.0594 60.0544 34.1129 59.7685C34.1299 59.6748 34.1591 59.5861 34.2029 59.5048C34.5653 58.7852 35.1686 58.3489 35.908 58.2676L35.2148 54.6818L35.261 54.6596C35.3145 54.635 36.5964 54.0706 37.9319 54.4797C38.5254 54.6596 39.0362 55.0096 39.4522 55.5173L39.4643 55.5321L39.6808 58.3465V58.3539L39.3062 60.9169ZM36.037 58.2627L36.4164 58.3588L36.0126 58.3859C35.2756 58.4352 34.6723 58.8542 34.3172 59.5615C34.2807 59.6329 34.254 59.7093 34.2394 59.7907C34.1931 60.0371 34.2588 60.2885 34.4169 60.4832C34.575 60.6779 34.8013 60.7838 35.0494 60.7838H39.1943L39.5495 58.3416L39.3378 55.5813C38.9414 55.1008 38.4549 54.7705 37.893 54.6005C36.7448 54.2481 35.6016 54.6572 35.3583 54.7558L36.037 58.2627Z" fill="#1B1B1B"/>
<path d="M46.5453 54.0091L46.1148 59.978C46.0734 60.5571 45.5967 61.0056 45.025 61.0056H39.7952C39.1359 61.0056 38.6324 60.3994 38.7516 59.7439C38.7905 59.5393 38.8538 59.3446 38.9413 59.1598C39.423 58.1567 40.6271 57.5431 42.2033 58.0582L41.9114 55.3202C41.9114 55.3202 41.8093 51.8847 45.0615 53.2106C45.4969 53.388 45.9883 53.6468 46.5453 54.0091Z" fill="white"/>
<path d="M45.025 61.0722H39.7952C39.4595 61.0722 39.1433 60.9219 38.9292 60.6607C38.7176 60.4019 38.63 60.0643 38.6908 59.7365C38.7298 59.5245 38.7954 59.3224 38.8854 59.1376C39.3379 58.1986 40.5103 57.4839 42.1304 57.9743L41.8482 55.3349C41.8458 55.2683 41.8117 53.7945 42.7336 53.1439C43.2955 52.7471 44.0885 52.7496 45.0883 53.1562C45.5383 53.3386 46.0394 53.6072 46.5794 53.9572L46.611 53.9769L46.6086 54.0163L46.178 59.9854C46.1367 60.5941 45.6307 61.0722 45.025 61.0722ZM41.0941 57.9349C40.0165 57.9349 39.3111 58.5461 39.0022 59.1894C38.9171 59.3643 38.8563 59.5566 38.8173 59.7562C38.7638 60.047 38.8417 60.3452 39.029 60.5744C39.2187 60.8061 39.4984 60.9392 39.7976 60.9392H45.0275C45.565 60.9392 46.0151 60.5153 46.054 59.9706L46.4821 54.041C45.9615 53.7058 45.4775 53.447 45.0445 53.2721C44.0885 52.8827 43.3369 52.8728 42.8115 53.245C41.9479 53.8537 41.982 55.3053 41.982 55.3201L42.2836 58.1518L42.1888 58.1198C41.7874 57.9916 41.4225 57.9349 41.0941 57.9349Z" fill="#1B1B1B"/>
<path d="M42.3809 57.7082C42.5293 57.7156 42.6728 57.7673 42.809 57.8388C42.9452 57.9103 43.0693 58.0064 43.1812 58.1123C43.4074 58.3267 43.5874 58.5855 43.6847 58.8837C43.6945 58.9157 43.6774 58.9527 43.6458 58.9625C43.6337 58.9675 43.6215 58.9675 43.6093 58.9625H43.6069C43.4585 58.9207 43.3271 58.8714 43.1982 58.8319C43.0693 58.79 42.9452 58.7506 42.8236 58.7186C42.702 58.6841 42.5828 58.6545 42.4709 58.6151C42.3566 58.5732 42.2447 58.5288 42.1352 58.45L42.1255 58.4426C41.9479 58.3119 41.9065 58.0581 42.0379 57.8758C42.1182 57.7599 42.252 57.7033 42.3809 57.7082Z" fill="#1B1B1B"/>
<path d="M45.025 61.4615H39.7975C39.3451 61.4615 38.9218 61.2594 38.6324 60.907C38.3478 60.5595 38.231 60.1036 38.3113 59.66C38.4524 58.8984 38.9048 58.233 39.5543 57.8363C40.3059 57.3754 41.2741 57.2916 42.2738 57.6046C42.5122 57.6785 42.6436 57.9324 42.5706 58.1739C42.4976 58.4154 42.2471 58.5485 42.0087 58.4746C41.043 58.1739 40.3935 58.3858 40.0165 58.615C39.581 58.8812 39.2867 59.3125 39.1918 59.8276C39.1578 60.0075 39.204 60.1824 39.3208 60.3254C39.4375 60.4683 39.6102 60.5496 39.7927 60.5496H45.0201C45.3558 60.5496 45.638 60.2835 45.6623 59.9434L46.0929 53.9744C46.1099 53.723 46.3288 53.5357 46.5745 53.553C46.8226 53.5702 47.0075 53.7896 46.9905 54.041L46.5599 60.0099C46.5064 60.8257 45.8302 61.4615 45.025 61.4615Z" fill="#1B1B1B"/>
<path d="M42.2057 58.5166C41.9795 58.5166 41.7849 58.3441 41.7606 58.11L41.4687 55.3719C41.4419 55.123 41.6195 54.8963 41.8676 54.8692C42.1133 54.842 42.3371 55.022 42.3638 55.2733L42.6557 58.0114C42.6825 58.2603 42.5049 58.487 42.2568 58.5141C42.2374 58.5166 42.2228 58.5166 42.2057 58.5166Z" fill="#1B1B1B"/>
<path d="M39.6127 58.8024C39.3792 58.8024 39.1821 58.62 39.1651 58.3809L38.9535 55.5935C38.934 55.3421 39.1189 55.1228 39.367 55.1056C39.6151 55.0858 39.8316 55.2731 39.8511 55.5245L40.0627 58.3119C40.0822 58.5633 39.8973 58.7826 39.6492 58.7999C39.637 58.8024 39.6248 58.8024 39.6127 58.8024Z" fill="#1B1B1B"/>
<path d="M36.1659 57.9275C36.3167 57.8856 36.4699 57.8979 36.6159 57.9275C36.7618 57.9571 36.9005 58.0187 37.0294 58.0877C37.1583 58.1591 37.2799 58.2405 37.3918 58.3341C37.5037 58.4302 37.6059 58.5337 37.6935 58.6569C37.7129 58.6865 37.708 58.7259 37.6789 58.7456C37.6691 58.753 37.6594 58.7555 37.6472 58.758C37.4989 58.7678 37.3626 58.7678 37.2289 58.7678H36.847C36.7253 58.7678 36.6061 58.7727 36.4943 58.7653C36.3824 58.758 36.2753 58.7481 36.1659 58.7062L36.1294 58.6914C35.9226 58.615 35.818 58.3834 35.8959 58.1739C35.9421 58.0483 36.0467 57.9595 36.1659 57.9275Z" fill="#1B1B1B"/>
<path d="M39.2502 61.3062H35.0493C34.5799 61.3062 34.1517 61.0647 33.9085 60.6581C33.6628 60.2515 33.6434 59.7512 33.8574 59.3249C34.3026 58.4426 35.0931 57.9103 36.0296 57.8635C36.2777 57.8511 36.4893 58.0458 36.5015 58.2972C36.5137 58.5486 36.3215 58.763 36.0734 58.7753C35.2853 58.8147 34.8693 59.3224 34.6577 59.7413C34.5555 59.9459 34.6358 60.1184 34.6747 60.1849C34.7136 60.249 34.828 60.3969 35.0493 60.3969H39.2502C39.4983 60.3969 39.7002 60.6014 39.7002 60.8528C39.6978 61.1042 39.4983 61.3062 39.2502 61.3062Z" fill="#1B1B1B"/>
<path d="M35.981 58.7729C35.7694 58.7729 35.5821 58.6225 35.5407 58.4057L34.845 54.8075C34.7963 54.5611 34.9569 54.322 35.2002 54.2727C35.4434 54.2234 35.6794 54.3861 35.728 54.6325L36.4237 58.2307C36.4724 58.4771 36.3118 58.7162 36.0686 58.7655C36.0394 58.7704 36.0102 58.7729 35.981 58.7729Z" fill="#1B1B1B"/>
<g opacity="0.3">
<path opacity="0.3" d="M39.6127 58.344C39.1578 58.6841 38.8586 59.1843 38.754 59.7438C38.6713 60.1997 38.8878 60.631 39.2478 60.8503H35.0469C34.468 60.8503 34.0715 60.3155 34.1712 59.7807C34.3536 59.6649 34.5069 59.5836 34.5069 59.5836C35.8423 60.0765 36.8932 59.6846 37.7494 58.6791L37.9124 56.8407C36.8688 56.6287 36.465 55.3226 36.465 55.3226L36.6694 55.2117L36.9491 55.0614L37.5426 54.7385C38.1046 56.02 38.8684 56.0644 39.3962 55.5592L39.6127 58.344Z" fill="#1B1B1B"/>
</g>
<path d="M31.4784 60.3993H27.2216C26.6524 60.3993 26.1805 59.9483 26.1488 59.3717L25.9786 56.333L25.8618 54.2727L29.7562 54.2678L29.7197 55.4606L29.6589 57.4938C31.0868 57.0576 32.2301 58.0261 32.4052 59.3421C32.483 59.904 32.0379 60.3993 31.4784 60.3993Z" fill="#E07153"/>
<g opacity="0.55">
<g opacity="0.55">
<path opacity="0.55" d="M25.9713 54.2752L29.8657 54.2703V54.2727L26.7569 54.2752L26.8713 56.3354L27.0415 59.3741C27.0732 59.9483 27.5451 60.4017 28.1143 60.4017H27.3261C26.7569 60.4017 26.285 59.9507 26.2534 59.3741L26.0831 56.3354L25.9713 54.2752Z" fill="white"/>
</g>
</g>
<path d="M23.1836 61.0081H18.9292C18.36 61.0081 17.8881 60.5571 17.8564 59.9804L17.6667 56.6114L17.5694 54.8813L21.4638 54.8763L21.4103 56.6607L21.3665 58.1024C22.7944 57.6662 23.9377 58.6348 24.1128 59.9508C24.1907 60.5127 23.7431 61.0081 23.1836 61.0081Z" fill="#E07153"/>
<g opacity="0.55">
<g opacity="0.55">
<path opacity="0.55" d="M23.6871 60.8603C23.5412 60.9515 23.3709 61.0082 23.186 61.0082H18.9292C18.36 61.0082 17.8881 60.5572 17.8564 59.9805L17.6667 56.6116L17.5694 54.8815L18.5083 54.879L18.5959 56.4637L18.7856 59.8326C18.8173 60.4069 19.2867 60.8603 19.8584 60.8603H23.6871Z" fill="white"/>
</g>
</g>
<path d="M29.7319 57.8808C29.5543 57.9769 29.4278 58.0015 29.3086 58.0311C29.1894 58.0582 29.0727 58.0779 28.9486 58.1124C28.8246 58.1444 28.6981 58.1937 28.5667 58.2504C28.4305 58.3046 28.2991 58.3736 28.1459 58.4402H28.1434C28.1118 58.4525 28.0778 58.4377 28.0632 58.4081C28.0583 58.3958 28.0583 58.381 28.0607 58.3687C28.1459 58.0434 28.3283 57.7452 28.5959 57.5037C28.7297 57.3854 28.8878 57.2819 29.0532 57.2228C29.2162 57.1611 29.384 57.1291 29.4935 57.139L29.5762 57.1464C29.7903 57.1636 29.9484 57.3534 29.9313 57.5678C29.9241 57.7033 29.8413 57.8191 29.7319 57.8808Z" fill="#1B1B1B"/>
<path d="M31.4784 60.8553H27.2215C26.4139 60.8553 25.745 60.2146 25.6988 59.3988L25.4142 54.2999C25.3996 54.0485 25.5893 53.8341 25.8374 53.8193C26.0831 53.8045 26.2972 53.9967 26.3118 54.2481L26.5964 59.3471C26.6158 59.6822 26.8883 59.9435 27.2215 59.9435H31.476C31.6195 59.9435 31.7557 59.8819 31.8506 59.771C31.9406 59.6675 31.9795 59.5344 31.9625 59.4013C31.8895 58.8542 31.6146 58.381 31.206 58.1025C30.8241 57.8438 30.3643 57.7747 29.873 57.9029C29.6321 57.967 29.3865 57.8191 29.3256 57.5776C29.2624 57.3336 29.4083 57.0847 29.6467 57.0231C30.3838 56.8284 31.116 56.9442 31.7071 57.3484C32.3274 57.7723 32.7457 58.4746 32.8528 59.2805C32.9039 59.6724 32.7871 60.0692 32.5268 60.3698C32.2617 60.6779 31.8798 60.8553 31.4784 60.8553Z" fill="#1B1B1B"/>
<path d="M29.6613 57.9497C29.6565 57.9497 29.6516 57.9497 29.6467 57.9497C29.3986 57.9423 29.204 57.7328 29.2113 57.4814L29.3086 54.2578C29.3159 54.0064 29.5275 53.8068 29.7708 53.8166C30.0189 53.824 30.2135 54.0335 30.2062 54.2849L30.1089 57.5086C30.1041 57.755 29.9046 57.9497 29.6613 57.9497Z" fill="#1B1B1B"/>
<path d="M54.7234 15.3635C56.2656 15.7874 56.2656 17.2834 54.4655 17.7393C56.5526 18.6511 56.3556 20.1471 54.1128 20.8618C55.9372 21.6677 56.1683 23.659 54.0496 24.1149C55.582 25.2165 55.6866 26.9786 53.7917 27.4C53.7917 27.4 56.7132 28.896 53.2468 30.5891C54.502 31.4393 54.6917 32.4843 53.3441 33.8101C54.6699 34.8699 54.7477 35.8852 53.152 36.8365C54.845 37.4157 54.8207 39.2123 53.0887 39.8284C54.3755 40.893 54.1493 41.9331 52.6703 42.9509C53.8306 44.2078 53.5436 45.127 52.3809 45.8466C53.405 47.4412 52.9866 48.4269 51.4492 48.9371C52.8722 50.9654 51.1671 52.7595 49.8754 51.8329C50.1965 53.7428 48.6786 54.4403 47.0488 53.1119C46.5769 54.8814 44.1931 55.1377 43.2809 54.11C42.3079 55.5591 41.1914 55.845 39.8973 54.7114C39.5178 55.9362 38.2456 56.5918 37.4575 54.5216C36.6937 55.7366 35.1636 55.4778 35.2098 54.2382C34.5044 54.9036 33.1033 54.8839 32.899 54.0213C32.8284 53.733 32.8941 53.3534 33.1617 52.8729C32.8746 44.7426 33.3855 36.176 34.5409 27.2571C35.5066 19.7922 36.9248 12.0809 38.7005 4.17235C38.7297 4.12553 38.7589 4.0787 38.7905 4.03434C39.2332 3.40343 39.9216 2.99187 40.6684 3.12002C41.0722 3.18903 41.4906 3.41576 41.8992 3.8495C42.5195 2.66902 44.7039 2.462 45.1953 4.11074C46.3045 3.08059 48.8781 2.91793 49.1335 5.56478C50.1259 3.7805 52.3541 5.78658 51.3908 7.38603C52.7312 6.65408 53.8112 7.51172 53.0085 8.80557C55.1734 8.23134 56.4018 10.5406 55.3096 12.103C57.0659 13.1504 57.0342 14.6464 54.7234 15.3635Z" fill="white"/>
<path d="M53.2784 8.09566C53.1373 7.9823 52.9817 7.8714 52.8065 7.76543C52.899 7.63234 52.9744 7.4968 53.0327 7.35632C53.2201 7.52884 53.3149 7.78514 53.2784 8.09566Z" fill="white"/>
<path d="M53.3271 8.21893L53.2371 8.145C53.1009 8.0341 52.9428 7.92319 52.7725 7.82215L52.7117 7.78518L52.7531 7.7285C52.8431 7.60035 52.916 7.4648 52.9744 7.33172L53.0109 7.24792L53.0766 7.30954C53.2858 7.50177 53.3806 7.78518 53.3417 8.10557L53.3271 8.21893ZM52.8966 7.74575C53.0133 7.81722 53.1204 7.89116 53.2201 7.96755C53.2201 7.77286 53.1617 7.60281 53.0523 7.46973C53.0085 7.56338 52.955 7.65456 52.8966 7.74575Z" fill="#1B1B1B"/>
<g opacity="0.3">
<path opacity="0.3" d="M54.7234 15.3635C56.2656 15.7873 56.2656 17.2833 54.4656 17.7392C56.5527 18.6511 56.3556 20.147 54.1129 20.8617C55.9372 21.6676 56.1683 23.6589 54.0496 24.1148C55.5821 25.2164 55.6867 26.9785 53.7918 27.3999C53.7918 27.3999 56.7132 28.8959 53.2469 30.589C54.5021 31.4392 54.6918 32.4841 53.3442 33.81C54.6699 34.8698 54.7477 35.8851 53.152 36.8364C54.845 37.4156 54.8207 39.2122 53.0888 39.8283C54.3756 40.8929 54.1493 41.9329 52.6704 42.9508C53.8307 44.2076 53.5437 45.1269 52.3809 45.8465C53.405 47.441 52.9866 48.4268 51.4493 48.937C52.8723 50.9652 51.1671 52.7594 49.8754 51.8327C50.1965 53.7427 48.6786 54.4401 47.0489 53.1118C46.577 54.8813 44.1931 55.1376 43.2809 54.1099C42.3079 55.559 41.1914 55.8449 39.8973 54.7112C39.7903 55.0538 39.6151 55.352 39.3986 55.559C38.8732 56.0618 38.107 56.0174 37.5451 54.7383C37.5135 54.6693 37.4843 54.5979 37.4575 54.5215C37.3116 54.7556 37.1364 54.933 36.9516 55.0612L36.6718 55.2115C35.9494 55.5097 35.1758 55.1253 35.2099 54.2405C34.5044 54.9059 33.1033 54.8862 32.899 54.0237C32.8941 54.0064 32.8917 53.9891 32.8868 53.9694C32.8552 53.7871 32.8747 53.5702 32.9598 53.3163C32.972 53.2769 32.989 53.2375 33.0036 53.1981C33.0449 53.0945 33.0985 52.9861 33.1593 52.8727C35.6866 51.4433 37.1243 49.0799 36.5794 45.26C34.5726 33.5882 35.4896 22.3133 39.1797 11.4129C39.8535 9.42653 39.8827 7.25533 39.1822 5.27882C39.0435 4.88944 38.8854 4.51977 38.7005 4.17228C38.7297 4.12545 38.7589 4.07863 38.7905 4.03427C39.2332 3.40336 39.9216 2.99179 40.6684 3.11995C41.1549 3.74346 41.5392 4.46801 41.8263 5.28129C42.5293 7.26026 42.4977 9.429 41.8239 11.4154C40.7365 14.629 39.89 17.8723 39.2892 21.15C39.2892 21.15 39.2892 21.1525 39.2868 21.1599C39.26 21.4162 38.2286 28.6938 41.0333 29.4824L37.6399 29.0092C37.5767 29.2138 37.5281 29.3395 37.4843 29.4085L38.3016 29.2803C37.9902 34.5247 38.2919 39.8529 39.2235 45.2649C39.5689 47.6727 39.1238 49.5013 38.1167 50.8814C39.1067 51.362 39.9873 50.9529 40.773 49.7798C41.6852 50.8075 44.0691 50.5512 44.541 48.7817C46.1707 50.1101 47.6886 49.4126 47.3675 47.5027C48.6592 48.4293 50.3644 46.6352 48.9414 44.6069C50.4787 44.0943 50.8971 43.111 49.873 41.5164C51.0357 40.7968 51.3228 39.8776 50.1625 38.6207C51.639 37.6029 51.8677 36.5629 50.5809 35.4982C52.3152 34.8796 52.3396 33.0855 50.6441 32.5063C52.2398 31.555 52.1644 30.5421 50.8363 29.48C52.1839 28.1541 51.9942 27.1091 50.739 26.2589C54.2077 24.5683 51.2839 23.0699 51.2839 23.0699C53.1788 22.646 53.0742 20.8863 51.5417 19.7847C53.6604 19.3288 53.4318 17.3375 51.6049 16.5316C53.8477 15.8169 54.0448 14.3185 51.9577 13.4091C53.7553 12.9532 53.7553 11.4573 52.2155 11.0334C53.8842 10.5158 54.3658 9.59165 53.8429 8.72416C55.4653 8.84985 56.251 10.7573 55.3097 12.103C57.0659 13.1504 57.0343 14.6463 54.7234 15.3635Z" fill="#1B1B1B"/>
</g>
<g opacity="0.3">
<path opacity="0.3" d="M36.9515 55.0614C36.8615 55.123 36.7667 55.1748 36.6718 55.2118L36.9515 55.0614Z" fill="black"/>
<path opacity="0.3" d="M36.6961 55.2708L36.6426 55.1525L36.9223 55.0022L36.988 55.1131C36.8907 55.1796 36.7934 55.2339 36.6961 55.2708Z" fill="#1B1B1B"/>
</g>
<g opacity="0.3">
<path opacity="0.3" d="M39.107 22.2C39.102 22.2246 39.0995 22.2443 39.0945 22.2665C39.097 22.2369 39.1045 22.2147 39.107 22.2Z" fill="black"/>
<path opacity="0.3" d="M39.1586 22.2788L39.0313 22.2591C39.0338 22.2344 39.0387 22.2123 39.0411 22.1975L39.0435 22.1876L39.1708 22.2098L39.1586 22.2788Z" fill="#1B1B1B"/>
</g>
<path d="M53.8453 8.71925C53.5874 8.69707 53.3076 8.72172 53.0109 8.80058C53.169 8.54674 53.2541 8.30521 53.2785 8.09326C53.5266 8.29535 53.7163 8.50484 53.8453 8.71925Z" fill="white"/>
<path d="M52.8698 8.90656L52.9574 8.76609C53.1058 8.5295 53.1909 8.30031 53.2152 8.08836L53.2274 7.97253L53.3174 8.04647C53.5704 8.24855 53.765 8.46542 53.8988 8.68722L53.9644 8.79566L53.8379 8.7858C53.5801 8.76362 53.3077 8.79073 53.0255 8.86466L52.8698 8.90656ZM53.3247 8.21651C53.2931 8.37424 53.2323 8.53689 53.1423 8.70201C53.3393 8.66011 53.5339 8.64286 53.7212 8.64533C53.6166 8.49993 53.4852 8.35699 53.3247 8.21651Z" fill="#1B1B1B"/>
<path d="M39.1797 11.4129C35.4896 22.3133 34.5726 33.5883 36.5794 45.2601C37.9562 54.8962 26.7107 55.2708 17.1997 54.7187C17.0659 54.7113 16.9321 54.7039 16.7983 54.6941C13.3734 54.4107 11.043 53.4347 10.2476 49.945C7.9124 37.3146 7.35779 24.1789 11.0819 11.753C13.0158 5.30105 18.5205 3.45762 24.8401 1.74974C24.8426 1.74974 24.845 1.74727 24.8474 1.74727C25.6623 1.52547 26.4942 1.3086 27.331 1.08186C33.9206 -0.611231 37.747 1.24205 39.1797 5.27887C39.8851 7.25538 39.8535 9.42412 39.1797 11.4129Z" fill="#E07153"/>
<g opacity="0.3">
<path opacity="0.3" d="M17.5718 54.8813L21.4663 54.8763L21.4128 56.6607C20.1722 56.6829 18.9146 56.6607 17.6667 56.6114L17.5718 54.8813Z" fill="#1B1B1B"/>
</g>
<g opacity="0.3">
<path opacity="0.3" d="M29.7611 54.2703L29.7246 55.463C28.591 55.8647 27.3261 56.1456 25.981 56.3354L25.8642 54.2752L29.7611 54.2703Z" fill="#1B1B1B"/>
</g>
<g opacity="0.55">
<path opacity="0.55" d="M36.375 1.62161C34.4071 0.840372 31.78 0.788618 28.4475 1.64626C27.6107 1.87052 26.7788 2.08986 25.9639 2.31167C25.9615 2.31167 25.9591 2.31413 25.9566 2.31413C19.6394 4.02201 14.1323 5.86791 12.1984 12.3174C8.47426 24.7433 9.02644 37.879 11.3641 50.5095C11.7557 52.2321 12.5219 53.3436 13.6117 54.0583C11.926 53.4151 10.7657 52.2075 10.2524 49.9451C7.91722 37.3146 7.36261 24.179 11.0868 11.7531C13.0206 5.30108 18.5253 3.45765 24.845 1.74976C24.8474 1.74976 24.8498 1.7473 24.8523 1.7473C25.6672 1.5255 26.4991 1.30862 27.3358 1.08189C31.3422 0.051739 34.3268 0.33269 36.375 1.62161Z" fill="white"/>
</g>
<g opacity="0.75">
<g opacity="0.75">
<path opacity="0.75" d="M39.6954 7.23071C36.6645 10.405 32.7287 10.4074 30.4275 9.61633C30.1211 9.51035 29.8413 9.33784 29.5859 9.13575C25.295 5.73724 14.485 9.35509 10.5687 13.5817L9.98486 15.9796C15.4288 9.2713 25.9591 7.0237 29.0727 9.65083C30.0335 10.4616 31.2278 10.9422 32.4684 11.0901C35.3339 11.4326 38.8099 10.9447 39.6978 9.08646" fill="white"/>
</g>
<g opacity="0.75">
<path opacity="0.75" d="M37.0173 19.2697C34.1202 22.0545 27.8054 21.9239 26.3483 20.9701C20.5541 16.8668 12.5633 22.9664 8.58133 25.7808L8.44025 28.472C10.7803 24.1222 21.0844 18.3233 25.115 21.224C26.3532 22.1161 27.7567 22.7446 29.2625 22.9491C32.1377 23.341 35.4726 22.9417 36.5794 21.5" fill="white"/>
</g>
<g opacity="0.75">
<path opacity="0.75" d="M35.6283 36.7305C31.5928 37.3762 29.5373 35.9098 27.494 34.1009C25.9688 32.7503 24.0447 33.2876 24.0447 33.2876L12.9477 36.7354C9.80004 37.6473 8.53027 36.0257 8.53027 36.0257L8.81731 39.8284C8.81731 39.8284 9.31111 38.537 12.522 37.842L22.955 34.3695C25.0713 33.6647 27.421 34.3128 28.8343 36.0552C28.8757 36.107 28.9195 36.1612 28.9608 36.2154C30.9847 38.85 35.6307 38.3201 35.6307 38.3201" fill="white"/>
</g>
<g opacity="0.75">
<path opacity="0.75" d="M36.4286 44.3481C35.2172 46.4602 31.6658 46.3591 28.3162 44.9987C27.73 44.7597 27.1754 44.4492 26.6354 44.1189C23.4026 42.1375 19.2041 45.1096 15.2245 46.9531C12.7507 48.343 10.8582 47.9512 9.54706 45.7751C9.81707 48.0177 10.216 49.9671 10.7901 51.5247C10.8995 49.3904 12.9453 49.0553 16.1245 47.3646C20.1892 45.3561 24.3707 42.8177 27.4381 45.2033C28.09 45.711 28.7906 46.157 29.5471 46.4774C32.0598 47.5445 34.468 47.791 36.6889 46.5933" fill="white"/>
</g>
</g>
<path d="M22.1377 55.3349C20.3619 55.3349 18.5497 55.2561 16.774 55.1476C13.6993 54.8938 10.7365 54.1027 9.81219 50.0462C9.80975 50.0412 9.80975 50.0339 9.80732 50.0289C7.06833 35.2223 7.34563 22.6584 10.6538 11.62C12.792 4.48781 19.2187 2.775 26.0248 0.961145C26.4213 0.855172 26.8178 0.749199 27.2167 0.643227C30.4957 -0.199625 33.2298 -0.211947 35.351 0.60626C37.3894 1.39243 38.8197 2.91301 39.6054 5.12611C40.3254 7.15192 40.3254 9.43895 39.6054 11.5633C35.9251 22.4366 35.0566 33.7486 37.0245 45.1838C37.0245 45.1887 37.027 45.1912 37.027 45.1961C37.4113 47.8898 36.8591 50.0782 35.385 51.7023C32.7604 54.5931 27.6205 55.3349 22.1377 55.3349ZM10.6903 49.8515C11.4444 53.1465 13.602 53.9746 16.8372 54.2407C23.4585 54.6449 31.4833 54.6523 34.7234 51.0837C36.0223 49.6519 36.4845 47.7715 36.1391 45.3316C34.1469 33.7436 35.0275 22.2838 38.7565 11.2651C39.4084 9.33544 39.4108 7.26528 38.7613 5.43171C37.3091 1.3456 33.3953 -0.00739565 27.4429 1.52305C27.0464 1.62902 26.6499 1.73499 26.2534 1.84096C19.4133 3.66468 13.5072 5.23948 11.5149 11.8837C8.25052 22.7792 7.98051 35.1977 10.6903 49.8515Z" fill="#1B1B1B"/>
<path d="M24.8429 1.74765C24.8458 1.74765 24.8487 1.74487 24.8515 1.74487C24.8458 1.74765 24.8429 1.75042 24.8429 1.74765C24.84 1.75042 24.84 1.75042 24.8429 1.74765Z" fill="black"/>
<path d="M24.8402 1.81387H24.6918L24.8134 1.68325L24.8499 1.68079H25.1102L24.8645 1.8114L24.8402 1.81387Z" fill="#1B1B1B"/>
<g opacity="0.3">
<path opacity="0.3" d="M35.295 45.2601C33.2882 33.5883 34.2053 22.3133 37.8954 11.413C38.5692 9.42659 38.5984 7.25539 37.8978 5.27888C36.8835 2.42008 34.6674 0.65798 31.1209 0.473145C29.9776 0.529828 28.7175 0.726986 27.3335 1.08187C26.9516 1.18538 26.5721 1.28642 26.195 1.385C26.414 1.385 26.6232 1.39239 26.8202 1.41211C26.8178 1.41211 26.8153 1.41211 26.8129 1.41211C31.0552 1.05723 31.8579 3.91109 29.89 9.35019C26.0661 21.7219 24.9374 34.4534 26.1123 47.4929C26.7205 53.314 22.5876 54.6128 17.2021 54.7188C18.6008 54.8001 20.036 54.8617 21.4638 54.8765C29.2649 54.7878 36.4091 53.0528 35.295 45.2601Z" fill="#1B1B1B"/>
</g>
<path d="M38.737 56.3133C38.394 56.3133 37.8321 56.1629 37.3456 55.3349C36.8202 55.7686 36.2023 55.8475 35.7304 55.6971C35.3485 55.5764 35.0615 55.3176 34.9033 54.9726C34.2271 55.2659 33.4147 55.2289 32.9063 54.8247C32.6265 54.6029 32.0549 53.9449 32.7725 52.6486C32.8941 52.4292 33.169 52.3504 33.3855 52.4736C33.602 52.5968 33.6798 52.8753 33.5582 53.0946C33.4025 53.3756 33.1811 53.8833 33.4633 54.1075C33.7625 54.3466 34.4898 54.2998 34.9082 53.9055C35.042 53.7798 35.2366 53.7477 35.402 53.8241C35.5674 53.9005 35.672 54.0706 35.6647 54.2554C35.6526 54.5512 35.7742 54.7532 36.0028 54.8272C36.2972 54.9208 36.7618 54.7877 37.0829 54.2751C37.1753 54.1297 37.3383 54.0509 37.5061 54.0681C37.674 54.0854 37.8199 54.1963 37.8807 54.3565C38.1337 55.0194 38.4572 55.4113 38.7491 55.4014C39.0216 55.3915 39.3281 55.044 39.474 54.5733C39.5202 54.4279 39.6346 54.3146 39.7805 54.2727C39.9265 54.2308 40.0821 54.2653 40.1965 54.3663C40.6951 54.8025 41.1524 54.9948 41.5611 54.943C42.0135 54.8839 42.4684 54.5166 42.9136 53.8537C42.9914 53.7379 43.1179 53.6639 43.2541 53.6565C43.3928 53.6467 43.5266 53.7034 43.619 53.8069C43.9644 54.1963 44.665 54.3565 45.3217 54.1963C45.6355 54.1199 46.3896 53.8512 46.6183 52.9936C46.6572 52.8457 46.7691 52.7274 46.9126 52.6782C47.0561 52.6313 47.2142 52.6609 47.3334 52.757C47.9975 53.2967 48.664 53.4816 49.0775 53.2351C49.4132 53.0355 49.5421 52.5525 49.4351 51.9092C49.4035 51.7269 49.4838 51.5445 49.6394 51.4484C49.7927 51.3498 49.9897 51.3547 50.1381 51.4632C50.5589 51.7638 50.9627 51.611 51.2035 51.3695C51.6098 50.9555 51.7314 50.125 51.0868 49.2057C51.0041 49.0874 50.9822 48.9371 51.026 48.7991C51.0697 48.6611 51.1768 48.5526 51.313 48.5083C51.9454 48.2988 52.3274 48.0154 52.449 47.6679C52.5803 47.2883 52.432 46.7609 52.0087 46.098C51.943 45.9945 51.9211 45.8688 51.9479 45.748C51.9746 45.6273 52.0476 45.5238 52.1522 45.4597C52.646 45.1541 52.916 44.8386 52.9598 44.5207C53.006 44.1757 52.7993 43.7543 52.3468 43.2639C52.2568 43.1677 52.213 43.0347 52.2276 42.9016C52.2422 42.7685 52.3128 42.6502 52.4222 42.5763C53.1009 42.108 53.4682 41.6521 53.4852 41.2578C53.4998 40.9275 53.2712 40.5653 52.809 40.1833C52.6825 40.0798 52.6217 39.9146 52.6509 39.752C52.6801 39.5893 52.792 39.4562 52.9452 39.3996C53.5752 39.1753 53.9669 38.7489 53.962 38.2905C53.9596 37.8519 53.6044 37.4699 53.0133 37.2678C52.8455 37.2111 52.7287 37.0608 52.7093 36.8833C52.6898 36.7059 52.7774 36.5334 52.9282 36.4446C53.3539 36.1908 53.8696 35.799 53.8987 35.3751C53.9279 34.9487 53.4633 34.4854 53.0717 34.1699C52.9695 34.0886 52.9087 33.9678 52.9014 33.8348C52.8941 33.7042 52.9452 33.576 53.0376 33.4848C53.5996 32.9328 53.8647 32.4448 53.8282 32.0332C53.7966 31.6759 53.5193 31.3161 53.0036 30.9686C52.8698 30.8774 52.7944 30.7221 52.8041 30.557C52.8163 30.3944 52.9112 30.249 53.0571 30.1775C53.9815 29.7265 54.4947 29.2558 54.4996 28.8516C54.5044 28.3833 53.8306 27.9274 53.5947 27.8042C53.4268 27.7155 53.3295 27.5306 53.3539 27.3409C53.3782 27.1511 53.5168 26.9958 53.7017 26.954C54.2977 26.8209 54.6674 26.5325 54.7453 26.1407C54.8499 25.6256 54.4753 24.975 53.7941 24.4845C53.6482 24.381 53.5777 24.1987 53.6141 24.0212C53.6506 23.8438 53.7869 23.7058 53.962 23.6688C54.6504 23.5209 55.0688 23.1833 55.115 22.7397C55.1588 22.2887 54.8134 21.6627 53.9401 21.2783C53.7674 21.2019 53.6604 21.0269 53.6701 20.8371C53.6798 20.6474 53.8063 20.4847 53.9839 20.4256C55.0591 20.083 55.458 19.6123 55.475 19.287C55.4945 18.9099 55.0518 18.4885 54.2928 18.1558C54.1152 18.0794 54.0082 17.8945 54.0228 17.6998C54.0374 17.5052 54.1736 17.3425 54.3609 17.2957C55.0761 17.1133 55.3996 16.7584 55.402 16.4849C55.4045 16.2039 55.0931 15.9353 54.609 15.8022C54.4144 15.748 54.2807 15.573 54.2782 15.3709C54.2758 15.1688 54.4047 14.9865 54.5969 14.9273C55.5018 14.6464 56.0515 14.2323 56.1026 13.7887C56.1512 13.3846 55.7718 12.899 55.0882 12.4899C54.9812 12.4259 54.9034 12.3174 54.8766 12.1917C54.8499 12.0661 54.8766 11.9379 54.9496 11.8344C55.368 11.2355 55.3777 10.4321 54.9739 9.84063C54.5725 9.25409 53.9012 9.03722 53.1301 9.24177C52.9525 9.28859 52.7628 9.22205 52.6533 9.07172C52.5438 8.92138 52.5365 8.7193 52.6338 8.55911C52.8576 8.19929 52.9014 7.87152 52.7506 7.70886C52.5876 7.53388 52.1619 7.47967 51.6098 7.7828C51.4298 7.87891 51.2108 7.84441 51.0697 7.69408C50.9311 7.54374 50.9068 7.31947 51.0114 7.1445C51.33 6.61463 51.1208 6.11681 51.0162 5.92705C50.8143 5.5623 50.4689 5.31586 50.1576 5.31586C49.9119 5.31586 49.7003 5.47358 49.5275 5.78411C49.4302 5.95662 49.2356 6.04781 49.0435 6.00591C48.8513 5.96401 48.7078 5.80382 48.6883 5.6042C48.6081 4.76874 48.2553 4.20684 47.6715 3.98011C46.9321 3.69423 45.9883 3.98997 45.5018 4.44097C45.3874 4.54694 45.2293 4.58637 45.0785 4.54448C44.9301 4.50258 44.8109 4.38675 44.7671 4.23642C44.5652 3.55622 44.0277 3.40589 43.726 3.37631C43.1374 3.31717 42.5341 3.60551 42.2957 4.05897C42.2276 4.18713 42.1035 4.27585 41.96 4.29556C41.8165 4.31528 41.673 4.26353 41.5733 4.15755C41.1524 3.71148 40.717 3.5094 40.2767 3.55376C39.8292 3.60058 39.3816 3.92096 39.08 4.40893C38.9486 4.62334 38.6713 4.68742 38.4597 4.55433C38.248 4.42125 38.1848 4.1403 38.3161 3.92589C38.7686 3.18901 39.4497 2.72323 40.1843 2.64683C40.6027 2.60247 41.2011 2.67147 41.836 3.17176C42.32 2.67147 43.0644 2.39545 43.8136 2.46939C44.4825 2.53593 45.0371 2.87849 45.3753 3.41328C46.0977 2.98693 47.0999 2.78238 47.9926 3.1274C48.6543 3.38371 49.1359 3.90371 49.3913 4.62334C49.6224 4.47794 49.8803 4.404 50.1576 4.404C50.1576 4.404 50.1576 4.404 50.16 4.404C50.7949 4.404 51.4395 4.82789 51.8019 5.48098C52.0111 5.85804 52.1011 6.27207 52.0768 6.67378C52.6071 6.60231 53.0887 6.74032 53.4074 7.08535C53.6944 7.39587 53.7966 7.80498 53.7139 8.25351C54.5288 8.26337 55.2439 8.63551 55.711 9.32063C56.2412 10.0969 56.3094 11.1049 55.9177 11.9502C56.6961 12.522 57.0756 13.1997 56.9953 13.8947C56.9515 14.2718 56.7253 14.8977 55.7937 15.4079C56.1221 15.6987 56.3069 16.0758 56.3021 16.4898C56.2972 16.9161 56.071 17.4189 55.4969 17.791C56.2777 18.3628 56.3896 18.9715 56.3726 19.3289C56.341 19.9573 55.8934 20.5167 55.1126 20.9332C55.7377 21.4483 56.0758 22.1334 56.0077 22.826C55.9469 23.447 55.5577 23.9596 54.9301 24.2825C55.4993 24.9084 55.762 25.6453 55.6258 26.3181C55.5261 26.8184 55.2147 27.2324 54.738 27.5134C55.0785 27.8338 55.402 28.2872 55.3972 28.8541C55.3899 29.5071 54.9423 30.1134 54.0593 30.6556C54.4582 31.0499 54.6796 31.4812 54.7209 31.942C54.7745 32.5286 54.5312 33.1398 53.996 33.7682C54.5701 34.3203 54.8304 34.8674 54.7939 35.4268C54.7623 35.9123 54.5093 36.3535 54.0252 36.7675C54.5482 37.1446 54.8547 37.6818 54.8572 38.2758C54.862 38.9387 54.4923 39.5425 53.8623 39.9467C54.2247 40.378 54.3998 40.8289 54.378 41.2873C54.3512 41.8936 54.0058 42.4629 53.3222 43.0199C53.7382 43.5793 53.9133 44.119 53.8452 44.6316C53.7796 45.1245 53.4901 45.5755 52.9841 45.9723C53.3879 46.7264 53.4925 47.3918 53.2955 47.9587C53.1228 48.4565 52.7263 48.8582 52.1109 49.1539C52.6995 50.3246 52.432 51.3991 51.8384 52.0029C51.4249 52.4218 50.8873 52.5968 50.3643 52.513C50.3205 53.1883 50.0311 53.7182 49.5324 54.0164C48.9024 54.391 48.0778 54.3072 47.2532 53.8044C46.9029 54.4329 46.2923 54.8913 45.5309 55.0761C44.7428 55.2659 43.945 55.1426 43.3612 54.7606C42.843 55.3989 42.2787 55.7612 41.6779 55.8401C41.1573 55.9091 40.6222 55.7661 40.0821 55.4137C39.7659 55.9559 39.2891 56.2911 38.7783 56.3083C38.7613 56.3133 38.7491 56.3133 38.737 56.3133Z" fill="#1B1B1B"/>
<path d="M41.7046 29.5687L40.5176 32.6493L32.5122 30.9143L29.637 30.2908C28.4646 31.3973 26.9369 31.0375 25.9494 30.4386C25.6988 30.2908 25.4799 30.1404 25.2926 29.9926C23.0717 28.2305 25.1272 26.5152 27.1753 27.5774C27.3553 27.671 27.5353 27.7869 27.7153 27.9249C26.7423 25.5615 29.9095 25.4629 30.0968 27.9569L32.6898 28.3167L41.7046 29.5687Z" fill="white"/>
<path d="M41.6827 29.7191C40.6781 29.8694 39.7075 29.7585 38.737 29.6476C37.7664 29.5318 36.8056 29.3518 35.8399 29.2163L30.0384 28.4104C29.8292 28.3808 29.6735 28.2108 29.6516 28.0038V27.9914C29.6346 27.814 29.6054 27.639 29.5519 27.4788C29.4959 27.3186 29.4229 27.1708 29.3281 27.0451C29.1408 26.7888 28.861 26.6163 28.5837 26.5818C28.4451 26.562 28.3186 26.5867 28.2237 26.6335C28.1264 26.6803 28.0705 26.7518 28.0267 26.8529C27.9829 26.9539 27.9732 27.0968 27.9951 27.2546C28.017 27.4123 28.0705 27.5823 28.1362 27.7499L28.1386 27.7524C28.2286 27.9865 28.1167 28.2527 27.8832 28.3439C27.7324 28.403 27.5694 28.3759 27.4478 28.2847C27.134 28.0457 26.7837 27.8559 26.4164 27.7696C26.0515 27.676 25.6696 27.6834 25.351 27.7992C25.1928 27.8559 25.0542 27.9446 24.9593 28.0481C24.8645 28.1516 24.8109 28.2675 24.7963 28.3932C24.7647 28.6445 24.9155 28.9772 25.1782 29.2582C25.4361 29.5441 25.7669 29.793 26.1318 30.0123C26.3118 30.1208 26.4845 30.2169 26.6718 30.2933C26.8567 30.3697 27.0464 30.4362 27.2386 30.4781C27.6205 30.5693 28.0097 30.5718 28.3721 30.4929C28.7297 30.4017 29.0605 30.2218 29.3402 29.9581L29.3427 29.9556C29.4546 29.8521 29.6054 29.8152 29.7416 29.8447L35.1807 31.0252L36.5404 31.321C36.9929 31.422 37.4477 31.5157 37.9051 31.597C38.3624 31.6759 38.8172 31.772 39.2624 31.9075C39.4862 31.9741 39.7051 32.0529 39.9216 32.149C40.1381 32.2451 40.3521 32.3536 40.5589 32.5039C40.6319 32.5581 40.6489 32.6616 40.5978 32.7356C40.5735 32.7701 40.537 32.7923 40.4981 32.8021C40.25 32.8539 40.0116 32.8637 39.7732 32.8613C39.5373 32.8588 39.3037 32.8391 39.0726 32.807C38.6105 32.7454 38.158 32.6444 37.7105 32.5286C37.2604 32.4127 36.808 32.3117 36.3556 32.2131L34.9958 31.9174L29.5567 30.7369L29.9581 30.6235C29.5786 30.9809 29.0994 31.252 28.5837 31.3776C28.068 31.4959 27.5378 31.4836 27.0464 31.3653C26.555 31.2544 26.088 31.0474 25.6745 30.7911C25.2682 30.5471 24.8645 30.2538 24.5166 29.8669C24.3415 29.6747 24.1809 29.4529 24.0642 29.1867C23.945 28.9255 23.872 28.61 23.9109 28.2847C23.945 27.9594 24.1007 27.644 24.3147 27.4197C24.5288 27.1905 24.7866 27.0377 25.0493 26.9416C25.3145 26.8455 25.5845 26.8011 25.852 26.7937C26.1196 26.7888 26.3848 26.8159 26.6353 26.8824C27.1437 27.0057 27.6034 27.2546 28.0048 27.5602L27.3164 28.0974C27.2288 27.8707 27.151 27.6316 27.1145 27.3679C27.0829 27.1042 27.0853 26.8085 27.2021 26.5128C27.314 26.2195 27.5499 25.9484 27.837 25.8128C28.1191 25.6724 28.4256 25.6354 28.7029 25.6724C29.2648 25.7414 29.744 26.0667 30.0578 26.4906C30.2159 26.7025 30.3327 26.9391 30.4154 27.1806C30.4957 27.4246 30.537 27.6711 30.5614 27.9175L30.1746 27.501L35.9761 28.3044C36.9442 28.4375 37.9172 28.5238 38.8805 28.6766C39.8437 28.8343 40.807 28.9945 41.7362 29.411C41.8141 29.4455 41.8506 29.5391 41.8165 29.6205C41.78 29.6772 41.7338 29.7117 41.6827 29.7191Z" fill="#1B1B1B"/>
<path d="M28.4938 14.538C28.2335 14.538 27.9757 14.4961 27.7251 14.4073C26.7545 14.0598 26.1756 13.1283 26.1756 11.9158C26.1756 11.6274 26.4067 11.3958 26.6889 11.3958C26.9735 11.3958 27.2021 11.6299 27.2021 11.9158C27.2021 12.6797 27.5159 13.2318 28.0657 13.4265C28.647 13.6335 29.3379 13.392 29.7879 12.8251C29.9654 12.6009 30.289 12.5664 30.5103 12.7463C30.7317 12.9262 30.7657 13.254 30.5882 13.4782C30.0506 14.1584 29.2697 14.538 28.4938 14.538Z" fill="#1B1B1B"/>
<path d="M35.5115 15.472C35.2731 15.472 35.042 15.4326 34.828 15.3586C34.0399 15.0826 33.3563 14.2718 33.6044 13.0765C33.6628 12.7956 33.9353 12.6157 34.2126 12.6748C34.4899 12.734 34.6674 13.01 34.6091 13.2909C34.4485 14.0623 34.991 14.3162 35.1612 14.3753C35.6258 14.538 36.285 14.3852 36.6305 13.6705C36.7545 13.4117 37.0634 13.3057 37.3189 13.4314C37.5743 13.5571 37.6789 13.8701 37.5548 14.1289C37.1024 15.0654 36.2777 15.472 35.5115 15.472Z" fill="#1B1B1B"/>
<path d="M32.1668 18.9395C32.0112 18.9395 31.853 18.9247 31.6949 18.8951C30.7511 18.7152 30.0749 18.0424 29.9289 17.1404C29.8876 16.8915 30.0554 16.6574 30.2987 16.6179C30.5444 16.576 30.7754 16.7461 30.8144 16.9925C30.9409 17.7664 31.6463 17.9586 31.8603 18.0005C32.3006 18.0843 32.9258 17.9956 33.2396 17.4632C33.3661 17.2464 33.6434 17.1774 33.855 17.3055C34.0691 17.4337 34.1372 17.7146 34.0107 17.929C33.6361 18.5698 32.9404 18.9395 32.1668 18.9395Z" fill="#1B1B1B"/>
<path d="M49.2965 21.4655C48.7297 21.4655 48.1678 21.2536 47.7615 20.8618C47.2118 20.3368 47.0123 19.5605 47.2094 18.7374C47.2775 18.4589 47.5548 18.2864 47.8296 18.3554C48.1045 18.4244 48.2748 18.7054 48.2067 18.9838C48.0948 19.4496 48.1848 19.8365 48.467 20.1076C48.7637 20.3935 49.2405 20.4995 49.6516 20.3738C49.9484 20.2826 50.3351 20.0362 50.4835 19.3806C50.5468 19.0997 50.8241 18.9247 51.099 18.9888C51.3763 19.0529 51.549 19.3313 51.4857 19.6123C51.2863 20.4921 50.7268 21.1328 49.9508 21.3694C49.7343 21.4335 49.5154 21.4655 49.2965 21.4655Z" fill="#1B1B1B"/>
<path d="M41.347 19.6714C40.7803 19.6714 40.2184 19.4595 39.8121 19.0676C39.2624 18.5427 39.0629 17.7664 39.2599 16.9432C39.3281 16.6647 39.6054 16.4922 39.8802 16.5612C40.1551 16.6302 40.3254 16.9112 40.2573 17.1897C40.1454 17.6555 40.2354 18.0424 40.5176 18.3135C40.8143 18.5994 41.2911 18.7053 41.7022 18.5796C41.999 18.4885 42.3857 18.242 42.5341 17.5865C42.5974 17.3055 42.8722 17.1305 43.1495 17.1946C43.4268 17.2587 43.5996 17.5372 43.5363 17.8181C43.3368 18.6979 42.7774 19.3387 42.0014 19.5753C41.7849 19.6394 41.566 19.6714 41.347 19.6714Z" fill="#1B1B1B"/>
<path d="M44.6285 23.6022C44.4777 23.6022 44.3245 23.5874 44.1712 23.5603C43.4609 23.4297 42.8626 22.9984 42.5755 22.4094C42.4515 22.1581 42.5536 21.8525 42.8042 21.7268C43.0523 21.6011 43.3539 21.7046 43.478 21.9584C43.6263 22.2616 43.9523 22.4858 44.3537 22.5598C44.811 22.6436 45.2634 22.5154 45.5942 22.2024C45.7961 22.0102 46.1148 22.0225 46.3045 22.2271C46.4942 22.4316 46.4821 22.7545 46.2802 22.9467C45.8253 23.3755 45.2415 23.6022 44.6285 23.6022Z" fill="#1B1B1B"/>
<path d="M21.476 58.4722C21.4079 58.5264 21.3057 58.5609 21.1987 58.5954C21.0892 58.6299 20.9676 58.6546 20.846 58.6842C20.5954 58.7384 20.34 58.8 20.0481 58.8394C20.0141 58.8443 19.9824 58.8197 19.9776 58.7852C19.9751 58.7729 19.9776 58.7606 19.9824 58.7507C20.0457 58.6102 20.1308 58.487 20.2208 58.3737C20.3133 58.2603 20.4154 58.1568 20.5249 58.0607C20.6344 57.967 20.7511 57.8758 20.8873 57.8093C21.0236 57.7452 21.1719 57.691 21.3641 57.7009C21.5757 57.7107 21.7387 57.8931 21.729 58.1075C21.7241 58.2258 21.6657 58.3293 21.5806 58.3958L21.476 58.4722Z" fill="#1B1B1B"/>
<path d="M23.1836 61.4615H18.9292C18.1216 61.4615 17.4526 60.8208 17.4064 60.005L17.1218 54.9061C17.1072 54.6547 17.297 54.4403 17.5451 54.4255C17.7932 54.4107 18.0048 54.6029 18.0194 54.8543L18.304 59.9533C18.3235 60.2885 18.5959 60.5497 18.9292 60.5497H23.1836C23.3271 60.5497 23.4633 60.4881 23.5582 60.3772C23.6482 60.2737 23.6871 60.1406 23.6701 60.0075C23.5996 59.4703 23.3295 59.002 22.933 58.7235C22.5657 58.4648 22.1182 58.3859 21.6414 58.4968C21.4006 58.5535 21.1573 58.4007 21.1038 58.1542C21.0479 57.9078 21.2011 57.6638 21.4419 57.6096C22.1619 57.442 22.8747 57.5726 23.4463 57.9743C24.052 58.3982 24.4582 59.0957 24.5628 59.8868C24.6139 60.2786 24.4971 60.6754 24.2369 60.9785C23.9693 61.2841 23.5874 61.4615 23.1836 61.4615Z" fill="#1B1B1B"/>
<path d="M21.369 58.5559C21.3641 58.5559 21.3592 58.5559 21.3544 58.5559C21.1063 58.5485 20.9117 58.339 20.919 58.0877L21.0163 54.8641C21.0236 54.6127 21.2328 54.4155 21.4784 54.4229C21.7265 54.4303 21.9211 54.6398 21.9138 54.8912L21.8165 58.1148C21.8117 58.3612 21.6122 58.5559 21.369 58.5559Z" fill="#1B1B1B"/>
<g opacity="0.25">
<path opacity="0.25" d="M19.0095 6.90046C15.7329 8.78086 14.4023 11.8886 14.2734 15.7553C14.2345 16.9062 15.6186 17.4903 16.4091 16.6647C18.4743 14.5009 19.9727 11.7382 20.7365 8.19431C20.9506 7.18881 19.8925 6.39278 19.0095 6.90046Z" fill="white"/>
</g>
<g opacity="0.25">
<path opacity="0.25" d="M15.9153 21.68C15.7255 23.2425 15.4726 24.4969 14.4655 24.3712C13.4585 24.2455 12.7968 22.8777 12.9866 21.3152C13.1763 19.7528 14.1468 18.5871 15.1539 18.7128C16.161 18.8385 16.105 20.1175 15.9153 21.68Z" fill="white"/>
</g>
<g opacity="0.3">
<path opacity="0.3" d="M32.5123 30.9119L29.637 30.2883C28.4646 31.3949 26.937 31.0351 25.9494 30.4362C25.6988 30.2883 25.4799 30.138 25.2926 29.9901C26.9832 30.313 27.7738 29.7462 27.1291 27.7598L27.1754 27.575C27.3554 27.6686 27.5354 27.7844 27.7154 27.9224C26.7424 25.559 29.9095 25.4604 30.0968 27.9545L32.6898 28.3143C31.2303 29.2335 31.2863 30.0936 32.5123 30.9119Z" fill="black"/>
<path opacity="0.3" d="M27.8394 31.0696C27.1485 31.0696 26.4674 30.8281 25.9153 30.4929C25.6696 30.3475 25.4458 30.1972 25.2536 30.0444L25.0444 29.8792L25.3047 29.9285C26.1804 30.0961 26.7715 30.0099 27.061 29.6747C27.3602 29.3272 27.3626 28.6914 27.0683 27.782L27.0634 27.7647L27.1364 27.4838L27.2069 27.5207C27.3334 27.5873 27.4599 27.6612 27.5815 27.745C27.3237 26.9662 27.5596 26.5473 27.7323 26.36C28.0169 26.0544 28.4864 25.9706 28.9559 26.1406C29.6297 26.3846 30.0773 27.0402 30.1575 27.9027L32.877 28.2798L32.7262 28.3759C32.0232 28.8146 31.6657 29.2533 31.6584 29.6722C31.6535 30.0616 31.9527 30.4633 32.5487 30.8601L32.8333 31.0499L29.6564 30.3623C29.1043 30.87 28.4669 31.0696 27.8394 31.0696ZM25.548 30.101C25.6817 30.1972 25.8277 30.2908 25.9834 30.382C27.0026 31.0006 28.4864 31.2889 29.5956 30.2415L29.6199 30.2193L32.2251 30.7837C31.7605 30.4165 31.527 30.0444 31.5319 29.6698C31.5392 29.2336 31.8676 28.7949 32.5122 28.3587L30.0408 28.0161L30.0359 27.9643C29.9727 27.1289 29.5543 26.4931 28.9145 26.2639C28.4986 26.1135 28.0729 26.1875 27.8272 26.4512C27.5377 26.7617 27.5183 27.2768 27.7761 27.9027L27.8686 28.1295L27.6764 27.9791C27.5304 27.8658 27.3748 27.7623 27.2191 27.676L27.1972 27.7623C27.5061 28.7234 27.4939 29.3765 27.1583 29.7634C26.8639 30.101 26.3337 30.2144 25.548 30.101Z" fill="#1B1B1B"/>
</g>
<g opacity="0.3">
<path opacity="0.3" d="M42.1766 32.2871C41.8068 32.5705 41.33 32.6715 40.8776 32.568L37.837 31.8829L36.5648 31.597C37.9197 31.1213 38.3745 30.2908 37.9294 29.1029L38.6494 29.1768L38.5618 29.3173L38.9462 29.3592L38.9875 29.4874C38.9997 29.4652 38.9875 29.4184 38.9608 29.3617L41.5028 29.6426L41.3738 29.4553L41.8238 29.5022C43.3977 30.3697 43.0571 31.6118 42.1766 32.2871Z" fill="#1B1B1B"/>
</g>
<g opacity="0.3">
<path opacity="0.3" d="M46.5453 54.009L46.1147 59.9779C46.0734 60.557 45.5966 61.0056 45.025 61.0056H39.7951C39.1359 61.0056 38.6324 60.3993 38.7516 59.7438C38.7905 59.5392 38.8537 59.3445 38.9413 59.1597C39.2064 59.0192 39.3962 58.9207 39.3962 58.9207C43.1033 60.0173 44.6601 58.5608 44.1225 54.6153C44.9179 54.8469 45.9226 54.6572 46.5453 54.009Z" fill="#1B1B1B"/>
</g>
<path d="M43.9036 39.4414C44.1469 39.7446 44.2904 40.1512 44.2515 40.5973C44.232 40.8191 44.1639 41.0434 44.0471 41.2479C43.9304 41.45 43.7674 41.6275 43.5752 41.7556C43.1933 42.0193 42.7263 42.1031 42.3079 42.0243C41.8895 41.9479 41.5101 41.7088 41.2984 41.3712C41.2595 41.3071 41.2766 41.2233 41.3398 41.1814C41.3739 41.1592 41.4152 41.1543 41.4517 41.1666L41.459 41.1691C41.7874 41.2726 42.0841 41.3046 42.3566 41.2726C42.629 41.243 42.8723 41.1494 43.062 41.0113C43.2517 40.8709 43.3879 40.691 43.4877 40.4445C43.5363 40.3213 43.5728 40.1808 43.5996 40.028C43.6263 39.8727 43.6385 39.7076 43.6579 39.5252V39.5154C43.6677 39.439 43.7358 39.3848 43.8112 39.3922C43.8501 39.3946 43.8817 39.4143 43.9036 39.4414Z" fill="#1B1B1B"/>
<g opacity="0.6">
<g opacity="0.6">
<path opacity="0.6" d="M45.5139 47.3056C45.565 47.6926 45.4799 48.1164 45.2172 48.4763C45.0882 48.6562 44.9131 48.8139 44.7088 48.9248C44.5044 49.0357 44.2733 49.1022 44.0447 49.1121C43.5849 49.1367 43.1422 48.9618 42.8236 48.6759C42.5049 48.39 42.303 47.9858 42.2957 47.5866C42.2933 47.5102 42.3541 47.4486 42.4295 47.4461C42.4709 47.4461 42.5074 47.4634 42.5341 47.4905L42.539 47.4954C42.7676 47.7566 43.0036 47.939 43.2541 48.0548C43.5022 48.1707 43.7577 48.22 43.9912 48.2027C44.2247 48.183 44.4339 48.0992 44.6455 47.9415C44.7501 47.8601 44.8523 47.7616 44.9544 47.6433C45.0566 47.525 45.1515 47.3894 45.2634 47.244L45.2682 47.2366C45.3145 47.175 45.402 47.1652 45.4604 47.212C45.4896 47.2391 45.5091 47.2711 45.5139 47.3056Z" fill="#1B1B1B"/>
</g>
</g>
<g opacity="0.6">
<g opacity="0.6">
<path opacity="0.6" d="M48.3332 9.70506C48.6737 9.8899 48.9608 10.2078 49.0946 10.6342C49.1627 10.8461 49.1846 11.0802 49.1554 11.3144C49.1238 11.546 49.0435 11.7752 48.9146 11.9674C48.664 12.3593 48.2651 12.6205 47.8491 12.7142C47.4332 12.8078 46.9929 12.7364 46.6694 12.5072C46.6086 12.4628 46.594 12.379 46.6353 12.3149C46.6596 12.2804 46.6937 12.2607 46.7326 12.2558H46.7399C47.0829 12.2213 47.3675 12.135 47.6083 11.997C47.8467 11.8615 48.0364 11.6816 48.1605 11.4795C48.2821 11.2749 48.3381 11.0556 48.3356 10.7894C48.3332 10.6563 48.3137 10.5134 48.2797 10.3606C48.2432 10.2078 48.1921 10.0501 48.141 9.87265L48.1386 9.86279C48.1167 9.78886 48.1605 9.71246 48.2335 9.69028C48.2675 9.68289 48.304 9.69028 48.3332 9.70506Z" fill="#1B1B1B"/>
</g>
</g>
<path d="M53.8453 41.6644C52.5025 42.1598 51.1428 42.6059 49.7684 43.0002C37.3091 46.586 23.6263 46.1251 9.18703 43.1579C5.81073 39.2345 8.39404 35.035 8.39404 35.035C17.1097 36.2303 25.6356 36.9499 33.8453 36.8735C38.0608 36.1736 46.5405 34.6161 50.9822 33.7954C52.7239 33.4725 53.8453 33.2631 53.8453 33.2631C55.6721 36.7035 55.5286 39.4563 53.8453 41.6644Z" fill="#CA2C02"/>
<g opacity="0.55">
<path opacity="0.55" d="M8.39403 35.8138C17.1097 37.009 25.6356 37.7287 33.8453 37.6523C38.0632 36.9524 46.5405 35.3948 50.9822 34.5742C52.7239 34.2513 53.8453 34.0418 53.8453 34.0418C54.6407 35.5402 55.0615 36.908 55.1467 38.1575C55.2488 36.6714 54.8377 35.003 53.8453 33.1324C53.8453 33.1324 52.7239 33.3419 50.9822 33.6648C46.5405 34.4854 38.0632 36.0454 33.8453 36.7429C25.6332 36.8193 17.1072 36.0996 8.39403 34.9044C8.39403 34.9044 7.31156 36.6665 7.46481 38.9732C7.584 37.1273 8.39403 35.8138 8.39403 35.8138Z" fill="white"/>
</g>
<g opacity="0.55">
<path opacity="0.55" d="M54.0593 33.6845C50.6125 34.3252 40.0457 36.2796 35.171 37.0879C26.9589 37.1643 18.433 36.4447 9.71974 35.2519C9.71974 35.2519 7.13643 39.4513 10.5127 43.3748C12.0671 43.6927 13.6117 43.9835 15.1466 44.2423C13.1739 43.9317 11.1865 43.567 9.18459 43.1579C5.80828 39.2345 8.3916 35.035 8.3916 35.035C17.1072 36.2303 25.6331 36.9499 33.8428 36.8735C39.7124 35.9 53.8428 33.2631 53.8428 33.2631C53.9207 33.4035 53.9912 33.544 54.0593 33.6845Z" fill="white"/>
</g>
<path d="M30.7073 45.9945C24.0253 45.9945 16.8469 45.1984 9.097 43.6039C8.9997 43.5842 8.91213 43.5325 8.84645 43.4561C6.99046 41.2997 6.86153 39.057 7.07803 37.5586C7.31155 35.9419 7.98292 34.8403 8.00967 34.7935C8.10211 34.6407 8.27725 34.5593 8.45239 34.584C17.9562 35.8852 26.2486 36.4841 33.8063 36.4175C39.6249 35.4515 53.6215 32.8416 53.7626 32.8145C53.9547 32.7775 54.1469 32.8736 54.2393 33.0462C56.0759 36.5087 56.0637 39.5031 54.198 41.9453C54.1469 42.0143 54.0764 42.0661 53.9961 42.0957C46.9491 44.6957 39.2332 45.9945 30.7073 45.9945ZM9.42782 42.7414C26.7764 46.2853 41.2182 45.8072 53.568 41.2799C55.0907 39.2073 55.1004 36.7453 53.602 33.7658C51.4493 34.1675 39.2308 36.4373 33.9182 37.3171C33.8963 37.322 33.872 37.322 33.8501 37.322C26.3215 37.3935 18.0729 36.8045 8.63726 35.5229C8.17265 36.4422 6.8664 39.6485 9.42782 42.7414Z" fill="#1B1B1B"/>
<g opacity="0.3">
<path opacity="0.3" d="M25.8642 45.403C28.9729 44.6735 28.6032 36.9868 25.9712 36.8636H33.5411L35.9858 36.5062L43.1738 37.4353C43.1738 37.4353 45.8082 40.2227 47.7639 38.2511C47.7639 38.2511 45.7255 41.7457 42.4149 40.097L39.7999 39.8283C39.7999 39.8283 39.9313 44.4073 37.9537 45.2034L31.3008 45.403H25.8642Z" fill="#1B1B1B"/>
</g>
<g opacity="0.3">
<path opacity="0.3" d="M53.8452 41.6644C52.5025 42.1598 51.1427 42.6059 49.7683 43.0002C52.9719 41.0187 50.9821 33.7929 50.9821 33.7929C52.7238 33.4701 53.8452 33.2606 53.8452 33.2606C55.672 36.7035 55.5285 39.4563 53.8452 41.6644Z" fill="#1B1B1B"/>
</g>
<path d="M43.3004 38.7022L38.4573 37.8716C38.4573 37.8716 38.4573 37.8716 38.4549 37.8716L32.2666 36.8095L32.3955 32.9648L35.0591 33.5415L44.1664 35.5131C45.7475 33.2902 49.3062 33.9975 46.3264 36.9647C49.9411 39.1754 45.4872 42.4803 43.3004 38.7022Z" fill="#E07153"/>
<g opacity="0.55">
<path opacity="0.55" d="M47.4818 35.2839C46.8834 34.8625 45.5601 35.1287 44.6771 36.1662C44.5482 36.3166 44.356 36.3905 44.1663 36.3511L35.3607 34.5224L34.845 34.414C34.8669 34.1823 34.9179 33.9383 35.0079 33.682L35.0688 33.6943L44.1931 35.5895C45.3825 33.889 47.7323 33.8742 47.4818 35.2839Z" fill="white"/>
</g>
<path d="M32.4028 32.8785C33.4439 32.7898 34.429 32.9795 35.4166 33.1594C36.4018 33.3517 37.3748 33.6031 38.3575 33.8051L44.2539 35.03L43.7966 35.2124C44.1518 34.7071 44.6285 34.2882 45.1856 34.0122C45.4653 33.8766 45.7645 33.7731 46.0832 33.7238C46.4018 33.677 46.7448 33.6745 47.1048 33.8027C47.2824 33.8692 47.4673 33.9777 47.6181 34.1428C47.7689 34.3079 47.871 34.5272 47.9051 34.7367C47.9416 34.9462 47.9246 35.1458 47.8856 35.3208C47.8467 35.4958 47.7883 35.6535 47.7202 35.8014C47.584 36.0947 47.4137 36.346 47.2337 36.5802C47.0537 36.8143 46.8591 37.0287 46.6597 37.2308L46.5721 36.5161C46.8932 36.7108 47.207 36.94 47.4843 37.2308C47.7591 37.5216 48.0073 37.8863 48.1167 38.3324C48.1702 38.5542 48.1873 38.7908 48.1581 39.0225C48.1265 39.2541 48.0535 39.4809 47.9416 39.6805C47.7202 40.0822 47.3748 40.3779 46.9953 40.5652C46.2315 40.9472 45.3218 40.8905 44.5993 40.5307C44.2369 40.3533 43.9134 40.1068 43.6409 39.8283C43.3661 39.5499 43.1398 39.2344 42.9452 38.9091L43.2542 39.1235L37.4186 38.0958L35.9591 37.8395C35.4726 37.7533 34.9861 37.667 34.4972 37.6005C34.0082 37.5339 33.5193 37.455 33.0401 37.3318C32.7993 37.2727 32.5609 37.2012 32.3274 37.11C32.0914 37.0188 31.8603 36.9153 31.6341 36.7699C31.5587 36.7206 31.5368 36.6196 31.583 36.5432C31.6073 36.5062 31.6438 36.4816 31.6852 36.4717C31.9455 36.4126 32.1984 36.3929 32.4514 36.3879C32.702 36.383 32.9501 36.3978 33.1958 36.4249C33.6896 36.4742 34.1736 36.5654 34.6577 36.6689C35.1418 36.7724 35.6283 36.8586 36.1123 36.9424L37.5718 37.1987L43.4074 38.2264C43.5412 38.2511 43.6507 38.3324 43.7163 38.4408C44.0399 38.9855 44.468 39.4562 44.991 39.7101C45.5042 39.9664 46.1148 39.991 46.5988 39.747C46.8397 39.6287 47.0416 39.4464 47.1559 39.2344C47.2751 39.0225 47.3043 38.7883 47.2459 38.5517C47.1899 38.3127 47.0391 38.0761 46.8372 37.8617C46.6353 37.6497 46.3848 37.4624 46.1123 37.2998C45.8983 37.1716 45.8302 36.8907 45.9567 36.6738C45.9761 36.6418 46.0005 36.6122 46.0248 36.5851C46.3824 36.2203 46.7156 35.8211 46.9078 35.4145C47.0026 35.2148 47.0464 35.0103 47.0221 34.8944C47.0124 34.8353 46.9929 34.7983 46.9613 34.7614C46.9272 34.7244 46.8737 34.6874 46.8007 34.6603C46.6499 34.6036 46.4359 34.5938 46.2242 34.6258C46.0102 34.6579 45.7913 34.7318 45.5845 34.8328C45.171 35.0349 44.8061 35.3528 44.5385 35.7398C44.4315 35.8926 44.2515 35.9566 44.0812 35.9221L38.1848 34.6973C37.2021 34.4903 36.2096 34.3325 35.2293 34.1181C34.2515 33.8914 33.2712 33.6721 32.3493 33.1742C32.2739 33.1323 32.2447 33.0362 32.2836 32.9598C32.303 32.913 32.3517 32.8834 32.4028 32.8785Z" fill="#1B1B1B"/>
<g opacity="0.3">
<path opacity="0.3" d="M38.4719 37.8838L32.2739 36.8734L32.3736 33.0288L35.042 33.5833C34.2442 35.7545 35.801 37.0311 38.4719 37.8838Z" fill="#1B1B1B"/>
</g>
</g>
<defs>
<clipPath id="clip0_766_11077">
<rect width="64" height="64" fill="white"/>
</clipPath>
</defs>
</svg>
