<svg width="64" height="64" viewBox="0 0 64 64" fill="none" xmlns="http://www.w3.org/2000/svg">
<g clip-path="url(#clip0_801_23207)">
<path d="M36.1324 62.4835L32.4227 60.6804C31.8931 60.4246 31.6394 59.8077 31.8309 59.2484L33.0816 55.5795L33.7778 53.5331C33.7778 53.5331 37.2364 52.1814 38.9123 56.0259L37.6268 57.7162L36.5203 59.1707C37.5994 59.5669 38.1539 60.5575 37.6044 61.9218C37.3707 62.5011 36.6919 62.7544 36.1324 62.4835Z" fill="white"/>
<path d="M36.6073 62.6542C36.4358 62.6542 36.2642 62.6165 36.1051 62.5388L32.3953 60.7357C31.8384 60.4648 31.5698 59.8153 31.7712 59.2259L33.728 53.4855L33.7554 53.4755C33.7902 53.4629 37.2886 52.1463 38.9694 56.0009L38.9844 56.036L36.6222 59.1432C37.1494 59.3563 37.5323 59.7049 37.7312 60.1563C37.955 60.6654 37.9326 61.2849 37.6641 61.9469C37.5472 62.2404 37.3184 62.4636 37.025 62.5764C36.8883 62.6291 36.7466 62.6542 36.6073 62.6542ZM33.825 53.5833L31.8881 59.2686C31.7066 59.7977 31.9478 60.3795 32.45 60.6228L36.1598 62.4259C36.4134 62.5488 36.7118 62.5614 36.9778 62.4585C37.2389 62.3557 37.4428 62.1576 37.5472 61.8968C37.8008 61.2648 37.8257 60.6805 37.6168 60.204C37.4229 59.7626 37.0375 59.4241 36.5004 59.2284L36.4208 59.1984L38.8426 56.0159C37.2613 52.4498 34.1706 53.4579 33.825 53.5833Z" fill="#1B1B1B"/>
<g opacity="0.3">
<path opacity="0.3" d="M38.6537 56.8987L37.3682 58.5889C37.1768 58.3658 37.0326 58.0498 36.943 57.626C35.6302 58.0147 34.6456 57.8015 34.3298 56.357C33.7406 56.5 33.2284 56.5451 32.8206 56.4523L33.5168 54.406C33.5193 54.4085 36.9779 53.0568 38.6537 56.8987Z" fill="#1B1B1B"/>
</g>
<path d="M36.3737 59.5847C36.1598 59.5546 35.9783 59.4945 35.8092 59.4468C35.6426 59.3992 35.476 59.3515 35.2871 59.3239C35.0981 59.2938 34.8942 59.2763 34.6828 59.2612C34.4715 59.2436 34.2527 59.2361 34.0239 59.206H34.0214C33.9841 59.201 33.9593 59.1684 33.9643 59.1308C33.9667 59.1107 33.9767 59.0957 33.9916 59.0856C34.1806 58.9527 34.377 58.8424 34.5859 58.7496C34.7947 58.6568 35.016 58.5815 35.2547 58.5339C35.4934 58.4887 35.757 58.4737 36.0081 58.5188C36.2568 58.564 36.4806 58.6467 36.6695 58.7646C36.8784 58.895 36.9431 59.1709 36.8138 59.3816C36.7193 59.5371 36.5427 59.6123 36.3761 59.5898L36.3737 59.5847Z" fill="#1B1B1B"/>
<path d="M36.6073 63.0304C36.3785 63.0304 36.1523 62.9802 35.9459 62.8774L32.2337 61.0743C31.5077 60.7207 31.1571 59.873 31.4182 59.1056L33.365 53.3928C33.4421 53.1645 33.6907 53.0417 33.917 53.1194C34.1433 53.1972 34.2651 53.4479 34.188 53.6761L32.2412 59.389C32.1218 59.7376 32.281 60.1213 32.6116 60.2818L36.3238 62.0849C36.4879 62.1652 36.6744 62.1727 36.8435 62.105C37.0076 62.0398 37.1369 61.9169 37.2015 61.7539C37.5944 60.7834 37.3432 60.011 36.5153 59.6373C36.2965 59.5395 36.197 59.2787 36.2965 59.058C36.3959 58.8373 36.652 58.737 36.8708 58.8373C38.1289 59.4041 38.574 60.6806 38.0071 62.0849C37.8505 62.4737 37.5471 62.7721 37.1568 62.9251C36.9777 62.9953 36.7937 63.0304 36.6073 63.0304Z" fill="#1B1B1B"/>
<path d="M36.5203 59.6096C36.4283 59.6096 36.3338 59.5795 36.2567 59.5194C36.0653 59.3714 36.0305 59.0955 36.1772 58.9049L38.5691 55.7602C38.7158 55.5671 38.9893 55.532 39.1782 55.6799C39.3697 55.8279 39.4045 56.1037 39.2578 56.2943L36.8659 59.4391C36.7813 59.552 36.6521 59.6096 36.5203 59.6096Z" fill="#1B1B1B"/>
<path d="M18.4217 57.7239L15.0626 55.3189C14.5853 54.9753 14.4361 54.3258 14.717 53.8067L16.5594 50.4035L17.5863 48.505C17.5863 48.505 21.2189 47.7577 22.2334 51.8305L20.6843 53.2775L19.3516 54.5239C20.3487 55.0982 20.7316 56.1691 19.9608 57.4205C19.6376 57.9522 18.9265 58.0876 18.4217 57.7239Z" fill="white"/>
<path d="M19.0558 57.9896C18.8171 57.9896 18.5834 57.9144 18.387 57.774L15.0278 55.3689C14.5231 55.0078 14.3665 54.3232 14.6623 53.7765L17.5466 48.4473L17.5739 48.4423C17.6112 48.4348 21.2786 47.7301 22.2931 51.8153L22.303 51.8504L19.4561 54.5138C19.941 54.8122 20.2592 55.221 20.3786 55.7C20.5153 56.2392 20.3885 56.8461 20.0131 57.453C19.849 57.7213 19.5879 57.9044 19.2771 57.9671C19.2075 57.9821 19.1304 57.9896 19.0558 57.9896ZM17.6286 48.5602L14.7717 53.8366C14.5057 54.3282 14.6449 54.9426 15.0999 55.2686L18.4591 57.6736C18.6903 57.8392 18.9812 57.9019 19.2597 57.8442C19.5357 57.789 19.7669 57.626 19.9136 57.3878C20.2692 56.8084 20.391 56.2367 20.2642 55.7301C20.1448 55.2611 19.8216 54.8624 19.3268 54.579L19.2522 54.5363L22.1688 51.8078C21.214 48.0661 17.9668 48.505 17.6286 48.5602Z" fill="#1B1B1B"/>
<g opacity="0.3">
<path opacity="0.3" d="M21.5994 52.6128L20.1424 54.1551C19.9758 53.9143 19.8664 53.5833 19.8216 53.152C18.4765 53.3977 17.5192 53.0792 17.3576 51.6071C16.7584 51.6849 16.2412 51.6748 15.8484 51.5394L16.7584 49.5808C16.7584 49.5833 20.3388 48.6103 21.5994 52.6128Z" fill="#1B1B1B"/>
</g>
<path d="M19.1428 54.9073C18.9365 54.8421 18.7674 54.7518 18.6107 54.6766C18.4541 54.6014 18.2975 54.5286 18.1159 54.466C17.9369 54.4033 17.7355 54.3531 17.5316 54.303C17.3253 54.2478 17.1114 54.2052 16.8926 54.135H16.8901C16.8553 54.1249 16.8354 54.0873 16.8454 54.0522C16.8504 54.0346 16.8653 54.0196 16.8802 54.0121C17.0891 53.9143 17.3004 53.8391 17.5217 53.7814C17.743 53.7262 17.9717 53.6886 18.2179 53.6811C18.4591 53.6761 18.7226 53.7061 18.9638 53.7939C19.2025 53.8817 19.4089 53.9995 19.5755 54.1475C19.7595 54.3105 19.7769 54.5938 19.6153 54.7794C19.4959 54.9173 19.3094 54.9625 19.1478 54.9098L19.1428 54.9073Z" fill="#1B1B1B"/>
<path d="M19.0558 58.3658C18.74 58.3658 18.4292 58.268 18.1706 58.0824L14.8115 55.6774C14.1526 55.2059 13.9487 54.3131 14.3366 53.5984L17.2084 48.2969C17.3227 48.0837 17.5888 48.006 17.7977 48.1213C18.009 48.2367 18.0861 48.505 17.9717 48.7157L15.0999 54.0172C14.9234 54.3407 15.0178 54.747 15.3162 54.9602L18.6754 57.3652C18.8245 57.473 19.0061 57.5106 19.1851 57.473C19.3591 57.4379 19.5058 57.3351 19.5978 57.1871C20.1448 56.2968 20.028 55.4943 19.2746 54.9852C19.0757 54.8498 19.021 54.579 19.1552 54.3758C19.2895 54.1752 19.558 54.12 19.7594 54.2555C20.9057 55.0279 21.1319 56.3595 20.3388 57.6485C20.12 58.0047 19.7719 58.2479 19.3591 58.3332C19.2572 58.3557 19.1552 58.3658 19.0558 58.3658Z" fill="#1B1B1B"/>
<path d="M19.3566 54.9651C19.2398 54.9651 19.1229 54.9174 19.0384 54.8246C18.8743 54.6466 18.8842 54.3682 19.0608 54.2052L21.9425 51.5093C22.1191 51.3438 22.3951 51.3538 22.5567 51.5319C22.7208 51.7099 22.7108 51.9883 22.5343 52.1513L19.6525 54.8472C19.568 54.925 19.4611 54.9651 19.3566 54.9651Z" fill="#1B1B1B"/>
<path d="M63.3212 43.8203C62.901 44.7031 62.0805 45.3225 61.1332 45.5432L60.258 45.7463L50.2751 48.0585C48.5471 45.0416 52.7168 43.1532 52.7168 43.1532L55.6184 42.8623L57.1525 42.7093C57.5428 41.7037 58.7761 41.3451 59.3132 41.8592C60.984 40.021 64.5321 41.2874 63.3212 43.8203Z" fill="white"/>
<path d="M50.2427 48.1313L50.2203 48.0911C49.7827 47.3262 49.6808 46.5664 49.917 45.8291C50.464 44.1238 52.5998 43.1382 52.6918 43.0981L52.7117 43.0931L57.1102 42.6517C57.329 42.125 57.7989 41.7238 58.3509 41.6009C58.7288 41.5156 59.0744 41.5783 59.3106 41.7739C60.3127 40.7207 61.9064 40.7382 62.8264 41.3677C63.6469 41.9294 63.8533 42.8573 63.3784 43.8529C62.9557 44.7382 62.1426 45.3802 61.1481 45.6084L50.2427 48.1313ZM52.7341 43.2134C52.5824 43.2862 50.5486 44.2667 50.0364 45.8667C49.8151 46.5563 49.9071 47.2686 50.3074 47.9883L61.1232 45.483C62.0805 45.2623 62.8612 44.6454 63.269 43.7952C63.7141 42.8623 63.5251 41.9921 62.7593 41.468C61.8691 40.8586 60.3176 40.8511 59.3628 41.9018L59.3206 41.9495L59.2758 41.9069C59.0695 41.7087 58.7437 41.6435 58.3807 41.7238C57.9705 41.8166 57.4508 42.1301 57.2146 42.7344L57.1997 42.7695L52.7341 43.2134Z" fill="#1B1B1B"/>
<g opacity="0.3">
<g opacity="0.3">
<path opacity="0.3" d="M60.258 45.7463L50.2751 48.0585C48.5471 45.0416 52.7167 43.1532 52.7167 43.1532L55.6184 42.8623C53.9823 45.5607 56.2275 46.12 60.2505 45.7012L60.258 45.7463Z" fill="#1B1B1B"/>
</g>
<g opacity="0.3">
<path opacity="0.3" d="M50.2427 48.1313L50.2203 48.0912C49.7827 47.3263 49.6808 46.5664 49.917 45.8291C50.464 44.1237 52.5998 43.1381 52.6918 43.098L52.7117 43.093L55.7376 42.7896L55.673 42.8974C55.1335 43.7877 55.0066 44.4748 55.2951 44.9363C55.7774 45.7087 57.3961 45.9369 60.2455 45.641L60.3051 45.636L60.33 45.799L50.2427 48.1313ZM52.7341 43.2134C52.5824 43.2861 50.5486 44.2667 50.0364 45.8667C49.8151 46.5564 49.9071 47.2686 50.3074 47.9884L59.6761 45.8191C57.135 46.0297 55.6655 45.7614 55.1906 45.0015C54.8873 44.515 54.9917 43.8203 55.5039 42.9375L52.7341 43.2134Z" fill="#1B1B1B"/>
</g>
</g>
<path d="M11.6562 39.0504C3.24971 36.4573 0.656403 29.167 0.656403 29.167C-0.0124373 26.4811 0.924934 24.9087 2.13581 24.6353C2.72011 24.5049 3.31685 24.7607 3.69478 25.2297C4.70425 26.4786 5.92507 26.5263 7.29011 25.7488C8.63276 24.9513 9.71434 25.0767 10.5299 26.1601C11.3181 27.3162 12.3251 27.7852 13.4688 27.8203L13.8915 29.1068L12.5737 34.9777L11.6562 39.0504Z" fill="#E07153"/>
<path d="M43.7333 41.0843C43.7333 41.0843 43.5269 43.1131 45.5683 44.7558C46.1028 45.1871 46.906 45.0467 47.2565 44.4548C48.542 42.2906 47.3709 40.5827 45.8965 39.9808" fill="#C95C3F"/>
<path d="M46.2794 45.0718C46.0084 45.0718 45.7423 44.979 45.5285 44.8085C43.4847 43.1633 43.6687 41.1019 43.6712 41.0818L43.7955 41.0944C43.793 41.1144 43.6165 43.1107 45.6056 44.7107C45.8492 44.9063 46.165 44.9865 46.4758 44.9314C46.7816 44.8762 47.0452 44.6931 47.2018 44.4273C47.7364 43.5245 47.8781 42.6241 47.6121 41.8241C47.3535 41.0492 46.7046 40.3846 45.8716 40.0436L45.9189 39.9282C46.7841 40.2818 47.4629 40.974 47.7314 41.784C48.0099 42.6216 47.8632 43.5571 47.3088 44.4925C47.1322 44.7884 46.8363 44.9941 46.4982 45.0542C46.4236 45.0643 46.3515 45.0718 46.2794 45.0718Z" fill="#1B1B1B"/>
<path d="M51.916 43.6448C52.2169 44.9288 51.7668 45.7689 50.4739 46.1075C51.098 47.3238 50.4167 48.209 49.1437 48.9463C50.0065 50.5062 48.8926 50.9952 47.5822 51.3739C48.3356 52.6203 47.7936 53.3451 46.4236 53.7388C46.6996 56.6128 45.618 57.3626 43.701 56.8009C42.7462 58.0974 40.8988 57.8893 40.5059 56.2216C39.2453 57.0441 38.2309 57.0692 37.6516 55.6498C36.4307 56.2717 35.4237 56.2416 34.8544 54.8774C33.5366 55.4667 32.5395 55.4366 32.1666 54.1777C30.8363 54.9777 29.7249 55.0755 29.0262 53.8717C27.9571 54.4009 27.1217 54.0648 26.4478 53.1194C26.4354 53.0993 26.423 53.0818 26.4081 53.0642C26.3733 53.0843 26.3409 53.1043 26.3061 53.1244C25.4583 53.5959 24.675 53.6059 23.954 53.1645C23.6631 52.9865 23.3796 52.7357 23.1061 52.4097C21.7983 52.8887 20.7366 52.6153 19.9932 51.3739C18.8991 52.1714 18.0662 52.0235 17.6535 50.3382C16.4674 51.3338 15.5574 50.9476 14.8239 49.6862C13.2724 50.3984 12.5737 50.2053 11.982 48.5652C10.9253 48.8159 10.0998 48.3068 11.1068 46.2479C10.3061 45.3852 10.336 44.683 11.1242 44.1288C10.5598 42.7445 10.4106 41.5658 11.6563 41.0692C11.1242 40.2166 11.1565 39.4191 11.9994 38.6943C11.8452 37.799 11.7955 36.8962 12.0392 36.1664C12.2157 35.6398 12.5439 35.2009 13.1009 34.9225L14.0656 28.9589C12.9368 28.0385 13.6876 26.9276 14.0755 26.4812C14.1849 26.3533 14.267 26.2806 14.267 26.2806C13.5434 25.2423 13.6155 24.4649 14.8662 24.0737C13.6876 22.9376 14.1228 22.1577 15.54 21.5934C13.6976 20.3846 14.4858 18.8323 16.0298 19.1934C14.1153 18.0223 15.1869 16.49 16.5221 16.0787C14.8364 15.2887 15.5077 12.6756 17.0965 12.3044C15.6544 11.6774 15.8409 10.105 17.2432 9.38779C15.724 8.70817 16.0075 7.43669 17.4496 6.84485C15.7041 4.87369 17.5938 2.46366 19.4437 3.65739C20.6769 2.253 22.0221 1.65614 23.7228 3.68498C24.7944 2.29062 26.0351 1.92698 27.5568 3.33137C29.2227 2.03984 30.7245 2.2204 32.0696 3.79783C32.736 3.16585 33.3899 2.76711 34.0314 2.63169C35.098 2.40598 36.1199 2.91256 37.0971 4.27682C39.1459 3.24611 40.1404 3.81037 40.4189 5.45551C42.0873 4.5251 43.4523 4.56523 44.0317 7.10315C45.6752 6.21036 46.9035 6.27557 47.1894 8.5276C49.1512 7.68246 50.4267 8.23168 50.9737 10.2555C52.4009 9.56835 53.1916 10.0699 53.393 11.6724C55.1434 11.1984 55.7923 12.1439 55.668 14.09C57.6596 14.9652 57.3662 15.7903 55.7625 16.5878C57.4334 17.2348 57.6174 18.1401 56.312 19.3088C57.2543 19.8856 57.1226 20.6454 56.4587 21.4956L54.748 29.9294C55.9589 30.8122 55.7898 31.2611 54.2856 32.2291C55.1135 32.9865 55.0713 33.7965 53.8803 34.6718C54.7704 35.2435 55.0489 35.878 53.8505 36.678L51.916 43.6448Z" fill="white"/>
<path d="M42.152 57.7062C42.0351 57.7062 41.9182 57.6937 41.8014 57.6711C41.1574 57.5382 40.6626 57.0366 40.4687 56.3219C39.7203 56.7959 39.1136 56.9514 38.6163 56.7934C38.2011 56.663 37.8679 56.3068 37.6242 55.7376C36.8833 56.1037 36.289 56.194 35.8042 56.0159C35.3939 55.863 35.0657 55.5094 34.8245 54.9626C33.9717 55.3363 33.3302 55.4115 32.8628 55.1934C32.5296 55.0379 32.2834 54.7294 32.1343 54.273C31.2889 54.7695 30.6026 54.9401 30.0382 54.7921C29.6255 54.6843 29.2799 54.4034 29.0064 53.9545C27.9944 54.4335 27.1192 54.1652 26.4031 53.157L26.3956 53.147C26.3782 53.157 26.3608 53.167 26.3434 53.1771C25.4807 53.6586 24.6676 53.6711 23.9242 53.2197C23.6382 53.0442 23.3573 52.7984 23.0887 52.4849C21.7411 52.9639 20.6943 52.6203 19.9758 51.4667C19.4064 51.868 18.9389 51.9934 18.5486 51.8504C18.1284 51.6949 17.8225 51.236 17.6187 50.451C17.104 50.8598 16.6191 51.0279 16.1716 50.9476C15.6668 50.8573 15.2193 50.4711 14.7991 49.7664C13.9562 50.1476 13.4067 50.2304 12.9766 50.0473C12.5588 49.8692 12.2381 49.4354 11.9422 48.6379C11.4076 48.7532 10.9924 48.663 10.7686 48.3796C10.4603 47.9884 10.5498 47.2536 11.0322 46.2579C10.6145 45.799 10.423 45.3702 10.4628 44.9865C10.4976 44.663 10.694 44.367 11.0471 44.1062C10.6269 43.063 10.5349 42.3307 10.7587 41.799C10.8979 41.4655 11.1689 41.2097 11.5643 41.0366C11.0347 40.1438 11.159 39.3464 11.9323 38.6667C11.7532 37.6034 11.7682 36.7783 11.9795 36.1439C12.171 35.5721 12.529 35.1457 13.0437 34.8799L13.996 28.984C13.6379 28.6856 13.4415 28.3395 13.4092 27.9558C13.3545 27.3163 13.7722 26.732 14.0258 26.441C14.0929 26.3658 14.1477 26.3081 14.1825 26.273C13.7871 25.6912 13.6578 25.2197 13.7896 24.831C13.904 24.4925 14.2272 24.2266 14.7469 24.0461C14.2645 23.5595 14.0606 23.1106 14.1377 22.7144C14.2222 22.2755 14.6375 21.9044 15.4058 21.5809C14.4311 20.9037 14.2869 20.174 14.4808 19.71C14.6673 19.2661 15.1596 19.0329 15.7514 19.0856C15.0005 18.5414 14.8886 17.9821 14.9358 17.5934C15.0129 16.9639 15.5898 16.352 16.3605 16.0661C15.729 15.7075 15.4033 15.0329 15.4853 14.2379C15.5798 13.3251 16.1591 12.5476 16.9175 12.2893C16.3705 12.0034 16.0522 11.5495 16.0348 11.0204C16.0149 10.3934 16.4202 9.77899 17.1015 9.39028C16.4874 9.08683 16.1567 8.6605 16.1641 8.18401C16.1716 7.64733 16.6117 7.14075 17.3452 6.81974C16.4302 5.73385 16.5992 4.54514 17.1537 3.88809C17.6311 3.32382 18.5163 3.01285 19.4312 3.57461C20.1995 2.71944 20.8833 2.31567 21.5795 2.31567C21.587 2.31567 21.5944 2.31567 21.6019 2.31567C22.3006 2.3232 22.9943 2.74201 23.7203 3.58965C24.3145 2.8373 24.9162 2.44608 25.5577 2.3884C26.1918 2.33323 26.8656 2.62414 27.5593 3.2536C29.2003 2.0047 30.7195 2.15768 32.0746 3.71254C32.7434 3.09059 33.3973 2.7069 34.0189 2.57649C35.1229 2.34326 36.1647 2.88997 37.117 4.20157C38.1787 3.67492 38.9768 3.56207 39.5537 3.85799C40.0137 4.09373 40.322 4.60031 40.4662 5.36269C41.4384 4.83605 42.1967 4.70815 42.7885 4.97649C43.3902 5.24733 43.8129 5.91442 44.0764 7.01536C45.0511 6.49874 45.7821 6.38087 46.3092 6.65423C46.804 6.91003 47.1098 7.49686 47.2416 8.44482C48.2337 8.03354 49.0567 7.98087 49.6907 8.28934C50.2999 8.58526 50.745 9.21974 51.016 10.1752C51.6923 9.86175 52.2418 9.81661 52.6446 10.0398C53.0648 10.2705 53.3358 10.7972 53.4477 11.6022C54.1836 11.4141 54.753 11.4793 55.1359 11.7978C55.6059 12.1865 55.8023 12.9263 55.7352 14.0574C56.6626 14.4711 57.1176 14.8849 57.13 15.3263C57.14 15.7451 56.7421 16.1589 55.9191 16.5878C56.7024 16.9138 57.1425 17.31 57.2245 17.7664C57.3066 18.2204 57.0355 18.7395 56.4214 19.3063C56.777 19.5395 56.9833 19.8179 57.0405 20.1288C57.1126 20.5276 56.9435 20.9865 56.5233 21.5282L54.8226 29.9069C55.3871 30.3232 55.6258 30.6366 55.6158 30.9476C55.6034 31.3639 55.1409 31.7551 54.39 32.2417C54.758 32.5978 54.9345 32.9614 54.9146 33.3301C54.8923 33.7714 54.5815 34.2254 53.9922 34.6743C54.477 35.0003 54.7132 35.3188 54.7157 35.6473C54.7182 36.0009 54.4547 36.3545 53.9076 36.7232L51.9832 43.6473C52.284 44.9564 51.8091 45.7965 50.5659 46.1476C51.0756 47.2159 50.638 48.1388 49.2282 48.9714C49.5167 49.5131 49.5838 49.9545 49.4346 50.3206C49.1934 50.91 48.4127 51.1959 47.6767 51.4141C47.9801 51.9432 48.0596 52.4021 47.9129 52.7808C47.7414 53.2247 47.2764 53.5532 46.4907 53.789C46.625 55.2611 46.4112 56.2115 45.8343 56.6931C45.3694 57.0818 44.6607 57.1445 43.7258 56.8786C43.3181 57.4053 42.7388 57.7062 42.152 57.7062ZM40.5457 56.1213L40.5656 56.2065C40.7347 56.9288 41.1947 57.4153 41.8262 57.5482C42.4926 57.6861 43.1913 57.3852 43.6513 56.7658L43.6761 56.7307L43.7184 56.7432C44.6309 57.0115 45.3171 56.9589 45.7547 56.5927C46.2943 56.1413 46.4982 55.1833 46.3614 53.7463L46.3565 53.6937L46.4062 53.6786C47.172 53.4579 47.6394 53.1395 47.7961 52.7332C47.9353 52.3771 47.8433 51.9307 47.5275 51.4065L47.4853 51.3363L47.5648 51.3137C48.2934 51.1031 49.089 50.8297 49.3178 50.2705C49.457 49.9294 49.3824 49.5056 49.089 48.9739L49.0592 48.9188L49.1114 48.8887C50.5411 48.0611 50.9563 47.1833 50.4167 46.1326L50.3819 46.0623L50.4565 46.0423C51.6972 45.7188 52.1547 44.9363 51.8539 43.6548L51.8489 43.6398L51.8539 43.6247L53.7933 36.6379L53.8132 36.6254C54.3279 36.2818 54.5889 35.9508 54.5864 35.6423C54.5839 35.3439 54.3403 35.0429 53.8455 34.7244L53.7684 34.6743L53.843 34.6191C54.4472 34.1752 54.763 33.7363 54.7853 33.3175C54.8027 32.9714 54.6212 32.6203 54.2433 32.2743L54.1836 32.2191L54.2533 32.174C54.9867 31.7025 55.4791 31.3113 55.489 30.9376C55.4965 30.6667 55.2652 30.3783 54.7132 29.9771L54.6809 29.9545L54.6884 29.9144L56.4015 21.4655L56.4115 21.453C56.8143 20.9363 56.9783 20.5075 56.9112 20.1414C56.8565 19.8429 56.6501 19.5846 56.2797 19.3589L56.2076 19.3138L56.2697 19.2586C56.8938 18.7019 57.1698 18.2028 57.0952 17.779C57.0181 17.3426 56.5606 16.9614 55.7401 16.6429L55.6083 16.5928L55.7352 16.5301C56.5855 16.1088 57.0107 15.7 57.0007 15.3213C56.9908 14.9351 56.5333 14.5389 55.6407 14.1476L55.6009 14.1301L55.6034 14.0849C55.673 12.9865 55.4865 12.2467 55.0514 11.8856C54.6884 11.5871 54.1364 11.5345 53.4054 11.7326L53.3358 11.7501L53.3258 11.6799C53.2264 10.8774 52.9728 10.3608 52.5774 10.1426C52.197 9.93197 51.6649 9.98965 50.9936 10.3132L50.9265 10.3458L50.9066 10.273C50.648 9.31504 50.2178 8.68307 49.6286 8.39717C49.0119 8.09623 48.1964 8.15893 47.2068 8.58526L47.1322 8.61786L47.1223 8.5351C47.0029 7.59717 46.707 6.9978 46.2446 6.75956C45.7423 6.49874 45.0262 6.62915 44.0565 7.1583L43.9844 7.19843L43.967 7.11818C43.7159 6.01222 43.3106 5.34765 42.7313 5.08683C42.1644 4.83103 41.416 4.96896 40.4438 5.51065L40.3667 5.55329L40.3518 5.46551C40.22 4.69561 39.9316 4.19153 39.4915 3.96583C38.952 3.68997 38.1538 3.81285 37.1195 4.33448L37.0722 4.35705L37.0424 4.31442C36.1125 3.01536 35.103 2.47116 34.0413 2.69436C33.4272 2.82476 32.7782 3.21097 32.1094 3.84295L32.0622 3.88809L32.0199 3.83793C30.6747 2.26301 29.2252 2.11254 27.5916 3.379L27.5493 3.4116L27.512 3.37649C26.8308 2.74953 26.1768 2.45862 25.5677 2.50878C24.9436 2.56144 24.3568 2.96019 23.77 3.72006L23.7228 3.78025L23.673 3.72006C22.9545 2.86238 22.2757 2.44107 21.5994 2.43103C20.9181 2.42351 20.2518 2.82476 19.4909 3.69247L19.4561 3.7326L19.4114 3.70251C18.4839 3.10313 17.6684 3.46928 17.2507 3.96081C16.7012 4.61285 16.5644 5.74138 17.4968 6.79467L17.5565 6.85987L17.4745 6.89247C16.741 7.19341 16.2984 7.67492 16.2909 8.17648C16.2835 8.62789 16.6316 9.03416 17.2681 9.31755L17.3874 9.37021L17.2706 9.4304C16.5669 9.78902 16.1417 10.3934 16.1616 11.0053C16.179 11.5295 16.5271 11.9784 17.1189 12.2342L17.2929 12.3094L17.109 12.352C16.2313 12.5577 15.6892 13.4555 15.6097 14.2379C15.5276 15.0329 15.8782 15.695 16.547 16.0085L16.6937 16.0762L16.5396 16.1238C15.7464 16.3696 15.1372 16.974 15.0626 17.5934C14.993 18.1526 15.3386 18.6818 16.0622 19.1232L16.3954 19.3263L16.0149 19.2385C15.3585 19.0856 14.7891 19.2862 14.5977 19.7426C14.4236 20.1564 14.5753 20.8686 15.5724 21.5257L15.6743 21.5909L15.5624 21.636C14.7792 21.947 14.3416 22.3131 14.262 22.7219C14.1899 23.0931 14.4062 23.5269 14.9085 24.011L14.9856 24.0837L14.8836 24.1163C14.3441 24.2843 14.0159 24.5326 13.909 24.8536C13.7896 25.2047 13.9288 25.6661 14.3167 26.2279L14.349 26.273L14.3093 26.3106C14.3093 26.3106 14.2297 26.3834 14.1228 26.5062C13.8816 26.7821 13.4838 27.3363 13.536 27.9282C13.5658 28.2868 13.7573 28.6103 14.1054 28.8937L14.1327 28.9163L13.1581 34.9476L13.1307 34.9627C12.6309 35.2134 12.2853 35.6197 12.1013 36.1689C11.895 36.7909 11.8825 37.6084 12.064 38.6667L12.069 38.7018L12.0417 38.7244C11.2684 39.389 11.1615 40.1388 11.711 41.0191L11.7508 41.0818L11.6811 41.1094C11.2759 41.2699 11.0148 41.5081 10.878 41.8316C10.6667 42.3357 10.7637 43.0529 11.1864 44.0887L11.2062 44.1363L11.1665 44.1639C10.8159 44.4097 10.6244 44.6855 10.5921 44.9815C10.5548 45.3376 10.7463 45.7413 11.159 46.1877L11.1888 46.2203L11.1689 46.2605C10.5697 47.4843 10.6766 48.0385 10.8731 48.2868C11.072 48.5376 11.4623 48.6103 11.9745 48.4874L12.0292 48.4749L12.0491 48.5275C12.3376 49.3225 12.6409 49.7489 13.0337 49.9169C13.439 50.0899 13.9711 49.9971 14.809 49.6134L14.8612 49.5909L14.8886 49.6385C15.2914 50.3307 15.734 50.7244 16.2039 50.8072C16.634 50.8824 17.1139 50.7043 17.6261 50.2755L17.7032 50.2103L17.7281 50.3081C17.922 51.0981 18.2154 51.5721 18.6058 51.715C18.9613 51.8454 19.4213 51.71 19.9708 51.3087L20.0255 51.2686L20.0603 51.3263C20.7615 52.4949 21.756 52.826 23.1012 52.3344L23.141 52.3194L23.1683 52.352C23.4343 52.6705 23.7153 52.9188 24.0012 53.0918C24.7024 53.5206 25.4732 53.5056 26.2912 53.0492C26.326 53.0291 26.3584 53.009 26.3932 52.989L26.4429 52.9589L26.515 53.0642C27.2112 54.0448 28.0292 54.283 29.0138 53.7965L29.066 53.7714L29.0959 53.8216C29.3594 54.2755 29.6827 54.5463 30.0805 54.6492C30.6275 54.7896 31.3038 54.6115 32.1492 54.1025L32.2188 54.0623L32.2412 54.1401C32.3804 54.6065 32.6042 54.9075 32.9274 55.0579C33.3725 55.2636 33.9991 55.1808 34.8444 54.7996L34.9016 54.7746L34.9265 54.8347C35.1577 55.389 35.4635 55.7326 35.8589 55.878C36.3214 56.0485 36.9032 55.9507 37.6391 55.5771L37.6988 55.547L37.7237 55.6097C37.9574 56.1815 38.2732 56.5326 38.6635 56.6554C39.1384 56.8059 39.7352 56.6404 40.4836 56.1514L40.5457 56.1213Z" fill="#1B1B1B"/>
<g opacity="0.3">
<g opacity="0.3">
<path opacity="0.3" d="M26.3086 53.1243C25.4608 53.5959 24.6775 53.606 23.9565 53.1644C25.135 53.1494 25.9854 53.1318 26.3086 53.1243Z" fill="#1B1B1B"/>
</g>
<g opacity="0.3">
<path opacity="0.3" d="M25.0529 53.5482C24.6626 53.5482 24.2846 53.4378 23.9241 53.2196L23.7376 53.1068L23.9564 53.1043C25.0405 53.0917 25.8386 53.0742 26.2215 53.0642L26.5622 53.0566L26.3409 53.1795C25.8958 53.4253 25.4657 53.5482 25.0529 53.5482ZM24.1976 53.2247C24.772 53.498 25.3861 53.488 26.0351 53.1921C25.6447 53.2021 25.0107 53.2146 24.1976 53.2247Z" fill="#1B1B1B"/>
</g>
</g>
<path d="M42.152 58.0824C42.0103 58.0824 41.8685 58.0674 41.7268 58.0398C41.0853 57.9068 40.5682 57.483 40.2748 56.8686C39.5985 57.2222 39.0166 57.315 38.5044 57.1545C38.0768 57.0191 37.7237 56.7081 37.4502 56.2291C36.7615 56.51 36.1797 56.5551 35.6749 56.3695C35.2572 56.2141 34.9141 55.9031 34.648 55.4391C33.8499 55.7376 33.2109 55.7677 32.7086 55.5344C32.3904 55.3865 32.1392 55.1407 31.9528 54.7996C31.1795 55.1884 30.5206 55.3062 29.9438 55.1583C29.5236 55.0504 29.163 54.8022 28.8671 54.4184C28.1113 54.6843 27.159 54.6717 26.2887 53.6285C25.0903 54.1978 23.954 53.9545 22.9744 52.9188C21.6964 53.2974 20.6371 52.9739 19.8738 51.9783C19.3293 52.2893 18.8519 52.362 18.4193 52.204C17.9842 52.0435 17.6535 51.6623 17.4148 51.0454C16.9647 51.3037 16.5271 51.394 16.1069 51.3213C15.5649 51.226 15.0875 50.8724 14.6549 50.2404C14.0556 50.4837 13.4042 50.6416 12.8298 50.3984C12.3649 50.2028 12.0118 49.784 11.7035 49.0592C11.1689 49.1068 10.7388 48.9564 10.4752 48.6178C10.0923 48.1313 10.1321 47.3614 10.5921 46.3232C10.2141 45.8467 10.0451 45.3852 10.0923 44.9489C10.1296 44.5953 10.3012 44.2743 10.602 43.9934C10.2241 42.9727 10.1694 42.2454 10.4155 41.6561C10.5473 41.3426 10.7636 41.0868 11.062 40.8862C10.6841 40.0235 10.8432 39.221 11.5295 38.5338C11.3728 37.5532 11.1615 35.404 12.9044 34.5313C13.1208 34.4235 13.3818 34.5112 13.4887 34.7294C13.5957 34.9476 13.5086 35.2109 13.2923 35.3188C12.3922 35.7702 12.1162 36.8184 12.427 38.6216C12.4544 38.7746 12.3972 38.93 12.2803 39.0304C11.6488 39.5746 11.5717 40.1137 12.0218 40.8385C12.0914 40.9489 12.1063 41.0843 12.0665 41.2097C12.0267 41.3326 11.9323 41.4329 11.8129 41.4805C11.5071 41.6034 11.3106 41.7739 11.2162 41.9996C11.0471 42.4009 11.149 43.0429 11.5245 43.9658C11.6016 44.1564 11.5394 44.3746 11.3703 44.4924C11.1142 44.673 10.975 44.8561 10.9551 45.0416C10.9302 45.2799 11.0918 45.5959 11.4225 45.952C11.5469 46.0849 11.5742 46.283 11.4946 46.446C10.9029 47.6523 11.1093 48.0109 11.1565 48.0711C11.2559 48.1965 11.5319 48.2241 11.88 48.1413C12.0939 48.0912 12.3127 48.209 12.3873 48.4172C12.6334 49.0943 12.8796 49.468 13.1655 49.5884C13.4614 49.7137 13.9164 49.621 14.6424 49.2899C14.8463 49.1971 15.085 49.2749 15.1969 49.468C15.5425 50.0598 15.8981 50.3934 16.2561 50.4561C16.5744 50.5112 16.9498 50.3608 17.375 50.0047C17.4894 49.9068 17.646 49.8793 17.7902 49.9244C17.9319 49.9721 18.0413 50.0899 18.0762 50.2354C18.2328 50.8774 18.4615 51.2837 18.7201 51.379C19.0086 51.4868 19.4337 51.2435 19.7396 51.0228C19.839 50.9501 19.9608 50.925 20.0802 50.9476C20.1995 50.9727 20.304 51.0454 20.3661 51.1507C20.9703 52.1564 21.7933 52.4272 22.9594 51.9984C23.131 51.9357 23.3225 51.9884 23.4393 52.1263C24.2772 53.1269 25.1525 53.305 26.1893 52.6855C26.3857 52.5677 26.6393 52.6228 26.7686 52.8134C27.3678 53.6862 28.0044 53.8893 28.8348 53.478C29.0387 53.3777 29.2873 53.4504 29.4017 53.6511C29.6131 54.0147 29.8592 54.2279 30.1576 54.3056C30.5952 54.4184 31.1969 54.2504 31.9428 53.8015C32.0572 53.7313 32.1989 53.7213 32.3232 53.7689C32.4476 53.8191 32.5445 53.9219 32.5818 54.0523C32.6887 54.4109 32.8454 54.6341 33.0667 54.7369C33.4048 54.8924 33.9444 54.8072 34.6754 54.4786C34.7823 54.431 34.9041 54.4285 35.0135 54.4711C35.1229 54.5137 35.21 54.6015 35.2547 54.7094C35.4437 55.1633 35.6774 55.4366 35.9708 55.547C36.3263 55.6774 36.8236 55.5821 37.4552 55.2611C37.5646 55.2059 37.6889 55.1984 37.8033 55.241C37.9176 55.2836 38.0072 55.3714 38.0544 55.4868C38.2434 55.9482 38.4796 56.2291 38.7605 56.3169C39.1186 56.4297 39.6258 56.2742 40.2673 55.8554C40.3866 55.7777 40.5358 55.7626 40.6651 55.8153C40.7969 55.868 40.8939 55.9833 40.9262 56.1213C41.0605 56.6931 41.416 57.0793 41.8984 57.1796C42.423 57.2874 42.9775 57.0442 43.348 56.5401C43.4574 56.3921 43.6438 56.3294 43.8179 56.3796C44.6061 56.6103 45.1755 56.5827 45.5136 56.3018C45.9462 55.9407 46.1103 55.068 45.986 53.7815C45.9661 53.5708 46.0979 53.3752 46.2993 53.3175C46.9383 53.1344 47.3337 52.8837 47.4455 52.5953C47.54 52.3545 47.458 52.0185 47.2068 51.6021C47.1372 51.4843 47.1248 51.3413 47.172 51.2134C47.2218 51.0855 47.3262 50.9877 47.458 50.9501C48.1169 50.7595 48.8106 50.5112 48.9697 50.125C49.0617 49.8993 48.9921 49.5733 48.7608 49.1545C48.644 48.9438 48.7186 48.6805 48.925 48.5601C50.4988 47.6498 50.3944 46.9075 50.0861 46.3031C50.0264 46.1852 50.0215 46.0448 50.0762 45.9219C50.1309 45.799 50.2353 45.7087 50.3646 45.6761C51.4089 45.4028 51.747 44.8235 51.4934 43.7401C51.476 43.6674 51.4785 43.5921 51.4984 43.5194L53.4328 36.5576C53.4602 36.4573 53.5248 36.367 53.6118 36.3094C54.1762 35.9332 54.2185 35.705 54.216 35.6423C54.216 35.5695 54.1588 35.3664 53.6466 35.0379C53.5248 34.9601 53.4502 34.8272 53.4452 34.6818C53.4403 34.5363 53.5074 34.3984 53.6243 34.3131C54.1265 33.9445 54.4 33.5909 54.4149 33.2949C54.4274 33.0667 54.2856 32.8159 53.9947 32.5501C53.8953 32.4573 53.8431 32.3244 53.853 32.189C53.8654 32.0536 53.9375 31.9307 54.0519 31.8554C54.9694 31.2661 55.1111 31.0203 55.1161 30.9275C55.1186 30.8824 55.0763 30.7069 54.4945 30.283C54.3553 30.1827 54.2881 30.0072 54.3229 29.8391L56.0336 21.4053C56.046 21.3376 56.0758 21.2749 56.1181 21.2222C56.4413 20.8059 56.5905 20.4573 56.5458 20.2116C56.5135 20.026 56.3593 19.8479 56.0883 19.6849C55.9689 19.6122 55.8919 19.4868 55.8794 19.3489C55.867 19.2109 55.9217 19.073 56.0236 18.9802C56.5284 18.5288 56.7795 18.1275 56.7298 17.8492C56.6776 17.5608 56.2797 17.2573 55.6084 16.999C55.4468 16.9363 55.3374 16.7833 55.3299 16.6103C55.3225 16.4373 55.417 16.2742 55.5711 16.1965C56.6079 15.6824 56.6303 15.3689 56.6303 15.3338C56.6303 15.2987 56.5905 14.9777 55.494 14.4962C55.325 14.4235 55.2205 14.2504 55.233 14.0648C55.2926 13.1069 55.1509 12.4548 54.8152 12.179C54.5517 11.9608 54.1091 11.9332 53.5024 12.0987C53.3806 12.1313 53.2513 12.1112 53.1469 12.0385C53.0424 11.9658 52.9728 11.8554 52.9579 11.73C52.9007 11.2661 52.7565 10.6717 52.4009 10.4761C52.0653 10.2906 51.5406 10.4711 51.1577 10.6567C51.0409 10.7119 50.9066 10.7144 50.7898 10.6592C50.6729 10.604 50.5859 10.5012 50.5511 10.3758C50.3223 9.52817 49.9568 8.97644 49.4695 8.7382C48.9548 8.48742 48.2437 8.55262 47.356 8.93381C47.2292 8.98647 47.0875 8.97895 46.9682 8.91124C46.8488 8.84353 46.7692 8.72315 46.7518 8.58522C46.6499 7.7777 46.4211 7.27613 46.073 7.09557C45.6951 6.89995 45.076 7.03287 44.2306 7.4918C44.1113 7.55701 43.9671 7.56202 43.8452 7.50434C43.7209 7.44666 43.6314 7.33632 43.6016 7.2034C43.3803 6.23287 43.0372 5.63851 42.5772 5.43036C42.1246 5.22723 41.4856 5.36014 40.6229 5.84165C40.4985 5.90936 40.3518 5.91437 40.225 5.85168C40.0982 5.78898 40.0087 5.67111 39.9838 5.53068C39.8744 4.88365 39.6507 4.47237 39.3225 4.30184C38.8998 4.08616 38.1961 4.21406 37.2861 4.67049C37.0946 4.76579 36.8634 4.70811 36.7391 4.53506C36.0727 3.60466 35.3815 3.09807 34.6804 3.03036C33.9767 2.96265 33.1985 3.32879 32.363 4.12127C32.276 4.20403 32.1591 4.24666 32.0423 4.23914C31.9229 4.23162 31.8135 4.17895 31.7365 4.08616C30.533 2.67676 29.2898 2.54635 27.8229 3.6824C27.6563 3.81281 27.4201 3.80278 27.2634 3.65732C26.6617 3.10309 26.1047 2.84478 25.6025 2.88742C25.0953 2.93005 24.5781 3.29118 24.0659 3.95575C23.9863 4.06108 23.862 4.12378 23.7302 4.12629C23.6009 4.12629 23.4741 4.07111 23.3896 3.9708C22.7531 3.21093 22.1489 2.82221 21.5969 2.81469C21.5919 2.81469 21.587 2.81469 21.582 2.81469C21.0275 2.81469 20.4507 3.17582 19.7719 3.95074C19.6302 4.11124 19.3915 4.14635 19.2124 4.02848C18.4889 3.55952 17.8723 3.81782 17.5366 4.21657C17.0915 4.74321 16.9946 5.67111 17.7778 6.55387C17.8723 6.6592 17.9096 6.80716 17.8772 6.9451C17.8449 7.08303 17.7479 7.19839 17.6187 7.25356C17.0468 7.4893 16.6738 7.85795 16.6688 8.19651C16.6639 8.4824 16.9399 8.77331 17.4247 8.98898C17.5789 9.05669 17.6783 9.20967 17.6833 9.3777C17.6883 9.54823 17.5938 9.70372 17.4446 9.78146C16.8727 10.0749 16.5246 10.5438 16.5396 11.0078C16.552 11.3865 16.8106 11.7025 17.273 11.9031C17.4446 11.9783 17.5515 12.1564 17.5341 12.3445C17.5167 12.5326 17.3824 12.6905 17.1985 12.7332C16.4898 12.8987 16.0522 13.641 15.9851 14.2906C15.9528 14.5915 15.9627 15.3313 16.7086 15.6824C16.8727 15.7601 16.9722 15.9282 16.9598 16.1112C16.9473 16.2918 16.8255 16.4473 16.6539 16.5C16.0075 16.7006 15.4953 17.1871 15.4356 17.6586C15.3734 18.1652 15.8483 18.5689 16.2586 18.8197C16.4426 18.9326 16.5172 19.1608 16.4351 19.3614C16.3556 19.562 16.1417 19.6724 15.9329 19.6247C15.458 19.5144 15.0601 19.6272 14.9408 19.9106C14.814 20.2116 15.0228 20.7357 15.7762 21.2297C15.913 21.32 15.9876 21.478 15.9727 21.641C15.9553 21.804 15.8508 21.9445 15.6992 22.0047C15.0601 22.2579 14.6797 22.5463 14.6275 22.8122C14.5828 23.0429 14.7742 23.379 15.1671 23.7576C15.2789 23.8655 15.3262 24.0235 15.2889 24.1764C15.2541 24.3269 15.1422 24.4498 14.9955 24.4949C14.7071 24.5852 14.3465 24.7457 14.262 24.994C14.1849 25.2197 14.3142 25.5858 14.6225 26.0297C14.7493 26.2103 14.722 26.4611 14.5579 26.609C14.3714 26.7796 13.889 27.3413 13.904 27.868C13.9114 28.1413 14.0532 28.3871 14.3391 28.6203C14.5256 28.7733 14.5554 29.0492 14.4037 29.2373C14.2521 29.4253 13.9786 29.4554 13.7921 29.3025C13.1829 28.8059 13.0437 28.2592 13.0337 27.888C13.0163 27.1858 13.4316 26.5689 13.715 26.2304C13.3793 25.6536 13.2873 25.1545 13.4365 24.7106C13.5459 24.3871 13.7796 24.1188 14.1377 23.9131C13.812 23.4742 13.6926 23.0554 13.7747 22.6442C13.8617 22.2028 14.1725 21.8266 14.722 21.5031C14.0009 20.8034 13.9288 20.0711 14.1427 19.5645C14.2918 19.2109 14.5753 18.9551 14.9408 18.8172C14.5629 18.3156 14.5355 17.8416 14.5728 17.5507C14.6549 16.8811 15.1173 16.3445 15.6718 15.9959C15.2466 15.542 15.0477 14.9125 15.1198 14.2003C15.2044 13.3902 15.6221 12.673 16.2138 12.2442C15.8757 11.9156 15.6842 11.4993 15.6693 11.0354C15.6519 10.4385 15.9354 9.85669 16.4401 9.4103C16.0199 9.06923 15.7911 8.6429 15.7986 8.18146C15.8086 7.60967 16.1691 7.0755 16.7907 6.6918C16.0572 5.54572 16.2835 4.34447 16.8752 3.64729C17.4073 3.01532 18.3546 2.64416 19.3591 3.11061C20.1225 2.31312 20.8361 1.93945 21.5795 1.93945C21.5894 1.93945 21.5969 1.93945 21.6068 1.93945C22.3204 1.94698 23.0117 2.30309 23.7128 3.02535C24.2847 2.40842 24.8939 2.06986 25.5279 2.01469C26.1943 1.95701 26.883 2.21281 27.5792 2.77707C29.1904 1.67111 30.7419 1.81406 32.0995 3.18836C33.012 2.42096 33.9071 2.07488 34.7674 2.15763C35.6426 2.2429 36.4681 2.77206 37.2289 3.73256C38.2707 3.2661 39.0863 3.19839 39.7203 3.5219C40.1803 3.75763 40.5135 4.194 40.7124 4.81845C41.5975 4.4172 42.331 4.35701 42.9377 4.63036C43.5618 4.91124 44.0143 5.51814 44.3127 6.47613C45.2053 6.07738 45.9164 6.02472 46.4758 6.31563C46.9955 6.58397 47.3411 7.11563 47.5251 7.93318C48.4326 7.63224 49.2134 7.63726 49.8499 7.94823C50.4665 8.24917 50.934 8.82848 51.2423 9.67362C51.8639 9.46046 52.3935 9.47049 52.8187 9.70622C53.2687 9.9545 53.5795 10.441 53.7411 11.1532C54.4174 11.0504 54.9619 11.1658 55.3672 11.5018C55.8968 11.9382 56.1405 12.6981 56.1156 13.8166C56.7646 14.13 57.4832 14.604 57.5006 15.3112C57.513 15.8304 57.14 16.2391 56.695 16.5526C57.2146 16.8736 57.508 17.2498 57.5876 17.6912C57.6796 18.1978 57.4782 18.7169 56.9759 19.2686C57.2072 19.4993 57.3514 19.7626 57.4036 20.0536C57.4931 20.5451 57.3166 21.0793 56.869 21.6811L55.233 29.7438C55.6432 30.0724 56.0013 30.4661 55.9863 30.9526C55.9714 31.4492 55.6009 31.8504 54.9495 32.3094C55.1907 32.6404 55.3026 32.989 55.2852 33.3426C55.2603 33.7965 55.0316 34.2304 54.584 34.6542C54.9197 34.9627 55.0838 35.2887 55.0887 35.6348C55.0937 36.0962 54.8128 36.5275 54.2309 36.9464L52.3686 43.6498C52.6371 44.9539 52.1772 45.9018 51.0558 46.3683C51.3666 47.389 50.9141 48.3069 49.7107 49.1043C49.9195 49.6159 49.9419 50.0598 49.7803 50.4561C49.5291 51.0705 48.8852 51.4015 48.2039 51.6322C48.3904 52.1012 48.4103 52.5275 48.2611 52.9087C48.0696 53.4053 47.6171 53.7789 46.8836 54.0448C46.9706 55.4818 46.7046 56.4423 46.0706 56.9714C45.5484 57.4078 44.805 57.5156 43.8552 57.2899C43.3927 57.8015 42.7786 58.0824 42.152 58.0824Z" fill="#1B1B1B"/>
<g opacity="0.3">
<path opacity="0.3" d="M50.9537 44.7607L46.5155 42.4736L46.513 42.4711C46.3091 42.0999 46.0232 41.7839 45.69 41.5306L46.513 42.4711C46.9606 43.2836 47.0153 44.357 46.2917 45.5733C45.9411 46.1676 45.138 46.3055 44.6035 45.8742C42.5621 44.2316 42.771 42.2027 42.771 42.2027L42.7735 42.2002C42.1668 42.1801 41.5502 41.9093 40.9982 41.3576C40.9485 41.3074 40.8987 41.2548 40.849 41.1996C39.3994 42.9551 37.6664 43.3964 35.7395 42.9576C35.7146 42.9526 35.6897 42.9475 35.6674 42.9425C35.7842 41.4955 36.2392 40.4548 36.9429 39.7074C34.6678 38.0171 32.353 36.9237 30.0083 36.2416C29.884 36.52 29.6428 36.8209 29.2127 37.1243C29.2127 37.1243 31.2267 37.5507 29.7821 39.5494C29.7821 39.5494 31.1372 40.2065 29.7249 41.5557C29.7249 41.5557 31.4703 42.3707 29.3594 43.6497C29.3594 43.6497 30.8189 44.856 28.785 45.7664C29.787 46.3231 29.8268 46.9501 28.432 47.6849C29.7821 48.5877 29.5061 49.3977 27.8551 50.125C28.0515 50.4761 28.1933 50.7971 28.2803 51.088L28.2977 51.078C28.3101 51.098 28.3226 51.1156 28.3375 51.1331C29.0113 52.0786 29.8442 52.4146 30.9159 51.8855C31.6145 53.0892 32.7235 52.9914 34.0562 52.1914C34.4291 53.4529 35.4287 53.483 36.744 52.8911C37.3134 54.2554 38.3203 54.2855 39.5412 53.6635C40.118 55.0805 41.1349 55.0579 42.3955 54.2353C42.7884 55.903 44.6358 56.1112 45.5906 54.8146C45.9014 54.9049 46.1923 54.9626 46.4558 54.9802C46.3265 56.8209 45.3071 57.2673 43.7059 56.7983C42.7511 58.0949 40.9037 57.8867 40.5109 56.219C39.2503 57.0416 38.2358 57.0667 37.6565 55.6472C36.4357 56.2692 35.4287 56.2391 34.8593 54.8748C33.5415 55.4642 32.5445 55.4341 32.1715 54.1751C30.8413 54.9751 29.7299 55.0729 29.0312 53.8692C27.962 54.3983 27.1266 54.0623 26.4528 53.1168C26.4404 53.0968 26.4279 53.0792 26.413 53.0617C26.3782 53.0817 26.3459 53.1018 26.3111 53.1218C25.9878 53.1294 25.1375 53.1494 23.9589 53.162C23.668 52.9839 23.3846 52.7331 23.1111 52.4071C21.8032 52.8861 20.7415 52.6128 19.9981 51.3714C18.9041 52.1689 18.0712 52.0209 17.6584 50.3356C16.4724 51.3312 15.5624 50.945 14.8289 49.6836C13.2774 50.3958 12.5787 50.2027 11.9869 48.5626C10.9302 48.8134 10.1047 48.3043 11.1117 46.2454C10.3111 45.3827 10.341 44.6805 11.1291 44.1262C10.5647 42.7419 10.4155 41.5632 11.6612 41.0667C11.1291 40.214 11.1615 39.4165 12.0044 38.6917C11.8502 37.7964 11.8005 36.8936 12.0441 36.1638C12.524 35.6021 12.8348 35.2435 12.8348 35.2435C12.8348 35.2435 13.1754 35.1707 13.7697 35.0579C16.6116 34.5212 25.2369 33.1168 29.7373 34.8021C30.6747 32.8184 31.2018 30.2002 31.4604 28.6052C35.9483 30.2704 39.842 33.0466 41.7615 36.1889C43.2732 35.1181 45.4165 36.0585 45.8417 37.8917C48.7781 36.7607 51.088 36.8033 52.8956 37.7939C54.0841 40.0059 53.5843 43.5369 50.9537 44.7607Z" fill="#1B1B1B"/>
</g>
<path d="M42.7165 35.0755L41.4658 38.0222L37.9028 38.5864C35.2125 36.5877 32.465 35.4215 29.6827 34.7896C24.0684 33.5131 18.3074 34.4084 12.5688 34.9751C11.8775 35.0429 11.1888 35.1081 10.4976 35.1607L7.88934 30.762C11.0695 31.2309 13.7125 29.2548 13.7125 29.2548C13.7697 29.2046 13.8269 29.1545 13.8866 29.1068C17.9891 25.636 23.9615 25.2197 29.5062 26.594L29.7573 26.6592H29.7548C35.3269 28.0961 40.4265 31.3288 42.7165 35.0755Z" fill="#E07153"/>
<g opacity="0.55">
<g opacity="0.55">
<path opacity="0.55" d="M42.7163 35.0755L42.2986 36.061C39.9688 32.3745 34.9264 29.2021 29.4265 27.7827C29.4265 27.7827 29.4265 27.7827 29.429 27.7827L29.1779 27.7175C27.2708 27.246 25.3165 26.9852 23.402 26.9877C23.402 26.9877 23.397 26.9877 23.3945 26.9877C21.9748 26.925 17.9841 27.0078 13.4415 29.4429C13.6205 29.3275 13.7175 29.2573 13.7175 29.2573C13.7747 29.2072 13.8319 29.157 13.8915 29.1093C17.9941 25.6385 23.9664 25.2222 29.5111 26.5965L29.7622 26.6617C29.7622 26.6617 29.7622 26.6617 29.7597 26.6617C35.3267 28.0962 40.4263 31.3288 42.7163 35.0755Z" fill="white"/>
</g>
<g opacity="0.55">
<path opacity="0.55" d="M13.439 29.4429C13.2525 29.5607 12.979 29.7263 12.6284 29.8968C12.9019 29.7363 13.1705 29.5858 13.439 29.4429Z" fill="white"/>
</g>
</g>
<g opacity="0.55">
<g opacity="0.55">
<g opacity="0.55">
<path opacity="0.55" d="M13.439 29.4429C13.2525 29.5607 12.979 29.7263 12.6284 29.8968C12.9019 29.7363 13.1705 29.5858 13.439 29.4429Z" fill="white"/>
</g>
<g opacity="0.55">
<path opacity="0.55" d="M12.6583 29.9545L12.5986 29.8441C12.8746 29.6811 13.1481 29.5281 13.4091 29.3877L13.4713 29.4955C13.2177 29.6585 12.9442 29.8115 12.6583 29.9545Z" fill="#1B1B1B"/>
</g>
</g>
</g>
<path d="M43.7333 41.0843C43.7333 41.0843 43.5269 43.1131 45.5683 44.7558C46.1028 45.1871 46.906 45.0467 47.2565 44.4548C48.542 42.2906 47.3709 40.5827 45.8965 39.9808" fill="#E07153"/>
<g opacity="0.55">
<path opacity="0.55" d="M47.2541 44.4574C47.0651 44.7759 46.7493 44.9615 46.4112 45.0016C46.4534 44.9539 46.4907 44.9013 46.5256 44.8411C47.811 42.6743 46.6399 40.969 45.1655 40.3671L43.7284 41.0994C43.7284 41.0919 43.7284 41.0868 43.7284 41.0868L45.8915 39.9834C47.3684 40.5828 48.5395 42.2906 47.2541 44.4574Z" fill="white"/>
</g>
<path d="M47.4778 41.3577L51.916 43.6423C54.5466 42.4185 55.0439 38.8875 53.8504 36.6806C52.0354 35.6849 49.7156 35.6448 46.7643 36.7909L46.0706 39.7476" fill="#E07153"/>
<g opacity="0.55">
<path opacity="0.55" d="M53.4826 42.3659C54.1564 40.9439 54.1489 39.1809 53.5497 37.8091C53.4503 37.5809 53.2663 37.3953 53.0425 37.29C51.3468 36.5 49.2333 36.495 46.6077 37.4555L46.7643 36.7909C49.7157 35.6448 52.038 35.6849 53.8531 36.6806C54.7482 38.3433 54.6885 40.7533 53.4826 42.3659Z" fill="white"/>
</g>
<path d="M41.9605 40.2417C41.9108 40.1915 41.8611 40.1388 41.8113 40.0837C40.3618 41.8392 38.6287 42.2805 36.7018 41.8417C36.6769 41.8366 36.652 41.8316 36.6297 41.8266C36.7465 40.3796 37.2015 39.3389 37.9052 38.5915C38.7779 37.6586 40.0286 37.1796 41.4757 36.9313C41.7517 36.0461 42.1967 35.4442 42.7164 35.0781C44.4743 33.8342 47.0875 35.3063 46.8588 37.7464C46.3068 40.8034 43.7781 42.0649 41.9605 40.2417Z" fill="#E07153"/>
<g opacity="0.55">
<path opacity="0.55" d="M41.9954 40.1337L41.9606 40.2416C41.9108 40.1914 41.8611 40.1387 41.8114 40.0836C40.3618 41.8391 38.6288 42.2805 36.7018 41.8416C40.603 40.6152 42.0923 39.0353 41.4185 37.1418L41.7542 36.5249C43.2386 38.0171 41.9954 40.1337 41.9954 40.1337Z" fill="white"/>
</g>
<g opacity="0.55">
<path opacity="0.55" d="M43.4026 41.0491C44.5389 40.7457 45.5335 39.572 45.8567 37.7839C46.0109 36.1212 44.8473 34.9075 43.5319 34.6993C45.1779 34.283 47.0527 35.6623 46.8587 37.7438C46.4435 40.0435 44.9119 41.33 43.4026 41.0491Z" fill="white"/>
</g>
<path d="M38.0221 42.436C37.5447 42.436 37.0474 42.3733 36.5302 42.2504C36.3213 42.2003 36.1796 42.0047 36.197 41.789C36.3139 40.3244 36.7813 39.1457 37.5894 38.2855C38.3975 37.4203 39.5636 36.8485 41.1475 36.5401C41.4409 35.7376 41.8835 35.1231 42.4678 34.7144C43.4176 34.0423 44.6583 34.0046 45.7051 34.6191C46.8066 35.2661 47.4157 36.4774 47.2939 37.784C47.2939 37.7965 47.2914 37.809 47.2889 37.8216C46.9582 39.6573 45.9139 41.0366 44.5638 41.4203C43.6165 41.6912 42.6443 41.4354 41.8362 40.7206C40.7571 41.8617 39.4791 42.436 38.0221 42.436ZM37.1046 41.4755C38.86 41.7865 40.2946 41.2373 41.4782 39.8028C41.5602 39.705 41.6771 39.6473 41.8039 39.6448C41.8064 39.6448 41.8089 39.6448 41.8113 39.6448C41.9357 39.6448 42.0525 39.6974 42.1346 39.7902C42.7811 40.515 43.5593 40.7959 44.3226 40.5777C45.347 40.2843 46.1526 39.1783 46.4261 37.6836C46.5107 36.7156 46.078 35.8554 45.265 35.3789C44.5141 34.9401 43.6339 34.9601 42.965 35.4341C42.4827 35.7752 42.1197 36.3219 41.8884 37.0592C41.8387 37.2172 41.7069 37.3325 41.5453 37.3601C40.0261 37.621 38.9371 38.12 38.2185 38.8899C37.6143 39.5369 37.2463 40.3846 37.1046 41.4755Z" fill="#1B1B1B"/>
<path d="M52.483 35.7626C52.5377 35.7977 52.5675 35.8228 52.6073 35.8554C52.6446 35.8855 52.6819 35.9156 52.7167 35.9456C52.7888 36.0083 52.8559 36.071 52.9206 36.1413C53.0498 36.2767 53.1692 36.4272 53.2686 36.5927C53.47 36.9187 53.5944 37.33 53.5496 37.7313C53.5297 37.9294 53.475 38.12 53.3979 38.2955C53.3209 38.4711 53.2189 38.6241 53.112 38.7695C52.8932 39.0554 52.6172 39.2836 52.391 39.4993C52.2691 39.6046 52.1647 39.73 52.0503 39.8454C51.9384 39.9633 51.839 40.0912 51.7321 40.214C51.5356 40.4724 51.3392 40.7357 51.1776 41.0191C51.011 41.3 50.8618 41.5934 50.74 41.9018C50.6182 42.2078 50.5137 42.5238 50.4565 42.8523C50.4839 42.5213 50.5585 42.1928 50.653 41.8717C50.7474 41.5507 50.8718 41.2373 51.016 40.9338C51.1552 40.6278 51.3293 40.3369 51.5083 40.051C51.6053 39.9131 51.6997 39.7702 51.8017 39.6372C51.9086 39.5068 52.0056 39.3664 52.1224 39.2435C52.3537 38.9802 52.5725 38.762 52.7341 38.5037C52.8111 38.3733 52.8808 38.2429 52.9255 38.1074C52.9703 37.972 52.9951 37.8366 52.9951 37.7037C52.9976 37.4378 52.8957 37.187 52.7291 36.9638C52.647 36.8535 52.5476 36.7507 52.4382 36.6554C52.3835 36.6077 52.3288 36.5626 52.2691 36.5225C52.2393 36.5024 52.2094 36.4823 52.1821 36.4623C52.1547 36.4447 52.1174 36.4221 52.1025 36.4146L52.483 35.7626Z" fill="white"/>
<path d="M49.0393 35.8832C49.3227 36.3496 49.5539 36.8612 49.6609 37.4154C49.7703 37.9672 49.7255 38.5615 49.5316 39.1082C49.3401 39.6574 49.0094 40.1464 48.624 40.5703C48.2386 40.9941 47.7961 41.3577 47.3361 41.6887L46.9432 41.0492C47.4007 40.796 47.8408 40.5076 48.2312 40.169C48.6215 39.8279 48.9597 39.4292 49.1859 38.9653C49.4122 38.5038 49.5191 37.9747 49.4744 37.4405C49.4346 36.9064 49.268 36.3797 49.0393 35.8832Z" fill="white"/>
<path d="M37.878 30.2806C37.5299 30.737 37.3508 31.3715 37.234 32.0085C37.1171 32.653 37.0699 33.3226 37.0102 33.9947C36.9803 34.3307 36.9505 34.6693 36.9033 35.0079C36.856 35.3464 36.7963 35.6875 36.6795 36.016C36.6546 36.0988 36.6123 36.179 36.5775 36.2593C36.5576 36.2994 36.5328 36.337 36.5129 36.3746C36.4905 36.4123 36.4681 36.4524 36.4383 36.485C36.3388 36.6329 36.1871 36.7458 36.028 36.816L35.9037 36.8586L35.7744 36.8787C35.752 36.8812 35.7321 36.8862 35.7097 36.8862L35.6451 36.8837L35.5183 36.8787C35.4337 36.8662 35.3517 36.8511 35.2696 36.8336L35.0284 36.7583L35.2746 36.8085C35.3566 36.8185 35.4387 36.826 35.5207 36.8286L35.6426 36.821L35.7047 36.8185C35.7246 36.816 35.7445 36.8085 35.7644 36.806L35.8813 36.7784L35.9907 36.7282C36.1275 36.6505 36.2468 36.5452 36.3239 36.4022C36.3463 36.3696 36.3637 36.3345 36.3811 36.2969C36.3985 36.2593 36.4159 36.2242 36.4308 36.1891C36.4532 36.1113 36.488 36.0386 36.5029 35.9583C36.5825 35.6423 36.6098 35.3113 36.6273 34.9803C36.6422 34.6492 36.6422 34.3132 36.6397 33.9771C36.6372 33.3025 36.6223 32.6254 36.682 31.9307C36.7118 31.5847 36.759 31.2361 36.8461 30.885C36.9331 30.5364 37.0599 30.1803 37.2663 29.8492L37.878 30.2806Z" fill="white"/>
<path d="M32.4127 27.4894C32.3307 28.2041 32.3754 28.9188 32.4799 29.6235C32.5843 30.3283 32.7459 31.0229 32.8777 31.7351C32.9423 32.0913 32.9995 32.4549 33.0169 32.8311C33.0319 33.2047 33.0169 33.601 32.8827 33.9922C32.7484 34.3809 32.4823 34.7471 32.1467 34.9853C31.8135 35.2286 31.443 35.3815 31.075 35.4919L30.896 34.7621C31.2143 34.6969 31.5226 34.5966 31.7812 34.4411C32.0422 34.2881 32.2362 34.0649 32.363 33.7866C32.4873 33.5082 32.537 33.1746 32.552 32.8361C32.5644 32.495 32.542 32.1439 32.5097 31.7903C32.4426 31.0831 32.3381 30.3659 32.2959 29.6461C32.2486 28.9239 32.2685 28.1941 32.4127 27.4894Z" fill="white"/>
<path d="M28.3202 26.3583C28.2182 26.6844 28.1312 27.0179 28.0641 27.3565C27.9969 27.695 27.9497 28.0386 27.9174 28.3872C27.8502 29.0819 27.8502 29.7916 27.8428 30.5088C27.8403 30.8674 27.8328 31.2286 27.8055 31.5922C27.7781 31.9533 27.7209 32.3195 27.609 32.6706C27.4996 33.0217 27.3156 33.3502 27.072 33.621C26.8283 33.8919 26.5299 34.1 26.2142 34.2605C26.515 34.0724 26.791 33.8417 26.9999 33.5608C27.2112 33.2825 27.3554 32.959 27.43 32.6204C27.5817 31.9408 27.522 31.2311 27.4723 30.5213C27.4151 29.8116 27.3529 29.0894 27.3604 28.3571C27.3629 27.9909 27.3803 27.6223 27.4201 27.2561C27.4599 26.8875 27.522 26.5214 27.6016 26.1577L28.3202 26.3583Z" fill="white"/>
<path d="M22.6014 25.7665C22.405 26.5264 22.3354 27.3088 22.3378 28.0887C22.3378 28.8687 22.41 29.6486 22.395 30.4486C22.3876 30.8474 22.3528 31.2561 22.2558 31.6599C22.1613 32.0637 22.0022 32.4599 21.7809 32.821C21.5596 33.1822 21.2761 33.5006 20.9678 33.7765C20.657 34.0524 20.3214 34.2906 19.9733 34.5063L19.6127 33.8467C20.2716 33.5082 20.8932 33.0869 21.3184 32.5025C21.5322 32.2116 21.6939 31.8856 21.8082 31.532C21.9226 31.1809 21.9848 30.8047 22.0246 30.4235C22.0992 29.6586 22.0892 28.8662 22.1539 28.0787C22.211 27.2938 22.3453 26.5088 22.6014 25.7665Z" fill="white"/>
<path d="M17.748 27.0655C17.5889 27.7075 17.4645 28.3646 17.3402 29.0266C17.2159 29.6887 17.0916 30.3608 16.9076 31.0204C16.7261 31.6799 16.4799 32.3345 16.107 32.9113C16.015 33.0567 15.9056 33.1896 15.8061 33.3276C15.6942 33.4555 15.5749 33.5784 15.4605 33.7038C15.3312 33.8141 15.2044 33.927 15.0751 34.0348L14.6599 34.3207L15.0453 33.9997C15.1646 33.8818 15.2765 33.7589 15.3934 33.6411C15.4953 33.5081 15.5973 33.3777 15.6942 33.2448C15.7788 33.1019 15.8708 32.9665 15.9478 32.8185C16.2537 32.2317 16.4302 31.5896 16.5446 30.9376C16.6614 30.2856 16.7211 29.6185 16.7858 28.9464C16.8479 28.2743 16.9126 27.5972 17.017 26.915L17.748 27.0655Z" fill="white"/>
<path d="M10.8283 30.08C10.5026 30.2379 10.2191 30.4737 9.9879 30.7445C9.75666 31.0179 9.57266 31.3289 9.45829 31.6649C9.34143 31.9985 9.26684 32.347 9.2544 32.7006L9.24197 32.964L9.25689 33.2298C9.26435 33.3176 9.26186 33.4053 9.2743 33.4931L9.31408 33.7564L9.39613 34.2981L9.4384 34.5765L9.45829 34.8599C9.49061 35.2386 9.46326 35.6298 9.39364 36.0185C9.23949 36.7909 8.74966 37.6135 7.80483 37.8693L7.68796 37.127C7.68299 37.1295 7.70537 37.1245 7.7178 37.122C7.73023 37.1195 7.74764 37.1144 7.76504 37.1094C7.79737 37.1019 7.82969 37.0894 7.86201 37.0768C7.92666 37.0517 7.99379 37.0242 8.05595 36.984C8.1206 36.9514 8.17779 36.9038 8.23746 36.8611C8.29216 36.811 8.34935 36.7633 8.40156 36.7082C8.60545 36.485 8.75961 36.1991 8.85161 35.8781C8.93614 35.5571 8.99333 35.216 8.99333 34.8649L8.9983 34.6016L8.9809 34.3358L8.94609 33.789L8.92868 33.5082C8.92371 33.4154 8.93366 33.3201 8.93366 33.2248L8.9436 32.9439L8.9809 32.663C9.02565 32.2894 9.13754 31.9232 9.2917 31.5822C9.44337 31.2386 9.66466 30.9301 9.92574 30.6693C10.1793 30.421 10.4877 30.2079 10.8283 30.08Z" fill="white"/>
<path d="M10.336 26.3207C10.2987 26.3182 10.2365 26.3157 10.1843 26.3157C10.1296 26.3157 10.0749 26.3157 10.0202 26.3182C9.91082 26.3207 9.79894 26.3307 9.68705 26.3433C9.46576 26.3683 9.24447 26.4085 9.02815 26.4636C8.59552 26.574 8.18029 26.752 7.8123 27.0003C7.62582 27.1232 7.45674 27.2661 7.3001 27.4266C7.14097 27.5846 7.00173 27.7602 6.87741 27.9483C6.63126 28.3269 6.44726 28.7533 6.33786 29.2047L6.2583 29.5508C6.22846 29.6711 6.20608 29.794 6.16879 29.9144C6.13398 30.0348 6.09917 30.1526 6.05193 30.2705C6.01214 30.3884 5.95744 30.5012 5.90274 30.6166C5.68394 31.0655 5.35076 31.4717 4.92807 31.7376C4.50538 32.0059 4.01059 32.1238 3.52574 32.1338C3.04089 32.1413 2.55853 32.0611 2.10849 31.9006C2.56847 32.031 3.05084 32.0786 3.52077 32.0385C3.9907 31.9984 4.45068 31.8529 4.82364 31.5796C5.1966 31.3087 5.47259 30.9225 5.64913 30.4962C5.6914 30.3884 5.73367 30.2805 5.76599 30.1702C5.80329 30.0598 5.82815 29.947 5.85301 29.8341C5.88285 29.7213 5.89528 29.6034 5.91517 29.4906L5.97485 29.1269C6.06436 28.6354 6.23095 28.1514 6.48207 27.705C6.60888 27.4843 6.75558 27.2686 6.92465 27.0781C7.09373 26.8824 7.28021 26.7044 7.48658 26.5464C7.89435 26.2279 8.35931 25.9947 8.84416 25.8367C9.08783 25.7564 9.33398 25.6937 9.58759 25.6486C9.7144 25.6285 9.8412 25.6085 9.96801 25.5959C10.0327 25.5884 10.0973 25.5834 10.162 25.5809C10.2291 25.5759 10.2888 25.5734 10.3683 25.5734L10.336 26.3207Z" fill="white"/>
<path d="M46.2794 45.448C45.9239 45.448 45.5758 45.3276 45.2948 45.1019C43.0943 43.3288 43.2908 41.1345 43.3007 41.0417C43.3256 40.8009 43.5394 40.6254 43.7781 40.6505C44.0168 40.6755 44.1908 40.8887 44.166 41.1295C44.1585 41.2072 44.0242 42.9552 45.8393 44.4147C45.9985 44.5426 46.2048 44.5953 46.4087 44.5577C46.6101 44.5201 46.7792 44.4047 46.8812 44.2317C47.3586 43.4266 47.4903 42.6342 47.2591 41.9395C47.0353 41.2674 46.4659 40.6881 45.7324 40.3896C45.5086 40.2994 45.4017 40.0436 45.4912 39.8179C45.5808 39.5922 45.8344 39.4843 46.0581 39.5746C47.0378 39.9733 47.7763 40.7332 48.0846 41.6586C48.3034 42.3182 48.4029 43.3765 47.6296 44.6806C47.3983 45.0693 47.0105 45.3401 46.5654 45.4204C46.4684 45.4379 46.3739 45.448 46.2794 45.448Z" fill="#1B1B1B"/>
<path d="M51.9161 44.0836C51.849 44.0836 51.7794 44.0686 51.7172 44.036L47.279 41.7488C47.0652 41.6385 46.9807 41.3751 47.0901 41.1595C47.1995 40.9438 47.4605 40.8585 47.6744 40.9689L51.9186 43.1557C53.0176 42.5714 53.5323 41.5933 53.7735 40.8585C54.1887 39.5971 54.0917 38.135 53.5248 37.0064C51.7744 36.0986 49.6212 36.1588 46.9508 37.1895C46.727 37.2748 46.4759 37.1619 46.3889 36.9362C46.3019 36.7105 46.4162 36.4572 46.64 36.3694C49.5814 35.2334 52.0753 35.2083 54.0569 36.2942C54.1315 36.3343 54.1912 36.3945 54.231 36.4698C54.9595 37.8165 55.1012 39.6046 54.599 41.1319C54.1638 42.4611 53.2737 43.4943 52.0952 44.041C52.0405 44.0686 51.9783 44.0836 51.9161 44.0836Z" fill="#1B1B1B"/>
<path d="M41.8113 40.5225C41.7144 40.5225 41.6149 40.4899 41.5329 40.4222C41.3489 40.2667 41.3215 39.9908 41.4757 39.8052C41.6149 39.6372 41.7542 39.4491 41.8934 39.2485C41.9406 39.1657 42.2664 38.5589 42.2465 37.957C42.239 37.7137 42.4255 37.5106 42.6667 37.5031C42.9104 37.493 43.1093 37.6836 43.1167 37.9269C43.149 38.8347 42.6567 39.6748 42.6368 39.7099C42.6319 39.7175 42.6269 39.725 42.6219 39.735C42.4653 39.9632 42.3061 40.1764 42.1495 40.367C42.06 40.4673 41.9357 40.5225 41.8113 40.5225Z" fill="#1B1B1B"/>
<path d="M41.4757 37.3676C41.4334 37.3676 41.3912 37.3626 41.3514 37.3501C41.1201 37.2798 40.9908 37.0366 41.0605 36.8034C41.1301 36.5701 41.3713 36.4397 41.6025 36.51C41.8337 36.5802 41.963 36.8234 41.8959 37.0567C41.8362 37.2447 41.6622 37.3676 41.4757 37.3676Z" fill="#1B1B1B"/>
<path d="M42.7163 35.5144C42.5696 35.5144 42.4279 35.4392 42.3458 35.3063C39.8022 31.1433 33.5564 27.552 27.1564 26.569C21.8206 25.7514 17.1487 26.8223 14.0034 29.5884C13.9959 29.5959 13.986 29.6034 13.976 29.611C13.8617 29.6962 11.149 31.6925 7.82967 31.2009C7.59098 31.1658 7.42688 30.9426 7.46169 30.7019C7.4965 30.4611 7.7153 30.2956 7.95399 30.3307C10.8059 30.752 13.2525 29.0492 13.444 28.9113C16.7882 25.9846 21.7013 24.8436 27.2857 25.6987C33.9219 26.7169 40.4188 30.4762 43.0843 34.8423C43.2111 35.048 43.1464 35.3188 42.9425 35.4467C42.8729 35.4918 42.7934 35.5144 42.7163 35.5144Z" fill="#1B1B1B"/>
<path d="M11.6562 39.4894C11.614 39.4894 11.5717 39.4843 11.5294 39.4693C7.08125 38.0975 4.25422 35.4166 2.66542 33.4104C0.939858 31.231 0.273504 29.3928 0.246154 29.3151C0.241181 29.3025 0.236208 29.2875 0.233722 29.2724C-0.159128 27.6925 -0.0546997 26.2931 0.53209 25.3351C0.892617 24.7433 1.42968 24.342 2.03884 24.2066C2.76487 24.0436 3.52571 24.3295 4.03045 24.9514C4.8435 25.9546 5.81071 26.085 7.07379 25.3652C9.01567 24.2116 10.2141 25.0141 10.873 25.8944C10.878 25.8994 10.8805 25.9044 10.8854 25.9119C11.5369 26.8674 12.3847 27.3489 13.4787 27.384C13.7199 27.3915 13.9064 27.5947 13.899 27.8354C13.8915 28.0787 13.6876 28.2693 13.4514 28.2593C12.0839 28.2166 10.9799 27.5947 10.1743 26.416C9.75164 25.8568 9.01816 25.2273 7.50891 26.1251C5.44272 27.3013 4.11001 26.4361 3.35663 25.5057C3.06324 25.142 2.63061 24.974 2.22781 25.0643C1.84242 25.152 1.51173 25.4053 1.27055 25.7991C0.810566 26.5489 0.740947 27.7 1.06915 29.0392C1.22082 29.4379 3.8937 36.1991 11.7805 38.6317C12.0093 38.7019 12.1386 38.9477 12.069 39.1809C12.0143 39.369 11.8427 39.4894 11.6562 39.4894Z" fill="#1B1B1B"/>
<path d="M37.9028 39.0279C37.8133 39.0279 37.7238 39.0003 37.6442 38.9426C30.369 33.5358 22.8401 34.3358 14.8687 35.1809C13.4465 35.3314 11.977 35.4869 10.5324 35.6022C10.2937 35.6223 10.0824 35.4417 10.065 35.1985C10.0451 34.9577 10.2241 34.7446 10.4653 34.727C11.8999 34.6142 13.3644 34.4587 14.7792 34.3082C22.5641 33.4832 30.6151 32.628 38.1614 38.2354C38.3553 38.3784 38.3951 38.6542 38.2534 38.8498C38.1688 38.9652 38.0371 39.0279 37.9028 39.0279Z" fill="#1B1B1B"/>
<g opacity="0.3">
<g opacity="0.3">
<path opacity="0.3" d="M26.4504 53.1193C26.4454 53.1193 26.3957 53.1193 26.3087 53.1243C26.3435 53.1043 26.3783 53.0842 26.4106 53.0642C26.4255 53.0817 26.4379 53.1018 26.4504 53.1193Z" fill="#1B1B1B"/>
</g>
<g opacity="0.3">
<path opacity="0.3" d="M26.0575 53.197L26.2763 53.0717C26.3111 53.0516 26.3459 53.0316 26.3782 53.0115L26.428 52.9814L26.5672 53.187L26.4479 53.1845C26.4379 53.1845 26.3932 53.1845 26.3086 53.187L26.0575 53.197Z" fill="#1B1B1B"/>
</g>
</g>
<path d="M23.6084 44.7709C20.4631 44.5652 17.7305 41.2097 20.7764 36.5979C20.7764 36.5979 22.5367 34.2555 25.0828 36.6179C25.5204 37.0242 25.6248 37.6837 25.3289 38.2054C24.0708 40.4248 23.7575 42.258 25.6994 43.1734C26.0997 43.3615 26.4553 43.6474 26.7064 44.016C28.2753 46.3132 23.7849 47.7502 23.6084 44.7709Z" fill="white"/>
<path d="M25.237 46.5163C25.0604 46.5163 24.8864 46.4937 24.7223 46.4436C24.3195 46.3257 23.6382 45.9595 23.5512 44.8285C21.93 44.7056 20.5078 43.7727 19.8265 42.3884C19.016 40.7357 19.3367 38.6667 20.7266 36.5626C20.7589 36.52 21.4527 35.6121 22.6113 35.5093C23.4393 35.4341 24.2847 35.7927 25.1251 36.5726C25.5876 37.004 25.6945 37.6861 25.3837 38.2379C24.501 39.7927 24.2051 40.9664 24.4737 41.8216C24.6502 42.3808 25.058 42.8047 25.7268 43.1181C26.157 43.3213 26.5125 43.6197 26.7587 43.9808C27.1838 44.6053 27.2162 45.2323 26.8482 45.7489C26.5026 46.2254 25.8611 46.5163 25.237 46.5163ZM22.8252 35.6247C22.758 35.6247 22.6909 35.6272 22.6238 35.6347C21.5198 35.7325 20.8335 36.6278 20.8261 36.6353C19.4635 38.6968 19.1477 40.7206 19.9359 42.3307C20.6023 43.6924 22.0121 44.6028 23.6109 44.7056L23.6656 44.7081L23.6681 44.7633C23.7153 45.5758 24.1032 46.1301 24.7521 46.3207C25.4583 46.5288 26.331 46.2429 26.7413 45.6711C27.0769 45.2022 27.0446 44.6254 26.6518 44.0461C26.418 43.7025 26.0774 43.4191 25.6696 43.226C24.9784 42.9 24.5358 42.4385 24.3518 41.8542C24.0709 40.9639 24.3742 39.7601 25.2718 38.1701C25.5552 37.6711 25.4583 37.0516 25.0381 36.6604C24.2971 35.9733 23.5537 35.6247 22.8252 35.6247Z" fill="#1B1B1B"/>
<g opacity="0.3">
<g opacity="0.3">
<g opacity="0.3">
<path opacity="0.3" d="M26.2838 46.1676C25.3066 46.7469 23.7103 46.5238 23.6084 44.7708C20.4631 44.5651 17.7305 41.2096 20.7764 36.5977C20.7764 36.5977 21.674 35.4015 23.1161 35.582C22.5119 35.888 22.1663 36.3444 22.1663 36.3444C19.1204 40.9563 21.8505 44.3118 24.9983 44.5175C25.058 45.5407 25.6274 46.0422 26.2838 46.1676Z" fill="#1B1B1B"/>
</g>
<g opacity="0.3">
<path opacity="0.3" d="M25.247 46.5188C24.9486 46.5188 24.6602 46.4511 24.409 46.3182C24.0535 46.1276 23.6184 45.7138 23.5487 44.831C21.9276 44.7082 20.5054 43.7752 19.8241 42.3909C19.0135 40.7382 19.3343 38.6692 20.7242 36.5652C20.7366 36.5501 21.6616 35.3388 23.1211 35.5219L23.325 35.547L23.141 35.6398C22.5591 35.9332 22.2185 36.3796 22.2135 36.3846C20.851 38.446 20.5352 40.4699 21.3234 42.0799C21.9898 43.4417 23.3996 44.352 24.9983 44.4549L25.053 44.4574L25.0555 44.5125C25.1077 45.3853 25.5578 45.9646 26.2913 46.105L26.4529 46.1351L26.3111 46.2204C25.9854 46.4185 25.61 46.5188 25.247 46.5188ZM22.8252 35.6247C21.6019 35.6247 20.8361 36.6228 20.8261 36.6354C19.4636 38.6968 19.1478 40.7232 19.936 42.3332C20.6023 43.695 22.0121 44.6053 23.6109 44.7082L23.6656 44.7107L23.6681 44.7658C23.7203 45.6285 24.1306 46.0248 24.4662 46.2054C24.9362 46.4561 25.5777 46.4461 26.1097 46.1903C25.426 45.9922 25.0058 45.4154 24.9386 44.5752C23.3175 44.4524 21.8953 43.5194 21.214 42.1351C20.4034 40.4824 20.7242 38.4134 22.1141 36.3094C22.129 36.2893 22.4075 35.9231 22.9023 35.6272C22.8774 35.6272 22.8501 35.6247 22.8252 35.6247Z" fill="#1B1B1B"/>
</g>
</g>
</g>
<path d="M25.2419 46.8926C25.0306 46.8926 24.8193 46.865 24.6179 46.8048C23.7625 46.554 23.2354 45.8217 23.1757 44.796C23.1608 44.5553 23.3448 44.3471 23.5835 44.3321C23.8222 44.317 24.0286 44.5026 24.0435 44.7434C24.0833 45.3954 24.3642 45.8167 24.8615 45.9622C25.4185 46.1252 26.1271 45.897 26.4429 45.4531C26.6865 45.112 26.6542 44.7108 26.3484 44.2618C26.152 43.9734 25.8635 43.7327 25.5154 43.5697C24.7049 43.1885 24.1877 42.6292 23.9813 41.912C23.6531 40.7659 24.1181 39.2587 25.4458 37.1671C25.5751 36.964 25.8437 36.9038 26.0475 37.0342C26.2489 37.1646 26.3086 37.4354 26.1793 37.6411C25.0132 39.4768 24.5681 40.796 24.8193 41.6687C24.9535 42.1402 25.3041 42.5013 25.8859 42.7772C26.3757 43.0079 26.7835 43.349 27.067 43.7678C27.5816 44.5202 27.6115 45.3252 27.1515 45.9697C26.7338 46.5465 25.9829 46.8926 25.2419 46.8926Z" fill="#1B1B1B"/>
<path d="M23.9117 45.2197C22.2682 45.2197 20.6968 44.4272 19.7943 43.0805C18.5709 41.2548 18.7972 38.8022 20.4134 36.3545C20.5476 36.1539 20.8162 36.0987 21.0176 36.2316C21.2165 36.3671 21.2712 36.6379 21.1394 36.841C19.7296 38.9777 19.5009 41.0717 20.5153 42.589C21.4129 43.9282 23.1236 44.5978 24.7745 44.2542C25.0107 44.204 25.2395 44.357 25.2892 44.5952C25.3389 44.8335 25.1873 45.0642 24.9511 45.1144C24.6055 45.1846 24.2574 45.2197 23.9117 45.2197Z" fill="#1B1B1B"/>
<path d="M59.0397 44.5025C58.9651 44.5025 58.8881 44.4824 58.8184 44.4398C58.6121 44.3169 58.5449 44.0461 58.6668 43.8379C59.169 42.9853 59.2014 42.4511 59.0646 42.2329C58.9502 42.0498 58.6891 42.0549 58.5847 42.0649C58.2267 42.1 57.7542 42.3658 57.5603 42.8649C57.5006 43.0179 57.3614 43.1257 57.1973 43.1408L52.7615 43.5846C52.5228 43.6072 52.3089 43.4317 52.2865 43.1909C52.2617 42.9502 52.4382 42.7345 52.6769 42.7119L56.8691 42.2906C57.2445 41.606 57.9358 41.2448 58.5027 41.1897C59.0571 41.1345 59.542 41.3502 59.8031 41.7614C60.0617 42.1752 60.2084 42.9477 59.4202 44.2843C59.3331 44.4273 59.1889 44.5025 59.0397 44.5025Z" fill="#1B1B1B"/>
<path d="M50.2726 48.4975C50.0737 48.4975 49.8946 48.3595 49.8499 48.1564C49.7952 47.9207 49.9419 47.6849 50.1756 47.6298L61.0362 45.1144C61.8691 44.9213 62.5777 44.3671 62.9283 43.6298C63.4281 42.5865 62.901 42.0197 62.5454 41.7765C61.7821 41.2548 60.4544 41.2523 59.6363 42.1527C59.4747 42.3307 59.1987 42.3432 59.0222 42.1802C58.8457 42.0172 58.8332 41.7389 58.9948 41.5608C60.1261 40.3144 61.9735 40.3244 63.0352 41.0492C64.0099 41.7138 64.271 42.8498 63.7165 44.011C63.2441 44.999 62.339 45.7138 61.2351 45.9696L50.3745 48.4849C50.3372 48.495 50.3049 48.4975 50.2726 48.4975Z" fill="#1B1B1B"/>
<g opacity="0.6">
<g opacity="0.6">
<path opacity="0.6" d="M41.7616 10.5213C41.7915 10.1376 41.8089 9.79905 41.7442 9.51065C41.6846 9.21974 41.5503 8.99905 41.3713 8.84858C41.1898 8.70061 40.9486 8.61535 40.6577 8.61284C40.3643 8.61033 40.0435 8.69811 39.678 8.81347C39.8446 8.46989 40.1504 8.17898 40.5532 8.04858C40.7546 7.98337 40.9784 7.96331 41.2047 7.99842C41.4285 8.03604 41.6497 8.13133 41.8313 8.2818C42.0103 8.43227 42.1495 8.63039 42.2316 8.84356C42.3136 9.05673 42.336 9.28243 42.3136 9.49309C42.2689 9.91943 42.0575 10.2806 41.7616 10.5213Z" fill="#1B1B1B"/>
</g>
<g opacity="0.6">
<path opacity="0.6" d="M35.5108 7.81781C35.1801 7.72 34.8271 7.69242 34.5387 7.80527C34.2503 7.91561 34.0439 8.15386 33.9743 8.42721C33.9047 8.70307 33.9693 8.99147 34.1284 9.21216C34.2876 9.43536 34.5412 9.59085 34.8221 9.68865C35.0434 9.7664 35.1602 10.0122 35.0832 10.2354C35.0285 10.3908 34.8967 10.4937 34.7475 10.5162L34.6605 10.5288C34.5188 10.5363 34.382 10.5488 34.2528 10.5814C34.126 10.614 34.0116 10.6617 33.9121 10.7244C33.7157 10.8473 33.5964 11.0329 33.574 11.231C33.5541 11.4291 33.6312 11.6272 33.7878 11.7551C33.942 11.8855 34.1807 11.9457 34.4442 11.9357C34.6854 11.9256 34.8868 12.1137 34.8992 12.357C34.9066 12.5275 34.8147 12.6805 34.6779 12.7582H34.6754C34.4243 12.8686 34.1856 12.9965 33.9693 13.1495C33.758 13.2999 33.564 13.488 33.477 13.6736C33.4372 13.7664 33.4273 13.8341 33.4497 13.8968C33.4721 13.962 33.5516 14.0397 33.6635 14.0924C33.8873 14.2002 34.1806 14.2379 34.4641 14.2504H34.4666C34.5362 14.2529 34.5884 14.3106 34.5859 14.3808C34.5834 14.4435 34.5362 14.4937 34.4765 14.5012C34.1732 14.5388 33.8599 14.5664 33.5218 14.4761C33.3577 14.4285 33.1687 14.3407 33.0345 14.1476C32.9698 14.0523 32.93 13.9369 32.9176 13.8241C32.9052 13.7112 32.9176 13.6034 32.94 13.5056C32.9897 13.31 33.0742 13.147 33.1712 13.0015C33.2682 12.856 33.3776 12.7256 33.4944 12.6078C33.7257 12.3695 33.9842 12.1689 34.2528 11.9883L34.484 12.8109C34.2776 12.8184 34.0613 12.8034 33.845 12.7457C33.6312 12.688 33.4149 12.5852 33.2309 12.4322C33.0469 12.2792 32.8952 12.0786 32.8032 11.8529C32.7113 11.6272 32.6789 11.3764 32.7038 11.1357C32.7287 10.8949 32.8182 10.6617 32.9474 10.4636C33.0767 10.2655 33.2508 10.1024 33.4397 9.98207C33.6287 9.86169 33.8301 9.78144 34.034 9.72878C34.2353 9.67611 34.4367 9.65856 34.6332 9.64853L34.4691 10.4887C34.0887 10.288 33.7207 9.9921 33.5069 9.57329C33.2906 9.16201 33.2632 8.65041 33.4422 8.2316C33.6163 7.80778 34.0066 7.49681 34.4218 7.40903C34.842 7.31624 35.2498 7.41906 35.5954 7.57956C35.6575 7.60715 35.6849 7.68239 35.6575 7.74508C35.6326 7.80276 35.568 7.83035 35.5083 7.81279L35.5108 7.81781Z" fill="#1B1B1B"/>
</g>
<g opacity="0.6">
<path opacity="0.6" d="M32.8106 21.0065C32.654 21.0366 32.5222 21.0743 32.4153 21.1294C32.3084 21.1871 32.2288 21.2548 32.1641 21.3301C32.0373 21.4805 31.9652 21.6686 31.9428 21.8743C31.9229 22.0799 31.9602 22.2981 32.0647 22.5213C32.1169 22.6341 32.184 22.747 32.2686 22.8623C32.3506 22.9777 32.4526 23.0881 32.557 23.216L32.562 23.2235C32.6092 23.2786 32.6018 23.3639 32.5446 23.4116C32.5172 23.4366 32.4799 23.4467 32.4476 23.4417C32.097 23.4065 31.7489 23.2435 31.4779 22.9526C31.2093 22.6642 31.0427 22.2404 31.075 21.8091C31.1024 21.3827 31.3287 20.9464 31.7166 20.7232C31.9055 20.6103 32.1268 20.5551 32.3332 20.5677C32.5396 20.5802 32.7286 20.6529 32.8728 20.7683C32.93 20.8134 32.9424 20.8987 32.8952 20.9589C32.8753 20.9865 32.8455 21.0015 32.8156 21.009L32.8106 21.0065Z" fill="#1B1B1B"/>
</g>
<g opacity="0.6">
<path opacity="0.6" d="M29.536 39.3665C29.8144 39.379 30.1029 39.4567 30.359 39.6273C30.6076 39.7953 30.8314 40.0762 30.8786 40.4373C30.8886 40.4824 30.8886 40.5251 30.8861 40.5702L30.8811 40.7056C30.8637 40.7909 30.8463 40.8812 30.8165 40.9664C30.7817 41.0442 30.7493 41.1294 30.7046 41.1996C30.6573 41.2674 30.6126 41.3401 30.5604 41.4053C30.349 41.6586 30.0954 41.8291 29.8368 41.9871L29.7722 41.1645H29.7747C30.0904 41.2799 30.4012 41.4755 30.6126 41.7714C30.8239 42.0623 30.9184 42.4435 30.8438 42.7971C30.7717 43.1507 30.5082 43.4542 30.1998 43.5695C29.889 43.6924 29.5758 43.6623 29.3022 43.5896C29.2351 43.572 29.1953 43.5043 29.2127 43.4366C29.2277 43.3764 29.2824 43.3388 29.342 43.3413H29.347C29.5981 43.3564 29.8468 43.3212 30.0258 43.2009C30.2048 43.0855 30.2943 42.8999 30.2943 42.7169C30.2918 42.5313 30.2073 42.3557 30.0705 42.2329C29.9338 42.11 29.7523 42.0398 29.5534 42.0097L29.4489 41.9595C29.2426 41.8592 29.1555 41.6084 29.255 41.4003C29.3047 41.2975 29.3893 41.2247 29.4887 41.1871C29.6951 41.1119 29.904 41.0266 30.0581 40.9037C30.2098 40.7808 30.3192 40.6354 30.3291 40.4699C30.3465 40.3044 30.2695 40.1037 30.1153 39.9458C29.9611 39.7878 29.7473 39.6749 29.5136 39.6147H29.5111C29.444 39.5972 29.4042 39.5295 29.4216 39.4617C29.4241 39.4016 29.4763 39.3639 29.536 39.3665Z" fill="#1B1B1B"/>
</g>
<g opacity="0.6">
<path opacity="0.6" d="M28.4892 47.4641C28.8721 47.4892 29.2501 47.7525 29.4564 48.1187C29.6678 48.4848 29.7275 48.9387 29.6081 49.3626C29.5484 49.5732 29.444 49.7789 29.2923 49.9494C29.1431 50.1225 28.9467 50.2529 28.7379 50.3256C28.529 50.3983 28.3127 50.4134 28.1187 50.3833C27.9223 50.3507 27.7433 50.283 27.5866 50.1827C27.5245 50.1425 27.5071 50.0598 27.5469 49.9971C27.5667 49.9645 27.5991 49.9444 27.6339 49.9369H27.6413C27.972 49.8792 28.248 49.8015 28.4271 49.6585C28.6061 49.5231 28.708 49.345 28.7702 49.1268C28.8274 48.9112 28.8348 48.6629 28.7776 48.4221C28.7205 48.1789 28.6036 47.9406 28.3848 47.6923L28.3798 47.6873C28.3301 47.6321 28.3351 47.5469 28.3898 47.4992C28.4196 47.4716 28.4569 47.4616 28.4892 47.4641Z" fill="#1B1B1B"/>
</g>
</g>
<path d="M47.1174 28.5826C45.991 28.1788 44.8721 27.5368 43.7607 26.7268C43.241 26.3481 42.5399 26.2804 41.9879 26.6114C41.2569 27.0503 40.8043 28.0484 41.0381 29.5883C42.2838 34.7795 48.3382 32.2466 47.923 29.5256C47.8583 29.0867 47.5326 28.7331 47.1174 28.5826Z" fill="#1B1B1B"/>
<path d="M45.8965 32.2792C45.6702 30.2203 43.3007 29.5984 41.871 31.409C41.871 31.4115 43.8154 33.2121 45.8965 32.2792Z" fill="#C95C3F"/>
<path d="M44.35 33.024C42.8208 33.024 41.2245 32.1613 40.6303 29.6886C40.6278 29.6761 40.6253 29.6661 40.6228 29.6535C40.3817 28.0736 40.8019 26.8322 41.7716 26.2504C42.4528 25.8416 43.3305 25.8943 44.0044 26.3858C45.1556 27.2259 46.2197 27.8128 47.2566 28.1864C47.8359 28.3946 48.2487 28.8836 48.3382 29.4629C48.5992 31.1708 46.901 32.5977 45.1804 32.9413C44.9094 32.9939 44.6309 33.024 44.35 33.024ZM41.4508 29.5056C42.1644 32.4397 44.3624 32.2391 45.0188 32.1087C46.5057 31.8128 47.6693 30.6341 47.5102 29.5883C47.4679 29.315 47.264 29.0817 46.9756 28.9789C45.8617 28.5802 44.7279 27.9532 43.512 27.0679C43.1092 26.7745 42.5946 26.7369 42.1992 26.9752C41.5428 27.3714 41.2693 28.2918 41.4508 29.5056Z" fill="#1B1B1B"/>
<g opacity="0.3">
<path opacity="0.3" d="M29.6852 34.7921C28.9965 34.594 28.4967 33.8316 28.1983 32.8435C27.8353 31.6473 27.7707 30.125 28.0243 28.8887C28.1262 28.3821 28.2829 27.9257 28.4967 27.557C28.3674 27.5294 28.2356 27.4993 28.1039 27.4718C27.9721 27.4467 27.8403 27.4191 27.706 27.394C27.5991 27.374 27.4897 27.3539 27.3828 27.3338C26.0575 27.1031 24.7223 26.9827 23.407 26.9827C23.407 26.9827 23.4021 26.9827 23.3996 26.9827C22.0072 26.92 18.1408 27.0003 13.7076 29.3C13.6205 29.3451 13.531 29.3902 13.444 29.4379C13.454 29.4304 13.4639 29.4254 13.4714 29.4203C13.5285 29.3802 13.5882 29.3376 13.6479 29.2975C12.5489 29.2348 11.5792 28.7608 10.8159 27.6423C10.0003 26.5564 8.91875 26.4335 7.57609 27.231C6.21354 28.0084 4.99271 27.9608 3.98075 26.7119C3.60033 26.2429 3.00608 25.9871 2.42177 26.1175C1.41975 26.3432 0.606694 27.4567 0.7335 29.3551C1.20592 30.5163 4.05534 36.7031 11.6588 39.0479L12.5738 34.9752C17.9295 34.446 23.3026 33.6335 28.5589 34.5639C28.9318 34.6316 29.3098 34.7068 29.6852 34.7921ZM13.531 30.2228L13.5559 30.2329C13.5509 30.2354 13.5435 30.2329 13.531 30.2228Z" fill="#1B1B1B"/>
</g>
<g opacity="0.3">
<g opacity="0.3">
<path opacity="0.3" d="M13.7349 29.2397C13.7274 29.2448 13.7224 29.2498 13.7175 29.2548C13.7175 29.2548 13.6304 29.32 13.4688 29.4228C13.5533 29.3601 13.6429 29.2999 13.7349 29.2397Z" fill="#1B1B1B"/>
</g>
<g opacity="0.3">
<path opacity="0.3" d="M13.5012 29.478L13.4316 29.3752C13.5186 29.3125 13.6081 29.2498 13.7001 29.1896L13.7697 29.2924L13.7424 29.2573L13.7672 29.2949C13.7672 29.2949 13.7672 29.2949 13.7647 29.2949L13.7498 29.3074C13.7498 29.31 13.6628 29.3726 13.5012 29.478Z" fill="#1B1B1B"/>
</g>
</g>
<g opacity="0.3">
<path opacity="0.3" d="M32 25.3C33.186 24.2617 32.3506 23.2837 32.3506 23.2837C30.7841 21.4529 32.7459 20.7282 32.7459 20.7282C33.9742 19.6874 33.2606 18.8348 33.2606 18.8348C34.7524 17.9269 33.5018 17.0366 33.5018 17.0366C35.2497 15.7 33.9966 14.3858 33.9966 14.3858C32.1268 13.325 34.2552 12.352 34.2552 12.352C32.3009 11.1131 34.4566 9.99963 34.4566 9.99963C32.9896 8.07862 34.8892 7.30119 34.8892 7.30119C38.1041 4.51498 34.1408 2.68676 34.0314 2.6366C33.3924 2.77203 32.736 3.16827 32.0696 3.80275C30.722 2.22532 29.2227 2.04475 27.5568 3.33629C26.0351 1.9319 24.7944 2.29554 23.7227 3.6899C22.022 1.65855 20.6769 2.25792 19.4436 3.66231C19.4884 3.60965 19.5356 3.55949 19.5829 3.50933C19.5779 3.71247 19.5655 3.92062 19.5481 4.12375C18.2576 4.31686 17.4446 6.09241 18.7897 7.60965C17.3476 8.2015 17.0642 9.47298 18.5833 10.1526C17.181 10.8698 16.9945 12.4448 18.4366 13.0692C16.8478 13.4404 16.1765 16.0536 17.8623 16.8435C16.5296 17.2548 15.4554 18.7871 17.37 19.9583C15.8259 19.5971 15.0377 21.1495 16.8802 22.3583C15.4629 22.92 15.0278 23.7 16.2063 24.8385C14.9557 25.2297 14.8836 26.0072 15.6071 27.0454C15.6071 27.0454 15.5276 27.1182 15.4157 27.2461C15.1422 27.6749 15.0178 28.0486 14.9805 28.3646L14.9781 28.3671C19.6997 25.4956 25.2295 25.0191 31.6519 27.1783C32.8354 26.6141 32 25.3 32 25.3Z" fill="#1B1B1B"/>
</g>
<path d="M54.7481 29.9293C50.73 26.8924 33.3974 21.1243 33.3974 21.1243C32.8926 20.9914 32.3804 20.8761 31.8558 20.7808C24.4737 19.424 15.5376 21.5958 15.5376 21.5958C12.4544 20.7431 14.3715 14.0698 16.5371 12.9312C22.9073 11.7576 31.0079 12.1413 33.4943 12.2993C33.9792 12.3293 34.2502 12.3519 34.2502 12.3519C48.4699 13.967 56.4537 21.4955 56.4537 21.4955C57.7367 23.4391 56.859 27.6071 54.7481 29.9293Z" fill="#DC2E00"/>
<g opacity="0.55">
<path opacity="0.55" d="M56.3269 27.3589C56.8938 25.4906 56.8938 23.5571 56.1379 22.406C56.1379 22.406 48.1541 14.8774 33.9344 13.2624C33.9344 13.2624 33.6634 13.2398 33.1785 13.2097C33.1761 13.2097 33.1736 13.2097 33.1711 13.2097C32.8255 13.1871 32.7111 12.7357 33.002 12.5451C33.1586 12.4423 33.3252 12.3596 33.5018 12.3019H33.5043C33.9891 12.332 34.2601 12.3545 34.2601 12.3545C48.4798 13.9696 56.4637 21.4981 56.4637 21.4981C57.3389 22.8373 57.1947 25.2373 56.3269 27.3589Z" fill="white"/>
</g>
<path d="M54.7482 30.3683C54.6562 30.3683 54.5642 30.3408 54.4871 30.2806C50.6158 27.3539 33.8276 21.7288 33.2731 21.5432C25.8586 19.5846 15.7414 21.9972 15.6395 22.0222C15.5674 22.0398 15.4928 22.0373 15.4232 22.0197C14.3465 21.7213 13.6727 20.7909 13.526 19.399C13.2649 16.9238 14.7096 13.4003 16.3382 12.5451C16.3754 12.525 16.4177 12.51 16.46 12.5025C24.051 11.1031 34.1881 11.9106 34.29 11.9181C34.295 11.9181 34.3 11.9181 34.3025 11.9206C41.7194 12.7633 47.4208 15.2285 50.8968 17.1495C54.6761 19.236 56.6727 21.1019 56.7548 21.1796C56.7796 21.2022 56.802 21.2298 56.8194 21.2574C58.1994 23.3564 57.3465 27.7176 55.0665 30.2304C54.9844 30.3207 54.8676 30.3683 54.7482 30.3683ZM26.428 19.8881C28.7901 19.8881 31.2541 20.1012 33.5093 20.6981C33.5192 20.7006 33.5267 20.7031 33.5342 20.7056C34.2254 20.9363 50.1384 26.2505 54.6786 29.3401C56.4539 27.1408 57.1799 23.4668 56.1257 21.7815C55.8348 21.5182 53.868 19.7802 50.4517 17.8993C47.0478 16.0235 41.4708 13.616 34.213 12.7884C33.9096 12.7633 24.0759 12.0034 16.6862 13.3501C15.4928 14.0448 14.1551 17.0617 14.3913 19.3037C14.4957 20.2943 14.8861 20.9113 15.5524 21.142C16.3929 20.9464 21.1593 19.8881 26.428 19.8881Z" fill="#1B1B1B"/>
<g opacity="0.3">
<path opacity="0.3" d="M17.9867 13.5582C18.2353 13.5231 18.4839 13.493 18.7326 13.4629C17.3054 13.809 16.1045 14.8096 15.5301 16.1914C15.5251 16.204 15.5201 16.214 15.5152 16.2266C14.8687 18.3733 14.9433 20.7808 16.6042 21.3676C16.6017 21.3676 16.5992 21.3676 16.5968 21.3701C17.3178 21.2247 18.3721 21.0316 19.6426 20.851C19.6401 20.851 19.6351 20.851 19.6327 20.8535C22.5542 20.372 27.2535 19.8403 31.6494 20.3845C30.8737 19.414 30.8215 16.362 31.7017 14.2729C31.9304 13.7313 31.5599 13.1244 30.9756 13.1018C27.8204 12.9739 22.6412 12.9212 17.9867 13.5582C16.3606 13.7789 16.3606 13.7789 17.9867 13.5582Z" fill="#1B1B1B"/>
</g>
<path d="M44.625 18.7523C45.2547 16.4348 44.4823 14.2015 42.8997 13.7641C41.3172 13.3266 39.5238 14.8507 38.8941 17.1682C38.2644 19.4857 39.0368 21.719 40.6194 22.1565C42.202 22.5939 43.9953 21.0698 44.625 18.7523Z" fill="white"/>
<path d="M41.1674 22.3057C40.9759 22.3057 40.7845 22.2806 40.598 22.2279C39.8073 22.0098 39.1882 21.3577 38.855 20.3922C38.5243 19.4367 38.5119 18.2831 38.8202 17.1496C39.1285 16.0135 39.7203 15.0304 40.4886 14.3759C41.2644 13.7163 42.1272 13.4731 42.9154 13.6913C44.5341 14.1377 45.3322 16.4173 44.6932 18.7721C44.1288 20.8511 42.6294 22.3057 41.1674 22.3057ZM42.341 13.764C41.7567 13.764 41.1475 14.0123 40.5856 14.4913C39.8396 15.1232 39.2653 16.0812 38.9644 17.1897C38.6635 18.2982 38.676 19.4167 38.9967 20.3446C39.315 21.2624 39.8968 21.8819 40.6378 22.085C42.1769 22.5113 43.9323 21.0066 44.5515 18.7345C45.1681 16.4599 44.4197 14.2656 42.8781 13.8392C42.7015 13.7866 42.5225 13.764 42.341 13.764Z" fill="#1B1B1B"/>
<path d="M44.6074 18.8187C45.1198 16.9326 44.4907 15.115 43.2022 14.7588C41.9136 14.4026 40.4536 15.6428 39.9412 17.5289C39.4287 19.4149 40.0578 21.2326 41.3464 21.5888C42.6349 21.945 44.0949 20.7048 44.6074 18.8187Z" fill="#1B1B1B"/>
<path d="M42.3434 13.6888C42.5299 13.6888 42.7139 13.7138 42.8979 13.764C44.4793 14.2004 45.2525 16.4348 44.6235 18.7521C44.0665 20.801 42.5995 22.2305 41.1723 22.2305C40.9858 22.2305 40.8018 22.2054 40.6179 22.1552C39.0365 21.7189 38.2632 19.4844 38.8923 17.1671C39.4492 15.1182 40.9162 13.6888 42.3434 13.6888ZM42.3434 12.9364C41.4508 12.9364 40.5358 13.3577 39.7675 14.1251C39.0415 14.8499 38.4746 15.8605 38.1737 16.969C37.8306 18.2355 37.848 19.5295 38.221 20.6154C38.6312 21.7991 39.4119 22.6041 40.4189 22.8825C40.6626 22.9502 40.9162 22.9853 41.1698 22.9853C42.0625 22.9853 42.9775 22.564 43.7458 21.7966C44.4718 21.0718 45.0387 20.0612 45.3395 18.9527C45.6827 17.6863 45.6653 16.3922 45.2923 15.3063C44.882 14.1226 44.1013 13.3176 43.0943 13.0392C42.8506 12.969 42.5995 12.9364 42.3434 12.9364Z" fill="#1B1B1B"/>
<path d="M42.0183 17.3184C42.383 16.8359 42.2909 16.1467 41.8126 15.7789C41.3343 15.4111 40.651 15.504 40.2863 15.9864C39.9216 16.4688 40.0137 17.158 40.492 17.5258C40.9703 17.8937 41.6536 17.8008 42.0183 17.3184Z" fill="white"/>
<path d="M56.7313 23.531C57.361 21.2135 56.5885 18.9802 55.006 18.5427C53.4235 18.1052 51.6301 19.6293 51.0004 21.9468C50.3707 24.2644 51.1431 26.4977 52.7257 26.9351C54.3082 27.3726 56.1016 25.8485 56.7313 23.531Z" fill="white"/>
<path d="M53.2761 27.0804C53.0847 27.0804 52.8932 27.0553 52.7067 27.0026C51.0881 26.5537 50.29 24.2766 50.929 21.9218C51.2373 20.7857 51.829 19.8027 52.5973 19.1481C53.3731 18.4886 54.2358 18.2453 55.024 18.4635C56.6427 18.9099 57.4408 21.1895 56.8018 23.5443C56.2374 25.6283 54.7356 27.0804 53.2761 27.0804ZM54.4497 18.5387C53.8654 18.5387 53.2562 18.787 52.6943 19.266C51.9484 19.898 51.374 20.8559 51.0732 21.9644C50.4566 24.239 51.2049 26.4334 52.7465 26.8597C54.2856 27.286 56.041 25.7813 56.6601 23.5092C57.2767 21.2346 56.5283 19.0403 54.9867 18.6139C54.8102 18.5638 54.6312 18.5387 54.4497 18.5387Z" fill="#1B1B1B"/>
<path d="M56.7137 23.5974C57.2262 21.7113 56.597 19.8936 55.3085 19.5374C54.0199 19.1812 52.5599 20.4215 52.0474 22.3075C51.5349 24.1936 52.1641 26.0113 53.4526 26.3675C54.7412 26.7236 56.2012 25.4834 56.7137 23.5974Z" fill="#1B1B1B"/>
<path d="M54.4522 18.4635C54.6387 18.4635 54.8227 18.4886 55.0067 18.5388C56.588 18.9751 57.3613 21.2096 56.7322 23.5269C56.1753 25.5758 54.7083 27.0052 53.2811 27.0052C53.0946 27.0052 52.9106 26.9801 52.7266 26.93C51.1453 26.4936 50.372 24.2591 51.0011 21.9419C51.558 19.893 53.025 18.4635 54.4522 18.4635ZM54.4522 17.7112V18.4635V17.7112C53.5596 17.7112 52.6446 18.1325 51.8763 18.8999C51.1503 19.6247 50.5834 20.6353 50.2825 21.7438C49.9394 23.0102 49.9568 24.3043 50.3297 25.3902C50.74 26.5739 51.5207 27.3789 52.5277 27.6573C52.7714 27.725 53.025 27.7601 53.2786 27.7601C54.1712 27.7601 55.0862 27.3388 55.8545 26.5714C56.5805 25.8466 57.1474 24.8359 57.4483 23.7275C57.7914 22.461 57.774 21.167 57.4011 20.0811C56.9908 18.8974 56.2101 18.0924 55.2031 17.814C54.9594 17.7463 54.7058 17.7112 54.4522 17.7112Z" fill="#1B1B1B"/>
<path d="M54.2758 21.8354C54.4967 21.2712 54.2222 20.6332 53.6628 20.4104C53.1034 20.1877 52.4708 20.4645 52.25 21.0287C52.0291 21.593 52.3036 22.231 52.863 22.4538C53.4224 22.6765 54.0549 22.3997 54.2758 21.8354Z" fill="white"/>
</g>
<defs>
<clipPath id="clip0_801_23207">
<rect width="64" height="64" fill="white"/>
</clipPath>
</defs>
</svg>
