<svg width="64" height="64" viewBox="0 0 64 64" fill="none" xmlns="http://www.w3.org/2000/svg">
<path d="M59.3389 34.0906L50.6594 36.3826C50.0954 36.531 49.5705 36.8003 49.1213 37.1719C48.672 37.5435 48.3091 38.0083 48.0579 38.5342L45.2272 44.4392L44.0634 46.8693C43.8471 47.3264 43.5083 47.7147 43.0844 47.9911C42.0603 48.6581 40.641 48.6069 39.6649 47.683L33.8703 42.199C33.5207 41.8685 33.0925 41.6324 32.6261 41.5132C32.1598 41.394 31.6707 41.3956 31.2052 41.5179L22.4946 43.8191C21.9888 43.9526 21.4605 43.9781 20.9442 43.8939C20.4279 43.8096 19.9352 43.6176 19.4981 43.3303C19.0611 43.043 18.6897 42.6669 18.408 42.2264C18.1263 41.786 17.9408 41.2912 17.8635 40.7743L14.5943 18.9133C14.4598 18.0131 14.6624 17.095 15.1632 16.3348C15.6641 15.5746 16.4281 15.0256 17.3089 14.793L55.1448 4.80255C55.509 4.70679 55.8892 4.68877 56.2607 4.74966C56.6323 4.81054 56.9869 4.94896 57.3013 5.1559C57.6157 5.36283 57.883 5.63364 58.0856 5.95067C58.2882 6.26769 58.4217 6.62382 58.4774 6.99584L61.9404 30.1438C62.0686 31.0062 61.8742 31.8855 61.3943 32.6136C60.9143 33.3418 60.1825 33.8676 59.3389 34.0906Z" fill="white"/>
<path d="M41.5679 48.5209C40.8396 48.5207 40.1392 48.2408 39.6117 47.7391L33.817 42.2551C33.4762 41.9351 33.0598 41.7066 32.6066 41.5909C32.1535 41.4752 31.6783 41.4761 31.2256 41.5936L22.5151 43.8947C21.9985 44.0311 21.4589 44.057 20.9315 43.9709C20.4042 43.8847 19.901 43.6884 19.4548 43.3948C19.0086 43.1011 18.6294 42.7168 18.342 42.2668C18.0546 41.8168 17.8654 41.3113 17.7869 40.7833L14.5177 18.9222C14.3793 18.0031 14.5857 17.0653 15.0972 16.2889C15.6087 15.5125 16.3893 14.9522 17.2891 14.7157L55.125 4.72748C55.5449 4.6158 55.9855 4.60594 56.41 4.69871C56.9486 4.81514 57.44 5.08993 57.8209 5.48772C58.2156 5.89752 58.4718 6.42064 58.5534 6.98348L62.0164 30.1312C62.1483 31.0125 61.95 31.9114 61.4594 32.6556C60.9689 33.3999 60.2207 33.937 59.3582 34.1642L50.679 36.4577C50.1258 36.6029 49.611 36.8669 49.1704 37.2313C48.7298 37.5957 48.374 38.0517 48.1279 38.5675L45.2969 44.4726L44.1334 46.9026C43.9023 47.3867 43.5387 47.7955 43.0847 48.0817C42.6307 48.3679 42.1048 48.5198 41.5679 48.5198V48.5209ZM31.9172 41.3476C32.6629 41.3472 33.3806 41.6313 33.9236 42.1418L39.7182 47.6258C40.0256 47.9177 40.3979 48.1328 40.8045 48.2535C41.2111 48.3741 41.6405 48.3968 42.0576 48.3197C42.4747 48.2427 42.8675 48.0681 43.2041 47.8101C43.5406 47.5522 43.8112 47.2184 43.9938 46.8359L45.1573 44.4059L47.988 38.5008C48.2438 37.9646 48.6135 37.4907 49.0715 37.1119C49.5294 36.7332 50.0646 36.4587 50.6396 36.3078L59.319 34.0155C60.1448 33.7982 60.8611 33.2839 61.3307 32.5715C61.8003 31.859 61.9901 30.9984 61.8638 30.1548L58.4008 7.00707C58.3213 6.48527 58.0854 5.99979 57.7242 5.61465C57.3629 5.22952 56.8933 4.96282 56.3772 4.84973C55.9764 4.76284 55.5607 4.7727 55.1644 4.87849L17.3288 14.8664C16.4659 15.0932 15.7173 15.6305 15.2267 16.3751C14.7362 17.1198 14.5384 18.0192 14.6712 18.9006L17.9404 40.7617C18.0161 41.2678 18.1977 41.7523 18.4735 42.1836C18.7493 42.6148 19.1131 42.9831 19.541 43.2644C19.9689 43.5457 20.4514 43.7337 20.9569 43.8162C21.4625 43.8986 21.9798 43.8736 22.475 43.7428L31.1856 41.4417C31.4244 41.3791 31.6703 41.3475 31.9172 41.3476Z" fill="#1B1B1B"/>
<g opacity="0.35">
<path opacity="0.35" d="M45.2273 44.4388L44.0635 46.8689C43.8472 47.326 43.5083 47.7143 43.0845 47.9907C42.7201 48.0029 42.3569 47.9422 42.0163 47.8122C41.6757 47.6822 41.3646 47.4855 41.1012 47.2336L35.3065 41.7499C34.9571 41.4193 34.5289 41.1832 34.0626 41.064C33.5963 40.9448 33.1072 40.9465 32.6417 41.0688L23.9309 43.37C23.4249 43.5035 22.8964 43.5289 22.38 43.4445C21.8635 43.3601 21.3707 43.1679 20.9337 42.8803C20.4966 42.5927 20.1253 42.2163 19.8438 41.7755C19.5623 41.3348 19.377 40.8397 19.3 40.3226L16.1734 19.4128C16.1446 18.0241 16.4408 17.0369 17.1754 16.3491C17.4788 16.0646 17.9767 16.2341 18.0392 16.6448L21.0538 36.8134C21.1312 37.3304 21.3168 37.8252 21.5986 38.2657C21.8804 38.7062 22.252 39.0823 22.6892 39.3695C23.1264 39.6568 23.6193 39.8487 24.1357 39.9327C24.6522 40.0168 25.1806 39.991 25.6864 39.8572L34.397 37.5561C34.8624 37.4337 35.3515 37.432 35.8178 37.5511C36.2841 37.6703 36.7123 37.9063 37.0618 38.2369L42.8565 43.7209C43.1675 44.0181 43.5442 44.238 43.956 44.3627C44.3679 44.4874 44.8034 44.5135 45.2273 44.4388Z" fill="#1B1B1B"/>
</g>
<g opacity="0.35">
<path opacity="0.35" d="M59.1019 34.1041H59.1002L50.4199 36.3963C49.5189 36.6344 48.7287 37.1776 48.1841 37.9332L48.5405 37.1902L49.5722 35.0372C49.8235 34.5114 50.1864 34.0466 50.6356 33.6751C51.0849 33.3036 51.6097 33.0343 52.1737 32.8859L60.1808 30.7708C60.2367 30.7559 60.2953 30.7538 60.3521 30.7647C60.4089 30.7757 60.4625 30.7994 60.5088 30.8341C60.5551 30.8688 60.5929 30.9136 60.6193 30.965C60.6458 31.0164 60.6601 31.0732 60.6614 31.131C60.6671 31.7166 60.5277 32.2945 60.2556 32.8132C59.9835 33.332 59.5872 33.7754 59.1019 34.1041Z" fill="#1B1B1B"/>
</g>
<path d="M56.3936 4.77443C55.9809 4.68508 55.5529 4.69494 55.1448 4.80319L17.3104 14.7914C16.598 14.979 15.9579 15.375 15.4723 15.9285C14.9867 16.482 14.6778 17.1678 14.5851 17.898C14.5414 18.2347 14.545 18.5759 14.5957 18.9116L17.8649 40.7727C17.9554 41.3843 18.1975 41.9636 18.5694 42.4578C18.9412 42.952 19.4309 43.3454 19.9939 43.6022L8.48519 39.6189L8.45898 39.6112C7.78344 39.4076 7.17976 39.0164 6.71833 38.4831C6.25691 37.9498 5.95676 37.2965 5.8529 36.5992L2.5837 14.7382C2.53786 14.4348 2.5305 14.1269 2.56182 13.8217C2.63767 13.0732 2.9401 12.3655 3.4288 11.7931C3.91751 11.2207 4.56926 10.8106 5.29719 10.6177L43.1351 0.630894C43.585 0.51122 44.0584 0.511718 44.508 0.632334L44.5235 0.636934L44.8875 0.763786L44.8953 0.76839L56.3936 4.77443Z" fill="#1B1B1B"/>
<g opacity="0.55">
<path opacity="0.55" d="M56.3744 4.83229C55.9616 4.74309 55.5335 4.75295 55.1253 4.86105L53.7326 5.22809L44.8763 2.14309L44.8685 2.13849L44.5043 2.01164L44.489 2.00703C44.0395 1.88646 43.5661 1.88586 43.1162 2.00531L5.27882 11.9926C4.59768 12.1732 3.98218 12.544 3.50444 13.0616C3.02671 13.5791 2.70654 14.222 2.58146 14.9148L2.56418 14.7972C2.51843 14.4939 2.51118 14.1861 2.54259 13.881C2.61836 13.1325 2.92076 12.4248 3.40948 11.8523C3.89819 11.2799 4.54999 10.8698 5.27795 10.677L43.1153 0.688756C43.5652 0.56931 44.0386 0.569907 44.4882 0.690483L44.5034 0.695083L44.8677 0.821936L44.8755 0.826539L56.3744 4.83229Z" fill="white"/>
</g>
<path d="M40.9468 48.37L33.2933 47.222C32.195 47.0573 31.1841 46.5285 30.4228 45.7208L27.4067 42.5199L31.3874 41.6011C31.8418 41.4963 32.3147 41.5011 32.7669 41.6151C33.219 41.7291 33.6375 41.949 33.9878 42.2567L40.9468 48.37Z" fill="#1B1B1B"/>
<g opacity="0.35">
<path opacity="0.35" d="M39.1862 46.8234L34.1059 46.0617C33.0074 45.8971 31.9962 45.3683 31.2349 44.5602L28.9726 42.1595L31.3866 41.6023C31.8411 41.4973 32.3141 41.502 32.7665 41.6158C33.2189 41.7296 33.6376 41.9494 33.9881 42.257L39.1862 46.8234Z" fill="#1B1B1B"/>
</g>
<path d="M41.555 48.9831C40.7113 48.9832 39.9002 48.6575 39.2912 48.0741L33.4966 42.5902C33.2136 42.324 32.8677 42.1339 32.4911 42.0378C32.1146 41.9417 31.7198 41.9426 31.3437 42.0405L22.6325 44.3399C21.6864 44.5893 20.6833 44.5063 19.7912 44.1046L8.31619 40.1334L8.29978 40.1282C7.52637 39.8951 6.83527 39.447 6.3071 38.8364C5.77892 38.2257 5.43547 37.4776 5.31679 36.6793L2.04701 14.8183C1.89186 13.7862 2.12374 12.7332 2.69814 11.8614C3.27255 10.9897 4.149 10.3606 5.15929 10.0948L42.9961 0.107225C43.5373 -0.0363232 44.1067 -0.03573 44.6477 0.108949L44.6698 0.115276L44.6863 0.120455L44.7018 0.125634L45.0655 0.251908C45.0776 0.256222 45.0899 0.261112 45.1017 0.26629L56.5428 4.25191C57.1588 4.39199 57.7201 4.70976 58.1569 5.16576C58.6181 5.64519 58.9177 6.25668 59.0138 6.91464L62.4765 30.0629C62.6259 31.0572 62.4024 32.0716 61.849 32.9115C61.2956 33.7513 60.4513 34.3574 59.478 34.6135L50.7976 36.9057C50.3097 37.0339 49.8555 37.2668 49.4669 37.5882C49.0782 37.9096 48.7643 38.3118 48.5471 38.7668L44.5535 47.1024C44.3304 47.5743 43.9975 47.986 43.5828 48.3031C43.168 48.6203 42.6833 48.8338 42.1691 48.9258C41.9666 48.9636 41.761 48.9828 41.555 48.9831ZM31.9262 40.8815C32.788 40.8814 33.6171 41.2114 34.2426 41.8037L40.0376 47.2877C40.292 47.5289 40.6 47.7065 40.9363 47.8061C41.2726 47.9058 41.6277 47.9245 41.9727 47.8609C42.3176 47.7973 42.6426 47.6531 42.9212 47.4401C43.1997 47.2271 43.4239 46.9514 43.5754 46.6353L47.5693 38.2999C47.8543 37.7031 48.266 37.1755 48.7758 36.7539C49.2857 36.3323 49.8814 36.0268 50.5215 35.8587L59.2019 33.5664C59.9169 33.3784 60.5372 32.9331 60.9437 32.3161C61.3503 31.6991 61.5144 30.9539 61.4045 30.2234L57.9421 7.07486C57.8766 6.64647 57.6826 6.24798 57.3859 5.93184C57.0892 5.61571 56.7036 5.39675 56.2799 5.30382C56.2583 5.2992 56.2371 5.29324 56.2163 5.28599L44.7173 1.27909C44.7053 1.27506 44.6932 1.27018 44.6814 1.26529L44.356 1.15224C44.0015 1.05966 43.6291 1.06045 43.2751 1.15454L5.43772 11.1425C4.68569 11.3402 4.03327 11.8085 3.60573 12.4574C3.1782 13.1063 3.00567 13.8901 3.12129 14.6583L6.3902 36.5194C6.48103 37.1142 6.73827 37.6713 7.13227 38.1264C7.52626 38.5816 8.04098 38.9162 8.61708 39.0918L8.64588 39.1004L8.66373 39.1062L20.1719 43.0892C20.1887 43.0949 20.2052 43.1016 20.2214 43.1091C20.8905 43.4155 21.6454 43.4802 22.357 43.2923L31.0679 40.9931C31.348 40.9192 31.6365 40.8817 31.9262 40.8815Z" fill="#1B1B1B"/>
<path d="M40.9468 48.912C40.9196 48.912 40.8925 48.91 40.8656 48.906L33.2121 47.758C31.9941 47.5734 30.873 46.987 30.0272 46.0922L27.0108 42.8913C26.9601 42.8399 26.9203 42.7788 26.8935 42.7118C26.8668 42.6447 26.8537 42.573 26.8551 42.5008C26.8565 42.4287 26.8723 42.3575 26.9015 42.2915C26.9308 42.2255 26.973 42.166 27.0256 42.1166C27.0782 42.0671 27.1402 42.0286 27.2079 42.0034C27.2756 41.9782 27.3477 41.9667 27.4199 41.9697C27.4921 41.9727 27.5629 41.99 27.6283 42.0208C27.6937 42.0515 27.7523 42.095 27.8006 42.1486L30.8167 45.3495C31.4956 46.0677 32.3954 46.5384 33.373 46.6865L41.0266 47.8345C41.1622 47.8544 41.2852 47.9248 41.3709 48.0317C41.4566 48.1385 41.4986 48.2738 41.4885 48.4103C41.4784 48.5469 41.4169 48.6745 41.3164 48.7676C41.2159 48.8606 41.0839 48.9123 40.9468 48.912Z" fill="#1B1B1B"/>
<path d="M19.9927 44.1435C19.9147 44.1434 19.8376 44.1264 19.7667 44.0937C19.1217 43.7995 18.5605 43.3487 18.1345 42.7825C17.7084 42.2162 17.4309 41.5525 17.3273 40.8517L14.0584 18.9906C13.9025 17.9584 14.134 16.905 14.7085 16.033C15.2831 15.161 16.16 14.532 17.1707 14.2669L55.0052 4.27927C55.4965 4.14786 56.0123 4.13632 56.5091 4.24562C56.58 4.25931 56.6475 4.28703 56.7076 4.32716C56.7677 4.36728 56.8191 4.419 56.8589 4.47927C56.8987 4.53954 56.926 4.60714 56.9392 4.67811C56.9525 4.74908 56.9514 4.82198 56.936 4.89252C56.9207 4.96306 56.8914 5.02983 56.8498 5.08889C56.8083 5.14795 56.7553 5.19812 56.6941 5.23644C56.6328 5.27477 56.5645 5.30047 56.4932 5.31205C56.4219 5.32363 56.349 5.32085 56.2787 5.30387C55.9501 5.23178 55.6089 5.23967 55.2839 5.32688L17.4494 15.3145C16.6971 15.5117 16.0444 15.9798 15.6167 16.6288C15.189 17.2778 15.0167 18.0618 15.1327 18.8301L18.4019 40.6912C18.4793 41.2135 18.6863 41.7082 19.0041 42.1303C19.3218 42.5523 19.7402 42.8882 20.2211 43.1074C20.3342 43.1586 20.4263 43.2471 20.482 43.358C20.5377 43.4689 20.5536 43.5955 20.5271 43.7167C20.5006 43.8379 20.4332 43.9464 20.3363 44.024C20.2393 44.1015 20.1187 44.1435 19.9945 44.1429L19.9927 44.1435Z" fill="#1B1B1B"/>
<path d="M43.711 33.5522C43.3766 34.0134 42.8899 34.3418 42.3368 34.4794C41.7836 34.617 41.1996 34.555 40.6877 34.3044L34.3903 31.2266C21.8874 25.0638 33.4839 13.2706 39.4384 21.4668C40.9319 14.8115 47.6914 15.1472 49.6888 19.9618C50.5797 22.1076 50.2284 24.5699 48.8636 26.4508L43.711 33.5522Z" fill="#E07153"/>
<g opacity="0.3">
<path opacity="0.3" d="M43.3246 33.9694L41.9022 35.9291C41.5673 36.3898 41.0806 36.7177 40.5277 36.8553C39.9747 36.9929 39.3909 36.9313 38.8789 36.6813L32.5821 33.6012C25.424 30.0735 26.1646 24.7012 29.223 22.2896C28.1168 24.975 29.0805 28.608 34.3903 31.2253L40.6868 34.3031C41.111 34.5109 41.5869 34.5901 42.0557 34.5308C42.5245 34.4715 42.9656 34.2763 43.3246 33.9694Z" fill="#1B1B1B"/>
</g>
<g opacity="0.3">
<path opacity="0.3" d="M48.865 26.4497L43.711 33.5514C43.3766 34.0126 42.8898 34.341 42.3367 34.4786C41.7836 34.6162 41.1995 34.5543 40.6877 34.3036L34.3911 31.2258C29.5599 28.8455 28.3267 25.6239 28.9757 23.04C29.4577 24.9871 31.0776 27.0147 34.3908 28.6491L40.6874 31.7269C41.1993 31.9775 41.7835 32.0395 42.3367 31.9018C42.8899 31.764 43.3766 31.4355 43.711 30.9741L48.865 23.8713C49.4534 23.0619 49.8589 22.1345 50.0536 21.1533C50.4198 22.9813 49.9822 24.9097 48.865 26.4497Z" fill="#1B1B1B"/>
</g>
<g opacity="0.55">
<path opacity="0.55" d="M50.1319 23.2307C50.0614 22.6518 49.9123 22.0852 49.6888 21.5465C47.8201 17.0457 41.7899 16.4595 39.7931 21.8434C39.7518 21.955 39.6828 22.0544 39.5926 22.1322C39.5024 22.21 39.3939 22.2636 39.2773 22.2881C39.1607 22.3126 39.0397 22.3072 38.9258 22.2723C38.8119 22.2375 38.7086 22.1743 38.6258 22.0887C34.8277 18.2291 29.4966 21.0339 28.8761 25.1237C28.0889 19.9354 35.1959 15.6262 39.4381 21.4663C40.9316 14.8104 47.6902 15.1464 49.6885 19.9601C50.1153 20.9941 50.268 22.1205 50.1319 23.2307Z" fill="white"/>
</g>
<g opacity="0.35">
<path opacity="0.35" d="M17.518 42.7457L8.48519 39.619L8.45898 39.6112C7.78344 39.4076 7.17976 39.0164 6.71833 38.4831C6.25691 37.9498 5.95676 37.2965 5.8529 36.5993L2.5837 14.7382C2.53786 14.4349 2.5305 14.127 2.56182 13.8218L5.7766 14.9114L11.2646 16.7716C11.4431 16.8323 11.6234 16.8895 11.8007 16.9534C12.0714 17.0506 12.254 17.241 12.4377 17.4628C13.2968 18.4983 13.3063 20.1091 13.4998 21.4035C13.7204 22.878 13.9411 24.3525 14.1621 25.827L14.9456 31.0658C15.1916 32.7117 15.4377 34.3576 15.6838 36.0033L16.2102 39.5223C16.2624 39.8704 16.3144 40.2182 16.3662 40.5659C16.4885 41.4029 16.8952 42.1725 17.518 42.7457Z" fill="#1B1B1B"/>
</g>
<path d="M32.0595 19.0483C32.288 19.2425 32.4998 19.4553 32.693 19.6846L32.7644 19.7709C32.7883 19.7997 32.8116 19.8284 32.8335 19.8572L32.9671 20.0335L33.0926 20.2147C33.1346 20.2749 33.1715 20.3379 33.2112 20.3994C33.3646 20.6462 33.5025 20.9024 33.6241 21.1663C33.7435 21.4289 33.8486 21.6977 33.9388 21.9717C34.0279 22.2436 34.1015 22.5202 34.1594 22.8004C34.1882 22.939 34.217 23.0771 34.2386 23.216L34.2734 23.4243L34.3022 23.6325C34.3777 24.188 34.4174 24.7423 34.4462 25.2931C34.4995 26.3942 34.5061 27.4856 34.6377 28.5657C34.7718 29.6503 35.0382 30.7146 35.4309 31.7347C34.9637 30.736 34.6202 29.684 34.4082 28.6022C34.1974 27.516 34.1128 26.4135 33.9832 25.332C33.9178 24.7912 33.8392 24.255 33.731 23.7306L33.6895 23.5339L33.6426 23.3394C33.6138 23.2091 33.5758 23.0806 33.5403 22.9537L33.5136 22.8579L33.4848 22.7641C33.4643 22.702 33.4468 22.6387 33.4237 22.5775L33.3581 22.3928L33.2861 22.2104C33.1873 21.9696 33.0754 21.7343 32.9509 21.5057C32.8268 21.2797 32.6887 21.0616 32.5375 20.8527C32.4989 20.8015 32.4632 20.7486 32.4223 20.6991L32.3028 20.5501L32.1776 20.4063C32.1571 20.3822 32.1355 20.3591 32.1133 20.3367L32.048 20.2685C31.8745 20.0905 31.6867 19.927 31.4865 19.7795L32.0595 19.0483Z" fill="white"/>
<path d="M38.0056 19.7681C38.2177 19.9822 38.4058 20.2188 38.5665 20.4737C38.6474 20.6017 38.7204 20.7344 38.7853 20.8712C38.8524 21.0075 38.9019 21.1511 38.9581 21.2926C39.0543 21.5814 39.126 21.8777 39.1726 22.1785L39.2031 22.4049C39.2123 22.4806 39.2175 22.5562 39.2247 22.6322C39.2319 22.7081 39.236 22.7837 39.2397 22.8594C39.2434 22.935 39.2486 23.0116 39.2486 23.0872C39.2636 23.6947 39.2198 24.2996 39.1766 24.8976C39.1335 25.4957 39.0954 26.0873 39.0903 26.681C39.075 29.046 39.4693 31.3958 40.2558 33.6265L40.2748 33.68L40.2774 33.7663V33.7678H39.3488V33.7663L39.3704 33.9061C39.0404 32.7277 38.8108 31.5236 38.684 30.3065C38.5612 29.0956 38.5419 27.8765 38.6264 26.6624C38.6693 26.0583 38.7447 25.4542 38.8279 24.8611C38.9112 24.268 38.9906 23.6775 39.0142 23.0855C39.0191 23.0113 39.0183 22.9376 39.0197 22.8637C39.0212 22.7898 39.0226 22.7156 39.0197 22.6419C39.0168 22.5683 39.0171 22.4941 39.0131 22.4202L38.9975 22.1992C38.9712 21.9047 38.9203 21.6129 38.8452 21.3268C38.8 21.1862 38.7609 21.0426 38.7041 20.9057C38.6491 20.7678 38.5859 20.6333 38.5147 20.503C38.3722 20.2403 38.2015 19.9938 38.0056 19.7681Z" fill="white"/>
<path d="M41.3546 17.5103C41.6805 17.6423 41.9961 17.7985 42.2987 17.9777C42.6054 18.1589 42.894 18.3691 43.1605 18.6053C43.4314 18.8445 43.6713 19.1166 43.8746 19.4153C44.0773 19.7161 44.238 20.0432 44.352 20.3876C44.3672 20.4299 44.379 20.4739 44.3914 20.5159C44.4038 20.5579 44.417 20.6022 44.428 20.645C44.4478 20.7313 44.4714 20.8176 44.4856 20.9039L44.5103 21.0342L44.5296 21.1645L44.5391 21.2295L44.5463 21.2948L44.5604 21.4248C44.5891 21.7672 44.5933 22.1113 44.5731 22.4543C44.5532 22.7926 44.5187 23.1277 44.4723 23.4562C44.4611 23.5387 44.4513 23.6216 44.4389 23.7033L44.4018 23.9492C44.3779 24.1134 44.3499 24.276 44.3234 24.4382C44.2158 25.0894 44.0966 25.7343 44.0024 26.3804C43.9083 27.0264 43.838 27.6748 43.8296 28.3243C43.8262 28.4057 43.8296 28.4868 43.8296 28.5679L43.8348 28.8116C43.8377 28.8927 43.8455 28.9735 43.8504 29.0546L43.859 29.1763C43.8625 29.2166 43.8633 29.2574 43.8694 29.2977L43.8999 29.5393L43.9154 29.6604C43.9195 29.701 43.9296 29.7404 43.9362 29.7803L43.9817 30.0202C43.9955 30.1008 44.0142 30.1799 44.0335 30.259C44.192 30.8952 44.446 31.5038 44.787 32.064C44.4105 31.5197 44.1187 30.9216 43.9215 30.2901C43.8973 30.211 43.8734 30.1313 43.8544 30.0507L43.7939 29.8091C43.7844 29.7688 43.7721 29.7289 43.7651 29.688L43.7421 29.5655L43.6963 29.3204C43.6877 29.2796 43.6842 29.2384 43.6785 29.1973L43.6624 29.0736C43.6523 28.991 43.6393 28.9088 43.6315 28.8259L43.6117 28.5774C43.6053 28.4946 43.5976 28.4117 43.5961 28.3286C43.5656 27.6644 43.5984 26.9994 43.6537 26.3404C43.709 25.6814 43.7919 25.0267 43.8607 24.3758C43.8771 24.2133 43.8956 24.0504 43.9094 23.8868L43.9316 23.6434C43.9388 23.5623 43.9437 23.4815 43.95 23.4004C43.9765 23.0763 43.9898 22.7551 43.99 22.4368C43.9901 22.1228 43.9678 21.8093 43.9235 21.4985L43.9042 21.3834L43.8947 21.3259L43.8829 21.2683L43.8593 21.1562L43.8305 21.0457C43.8135 20.9712 43.7888 20.9002 43.768 20.8277C43.7565 20.792 43.7433 20.7569 43.7309 20.7215C43.7185 20.6861 43.7067 20.6508 43.6917 20.6168C43.5825 20.342 43.436 20.0835 43.2564 19.8485C43.0747 19.6134 42.8643 19.4018 42.6301 19.2189C42.1605 18.8475 41.6062 18.5725 41.0234 18.3735L41.3546 17.5103Z" fill="white"/>
<path d="M48.1138 17.7295C47.8426 18.4231 47.6633 19.1491 47.5802 19.8891C47.5713 19.9812 47.5607 20.0727 47.5538 20.1647L47.5362 20.4403L47.529 20.7161C47.529 20.8079 47.529 20.8996 47.5307 20.9911C47.5389 21.3564 47.5715 21.7207 47.6283 22.0816C47.7417 22.7962 47.9522 23.492 48.254 24.1497C48.5532 24.7986 48.9352 25.4059 49.3905 25.9567L48.6433 26.5096C48.2083 25.8558 47.8599 25.1486 47.6067 24.4055C47.2325 23.3048 47.0885 22.139 47.1835 20.9805C47.1927 20.8852 47.1999 20.79 47.2123 20.6954L47.2494 20.4121L47.2966 20.1308C47.3136 20.0373 47.3344 19.9444 47.3542 19.8515C47.5141 19.1142 47.7695 18.4009 48.1138 17.7295Z" fill="white"/>
<path d="M29.5666 21.5024C30.1273 21.7804 30.5985 22.2102 30.9265 22.7428L30.9841 22.8414L31.0376 22.9427L31.0641 22.9936L31.088 23.0457C31.1039 23.0805 31.1206 23.1147 31.1352 23.1498C31.1948 23.2895 31.2429 23.4338 31.2792 23.5813C31.3508 23.8707 31.3799 24.1691 31.3656 24.4669C31.3384 25.0454 31.1597 25.6066 30.8473 26.0944C30.6959 26.3314 30.5124 26.5463 30.302 26.733C30.0942 26.9145 29.8631 27.0673 29.6147 27.1875C29.8393 27.0365 30.0427 26.8562 30.2193 26.6513C30.3908 26.4489 30.5335 26.2238 30.6435 25.9825C30.859 25.5115 30.9471 24.9923 30.8991 24.4767C30.8756 24.2297 30.8162 23.9875 30.7229 23.7576C30.699 23.7001 30.6774 23.6448 30.6484 23.5919C30.6193 23.539 30.5908 23.4858 30.562 23.4334C30.5467 23.4078 30.5294 23.3828 30.5133 23.3575L30.4888 23.3198L30.4626 23.2833L30.4097 23.2108L30.3521 23.1409C30.0498 22.7774 29.6516 22.5059 29.2026 22.357L29.5666 21.5024Z" fill="white"/>
<path d="M41.7531 35.0164C41.3129 35.0163 40.8786 34.9154 40.4836 34.7215L34.1862 31.6437C32.0699 30.6007 30.4975 29.3385 29.5104 27.8923C28.6334 26.6065 28.2415 25.1838 28.3777 23.7789C28.4978 22.5343 29.0163 21.357 29.8767 20.3741C30.7045 19.4289 31.8116 18.731 32.9944 18.4095C34.1535 18.0899 35.3837 18.1419 36.5115 18.5582C37.5158 18.9287 38.4269 19.5692 39.2291 20.4673C39.6261 19.2336 40.2308 18.2205 41.0327 17.447C41.9345 16.5772 43.0482 16.0626 44.2521 15.9584C45.4216 15.8575 46.6347 16.1618 47.6675 16.8156C48.7496 17.5008 49.5967 18.5277 50.1199 19.7853C50.5863 20.9181 50.7465 22.1534 50.5846 23.3676C50.4224 24.5806 49.9609 25.7343 49.2414 26.7247L44.0874 33.8272C43.8202 34.1958 43.4693 34.4957 43.0635 34.7024C42.6577 34.9092 42.2086 35.0168 41.7531 35.0164ZM34.5329 19.1268C34.095 19.1275 33.6593 19.1867 33.2372 19.3029C31.124 19.8782 29.5055 21.7536 29.3014 23.8658C29.1519 25.4107 29.6411 28.3675 34.5948 30.809L40.891 33.8868C41.3043 34.0898 41.7762 34.1401 42.2231 34.0289C42.67 33.9176 43.063 33.652 43.3327 33.279L48.4867 26.1765C49.7732 24.4037 50.0703 22.0896 49.2589 20.1379C48.3761 18.0111 46.3954 16.702 44.3301 16.8803C42.1665 17.0673 40.5069 18.8193 39.8901 21.5666C39.8707 21.6539 39.8265 21.7337 39.7628 21.7965C39.6991 21.8593 39.6186 21.9024 39.531 21.9206C39.4434 21.9388 39.3524 21.9314 39.2689 21.8992C39.1854 21.867 39.113 21.8115 39.0603 21.7392C37.8254 20.0361 36.223 19.1268 34.5326 19.1268H34.5329Z" fill="#1B1B1B"/>
<g opacity="0.25">
<path opacity="0.25" d="M33.1222 22.557C33.3379 22.2725 33.6926 22.116 34.0482 22.0804C34.4038 22.0447 34.7614 22.1186 35.1026 22.2242C35.9537 22.4902 36.7291 22.9549 37.3647 23.5799C37.5633 23.7755 37.7511 23.9923 37.8467 24.2541C37.9422 24.5159 37.9299 24.8294 37.7548 25.0477C37.6028 25.2361 37.3517 25.3227 37.1093 25.3296C36.8668 25.3365 36.6287 25.2721 36.3949 25.2094C35.5438 24.9784 32.0097 24.0257 33.1222 22.557Z" fill="white"/>
</g>
<g opacity="0.25">
<path opacity="0.25" d="M40.0326 24.9095C40.2592 24.9501 40.4979 25.018 40.6459 25.1943C40.8155 25.3956 40.8219 25.6833 40.8187 25.9482C40.8155 26.2131 40.8008 26.5074 40.6062 26.6849C40.4841 26.7962 40.3111 26.8376 40.1455 26.8321C39.9799 26.8267 39.8201 26.7792 39.6618 26.732C39.3419 26.6363 38.9995 26.5267 38.798 26.2626C38.5858 25.9876 38.4761 25.3746 38.6868 25.0631C38.9466 24.6797 39.6609 24.8425 40.0326 24.9095Z" fill="white"/>
</g>
<path d="M44.1029 14.3364C44.7614 14.7365 45.3773 15.3184 45.5178 16.0755C45.6583 16.8326 45.1132 17.7309 44.3427 17.7168C43.9108 17.7091 43.5235 17.4292 43.2751 17.0777C43.0266 16.7262 42.895 16.3079 42.7668 15.8983" fill="white"/>
<path d="M44.3603 17.7943H44.3413C43.9261 17.7868 43.504 17.5354 43.2117 17.1223C42.954 16.7576 42.8213 16.3319 42.6934 15.9202L42.8411 15.8742C42.9661 16.2743 43.0954 16.6883 43.339 17.0331C43.6027 17.4071 43.9788 17.6329 44.3447 17.6395H44.3608C44.6422 17.6395 44.9111 17.5046 45.1195 17.2589C45.3885 16.9425 45.5152 16.4823 45.442 16.0894C45.2952 15.2981 44.6113 14.7351 44.0634 14.4023L44.1437 14.27C44.7196 14.6192 45.4371 15.2135 45.5946 16.0612C45.677 16.505 45.5402 17.0021 45.2376 17.359C44.9986 17.6401 44.6879 17.7943 44.3603 17.7943Z" fill="#1B1B1B"/>
<path d="M44.1835 14.2045C44.4859 14.3121 44.7701 14.4652 45.0263 14.6584C45.3012 14.863 45.5325 15.1203 45.7067 15.4152C45.728 15.4546 45.7519 15.4923 45.7706 15.5335C45.7893 15.5746 45.8089 15.6154 45.8282 15.6566C45.8632 15.7409 45.893 15.8274 45.9172 15.9154L45.9356 15.9825C45.9416 16.0043 45.9457 16.0305 45.9509 16.0544C45.956 16.0783 45.9601 16.1033 45.9632 16.1277C45.9664 16.1522 45.9704 16.1769 45.9724 16.2014C45.9821 16.2987 45.9838 16.3966 45.9776 16.4942C45.9653 16.6867 45.9241 16.8763 45.8553 17.0565C45.8215 17.147 45.7806 17.2346 45.7329 17.3186C45.7098 17.3612 45.6831 17.4023 45.6569 17.4434C45.6307 17.4846 45.601 17.524 45.5705 17.5628C45.4439 17.7241 45.2886 17.8606 45.1124 17.9655C44.9242 18.0769 44.7129 18.1433 44.4948 18.1597C44.4402 18.1634 44.3855 18.1642 44.3309 18.162C44.2775 18.159 44.2243 18.1532 44.1714 18.1447C44.0683 18.128 43.9672 18.1004 43.87 18.0621C43.7768 18.0258 43.6873 17.9808 43.6025 17.9278C43.3663 17.7762 43.1668 17.5741 43.0182 17.3361C42.9721 17.2619 42.9303 17.185 42.893 17.106C42.8573 17.0281 42.8259 16.9495 42.798 16.8713C42.746 16.7184 42.7058 16.5617 42.6776 16.4027C42.6499 16.2505 42.6307 16.0968 42.62 15.9425C42.6175 15.9068 42.6271 15.8712 42.6472 15.8416C42.6674 15.812 42.697 15.7901 42.7312 15.7793C42.7654 15.7686 42.8023 15.7698 42.8358 15.7826C42.8692 15.7954 42.8974 15.8191 42.9157 15.8499C42.9943 15.9816 43.0649 16.1139 43.1366 16.2405C43.1732 16.3038 43.2077 16.3662 43.2451 16.426C43.2826 16.4859 43.3188 16.5442 43.3569 16.6003C43.3949 16.6564 43.4337 16.7096 43.4743 16.76C43.5128 16.8094 43.5542 16.8566 43.5981 16.9012C43.6792 16.985 43.7698 17.059 43.8682 17.1215C43.9145 17.15 43.9626 17.1755 44.0122 17.1978C44.024 17.203 44.0361 17.2073 44.0479 17.2122C44.0594 17.2173 44.0712 17.2217 44.0833 17.2254L44.1184 17.2372L44.1533 17.2464C44.1971 17.258 44.2419 17.2649 44.2872 17.2671C44.3091 17.2694 44.3301 17.2671 44.3511 17.2671C44.3712 17.2659 44.3911 17.2637 44.411 17.2605C44.4915 17.2475 44.5684 17.2181 44.637 17.1742C44.7158 17.1225 44.7858 17.0585 44.8443 16.9846C44.9754 16.8184 45.0607 16.6209 45.0919 16.4116C45.0996 16.3605 45.1035 16.3089 45.1038 16.2572C45.1038 16.2442 45.1038 16.2319 45.1038 16.2192C45.1038 16.2065 45.1038 16.1939 45.1017 16.1815C45.1011 16.1686 45.0999 16.1558 45.098 16.143L45.0914 16.1007C45.083 16.0434 45.0718 15.9866 45.0577 15.9304C45.049 15.9016 45.0404 15.8729 45.0323 15.8441C45.0243 15.8153 45.0119 15.7866 45.0021 15.7578C44.9183 15.53 44.7784 15.3062 44.6094 15.0908C44.523 14.9835 44.4317 14.8779 44.3338 14.7744C44.2359 14.6708 44.1323 14.5693 44.0251 14.4651L44.0223 14.4626C43.9965 14.4373 43.9802 14.4041 43.9759 14.3683C43.9717 14.3325 43.9797 14.2964 43.9988 14.2658C44.018 14.2352 44.0469 14.2121 44.081 14.2002C44.115 14.1884 44.1521 14.1885 44.1861 14.2005L44.1835 14.2045Z" fill="#1B1B1B"/>
<path d="M57.9292 34.6704C57.8949 35.4398 57.1607 36.192 56.4138 36.0048C55.9954 35.8995 55.6793 35.5402 55.5166 35.1418C55.5105 35.1263 55.5042 35.1131 55.4996 35.0969C55.351 34.7115 55.3199 34.2915 55.2888 33.8773L56.9436 32.6577C57.1992 32.9015 57.4203 33.1791 57.6006 33.4827C57.816 33.8471 57.9476 34.2495 57.9292 34.6704Z" fill="white"/>
<path d="M57.0513 32.5464C57.3221 32.7195 57.5649 32.9329 57.7711 33.1793C57.9929 33.4408 58.1602 33.744 58.2632 34.071C58.275 34.1141 58.2897 34.1573 58.2986 34.2007C58.3075 34.2441 58.3173 34.289 58.3274 34.3336C58.3428 34.4241 58.3524 34.5154 58.3562 34.6071L58.3591 34.6765C58.3591 34.6992 58.3591 34.7254 58.3591 34.7498C58.3591 34.7743 58.3571 34.7996 58.3545 34.8243C58.3519 34.849 58.3507 34.8738 58.347 34.8979C58.3344 34.9953 58.3139 35.0915 58.2859 35.1856C58.2303 35.3702 58.1473 35.5455 58.0398 35.7057C57.9863 35.7861 57.9266 35.8623 57.8612 35.9335C57.829 35.9697 57.7939 36.0039 57.759 36.0382C57.7242 36.0724 57.6862 36.104 57.647 36.1345C57.4874 36.2636 57.3052 36.362 57.1097 36.4248C56.8483 36.5085 56.568 36.5138 56.3035 36.44C56.2521 36.4251 56.2015 36.4075 56.1521 36.3871C56.0552 36.3479 55.963 36.2983 55.8771 36.2389C55.7946 36.1824 55.7175 36.1184 55.6467 36.0477C55.5794 35.9795 55.5175 35.9061 55.4616 35.8282C55.4079 35.7525 55.3597 35.673 55.3176 35.5903C55.2761 35.5095 55.2405 35.4258 55.2111 35.3398C55.1832 35.2567 55.1598 35.1722 55.1411 35.0866C55.1241 35.0026 55.1123 34.9192 55.1017 34.8367C55.0857 34.6759 55.0819 34.5142 55.0905 34.3529C55.0978 34.1981 55.1138 34.0439 55.1385 33.8909C55.1441 33.8555 55.1615 33.8231 55.1878 33.7988C55.2142 33.7745 55.2479 33.7598 55.2837 33.7571C55.3194 33.7544 55.355 33.7638 55.3848 33.7838C55.4145 33.8038 55.4366 33.8332 55.4475 33.8673C55.4944 34.0132 55.5339 34.1581 55.5745 34.2988C55.5958 34.3684 55.6154 34.4371 55.6384 34.5039C55.6614 34.5706 55.6833 34.6356 55.7078 34.6989C55.7323 34.7622 55.7579 34.8226 55.7861 34.881C55.8126 34.9378 55.8422 34.9931 55.8748 35.0467C55.935 35.1464 56.0067 35.2388 56.0884 35.3219C56.1266 35.3601 56.1673 35.3956 56.2102 35.4284C56.2206 35.4361 56.2312 35.443 56.2416 35.4505C56.2517 35.4581 56.2623 35.4651 56.2733 35.4712L56.3047 35.4908L56.3363 35.5078C56.3766 35.5286 56.4188 35.5454 56.4625 35.5578C56.4829 35.5653 56.5042 35.5679 56.5244 35.5733C56.5445 35.5788 56.5644 35.5797 56.5843 35.5802C56.6656 35.5856 56.7471 35.5741 56.8238 35.5466C56.9124 35.5141 56.9951 35.4676 57.0688 35.4088C57.2341 35.2764 57.3618 35.1032 57.4394 34.9063C57.4586 34.8582 57.4742 34.8088 57.4861 34.7584C57.4898 34.7461 57.4912 34.7337 57.4941 34.7213C57.497 34.7091 57.4992 34.6967 57.5007 34.6842C57.5022 34.6713 57.5054 34.6606 57.5059 34.646L57.5091 34.6031C57.5138 34.5457 57.5156 34.4881 57.5146 34.4305C57.5125 34.4018 57.5102 34.373 57.5091 34.3419C57.5079 34.3109 57.5019 34.2827 57.4987 34.2525C57.4699 34.0117 57.3836 33.7617 57.2684 33.5138C57.2093 33.3901 57.1436 33.2665 57.0714 33.143C56.9986 33.0199 56.9203 32.8977 56.8411 32.7722L56.8391 32.7688C56.82 32.7384 56.8117 32.7025 56.8158 32.6668C56.8198 32.6312 56.8358 32.598 56.8612 32.5726C56.8866 32.5473 56.9199 32.5313 56.9556 32.5273C56.9913 32.5234 57.0272 32.5316 57.0576 32.5508L57.0513 32.5464Z" fill="#1B1B1B"/>
<path d="M60.2718 14.4346C61.002 14.6808 61.5212 15.5947 61.1336 16.2594C60.9162 16.6316 60.4829 16.8347 60.0539 16.8801C60.0372 16.8819 60.0222 16.8839 60.0058 16.8842C59.594 16.9198 59.1806 16.8324 58.7746 16.7473L58.0616 14.82C58.3672 14.6428 58.6955 14.5079 59.0375 14.4191C59.4486 14.3135 59.8722 14.2991 60.2718 14.4346Z" fill="white"/>
<path d="M57.9856 14.6862C58.2267 14.475 58.4986 14.3017 58.7918 14.1722C59.1048 14.0323 59.4425 13.956 59.7852 13.9478C59.8298 13.9478 59.8745 13.9458 59.9197 13.9495C59.9649 13.9533 60.0101 13.9561 60.0553 13.9599C60.1464 13.9706 60.2368 13.9871 60.3259 14.0091L60.3936 14.0258C60.4155 14.0312 60.4405 14.0404 60.4639 14.0476C60.4872 14.0548 60.5111 14.0634 60.5338 14.0726C60.5566 14.0819 60.5805 14.0902 60.6026 14.1014C60.6925 14.1406 60.7792 14.1869 60.8618 14.2398C61.0241 14.3443 61.1697 14.4727 61.2937 14.6206C61.3561 14.6942 61.4128 14.7726 61.463 14.855C61.4889 14.8962 61.5119 14.9393 61.5353 14.9822C61.5586 15.025 61.5782 15.0705 61.5966 15.1165C61.6765 15.3055 61.7206 15.5077 61.7264 15.7128C61.7319 15.931 61.687 16.1476 61.5952 16.3456C61.5719 16.395 61.5458 16.443 61.5171 16.4894C61.4886 16.5346 61.4576 16.5782 61.4244 16.62C61.3597 16.702 61.2862 16.7767 61.2053 16.8427C61.128 16.9062 61.045 16.9624 60.9574 17.0107C60.7912 17.1007 60.612 17.1643 60.4261 17.1991C60.337 17.2167 60.2466 17.2276 60.1558 17.2316C60.0682 17.2355 59.9804 17.2346 59.8929 17.2287C59.8065 17.2215 59.7236 17.2106 59.6415 17.1971C59.4826 17.1677 59.3261 17.1263 59.1733 17.0734C59.0262 17.0233 58.882 16.9651 58.7414 16.8988C58.7091 16.8835 58.6828 16.8579 58.6668 16.8259C58.6509 16.7939 58.6461 16.7575 58.6534 16.7225C58.6607 16.6875 58.6796 16.656 58.707 16.633C58.7344 16.61 58.7687 16.597 58.8045 16.5959C58.958 16.5916 59.108 16.5944 59.2537 16.5936C59.3265 16.5936 59.3976 16.5936 59.4685 16.5893C59.5393 16.5849 59.6078 16.5826 59.6755 16.5769C59.7432 16.5711 59.8085 16.5631 59.8722 16.5521C59.9342 16.5427 59.9956 16.5298 60.0561 16.5133C60.1689 16.4834 60.2777 16.4402 60.3804 16.3847C60.4276 16.359 60.4731 16.3302 60.5165 16.2984C60.5269 16.2907 60.5364 16.2823 60.5453 16.2743C60.5555 16.2668 60.5651 16.2587 60.5741 16.2498L60.6029 16.2251L60.6277 16.1992C60.6591 16.1665 60.6871 16.1307 60.7112 16.0922C60.7239 16.0747 60.7322 16.0551 60.7432 16.037C60.7541 16.0189 60.7604 16.0004 60.7665 15.9817C60.7942 15.9051 60.8059 15.8235 60.8007 15.7421C60.7941 15.6482 60.7723 15.5559 60.7362 15.4689C60.6549 15.2735 60.5238 15.1028 60.3562 14.9736C60.3153 14.9417 60.272 14.9128 60.2269 14.8873C60.216 14.8804 60.2044 14.8755 60.1935 14.8691C60.1825 14.8629 60.1711 14.8574 60.1595 14.8525C60.1477 14.8476 60.1382 14.8415 60.1241 14.8369L60.0841 14.822C60.0314 14.7995 59.9747 14.786 59.9188 14.7685C59.89 14.7624 59.8612 14.7564 59.8324 14.7492C59.8036 14.742 59.7731 14.7397 59.7435 14.7342C59.5033 14.6963 59.2396 14.7089 58.9686 14.7512C58.8333 14.7736 58.6962 14.8027 58.5575 14.8375C58.4187 14.8723 58.2796 14.9146 58.1368 14.956H58.133C58.0985 14.966 58.0616 14.964 58.0283 14.9503C57.9951 14.9365 57.9675 14.9119 57.9501 14.8804C57.9328 14.849 57.9267 14.8125 57.9328 14.7771C57.9389 14.7417 57.9569 14.7094 57.9839 14.6856L57.9856 14.6862Z" fill="#1B1B1B"/>
<path d="M32.3439 29.1726C32.3211 29.2489 32.29 29.3225 32.2512 29.392C32.0822 29.6938 31.7755 29.9153 31.447 30.0344C31.0439 30.1813 30.6025 30.1983 30.1735 30.2138L29.016 28.5167C29.1337 28.4048 29.2573 28.2991 29.3863 28.2003C29.8789 27.8241 30.4585 27.558 31.0675 27.6075C31.667 27.657 32.2417 28.1336 32.3595 28.691C32.395 28.8503 32.3897 29.0159 32.3439 29.1726Z" fill="white"/>
<path d="M28.9092 28.4052C29.0924 28.1419 29.3147 27.908 29.5686 27.7117C29.8383 27.5004 30.1476 27.3449 30.4782 27.2544C30.5219 27.244 30.5645 27.2311 30.6092 27.2236C30.6538 27.2161 30.6984 27.2083 30.7433 27.2009C30.8345 27.1893 30.9262 27.1835 31.018 27.1836H31.0874C31.1102 27.1836 31.1364 27.1865 31.1608 27.1879C31.1853 27.1893 31.2107 27.1919 31.2351 27.1951C31.2596 27.1983 31.2844 27.2009 31.3086 27.2055C31.405 27.2219 31.5001 27.2459 31.5927 27.2774C31.7755 27.3397 31.9478 27.4292 32.1038 27.5429C32.1823 27.5993 32.2562 27.6617 32.325 27.7295C32.3598 27.7632 32.3926 27.7994 32.4255 27.8354C32.4583 27.8714 32.4888 27.9108 32.5179 27.9505C32.6408 28.1145 32.7324 28.2998 32.788 28.497C32.8451 28.7051 32.8539 28.9235 32.8136 29.1355C32.7733 29.3475 32.6849 29.5474 32.5553 29.7201C32.4953 29.8005 32.4279 29.875 32.3538 29.9427C32.283 30.0075 32.2072 30.0665 32.1272 30.1193C31.9729 30.2191 31.8053 30.2966 31.6293 30.3494C31.5452 30.3742 31.4599 30.3943 31.3736 30.4098C31.2873 30.4236 31.2049 30.4331 31.122 30.4386C30.9606 30.4486 30.7987 30.4463 30.6377 30.4317C30.483 30.4186 30.3292 30.3967 30.177 30.3661C30.1419 30.3591 30.1101 30.3405 30.0869 30.3133C30.0636 30.2861 30.0503 30.2519 30.0489 30.2161C30.0475 30.1804 30.0583 30.1453 30.0794 30.1164C30.1005 30.0875 30.1307 30.0665 30.1652 30.0569C30.3132 30.0158 30.4594 29.9824 30.6005 29.9464C30.6711 29.928 30.7405 29.9108 30.8081 29.8903C30.8758 29.8699 30.9417 29.8506 31.0057 29.8285C31.0696 29.8063 31.1315 29.783 31.1908 29.7572C31.2487 29.733 31.3051 29.7055 31.3598 29.6749C31.4619 29.6191 31.5571 29.5516 31.6434 29.4735C31.6829 29.4368 31.72 29.3976 31.7546 29.3562C31.7629 29.3461 31.7701 29.3355 31.7779 29.3254C31.786 29.3157 31.7933 29.3054 31.7998 29.2946L31.8205 29.2641L31.8386 29.2331C31.8612 29.1937 31.8796 29.1522 31.8936 29.1091C31.9017 29.0887 31.9052 29.068 31.9115 29.0478C31.9178 29.0277 31.9193 29.0081 31.9207 28.9883C31.9291 28.9073 31.9207 28.8254 31.8959 28.7478C31.8669 28.6582 31.8234 28.5738 31.7672 28.4981C31.6408 28.328 31.4721 28.1939 31.2777 28.1089C31.2302 28.0883 31.1814 28.0709 31.1315 28.0569C31.1191 28.0529 31.107 28.0508 31.0946 28.0477C31.0825 28.0442 31.0702 28.0415 31.0578 28.0396C31.0451 28.0376 31.0344 28.0342 31.0198 28.033L30.9771 28.0281C30.9196 28.0192 30.862 28.0195 30.8044 28.016C30.7756 28.016 30.7468 28.0181 30.7157 28.0183C30.6846 28.0186 30.6558 28.0232 30.6256 28.0252C30.3834 28.0462 30.1303 28.1222 29.877 28.2286C29.7508 28.2827 29.6247 28.3437 29.4983 28.4113C29.3719 28.4789 29.2472 28.5528 29.1188 28.6276L29.1154 28.6296C29.0843 28.6475 29.048 28.6544 29.0125 28.6491C28.977 28.6437 28.9443 28.6264 28.9199 28.6001C28.8955 28.5738 28.8808 28.54 28.8782 28.5042C28.8755 28.4684 28.8852 28.4328 28.9055 28.4032L28.9092 28.4052Z" fill="#1B1B1B"/>
<path d="M45.0741 29.7796C45.136 29.7536 45.2004 29.7343 45.2664 29.722C45.5526 29.6683 45.861 29.7468 46.115 29.8946C46.4282 30.0761 46.6765 30.3508 46.9177 30.6192L46.4464 32.2792C46.3109 32.2635 46.1763 32.2406 46.0433 32.2105C45.5348 32.0954 45.0502 31.8653 44.7539 31.4456C44.4628 31.0323 44.4611 30.4043 44.7577 30.0281C44.8408 29.9202 44.9495 29.8348 45.0741 29.7796Z" fill="white"/>
<path d="M46.4297 32.4092C46.1608 32.4329 45.8898 32.4155 45.6261 32.3577C45.344 32.2975 45.0768 32.1818 44.84 32.0174C44.8112 31.9947 44.7787 31.974 44.7499 31.9492L44.6635 31.875C44.6067 31.8227 44.5535 31.7665 44.5043 31.707L44.4668 31.6625C44.4545 31.6478 44.4421 31.6294 44.43 31.6127C44.4179 31.596 44.4055 31.5788 44.3946 31.5612C44.3836 31.5437 44.3715 31.5261 44.3615 31.5083C44.3202 31.4371 44.2847 31.3627 44.2552 31.2859C44.1965 31.1346 44.1613 30.9753 44.1507 30.8133C44.1448 30.7324 44.1454 30.6511 44.1524 30.5703C44.155 30.5294 44.1608 30.4889 44.1665 30.448C44.1723 30.4072 44.1809 30.3669 44.1913 30.3263C44.2311 30.1583 44.3018 29.9992 44.3998 29.8569C44.5308 29.667 44.7145 29.5197 44.9284 29.4329C45.0521 29.3838 45.1828 29.3547 45.3157 29.3466C45.3997 29.3423 45.4839 29.3453 45.5673 29.3555C45.6473 29.3665 45.7262 29.3837 45.8034 29.407C45.8783 29.4292 45.9513 29.4574 46.0217 29.4913C46.091 29.5236 46.1579 29.5609 46.2218 29.6029C46.2832 29.6438 46.3422 29.688 46.3986 29.7355C46.4533 29.7827 46.5046 29.8316 46.5535 29.8816C46.6469 29.9805 46.7327 30.0862 46.81 30.1981C46.8848 30.3049 46.9535 30.4158 47.0159 30.5303C47.0302 30.5567 47.0352 30.5872 47.0301 30.6168C47.0251 30.6464 47.0102 30.6734 46.9878 30.6935C46.9655 30.7137 46.9371 30.7257 46.9071 30.7278C46.8771 30.7298 46.8473 30.7218 46.8224 30.7049C46.7159 30.6315 46.6157 30.555 46.5164 30.4834C46.4663 30.448 46.4179 30.4124 46.3684 30.3799C46.3188 30.3473 46.2705 30.3151 46.2218 30.2858C46.1731 30.2565 46.1245 30.2283 46.0758 30.2047C46.0291 30.1804 45.981 30.1587 45.9318 30.14C45.8404 30.1044 45.7451 30.0795 45.648 30.066C45.5613 30.0539 45.4733 30.0552 45.3871 30.0701C45.3496 30.077 45.3129 30.0875 45.2774 30.1014C45.2598 30.1072 45.2446 30.1164 45.2281 30.123C45.2117 30.1296 45.1993 30.1394 45.185 30.1492C45.1274 30.1872 45.0784 30.2368 45.041 30.2947C44.9988 30.3625 44.9678 30.4366 44.9491 30.5142C44.9075 30.6872 44.9115 30.8681 44.9607 31.0391C44.9726 31.081 44.9878 31.1219 45.0061 31.1614C45.0102 31.1715 45.0154 31.1804 45.0197 31.1901C45.0239 31.2001 45.0288 31.2097 45.0344 31.2189C45.0398 31.2284 45.0433 31.237 45.0505 31.2477L45.0704 31.2764C45.0954 31.3176 45.1279 31.3547 45.1567 31.3947L45.206 31.4522C45.2218 31.4718 45.2417 31.4881 45.2592 31.5063C45.4032 31.6501 45.5889 31.7735 45.7936 31.8802C45.8967 31.932 46.0041 31.9805 46.1158 32.0258C46.2276 32.0701 46.3424 32.1121 46.4614 32.154H46.4645C46.4936 32.164 46.5184 32.1836 46.5347 32.2097C46.5509 32.2358 46.5576 32.2667 46.5537 32.2971C46.5498 32.3276 46.5354 32.3558 46.5131 32.3769C46.4908 32.398 46.4618 32.4107 46.4311 32.4129L46.4297 32.4092Z" fill="#1B1B1B"/>
<g opacity="0.6">
<path opacity="0.6" d="M49.7719 14.927C49.8484 14.6155 49.972 14.3176 50.1384 14.0433C50.3143 13.7493 50.5471 13.4933 50.8232 13.2903C50.8603 13.2652 50.8954 13.2376 50.9346 13.2149C50.9737 13.1922 51.0123 13.1686 51.0515 13.1456C51.1324 13.102 51.2159 13.0635 51.3017 13.0305L51.3665 13.0058C51.3875 12.9974 51.4131 12.9905 51.4365 12.9831C51.4598 12.9756 51.4843 12.969 51.5084 12.9635C51.5326 12.958 51.5565 12.9511 51.5807 12.9468C51.6766 12.9274 51.774 12.9158 51.8718 12.912C52.0648 12.9047 52.2578 12.9266 52.4442 12.9767C52.5377 13.0011 52.629 13.0329 52.7175 13.0716C52.7621 13.0903 52.8059 13.1125 52.8496 13.1344C52.8934 13.1562 52.936 13.1821 52.9772 13.2091C53.151 13.3184 53.3031 13.4588 53.4258 13.6234C53.5557 13.7991 53.6433 14.0025 53.6818 14.2176C53.6913 14.2715 53.6975 14.3258 53.7005 14.3804C53.7034 14.4338 53.7034 14.4873 53.7005 14.5407C53.6945 14.6448 53.6772 14.748 53.6489 14.8484C53.6221 14.9447 53.5863 15.0383 53.5421 15.128C53.415 15.378 53.2341 15.5967 53.0123 15.7686C52.9428 15.8219 52.8703 15.8713 52.7952 15.9165C52.7209 15.9599 52.6461 15.9987 52.5709 16.0347C52.4239 16.1018 52.272 16.1576 52.1166 16.2018C51.9675 16.2448 51.8162 16.2793 51.6633 16.3054C51.6281 16.3114 51.5918 16.3055 51.5604 16.2884C51.5289 16.2714 51.5041 16.2443 51.49 16.2115C51.4759 16.1786 51.4732 16.142 51.4824 16.1075C51.4917 16.073 51.5123 16.0426 51.541 16.0212C51.6642 15.9297 51.7889 15.846 51.9075 15.7623C51.9668 15.7197 52.0256 15.6789 52.0803 15.6357C52.135 15.5926 52.1906 15.5494 52.2427 15.5069C52.2948 15.4643 52.3437 15.4206 52.3898 15.374C52.4352 15.3308 52.478 15.285 52.5179 15.2368C52.5932 15.1477 52.6576 15.0501 52.71 14.9459C52.7336 14.8974 52.7541 14.8475 52.7713 14.7964C52.7753 14.784 52.7785 14.7716 52.7823 14.7593C52.7863 14.7473 52.7894 14.7351 52.7918 14.7227L52.8001 14.6868L52.8056 14.6514C52.8125 14.6066 52.8148 14.5612 52.8125 14.5159C52.8125 14.4941 52.8085 14.4733 52.807 14.4523C52.8056 14.4313 52.8004 14.4124 52.7944 14.3948C52.7731 14.3161 52.7359 14.2425 52.6849 14.1788C52.6254 14.1058 52.5546 14.0427 52.4753 13.9918C52.2964 13.8786 52.0911 13.8138 51.8796 13.804C51.8278 13.8015 51.776 13.8027 51.7244 13.8077C51.7114 13.8077 51.6993 13.8109 51.6867 13.812C51.674 13.8132 51.6613 13.8152 51.6492 13.8178C51.6371 13.8204 51.6253 13.8213 51.6115 13.8253L51.5701 13.8362C51.5139 13.8504 51.4584 13.8674 51.4039 13.8871C51.3766 13.8983 51.3495 13.9101 51.3219 13.9208C51.2942 13.9314 51.2677 13.947 51.2401 13.9596C51.0218 14.0657 50.8128 14.2277 50.6153 14.4173C50.5174 14.5131 50.4214 14.6152 50.3273 14.7236C50.2346 14.832 50.1439 14.9457 50.0509 15.0616L50.0483 15.0645C50.0258 15.0924 49.9944 15.1118 49.9593 15.1196C49.9242 15.1273 49.8875 15.1229 49.8553 15.1071C49.823 15.0913 49.7971 15.065 49.7818 15.0325C49.7665 15 49.7627 14.9633 49.771 14.9284L49.7719 14.927Z" fill="#1B1B1B"/>
<path opacity="0.6" d="M24.815 32.9746C24.7626 33.0842 24.7119 33.1926 24.6667 33.3008C24.6215 33.4089 24.5803 33.5174 24.5475 33.6244C24.5314 33.6782 24.5161 33.7314 24.5043 33.7849C24.4925 33.8384 24.4804 33.8905 24.4721 33.9428C24.456 34.0438 24.4488 34.146 24.4505 34.2483C24.4502 34.4304 24.4923 34.6101 24.5734 34.7732C24.6103 34.8384 24.6523 34.9004 24.6992 34.9588C24.7424 35.0163 24.7836 35.0738 24.8311 35.1253C24.8768 35.1751 24.9297 35.2178 24.988 35.2519C25.0024 35.2585 25.0168 35.2686 25.0312 35.274C25.0456 35.2795 25.06 35.2853 25.0759 35.2922C25.0917 35.2991 25.1064 35.2993 25.1219 35.304C25.1297 35.3065 25.1377 35.308 25.1458 35.3083L25.17 35.3114C25.1782 35.3131 25.1865 35.3141 25.1948 35.3146H25.2198C25.2373 35.3161 25.2549 35.3156 25.2722 35.3132C25.2898 35.3106 25.3082 35.3103 25.3267 35.3068C25.3451 35.3034 25.3638 35.297 25.3842 35.2927C25.4032 35.2881 25.4218 35.2824 25.4401 35.2755C25.4577 35.2671 25.4767 35.2611 25.4942 35.2513C25.5311 35.2332 25.5665 35.2123 25.6002 35.1889C25.6724 35.1362 25.736 35.0726 25.7888 35.0005C25.8473 34.9226 25.8949 34.8372 25.9305 34.7465C26.0104 34.5465 26.051 34.333 26.0499 34.1177V34.1134C26.0498 34.0759 26.0632 34.0395 26.0877 34.0111C26.1122 33.9826 26.1461 33.9639 26.1833 33.9584C26.2205 33.9529 26.2584 33.9609 26.2901 33.981C26.3218 34.0012 26.3452 34.032 26.356 34.0679C26.3747 34.1304 26.3909 34.1942 26.4038 34.2595C26.4161 34.3254 26.425 34.392 26.4303 34.4588C26.4355 34.5258 26.4369 34.5931 26.4346 34.6602C26.4346 34.6939 26.432 34.7278 26.4294 34.7612C26.4269 34.7945 26.4243 34.8273 26.4191 34.863C26.4002 35.0057 26.3626 35.1452 26.3071 35.2781C26.2479 35.418 26.1677 35.5481 26.0692 35.6638C25.9645 35.7861 25.8386 35.8885 25.6975 35.9661C25.6615 35.9851 25.625 36.0038 25.5881 36.0219C25.5512 36.04 25.5101 36.0524 25.4706 36.0671C25.4305 36.0819 25.3893 36.0937 25.3474 36.1022L25.284 36.1165C25.2626 36.1206 25.241 36.1235 25.2193 36.1252L25.1536 36.1318C25.1317 36.1344 25.1097 36.1355 25.0877 36.1352C25.0436 36.1352 24.9993 36.1352 24.9549 36.1321C24.9106 36.1289 24.8686 36.1209 24.8236 36.1142C24.7787 36.1076 24.7373 36.0947 24.6952 36.084C24.5285 36.036 24.3714 35.9593 24.2311 35.8574C24.0923 35.7599 23.9748 35.6353 23.8855 35.4912C23.8746 35.4734 23.8631 35.4558 23.8533 35.4371C23.8435 35.4184 23.8346 35.3994 23.8245 35.3796C23.8144 35.3598 23.8067 35.3416 23.7977 35.3221C23.7888 35.3025 23.783 35.2827 23.7756 35.2631C23.7469 35.1861 23.7251 35.1067 23.7105 35.0258C23.6811 34.8727 23.6724 34.7164 23.6846 34.561C23.6957 34.4145 23.7235 34.2697 23.7672 34.1295C23.8086 33.9953 23.8636 33.8656 23.9313 33.7426C23.9639 33.6828 23.9987 33.6247 24.0353 33.57C24.0718 33.5154 24.1121 33.4613 24.1522 33.4092C24.3106 33.21 24.4927 33.0308 24.6946 32.8757C24.7088 32.8647 24.7262 32.8588 24.744 32.8589C24.7619 32.859 24.7792 32.8652 24.7932 32.8763C24.8072 32.8875 24.8169 32.9031 24.8209 32.9205C24.8249 32.9379 24.8229 32.9562 24.8153 32.9723L24.815 32.9746Z" fill="#1B1B1B"/>
<path opacity="0.6" d="M51.7279 27.5833C51.8126 27.6877 51.8966 27.7899 51.9839 27.8871C52.0711 27.9843 52.1607 28.0761 52.2522 28.1612C52.2989 28.2032 52.3455 28.244 52.3936 28.2817C52.4417 28.3194 52.4892 28.3568 52.5376 28.3905C52.5859 28.4241 52.636 28.4552 52.6864 28.4834C52.7115 28.4977 52.7371 28.5104 52.7619 28.5242C52.7866 28.538 52.8125 28.5495 52.8385 28.5607C53.0266 28.6503 53.2327 28.6957 53.4411 28.6933C53.4529 28.6933 53.4647 28.6933 53.4762 28.6916L53.5105 28.6885C53.5223 28.6885 53.5332 28.6861 53.5436 28.6844C53.554 28.6827 53.5649 28.6821 53.5756 28.6798C53.6182 28.6723 53.6602 28.6646 53.7017 28.6551C53.7841 28.6385 53.8656 28.6172 53.9456 28.5912C54.0221 28.5646 54.0937 28.5257 54.1578 28.4762C54.2193 28.4289 54.2705 28.3696 54.3084 28.3019C54.3285 28.2665 54.3449 28.2291 54.357 28.1903C54.3711 28.1484 54.3807 28.1052 54.3858 28.0614C54.3969 27.9685 54.3922 27.8743 54.372 27.7829C54.3487 27.6832 54.3104 27.5875 54.2583 27.4993C54.2032 27.4036 54.1354 27.3157 54.0567 27.2381C53.8862 27.0668 53.6841 26.93 53.4615 26.8354H53.4584C53.4235 26.8206 53.3953 26.7936 53.3789 26.7595C53.3625 26.7253 53.3591 26.6864 53.3693 26.65C53.3796 26.6135 53.4027 26.582 53.4344 26.5614C53.4662 26.5407 53.5044 26.5323 53.5419 26.5377C53.6869 26.5575 53.8292 26.5933 53.9663 26.6444C54.0357 26.6705 54.1036 26.7001 54.1699 26.7333C54.2033 26.7497 54.2361 26.767 54.268 26.7851C54.3 26.8032 54.3317 26.8208 54.3648 26.8426C54.4978 26.9266 54.6191 27.0278 54.7256 27.1435C54.8365 27.2648 54.9283 27.4023 54.998 27.5511C55.071 27.7092 55.1153 27.8789 55.129 28.0525C55.1368 28.1416 55.1361 28.2313 55.127 28.3203C55.1181 28.4128 55.0995 28.5041 55.0714 28.5927C55.0429 28.6831 55.0054 28.7704 54.9594 28.8533C54.9128 28.936 54.8583 29.014 54.7967 29.0863C54.6758 29.2284 54.5304 29.3478 54.3674 29.4389C54.2094 29.5305 54.035 29.5903 53.854 29.615C53.6754 29.6369 53.4943 29.626 53.3196 29.5827C53.1547 29.5447 52.9957 29.485 52.8465 29.4053C52.7051 29.33 52.5726 29.2391 52.4515 29.1343C52.3349 29.0341 52.2288 28.9224 52.1348 28.8009C52.0887 28.7417 52.0452 28.6815 52.0052 28.6203C51.9652 28.559 51.9289 28.4954 51.8937 28.4324C51.7611 28.1852 51.6586 27.923 51.5883 27.6515C51.5836 27.634 51.5851 27.6155 51.5925 27.599C51.5999 27.5825 51.6128 27.569 51.6289 27.5608C51.645 27.5526 51.6634 27.5502 51.6811 27.5539C51.6988 27.5576 51.7147 27.5673 51.7262 27.5813L51.7279 27.5833Z" fill="#1B1B1B"/>
<path opacity="0.6" d="M22.3062 21.5625C22.3041 21.739 22.3262 21.915 22.3719 22.0855C22.3834 22.1258 22.3964 22.1646 22.4111 22.2023C22.4248 22.2394 22.4405 22.2758 22.458 22.3113C22.4911 22.3783 22.5313 22.4417 22.5778 22.5003L22.6115 22.5397C22.6224 22.5529 22.6362 22.5644 22.648 22.5765C22.6708 22.6015 22.7001 22.6211 22.724 22.6432C22.7373 22.6533 22.7528 22.6622 22.7649 22.672L22.7848 22.6861C22.7914 22.6904 22.7989 22.6941 22.8058 22.6982C22.8199 22.7059 22.8346 22.714 22.847 22.722L22.8893 22.741C22.8962 22.7442 22.9028 22.7479 22.9098 22.7505L22.9311 22.7571C22.9455 22.7614 22.9581 22.7681 22.972 22.7718C22.9855 22.7748 22.9989 22.7787 23.012 22.7833C23.0246 22.7885 23.0376 22.7896 23.05 22.7937C23.0745 22.8026 23.0984 22.8072 23.1217 22.8161C23.1335 22.821 23.145 22.8221 23.1568 22.8259C23.1681 22.8305 23.1799 22.8338 23.1919 22.836C23.204 22.838 23.2158 22.8406 23.2282 22.8437C23.2406 22.8469 23.2527 22.8454 23.2654 22.8472L23.2844 22.8495C23.2908 22.8499 23.2972 22.8499 23.3037 22.8495C23.3163 22.8495 23.3296 22.8495 23.3431 22.8495C23.3566 22.8495 23.3699 22.8446 23.3837 22.8429C23.3979 22.8417 23.4119 22.839 23.4254 22.8348C23.4547 22.8268 23.4836 22.8172 23.5118 22.806C23.6333 22.755 23.7385 22.672 23.8165 22.5659C23.8618 22.5071 23.9004 22.4436 23.9316 22.3763C23.94 22.359 23.948 22.3418 23.955 22.3237C23.9628 22.3059 23.9697 22.2878 23.9757 22.2693C23.9826 22.2515 23.9886 22.2319 23.9947 22.2118C24.0007 22.1916 24.0062 22.1718 24.0114 22.1519C24.0549 21.9889 24.0731 21.8202 24.0655 21.6517V21.6491C24.0642 21.6171 24.0744 21.5856 24.0941 21.5602C24.1138 21.5349 24.1418 21.5173 24.1733 21.5106C24.2047 21.5039 24.2375 21.5086 24.2658 21.5237C24.2942 21.5388 24.3162 21.5635 24.3281 21.5933C24.403 21.7861 24.4428 21.9906 24.4456 22.1974C24.4456 22.2236 24.4456 22.2494 24.4456 22.2753C24.4456 22.3012 24.4456 22.3271 24.4419 22.3544C24.4381 22.3818 24.4381 22.4091 24.4344 22.4361C24.4306 22.4632 24.4275 22.4905 24.4228 22.5178C24.4035 22.6289 24.3718 22.7376 24.3284 22.8417C24.2356 23.0668 24.0833 23.2626 23.8879 23.4081C23.8363 23.4448 23.7827 23.4786 23.7272 23.509C23.6993 23.5248 23.6705 23.5389 23.6408 23.551C23.612 23.5637 23.5812 23.5778 23.5498 23.5884C23.5184 23.5991 23.4862 23.6083 23.4537 23.6172C23.4375 23.6215 23.4217 23.6273 23.405 23.6301L23.3549 23.6391C23.3212 23.6445 23.2875 23.6511 23.2535 23.654C23.2196 23.6569 23.1853 23.6572 23.1508 23.6583C23.1164 23.6596 23.0821 23.6582 23.048 23.6543L22.9967 23.6491C22.9797 23.648 22.9629 23.6454 22.9463 23.6414C22.9132 23.6339 22.8798 23.627 22.847 23.6178L22.8225 23.6109L22.7992 23.6019C22.7834 23.5962 22.7678 23.5896 22.7525 23.5835C22.6915 23.5579 22.6331 23.5265 22.5781 23.4898C22.5513 23.4714 22.5259 23.4515 22.5006 23.4322L22.4632 23.4035C22.4511 23.3931 22.4398 23.3819 22.4283 23.371L22.3607 23.3054C22.3399 23.2821 22.3195 23.2588 22.2996 23.2352C22.2898 23.2234 22.2795 23.2119 22.2708 23.1998L22.2438 23.1624C22.2262 23.1374 22.2084 23.113 22.1919 23.0874C22.1598 23.0364 22.1309 22.9835 22.1056 22.9289C22.0935 22.9001 22.0799 22.8751 22.0699 22.8472L22.0411 22.7632C22.0059 22.655 21.9843 22.543 21.9766 22.4295C21.9725 22.3743 21.9714 22.3199 21.9728 22.2658C21.9743 22.2118 21.9803 22.1585 21.9872 22.1062C22.0149 21.9039 22.0809 21.7086 22.1816 21.5309C22.1892 21.5177 22.2009 21.5073 22.215 21.5014C22.2291 21.4956 22.2447 21.4945 22.2595 21.4984C22.2743 21.5023 22.2873 21.5109 22.2966 21.523C22.306 21.5351 22.3111 21.5499 22.3111 21.5651L22.3062 21.5625Z" fill="#1B1B1B"/>
<path opacity="0.6" d="M25.5579 17.267C25.6102 17.4357 25.6851 17.5964 25.7807 17.7448C25.8041 17.7793 25.8283 17.8127 25.8539 17.8441C25.8795 17.8754 25.9048 17.9056 25.9319 17.9335C25.9842 17.9874 26.0422 18.0357 26.1047 18.0773L26.1487 18.1061C26.1634 18.115 26.1798 18.1216 26.1948 18.1297C26.2236 18.1467 26.2581 18.1562 26.2878 18.17C26.3036 18.1754 26.32 18.1795 26.3353 18.1846L26.3586 18.1918C26.3664 18.1938 26.3745 18.1953 26.3825 18.1967C26.3984 18.1999 26.4136 18.2036 26.4289 18.2071L26.475 18.2122C26.4824 18.2122 26.4899 18.2146 26.4974 18.2148H26.5199C26.5348 18.2148 26.5487 18.2169 26.5631 18.2148C26.5769 18.214 26.5907 18.214 26.6045 18.2148C26.6183 18.2148 26.6313 18.2131 26.6443 18.2131C26.6705 18.2131 26.6944 18.2111 26.7194 18.2131C26.7318 18.2131 26.7433 18.2131 26.7557 18.2131C26.7679 18.2143 26.7801 18.2143 26.7923 18.2131C26.8044 18.2114 26.8164 18.2102 26.8291 18.2094C26.8418 18.2085 26.853 18.2036 26.8654 18.2013L26.8844 18.1976C26.8906 18.196 26.8967 18.1939 26.9025 18.1913C26.9146 18.1867 26.927 18.1823 26.9397 18.1783C26.9524 18.1737 26.9639 18.1657 26.9765 18.1599C26.9896 18.1541 27.0021 18.1472 27.014 18.1392C27.037 18.1214 27.0646 18.1067 27.0862 18.0863C27.1862 18.0005 27.2609 17.8893 27.3025 17.7644C27.3271 17.6947 27.344 17.6226 27.3529 17.5492C27.3555 17.5302 27.3578 17.5113 27.3589 17.4917C27.3601 17.4721 27.3618 17.4532 27.3621 17.4342C27.3624 17.4152 27.3621 17.3945 27.3621 17.3735C27.3621 17.3525 27.3621 17.3321 27.3595 17.3113C27.3511 17.1429 27.3167 16.9768 27.2576 16.8189V16.8163C27.2465 16.7862 27.2464 16.753 27.2574 16.7229C27.2684 16.6927 27.2897 16.6673 27.3176 16.6513C27.3455 16.6353 27.3782 16.6297 27.4098 16.6355C27.4415 16.6413 27.47 16.658 27.4905 16.6828C27.6208 16.8433 27.7213 17.0258 27.7874 17.2216C27.7957 17.2461 27.8035 17.2708 27.811 17.2955C27.8185 17.3203 27.8257 17.3453 27.832 17.372C27.8383 17.3988 27.8449 17.4253 27.8498 17.452C27.8547 17.4788 27.8599 17.5061 27.8637 17.5334C27.8792 17.6451 27.8825 17.7581 27.8734 17.8705C27.8539 18.1132 27.7689 18.3461 27.6276 18.5445C27.5898 18.5949 27.5491 18.6429 27.5055 18.6883C27.4835 18.7121 27.4601 18.7344 27.4352 18.755C27.4105 18.7763 27.3868 18.799 27.3601 18.8186C27.3333 18.8382 27.3054 18.8569 27.2774 18.8761C27.2633 18.8853 27.2486 18.8954 27.2348 18.9049L27.1899 18.9288C27.1597 18.944 27.1297 18.961 27.098 18.9739C27.0664 18.9869 27.0341 18.9981 27.0016 19.0096C26.9693 19.0216 26.9362 19.0313 26.9025 19.0384L26.8521 19.049C26.8356 19.053 26.8187 19.0558 26.8018 19.0574C26.7681 19.0602 26.7341 19.0637 26.7001 19.0648H26.6745H26.6494L26.5993 19.0614C26.5335 19.0556 26.4683 19.0436 26.4047 19.0254C26.3736 19.0162 26.3434 19.005 26.3131 18.9938L26.2682 18.9765C26.2535 18.9705 26.2394 18.963 26.2253 18.9564L26.1407 18.9147C26.1139 18.8989 26.0871 18.8828 26.0609 18.8664C26.048 18.8583 26.0347 18.8502 26.022 18.8416L25.9852 18.8129C25.9607 18.7944 25.9359 18.7766 25.9126 18.7576C25.8667 18.7187 25.8233 18.677 25.7825 18.6328C25.7626 18.6104 25.7419 18.5894 25.7249 18.5658L25.6708 18.495C25.6041 18.4029 25.5491 18.3029 25.5072 18.1973C25.4865 18.1459 25.4685 18.0943 25.4534 18.0425C25.439 17.9902 25.4275 17.9381 25.418 17.8861C25.3824 17.6849 25.3853 17.4789 25.4266 17.2788C25.4297 17.2639 25.4377 17.2504 25.4493 17.2405C25.4609 17.2305 25.4755 17.2247 25.4908 17.2239C25.506 17.2231 25.5211 17.2273 25.5337 17.2359C25.5464 17.2446 25.5557 17.2571 25.5605 17.2717L25.5579 17.267Z" fill="#1B1B1B"/>
<path opacity="0.6" d="M54.7912 22.7499C54.9436 22.8387 55.1074 22.9065 55.2781 22.9512C55.3187 22.961 55.359 22.9691 55.399 22.9751C55.438 22.9817 55.4773 22.9862 55.5168 22.9886C55.5915 22.9931 55.6665 22.9899 55.7405 22.9788L55.7915 22.9691C55.8085 22.9662 55.8252 22.9599 55.8416 22.9555C55.8747 22.9483 55.9063 22.9325 55.9374 22.9227C55.9527 22.9161 55.9662 22.9084 55.9824 22.9015L56.0045 22.8914C56.0117 22.8877 56.0184 22.8831 56.0256 22.879C56.0391 22.8704 56.0529 22.8629 56.0664 22.8552L56.1042 22.8281C56.1102 22.8235 56.1168 22.8195 56.1226 22.8149L56.139 22.7996C56.1497 22.7893 56.1618 22.7815 56.1718 22.7709C56.1808 22.7607 56.1904 22.7511 56.2006 22.7421C56.2113 22.7335 56.2191 22.7228 56.2294 22.7133C56.2496 22.6964 56.2651 22.678 56.2847 22.6624C56.2945 22.6547 56.3014 22.6452 56.3106 22.6368C56.3201 22.629 56.3289 22.6204 56.3368 22.6109C56.3443 22.6017 56.3527 22.5928 56.3613 22.5836C56.3699 22.5744 56.3751 22.5632 56.3826 22.5531L56.3941 22.5379C56.3977 22.5325 56.4008 22.5269 56.4033 22.5209C56.4091 22.5094 56.4154 22.4979 56.422 22.4861C56.4287 22.4743 56.4313 22.4605 56.4367 22.4478C56.4426 22.4348 56.4472 22.4212 56.4505 22.4073C56.4578 22.3788 56.4637 22.35 56.4681 22.321C56.484 22.1903 56.4641 22.0578 56.4105 21.9376C56.3817 21.8694 56.3454 21.8047 56.3023 21.7446C56.2916 21.729 56.2804 21.7135 56.2683 21.6985C56.2562 21.6836 56.2444 21.668 56.2314 21.6534C56.2185 21.6387 56.2052 21.6246 56.1905 21.6082C56.1759 21.5918 56.1617 21.5794 56.1468 21.5642C56.0269 21.4456 55.8895 21.346 55.7394 21.2691L55.7368 21.2676C55.7084 21.2527 55.6863 21.2283 55.6742 21.1987C55.6621 21.1691 55.6608 21.1361 55.6706 21.1057C55.6804 21.0752 55.7006 21.0492 55.7277 21.0321C55.7548 21.0151 55.7871 21.0081 55.8188 21.0125C56.0234 21.0431 56.2207 21.1101 56.4016 21.2104C56.4243 21.2228 56.4468 21.236 56.4693 21.2489C56.4917 21.2619 56.5133 21.276 56.5361 21.2915C56.5588 21.307 56.5816 21.322 56.6034 21.3384C56.6253 21.3548 56.6472 21.3715 56.6685 21.3893C56.7555 21.4612 56.8342 21.5425 56.9032 21.6318C57.0526 21.8242 57.147 22.0534 57.1764 22.2951C57.1828 22.358 57.1854 22.4212 57.1842 22.4844C57.1839 22.5167 57.1816 22.549 57.1773 22.581C57.1733 22.6135 57.1712 22.6463 57.1646 22.6788C57.158 22.7113 57.1502 22.7438 57.1422 22.7763C57.1378 22.7927 57.135 22.8094 57.1292 22.8252L57.1119 22.8733C57.1001 22.9049 57.0892 22.9374 57.0748 22.9685C57.0604 22.9996 57.0437 23.0295 57.0273 23.0597C57.0114 23.0897 56.9933 23.1186 56.9732 23.146L56.9444 23.1877C56.9346 23.2018 56.924 23.2153 56.9124 23.2279C56.8894 23.2527 56.8666 23.278 56.8424 23.3019L56.8243 23.3197L56.805 23.3358C56.792 23.3464 56.7788 23.3568 56.7655 23.3669C56.7132 23.4073 56.657 23.4423 56.5977 23.4716C56.5689 23.486 56.5387 23.4978 56.5087 23.5098L56.4638 23.5274C56.4488 23.5328 56.435 23.5369 56.4186 23.5415L56.3279 23.5677C56.2974 23.574 56.2668 23.5803 56.2366 23.5858C56.2214 23.5884 56.2061 23.5915 56.1911 23.5935L56.1453 23.5984C56.1148 23.6013 56.0846 23.6048 56.0543 23.6062C55.9942 23.6084 55.934 23.6069 55.8741 23.6016C55.8453 23.5984 55.8148 23.5973 55.7851 23.5921L55.6988 23.5763C55.5873 23.5531 55.4792 23.5162 55.3768 23.4664C55.327 23.4425 55.2789 23.4163 55.2329 23.3884C55.1868 23.3605 55.1433 23.3286 55.1013 23.2967C54.9394 23.1721 54.8026 23.018 54.6982 22.8425C54.6888 22.8267 54.6861 22.8078 54.6906 22.79C54.6952 22.7722 54.7066 22.757 54.7224 22.7476C54.7329 22.7413 54.7449 22.7381 54.7572 22.7381C54.7695 22.7381 54.7815 22.7413 54.7921 22.7476L54.7912 22.7499Z" fill="#1B1B1B"/>
<g opacity="0.3">
<path opacity="0.3" d="M25.9374 35.3081C24.8254 38.7751 21.534 35.8918 24.0831 33.7681C24.0831 33.7681 23.5233 36.3756 25.9374 35.3081Z" fill="#1B1B1B"/>
</g>
<g opacity="0.3">
<path opacity="0.3" d="M24.2354 22.3969C24.2354 25.676 20.798 24.7673 22.1755 22.0005C22.599 23.1033 23.3808 23.4775 24.2354 22.3969Z" fill="#1B1B1B"/>
</g>
<g opacity="0.3">
<path opacity="0.3" d="M27.6082 17.2407C28.8176 20.6654 24.7102 21.0138 25.4908 17.6906C25.8285 19.2778 27.946 18.828 27.6082 17.2407Z" fill="#1B1B1B"/>
</g>
<g opacity="0.35">
<path opacity="0.35" d="M54.9231 28.1489C55.3685 31.8483 51.0109 31.5581 51.9666 28.1489C53.0017 29.4804 53.9959 29.7172 54.9231 28.1489Z" fill="#1B1B1B"/>
</g>
<g opacity="0.3">
<path opacity="0.3" d="M51.8825 16.1635C52.6378 18.9045 55.2718 16.5441 53.6061 14.377C53.6061 14.3772 53.1802 16.0922 51.8825 16.1635Z" fill="#1B1B1B"/>
</g>
<g opacity="0.3">
<path opacity="0.3" d="M56.824 22.0718C57.9443 25.124 54.866 25.6765 54.9553 23.0644C55.9386 23.4315 56.7255 23.4168 56.824 22.0718Z" fill="#1B1B1B"/>
</g>
</g>
<g opacity="0.3">
<path opacity="0.3" d="M32.3581 28.7018C32.3518 28.753 32.3115 29.0378 32.2513 29.3939C32.0823 29.6956 31.7756 29.9171 31.4471 30.0362C31.044 30.1832 30.6026 30.2001 30.1735 30.2157L29.0161 28.5186C29.1338 28.4066 29.2574 28.301 29.3863 28.2021C29.1384 29.691 32.1024 30.1849 32.3581 28.7018Z" fill="#1B1B1B"/>
</g>
<g opacity="0.35">
<path opacity="0.35" d="M57.6007 33.4817C56.4373 33.3747 55.7366 33.9128 55.4988 35.096C55.3502 34.7105 55.3191 34.2906 55.288 33.8764L56.9428 32.6567C57.1987 32.9005 57.4201 33.178 57.6007 33.4817Z" fill="#1B1B1B"/>
</g>
<g opacity="0.2">
<path opacity="0.2" d="M38.356 64.0001C49.4789 64.0001 58.4958 62.5835 58.4958 60.836C58.4958 59.0885 49.4789 57.6719 38.356 57.6719C27.2331 57.6719 18.2162 59.0885 18.2162 60.836C18.2162 62.5835 27.2331 64.0001 38.356 64.0001Z" fill="#650000"/>
</g>
</svg>
