<svg width="64" height="64" viewBox="0 0 64 64" fill="none" xmlns="http://www.w3.org/2000/svg">
<g opacity="0.35">
<g opacity="0.35">
<path opacity="0.35" d="M53.0981 51.695H3.73488C1.48787 51.695 -0.229688 49.7106 0.119903 47.5186L3.80581 24.3642C3.9274 23.6035 4.59112 23.043 5.36883 23.043H51.6491C52.442 23.043 53.1133 23.621 53.2197 24.3967L56.442 47.9164C56.7156 49.9158 55.1425 51.695 53.0981 51.695Z" fill="#792937"/>
</g>
<g opacity="0.35">
<path opacity="0.35" d="M53.0979 51.7578H3.73483C2.64553 51.7578 1.61196 51.2873 0.905184 50.4691C0.198404 49.6508 -0.113187 48.5723 0.0565418 47.5063L3.74243 24.3518C3.8691 23.5561 4.55308 22.978 5.36879 22.978H51.6489C52.4697 22.978 53.1714 23.5836 53.2829 24.3869L56.5052 47.9066C56.6394 48.8776 56.3405 49.8585 55.6869 50.5967C55.0333 51.3349 54.091 51.7578 53.0979 51.7578ZM5.36879 23.1056C4.61641 23.1056 3.98563 23.6387 3.86656 24.3743L0.180671 47.5288C0.0160096 48.5573 0.314934 49.5982 0.998914 50.389C1.68289 51.1797 2.681 51.6327 3.7323 51.6327H53.0954C54.0504 51.6327 54.9599 51.2248 55.5881 50.5141C56.2164 49.8034 56.5052 48.86 56.376 47.9242L53.1537 24.4044C53.0523 23.6637 52.4038 23.1056 51.6464 23.1056H5.36879Z" fill="#1B1B1B"/>
</g>
</g>
<path d="M17.9085 45.0063V47.5187C17.9085 48.0893 17.4424 48.5497 16.8648 48.5497H12.5582C12.0921 48.5497 11.6817 48.2444 11.5525 47.799L11.17 46.4652L10.752 45.0063H17.9085Z" fill="#FFD78F"/>
<path d="M16.8622 48.6147H12.5557C12.0617 48.6147 11.6234 48.2869 11.4892 47.8189L10.6684 44.9463H17.9718V47.5211C17.9718 48.1217 17.4727 48.6147 16.8622 48.6147ZM10.8356 45.0689L11.6108 47.7839C11.7298 48.1993 12.12 48.4895 12.5557 48.4895H16.8648C17.4069 48.4895 17.8477 48.0541 17.8477 47.5186V45.0689H10.8356Z" fill="#1B1B1B"/>
<path d="M58.6535 45.0063L58.2355 46.4652L57.853 47.799C57.7263 48.2444 57.3159 48.5497 56.8473 48.5497H52.5407C51.9631 48.5497 51.497 48.0893 51.497 47.5187V45.0063H58.6535Z" fill="#FFD78F"/>
<path d="M56.8498 48.6147H52.5432C51.9327 48.6147 51.4337 48.1243 51.4337 47.5187V44.9438H58.7371L57.9137 47.8165C57.782 48.2869 57.3438 48.6147 56.8498 48.6147ZM51.5603 45.069V47.5187C51.5603 48.0542 52.0011 48.4896 52.5432 48.4896H56.8498C57.288 48.4896 57.6756 48.1993 57.7947 47.784L58.5724 45.069H51.5603Z" fill="#1B1B1B"/>
<path d="M63.3172 38.9232H5.81207L10.1617 11.5922C10.2833 10.8315 10.947 10.271 11.7247 10.271H58.0049C58.7978 10.271 59.4691 10.849 59.5755 11.6248L63.3172 38.9232Z" fill="#FFD78F"/>
<path d="M63.3881 38.9857H5.73608L10.0984 11.5823C10.225 10.7865 10.909 10.2085 11.7247 10.2085H58.0049C58.8257 10.2085 59.5274 10.8141 59.6389 11.6173L63.3881 38.9857ZM5.88555 38.8606H63.2437L59.5122 11.6323C59.4109 10.8916 58.7624 10.3336 58.0049 10.3336H11.7247C10.9723 10.3336 10.3416 10.8666 10.2225 11.6023L5.88555 38.8606Z" fill="#1B1B1B"/>
<g opacity="0.35">
<path opacity="0.35" d="M13.4499 10.271C12.6722 10.271 12.0085 10.8315 11.8869 11.5922L7.53728 38.9232H6.14398L10.4936 11.5922C10.6152 10.8315 11.2789 10.271 12.0566 10.271H13.4499Z" fill="#1B1B1B"/>
</g>
<g opacity="0.55">
<path opacity="0.55" d="M63.3172 38.9232H61.7972L58.0556 11.6248C57.9492 10.849 57.2779 10.271 56.485 10.271H58.0049C58.7979 10.271 59.4692 10.849 59.5756 11.6248L63.3172 38.9232Z" fill="white"/>
</g>
<path d="M5.81207 38.9231L7.07111 43.8277C7.24843 44.5209 7.88175 45.0089 8.60626 45.0089H60.523C61.2475 45.0089 61.8808 44.5234 62.0581 43.8277L63.3172 38.9231H5.81207Z" fill="#FFD78F"/>
<path d="M60.5229 45.0689H8.60627C7.85136 45.0689 7.19524 44.5634 7.01032 43.8427L5.73102 38.8606H63.3982L62.1189 43.8427C61.934 44.5634 61.2753 45.0689 60.5229 45.0689ZM5.89315 38.9857L7.13191 43.8127C7.30417 44.4808 7.90962 44.9463 8.60627 44.9463H60.5229C61.2196 44.9463 61.825 44.4808 61.9973 43.8127L63.2361 38.9857H5.89315Z" fill="#1B1B1B"/>
<g opacity="0.35">
<path opacity="0.35" d="M10.752 45.0063H17.9085V46.4677H11.1674L10.752 45.0063Z" fill="#1B1B1B"/>
</g>
<g opacity="0.35">
<path opacity="0.35" d="M58.6534 45.0063L58.2354 46.4677H51.4969V45.0063H58.6534Z" fill="#1B1B1B"/>
</g>
<g opacity="0.35">
<path opacity="0.35" d="M10.334 45.0064H8.60634C7.88182 45.0064 7.2485 44.5209 7.07117 43.8277L5.81213 38.9231H7.53983L8.8014 43.8277C8.9762 44.5209 9.60952 45.0064 10.334 45.0064Z" fill="#1B1B1B"/>
</g>
<g opacity="0.55">
<path opacity="0.55" d="M63.3172 38.9231L62.0582 43.8277C61.8783 44.5209 61.2475 45.0064 60.523 45.0064H58.8764C59.6009 45.0064 60.2342 44.5209 60.4116 43.8277L61.6706 38.9231H63.3172Z" fill="white"/>
</g>
<g opacity="0.55">
<path opacity="0.55" d="M17.7818 45.0063V47.5187C17.7818 48.0893 17.3156 48.5497 16.7381 48.5497H15.783C16.3606 48.5497 16.8267 48.0893 16.8267 47.5187V45.0063H17.7818Z" fill="white"/>
</g>
<g opacity="0.55">
<path opacity="0.55" d="M58.6534 45.0063L57.8555 47.799C57.7288 48.2444 57.3184 48.5497 56.8498 48.5497H55.6794C56.148 48.5497 56.5584 48.2444 56.6851 47.799L57.4831 45.0063H58.6534Z" fill="white"/>
</g>
<path d="M16.8622 48.9902H12.5557C11.892 48.9902 11.3042 48.5498 11.1244 47.9192L10.3264 45.1266C10.2605 44.8939 10.3973 44.6512 10.6329 44.5861C10.8685 44.5211 11.1143 44.6562 11.1801 44.8889L11.9781 47.6815C12.0516 47.9367 12.2897 48.1144 12.5582 48.1144H16.8648C17.1966 48.1144 17.4677 47.8466 17.4677 47.5188V45.0065C17.4677 44.7638 17.6653 44.5686 17.911 44.5686C18.1567 44.5686 18.3543 44.7638 18.3543 45.0065V47.5188C18.3518 48.3296 17.683 48.9902 16.8622 48.9902Z" fill="#1B1B1B"/>
<path d="M56.8498 48.9902H52.5432C51.7225 48.9902 51.0562 48.3296 51.0562 47.5188V45.0065C51.0562 44.7638 51.2538 44.5686 51.4995 44.5686C51.7453 44.5686 51.9429 44.7638 51.9429 45.0065V47.5188C51.9429 47.8466 52.2139 48.1144 52.5458 48.1144H56.8523C57.1208 48.1144 57.359 47.9367 57.4324 47.6815L58.2304 44.8889C58.2963 44.6562 58.542 44.5211 58.7776 44.5861C59.0132 44.6512 59.15 44.8939 59.0841 45.1266L58.2861 47.9192C58.1012 48.5498 57.5135 48.9902 56.8498 48.9902Z" fill="#1B1B1B"/>
<path d="M63.3173 39.3609H5.81214C5.68294 39.3609 5.55881 39.3059 5.47522 39.2083C5.39162 39.1107 5.35362 38.9831 5.37389 38.8554L9.7235 11.5246C9.88057 10.5437 10.7216 9.83301 11.7248 9.83301H58.005C59.0158 9.83301 59.8796 10.5787 60.0139 11.5671L63.7555 38.8654C63.7733 38.9906 63.7353 39.1182 63.6491 39.2133C63.5655 39.3059 63.4439 39.3609 63.3173 39.3609ZM6.32893 38.4851H62.8081L59.1374 11.6823C59.0614 11.1267 58.575 10.7088 58.005 10.7088H11.7248C11.1599 10.7088 10.6861 11.1092 10.5975 11.6597L6.32893 38.4851Z" fill="#1B1B1B"/>
<path d="M60.523 45.4443H8.6063C7.67659 45.4443 6.86848 44.8237 6.64048 43.9328L5.38145 39.0282C5.32065 38.793 5.46505 38.5552 5.70318 38.4952C5.9413 38.4351 6.18196 38.5777 6.24276 38.813L7.50179 43.7176C7.63099 44.2181 8.08444 44.5684 8.6063 44.5684H60.523C61.0449 44.5684 61.5009 44.2181 61.6275 43.7176L62.8865 38.813C62.9473 38.5777 63.188 38.4376 63.4261 38.4952C63.6643 38.5552 63.8061 38.793 63.7479 39.0282L62.4888 43.9328C62.2583 44.8237 61.4502 45.4443 60.523 45.4443Z" fill="#1B1B1B"/>
<g opacity="0.35">
<g opacity="0.35">
<path opacity="0.35" d="M46.7877 34.9318H37.6096C37.2499 34.9318 36.9054 35.0669 36.6419 35.3046L35.8896 35.9953L33.7135 37.9872C33.4652 38.2149 33.1866 38.3951 32.8952 38.5302C32.4697 38.7279 32.0086 38.8255 31.5475 38.823C30.7724 38.823 29.9972 38.5427 29.3892 37.9872L26.4633 35.3046C26.1998 35.0644 25.8553 34.9318 25.4956 34.9318H16.3201C14.0249 34.9318 12.2719 32.9074 12.6291 30.6678L12.6063 23.8038C12.5683 23.476 12.5734 23.1381 12.6291 22.7953L14.6203 10.271H48.7611L50.4888 22.8729C50.5141 23.0581 50.5268 23.2407 50.5217 23.4184C50.5217 23.4409 50.5217 23.4635 50.5192 23.4835H50.5217L50.4888 30.7453C50.7953 32.9599 49.0499 34.9318 46.7877 34.9318Z" fill="#792937"/>
</g>
<g opacity="0.35">
<path opacity="0.35" d="M31.5576 38.8855C31.5551 38.8855 31.5526 38.8855 31.5475 38.8855C30.7267 38.883 29.9465 38.5802 29.3461 38.0322L26.4202 35.3522C26.1669 35.122 25.8401 34.9944 25.4955 34.9944H16.3201C15.208 34.9944 14.1541 34.5164 13.4322 33.6806C12.7102 32.8448 12.3935 31.7438 12.5683 30.6578L12.5455 23.8038C12.5075 23.471 12.5126 23.1256 12.5683 22.7878L14.5696 10.2109H48.8218L50.5571 22.8679C50.5824 23.0556 50.5951 23.2433 50.59 23.4234C50.59 23.4384 50.59 23.451 50.59 23.466V23.4885L50.5571 30.7478C50.704 31.8139 50.3747 32.8974 49.6527 33.7131C48.9307 34.5289 47.887 34.9969 46.7901 34.9969H37.6121C37.2701 34.9969 36.9408 35.1245 36.6875 35.3547L33.759 38.0322C33.5108 38.2599 33.2296 38.4451 32.9256 38.5853C32.5025 38.7829 32.0288 38.8855 31.5576 38.8855ZM14.676 10.3336L12.6925 22.8053C12.6393 23.1331 12.6342 23.4685 12.6722 23.7963L12.695 30.6678C12.5278 31.7263 12.8318 32.7923 13.531 33.598C14.2301 34.4063 15.2485 34.8692 16.3226 34.8692H25.5006C25.8755 34.8692 26.2327 35.0069 26.5089 35.2596L29.4373 37.9421C30.0149 38.4701 30.7647 38.7604 31.5526 38.7629C31.5551 38.7629 31.5576 38.7629 31.5602 38.7629C32.0136 38.7629 32.4671 38.6628 32.8724 38.4751C33.1663 38.34 33.4373 38.1624 33.6754 37.9421L36.6039 35.2596C36.88 35.0069 37.2397 34.8692 37.6121 34.8692H46.7901C47.8516 34.8692 48.8598 34.4163 49.5565 33.6281C50.2531 32.8398 50.5723 31.7913 50.4304 30.7528L50.4634 23.546H50.4608L50.4634 23.4785C50.4634 23.4585 50.4634 23.4384 50.4634 23.4184C50.4659 23.2433 50.4558 23.0631 50.4304 22.8804L48.7103 10.3336H14.676Z" fill="#1B1B1B"/>
</g>
</g>
<g opacity="0.25">
<g opacity="0.25">
<path opacity="0.25" d="M62.5243 31.4911C61.3261 31.4211 60.181 31.7914 59.1804 32.3594C58.9296 32.5046 58.6889 32.6622 58.4533 32.8274C58.2203 32.995 57.9923 33.1752 57.7719 33.3629C57.554 33.5531 57.3362 33.7457 57.1284 33.9484C56.9207 34.1511 56.7155 34.3588 56.5154 34.5715C56.11 34.9919 55.7199 35.4323 55.3273 35.8727C54.927 36.3081 54.5318 36.7511 54.1037 37.1689C53.2601 38.0047 52.305 38.783 51.2031 39.2484C52.2012 38.5978 53.0346 37.772 53.8149 36.9012C54.1999 36.4608 54.585 36.0179 54.965 35.5624C55.3475 35.1145 55.7402 34.6666 56.148 34.2287C56.5635 33.7983 56.9967 33.3804 57.4654 33C57.7035 32.8124 57.9467 32.6347 58.2025 32.467C58.4584 32.3019 58.7219 32.1517 58.9955 32.0166C59.2716 31.8865 59.5502 31.7639 59.839 31.6688C60.1304 31.5762 60.4242 31.4986 60.7257 31.4461C61.0272 31.401 61.3286 31.3735 61.6326 31.3785C61.9341 31.386 62.233 31.4261 62.5243 31.4911Z" fill="#1B1B1B"/>
</g>
<g opacity="0.25">
<path opacity="0.25" d="M62.6027 33.6456C62.0758 33.8483 61.6097 34.1261 61.2221 34.4789C60.832 34.8292 60.5205 35.2521 60.3153 35.715C60.1101 36.1805 60.0113 36.6935 60.0138 37.214C60.0164 37.7369 60.1253 38.2624 60.333 38.7829C59.9429 38.3725 59.7023 37.8195 59.6161 37.2465C59.5325 36.6709 59.6085 36.0629 59.8492 35.5174C60.0898 34.9718 60.4901 34.5039 60.9739 34.1736C61.4603 33.8433 62.0328 33.6406 62.6027 33.6456Z" fill="#1B1B1B"/>
</g>
<g opacity="0.25">
<path opacity="0.25" d="M7.46124 26.061C7.81083 27.6225 8.51508 29.0764 9.49546 30.3076C10.4758 31.5362 11.7273 32.5472 13.156 33.2028C13.8704 33.5406 14.6253 33.8059 15.3828 34.0836C16.1377 34.3689 16.9053 34.6567 17.6273 35.0596C18.3492 35.4574 19.0155 35.9654 19.5475 36.591C19.8109 36.9063 20.0415 37.2491 20.2087 37.622C20.3784 37.9923 20.4848 38.3902 20.5152 38.7881C20.348 38.0023 19.9173 37.3092 19.3625 36.7562C18.8103 36.1956 18.144 35.7577 17.4423 35.4074C16.733 35.0646 15.9806 34.7918 15.2206 34.5316C14.4607 34.2663 13.6906 34.0011 12.9407 33.6582C12.1959 33.3054 11.4866 32.865 10.8533 32.337C10.2225 31.8065 9.65505 31.2084 9.1788 30.5428C8.22122 29.219 7.60057 27.6575 7.46124 26.061Z" fill="#1B1B1B"/>
</g>
<g opacity="0.25">
<path opacity="0.25" d="M6.36182 34.2362C7.05846 34.1211 7.77284 34.071 8.49229 34.1636C9.20921 34.2512 9.93119 34.4939 10.5341 34.9469C10.833 35.1721 11.094 35.4574 11.2915 35.7752C11.4891 36.093 11.6285 36.4433 11.6969 36.8037C11.8413 37.5218 11.7298 38.2901 11.3447 38.8831C11.5297 38.2075 11.5043 37.5218 11.3118 36.8987C11.1142 36.2731 10.7393 35.7301 10.225 35.3423C9.70826 34.9519 9.08001 34.7016 8.42136 34.544C7.76018 34.3889 7.06353 34.3263 6.36182 34.2362Z" fill="#1B1B1B"/>
</g>
<g opacity="0.25">
<path opacity="0.25" d="M61.9138 28.6809L61.2146 28.6459C60.9815 28.6459 60.7485 28.6408 60.5154 28.6459C60.2823 28.6559 60.0493 28.6584 59.8187 28.6734C59.5857 28.6934 59.3552 28.7034 59.1246 28.7334C58.2 28.8335 57.2855 29.0087 56.3862 29.2389C54.585 29.6918 52.8447 30.355 51.1423 31.0957C49.44 31.8389 47.7579 32.6421 46.0403 33.3828C44.3228 34.121 42.5571 34.7841 40.723 35.2296C39.806 35.4523 38.8687 35.5999 37.9314 35.6975C37.4627 35.7526 36.9915 35.7726 36.5203 35.8001C36.0491 35.8101 35.578 35.8276 35.1068 35.8076C34.1644 35.7851 33.222 35.7175 32.2898 35.5874C31.3575 35.4623 30.4304 35.2971 29.5159 35.0769C25.8578 34.2161 22.3796 32.6897 19.2485 30.6803C20.0592 31.1382 20.8825 31.5711 21.721 31.9765C22.5595 32.3794 23.4132 32.7472 24.2796 33.0825C26.0098 33.7632 27.7907 34.3012 29.6045 34.6966C31.4183 35.0769 33.2625 35.3196 35.1144 35.3347C35.5754 35.3447 36.039 35.3297 36.5001 35.3171C36.9611 35.2871 37.4222 35.2646 37.8807 35.2095C38.7977 35.1094 39.7097 34.9618 40.6065 34.7416C42.4026 34.3162 44.1429 33.6631 45.8554 32.9449C47.5704 32.2317 49.2576 31.4385 50.9903 30.7328C52.718 30.0196 54.4964 29.3991 56.3304 28.9987C57.2475 28.8035 58.1772 28.6634 59.1145 28.6008C59.3476 28.5808 59.5832 28.5808 59.8162 28.5683C60.0493 28.5608 60.2849 28.5683 60.5179 28.5683C60.751 28.5758 60.9866 28.5933 61.2196 28.6058L61.9138 28.6809Z" fill="#1B1B1B"/>
</g>
<g opacity="0.25">
<path opacity="0.25" d="M60.7232 19.9878L59.8366 19.7901C59.6896 19.7576 59.5427 19.7226 59.3932 19.6951L58.9448 19.62C58.6459 19.5699 58.3495 19.5124 58.0506 19.4698L57.1513 19.3622C56.8524 19.3197 56.5509 19.3047 56.2494 19.2822L55.7985 19.2496C55.6491 19.2396 55.4971 19.2246 55.3476 19.2271C54.7447 19.2171 54.1418 19.1921 53.5388 19.2246C51.1272 19.2697 48.7307 19.675 46.428 20.3532L45.5717 20.6359L45.1436 20.7786L44.7231 20.9412C44.4444 21.0513 44.1607 21.1539 43.8846 21.2665L43.0613 21.6294C42.7851 21.7445 42.5191 21.8821 42.2506 22.0173C41.9846 22.1549 41.7136 22.28 41.4526 22.4276C40.9333 22.7279 40.4089 23.0132 39.9073 23.341C38.8966 23.9866 37.9111 24.6798 36.8902 25.3404C36.381 25.6707 35.8617 25.991 35.3272 26.2888C34.7927 26.5866 34.2455 26.8643 33.673 27.0971C33.103 27.3298 32.5153 27.5325 31.9098 27.6701C31.3044 27.8102 30.6888 27.8953 30.0681 27.9254C28.8294 27.9854 27.5855 27.8353 26.3949 27.505C25.2068 27.1746 24.0719 26.6717 23.0231 26.0336C21.9743 25.398 21.0142 24.6197 20.1757 23.7314C19.3347 22.8455 18.633 21.8371 18.0579 20.7711C17.4829 19.7051 17.0319 18.574 16.7001 17.4154C16.3733 16.2543 16.1757 15.0607 16.0744 13.867L16.0389 13.4191L16.0186 12.9687C16.0009 12.6684 16.0009 12.3681 15.9984 12.0703C15.9933 11.77 16.0136 11.4723 16.0186 11.172C16.0313 10.8717 16.0566 10.5739 16.0744 10.2761C15.9908 12.6659 16.2238 15.0757 16.9382 17.3503C17.2903 18.4864 17.7514 19.59 18.3366 20.6234C18.9192 21.6594 19.6235 22.6253 20.4569 23.4711C22.1263 25.1502 24.2289 26.4314 26.5241 27.047C27.6691 27.3548 28.8598 27.5 30.0428 27.4374C30.633 27.4074 31.2208 27.3248 31.7958 27.1897C32.3709 27.057 32.9307 26.8593 33.4779 26.6366C34.0276 26.4139 34.5596 26.1487 35.0815 25.8584C35.6033 25.5706 36.115 25.2578 36.6192 24.9325C37.6299 24.2844 38.6179 23.5887 39.6489 22.9431C41.7136 21.6469 43.9707 20.656 46.314 19.9853C48.6648 19.3422 51.0968 18.9744 53.5312 18.9794C54.1392 18.9669 54.7472 19.0094 55.3552 19.0394C55.5072 19.0444 55.6592 19.062 55.8087 19.077L56.2621 19.122C56.5636 19.152 56.8676 19.1771 57.1665 19.2296L58.0658 19.3672C58.3647 19.4198 58.6611 19.4874 58.9575 19.5474L59.4034 19.64C59.5503 19.675 59.6972 19.7176 59.8441 19.7551L60.7232 19.9878Z" fill="#1B1B1B"/>
</g>
<g opacity="0.25">
<path opacity="0.25" d="M10.904 10.8241C11.8058 14.0622 13.5183 17.1025 15.8641 19.5899C13.3967 17.2201 11.5069 14.2398 10.4201 10.9718C10.377 10.8416 10.448 10.699 10.5822 10.6565C10.714 10.6139 10.8584 10.684 10.9014 10.8166C10.9014 10.8166 10.904 10.8216 10.904 10.8241Z" fill="#1B1B1B"/>
</g>
<g opacity="0.25">
<path opacity="0.25" d="M47.4717 10.271C48.2013 11.1718 49.0448 11.9576 49.9923 12.5832C50.4685 12.891 50.9651 13.1662 51.4869 13.3814C52.0062 13.6042 52.5458 13.7768 53.0981 13.8894C53.6478 14.012 54.2127 14.0771 54.7776 14.0921C55.3451 14.1171 55.9125 14.0721 56.4774 13.9995C57.6073 13.8394 58.7118 13.4966 59.7656 12.9961C58.8207 13.6767 57.7086 14.1447 56.5458 14.3824C55.9657 14.5075 55.3679 14.5626 54.77 14.5651C54.1722 14.5626 53.5743 14.4975 52.9891 14.3774C52.404 14.2473 51.8314 14.0621 51.2893 13.8119C50.7497 13.5566 50.2329 13.2588 49.7618 12.8985C48.8194 12.1878 48.0265 11.287 47.4717 10.271Z" fill="#1B1B1B"/>
</g>
<g opacity="0.25">
<path opacity="0.25" d="M61.1639 21.9522C60.1734 22.1374 59.1424 21.9923 58.2178 22.2075C57.9872 22.26 57.7643 22.3351 57.5566 22.4277C57.3514 22.5253 57.1589 22.6479 57.0043 22.798C56.6953 23.0883 56.5053 23.5237 56.5256 23.9291C56.5281 24.0292 56.5484 24.1268 56.5788 24.2219C56.6142 24.312 56.6547 24.3995 56.7155 24.4796C56.8346 24.6398 57.0094 24.7724 57.207 24.8825C57.4021 24.9976 57.6275 25.0877 57.8504 25.1778C58.0759 25.2629 58.3064 25.3379 58.5369 25.408C59.4692 25.6733 60.4546 25.7759 61.4527 25.7233C60.485 25.9836 59.4413 25.9961 58.4407 25.7884C58.1899 25.7358 57.9416 25.6733 57.6984 25.5907C57.4553 25.5081 57.2146 25.423 56.9739 25.3004C56.7358 25.1778 56.5002 25.0076 56.3178 24.7749C56.2266 24.6598 56.1582 24.5222 56.1025 24.3845C56.0544 24.2444 56.024 24.0993 56.0164 23.9541C56.0062 23.6638 56.0696 23.3811 56.1836 23.1258C56.3001 22.8706 56.4622 22.6379 56.675 22.4527C57.0981 22.0874 57.625 21.8972 58.1392 21.8271C58.6585 21.747 59.1728 21.7821 59.6693 21.8271C60.1734 21.8772 60.6623 21.9372 61.1639 21.9522Z" fill="#1B1B1B"/>
</g>
<g opacity="0.25">
<path opacity="0.25" d="M9.54867 16.3242C10.1161 16.637 10.638 17.0324 11.1117 17.4828C11.5778 17.9407 11.9983 18.4487 12.3429 19.0068C13.0319 20.1203 13.4803 21.399 13.5183 22.7378C13.5259 23.4034 13.4119 24.0866 13.1332 24.7047C12.852 25.3177 12.4163 25.8833 11.8286 26.2486C10.6608 26.9918 9.04708 26.8642 8.07684 25.9934C9.17121 26.6865 10.6278 26.624 11.6057 25.9258C12.0921 25.573 12.467 25.075 12.6925 24.517C12.928 23.9615 13.0268 23.3559 13.0116 22.7453C13.0066 22.1347 12.8926 21.5216 12.7178 20.9261C12.5506 20.328 12.2947 19.755 12.0034 19.2019C11.7019 18.6539 11.3422 18.1334 10.9318 17.6505C10.5214 17.165 10.0528 16.7271 9.54867 16.3242Z" fill="#1B1B1B"/>
</g>
</g>
<g opacity="0.2">
<g opacity="0.2">
<path opacity="0.2" d="M51.7883 39.3336C50.9422 40.5673 49.8478 41.6408 48.5989 42.4991L48.3633 42.6592C48.2848 42.7143 48.2063 42.7643 48.1227 42.8119L47.6337 43.1022C47.2968 43.2798 46.9624 43.4625 46.6128 43.6127C45.9187 43.923 45.1967 44.1832 44.452 44.3634C43.7097 44.546 42.9497 44.6687 42.1822 44.7137L41.6071 44.7287L41.3208 44.7362C41.2246 44.7362 41.1283 44.7312 41.0346 44.7262L40.4595 44.7062L39.887 44.6536L39.6008 44.6261L39.317 44.5861L38.7496 44.501L38.1872 44.3909L37.906 44.3358L37.6273 44.2708L37.0726 44.1382L36.5228 43.988C36.1555 43.8929 35.7958 43.7728 35.431 43.6652C33.9896 43.1998 32.5786 42.6617 31.1701 42.1388C30.4658 41.876 29.7616 41.6208 29.0522 41.3805C28.3404 41.1428 27.626 40.9101 26.9091 40.6874C25.4727 40.2494 24.0263 39.8441 22.557 39.5313C21.8223 39.3711 21.0851 39.2285 20.3404 39.1234C20.1554 39.0933 19.968 39.0733 19.7805 39.0483C19.593 39.0233 19.4081 39.0008 19.2207 38.9832C18.8457 38.9382 18.4708 38.9107 18.0959 38.8806C19.6057 38.8781 21.113 39.0408 22.6051 39.291C24.0972 39.5463 25.5665 39.9041 27.0206 40.312C27.7476 40.5172 28.4696 40.7324 29.189 40.9626C29.9085 41.1928 30.6229 41.4406 31.3347 41.6933C32.7533 42.2038 34.1593 42.7343 35.5855 43.1873C35.9427 43.2949 36.2974 43.415 36.6596 43.5101L37.1992 43.6602L37.7413 43.7928L38.0124 43.8579L38.286 43.9129L38.8332 44.023L39.3829 44.1081L39.659 44.1507L39.9351 44.1807L40.4874 44.2408L41.0422 44.2708C41.1359 44.2758 41.2271 44.2808 41.3208 44.2833L41.5995 44.2808L42.1543 44.2758C42.894 44.2383 43.6286 44.1407 44.3532 43.983C45.0802 43.8304 45.7845 43.5901 46.4735 43.3124C46.8206 43.1772 47.1524 43.0121 47.4868 42.8494L47.9757 42.5817C48.1404 42.4966 48.2924 42.389 48.4545 42.2939L48.6926 42.1488L48.9232 41.9911C49.0752 41.8835 49.2348 41.7859 49.3792 41.6683L49.8225 41.328L50.2455 40.9626C50.3165 40.9026 50.3849 40.84 50.4507 40.7749L50.6509 40.5798L50.851 40.3846L51.041 40.1794L51.2335 39.9742L51.3298 39.8716L51.4184 39.764L51.7883 39.3336Z" fill="#1B1B1B"/>
</g>
</g>
<g opacity="0.2">
<g opacity="0.2">
<path opacity="0.2" d="M24.9332 45.0064C24.3353 44.4584 23.6792 43.9829 22.9826 43.5801C22.291 43.1697 21.5589 42.8344 20.809 42.5391C20.6241 42.459 20.4341 42.3964 20.2441 42.3289C20.0541 42.2638 19.8666 42.1888 19.6767 42.1262L19.0991 41.951L18.8103 41.8634L18.519 41.7909L17.9363 41.6407C17.7412 41.5957 17.5436 41.5582 17.3461 41.5181C16.9534 41.428 16.5557 41.3805 16.158 41.3179C15.9604 41.2829 15.7602 41.2704 15.5601 41.2454C15.36 41.2253 15.1624 41.1928 14.9597 41.1853C14.5595 41.1628 14.1567 41.1278 13.7564 41.1303C12.9508 41.0952 12.1478 41.1553 11.3447 41.2128C9.74119 41.373 8.15284 41.7133 6.60248 42.2188C8.0743 41.5206 9.67026 41.0627 11.2991 40.8275C12.9306 40.6048 14.5949 40.6023 16.2314 40.825C17.8628 41.0677 19.4715 41.4981 20.9686 42.1863C21.3385 42.3639 21.7159 42.5266 22.0731 42.7318C22.4328 42.932 22.7824 43.1472 23.1194 43.3799C23.7881 43.8428 24.4139 44.3808 24.9332 45.0064Z" fill="#1B1B1B"/>
</g>
</g>
<g opacity="0.2">
<g opacity="0.2">
<path opacity="0.2" d="M9.28265 45.0063C9.48278 44.6259 9.75131 44.2756 10.0578 43.9603C10.3694 43.65 10.7215 43.3747 11.1066 43.1495C11.4917 42.9218 11.9096 42.7542 12.3454 42.629C12.7811 42.5114 13.2345 42.4539 13.6855 42.4564C14.5898 42.4564 15.4891 42.6916 16.2668 43.132C16.657 43.3497 17.0116 43.6225 17.3257 43.9302C17.6323 44.2455 17.8983 44.6059 18.0604 45.0063C17.5436 44.3156 16.8368 43.8277 16.0844 43.4773C15.3295 43.132 14.5037 42.9593 13.6829 42.9568C13.2725 42.9543 12.8621 43.0019 12.4594 43.0895C12.0566 43.177 11.669 43.3222 11.289 43.4948C10.9141 43.675 10.5543 43.8902 10.22 44.1455C9.88557 44.3957 9.57651 44.6885 9.28265 45.0063Z" fill="#1B1B1B"/>
</g>
</g>
<g opacity="0.2">
<g opacity="0.2">
<path opacity="0.2" d="M35.1398 38.9231C35.8845 39.4561 36.6876 39.879 37.5311 40.1667C37.9542 40.3068 38.3823 40.4244 38.8206 40.4945C39.2563 40.5696 39.6971 40.6096 40.1404 40.6046C40.5812 40.6071 41.0245 40.5671 41.4602 40.492C41.8984 40.4219 42.3266 40.3043 42.7496 40.1667C43.5932 39.879 44.3962 39.4586 45.141 38.9256C44.5381 39.6137 43.7553 40.1592 42.894 40.5295C42.4659 40.7197 42.0124 40.8548 41.5514 40.9574C41.0878 41.0525 40.6166 41.1001 40.1429 41.1051C39.6692 41.1026 39.1955 41.055 38.7319 40.9574C38.2709 40.8548 37.8174 40.7197 37.3893 40.5295C36.5255 40.1567 35.7427 39.6112 35.1398 38.9231Z" fill="#1B1B1B"/>
</g>
</g>
<g opacity="0.2">
<g opacity="0.2">
<path opacity="0.2" d="M50.6788 45.0063C51.4058 44.2581 52.2671 43.63 53.1968 43.1271C53.6604 42.8718 54.1468 42.6591 54.6408 42.4664C55.1373 42.2813 55.649 42.1311 56.1683 42.0085C56.6876 41.8959 57.2171 41.8133 57.7465 41.7708C58.276 41.7333 58.8105 41.7207 59.3399 41.7558C60.3988 41.8183 61.4476 42.0235 62.4279 42.3914C61.3918 42.2262 60.3583 42.1336 59.3298 42.1461C58.8155 42.1561 58.3013 42.1787 57.7946 42.2437C57.2855 42.3013 56.7788 42.3814 56.2823 42.499C55.7833 42.6066 55.2893 42.7492 54.8054 42.9119C54.319 43.072 53.8453 43.2672 53.3741 43.4749C52.4368 43.9003 51.5426 44.4183 50.6788 45.0063Z" fill="#1B1B1B"/>
</g>
</g>
<path d="M54.3038 20.2878C54.3038 20.3103 54.3038 20.3328 54.3038 20.3528C54.281 21.1486 53.9973 21.8893 53.5312 22.4873C52.8523 23.3582 51.7858 23.9312 50.5673 23.9312H41.3893C41.1967 23.9312 41.0093 23.9687 40.8345 24.0413C40.685 24.1039 40.5432 24.194 40.4241 24.3041L37.3183 27.1468L36.5127 27.885C35.849 28.493 34.8205 28.493 34.1543 27.885L30.2429 24.3041C29.9795 24.0638 29.6349 23.9287 29.2778 23.9287H20.0998C18.1567 23.9287 16.6013 22.4773 16.386 20.6706C16.348 20.3428 16.3531 20.005 16.4063 19.6622L18.4962 6.53723C18.6887 5.32859 19.7426 4.43774 20.9813 4.43774H49.9745C51.2335 4.43774 52.3 5.35611 52.4672 6.58978L54.2709 19.7422C54.2962 19.9249 54.3089 20.1076 54.3038 20.2878Z" fill="white"/>
<path d="M35.3348 28.4005C34.894 28.4005 34.4558 28.2429 34.1138 27.9301L30.2024 24.3492C29.9491 24.1189 29.6223 23.9913 29.2778 23.9913H20.0998C18.172 23.9913 16.5481 22.5675 16.3252 20.6782C16.2847 20.3379 16.2923 19.995 16.348 19.6547L18.4354 6.52728C18.633 5.2811 19.7046 4.37524 20.9839 4.37524H49.9771C51.2615 4.37524 52.3609 5.32364 52.5332 6.58233L54.3343 19.7323C54.3596 19.92 54.3723 20.1076 54.3672 20.2878C54.3672 20.3103 54.3672 20.3329 54.3647 20.3554C54.3419 21.1436 54.0709 21.8943 53.5794 22.5224C52.8524 23.4558 51.7555 23.9888 50.5673 23.9888H41.3893C41.2069 23.9888 41.0296 24.0239 40.8599 24.0964C40.7155 24.1565 40.5812 24.2416 40.4672 24.3467L36.5559 27.9276C36.2139 28.2429 35.7731 28.4005 35.3348 28.4005ZM20.9839 4.50036C19.7679 4.50036 18.7496 5.36118 18.5621 6.5473L16.4747 19.6722C16.4215 20 16.4164 20.3354 16.4544 20.6632C16.6697 22.4874 18.2404 23.8637 20.1049 23.8637H29.2829C29.6578 23.8637 30.015 24.0013 30.2911 24.2541L34.2025 27.835C34.8383 28.418 35.8364 28.418 36.4748 27.8375L40.3862 24.2566C40.5128 24.1415 40.6572 24.0489 40.8168 23.9813C41.0017 23.9037 41.1968 23.8662 41.3969 23.8662H50.575C51.7251 23.8662 52.7865 23.3482 53.4882 22.4474C53.9619 21.8393 54.2254 21.1136 54.2456 20.3504C54.2482 20.3279 54.2456 20.3078 54.2456 20.2878V20.2853C54.2482 20.1127 54.2381 19.9325 54.2127 19.7498L52.4116 6.59735C52.2469 5.40122 51.2032 4.50036 49.9822 4.50036H20.9839Z" fill="#1B1B1B"/>
<g opacity="0.35">
<path opacity="0.35" d="M52.8777 20.3255C53.1918 20.3255 53.4122 20.6358 53.3033 20.9261C53.1715 21.2739 52.9891 21.6017 52.7611 21.892C52.6471 22.0396 52.523 22.1773 52.3862 22.3049C51.9657 22.7053 51.4008 22.9255 50.8156 22.9255H42.3672C42.01 22.9255 41.6655 23.0581 41.4045 23.2983L41.3665 23.3334L40.5609 24.0716L37.4932 26.8817C37.3564 27.0069 37.2044 27.1044 37.0448 27.1795C36.6471 27.3622 36.1936 27.3872 35.7807 27.2546C35.5476 27.1795 35.3272 27.0569 35.1347 26.8817L31.2233 23.3008C30.9599 23.0606 30.6154 22.928 30.2582 22.928H21.0802C19.1371 22.928 17.5817 21.4766 17.3664 19.6699C17.3284 19.3446 17.3335 19.0043 17.3892 18.6614L19.1878 7.35572C19.3499 6.33976 20.1783 5.53399 21.2169 5.44891C21.2625 5.44641 21.3081 5.44141 21.3588 5.44141L19.6691 16.0615C19.6134 16.4043 19.6083 16.7421 19.6463 17.0699C19.8591 18.8766 21.4145 20.328 23.3601 20.328H32.5381C32.8978 20.328 33.2423 20.4606 33.5033 20.7009L37.4146 24.2818C37.7313 24.572 38.129 24.7247 38.5318 24.7372C38.9751 24.7522 39.4235 24.6021 39.7706 24.2818L40.8041 23.3359L43.6845 20.6984C43.9479 20.4581 44.2924 20.3255 44.6496 20.3255H52.8777Z" fill="#1B1B1B"/>
</g>
<path d="M35.3349 28.7735C34.8029 28.7735 34.2709 28.5833 33.8555 28.2029L29.9441 24.622C29.7617 24.4569 29.5261 24.3643 29.2804 24.3643H20.0998C17.9795 24.3643 16.1935 22.7978 15.9478 20.7208C15.9047 20.348 15.9123 19.9676 15.9706 19.5948L18.058 6.46734C18.2885 5.03848 19.5172 4 20.9839 4H49.9772C51.4515 4 52.7131 5.08853 52.9082 6.5324L54.7093 19.6824C54.7423 19.9176 54.7524 20.1478 54.7448 20.3655C54.6789 22.5701 52.8068 24.3643 50.5674 24.3643H41.3894C41.1411 24.3643 40.9055 24.4569 40.7257 24.622L36.8143 28.2029C36.3989 28.5833 35.8669 28.7735 35.3349 28.7735ZM20.9839 4.87583C19.958 4.87583 19.0967 5.60402 18.9371 6.60497L16.8496 19.7299C16.8015 20.0252 16.7964 20.3255 16.8294 20.6182C17.0244 22.2523 18.4304 23.486 20.1024 23.486H29.2804C29.7516 23.486 30.2025 23.6611 30.547 23.9764L34.4584 27.5573C34.9498 28.0077 35.72 28.0077 36.2139 27.5573L40.1253 23.9764C40.4698 23.6611 40.9207 23.486 41.3919 23.486H50.57C52.3331 23.486 53.81 22.0721 53.8607 20.3355C53.8607 20.333 53.8607 20.333 53.8607 20.3305C53.8683 20.1603 53.8581 19.9801 53.8328 19.795L52.0317 6.64501C51.8923 5.63405 51.0107 4.87333 49.9772 4.87333H20.9839V4.87583Z" fill="#1B1B1B"/>
<path d="M50.5698 31.7987H41.3918C41.0346 31.7987 40.6875 31.9339 40.4266 32.1716L39.6742 32.8623L37.4982 34.8541C37.2499 35.0819 36.9712 35.2645 36.6799 35.3972C36.2543 35.5948 35.7933 35.6924 35.3322 35.6924C34.5571 35.6899 33.7819 35.4122 33.1739 34.8541L30.248 32.1716C29.9845 31.9314 29.64 31.7987 29.2828 31.7987H20.0997C17.8046 31.7987 16.0516 29.7743 16.4088 27.5347L16.3885 20.6707C16.6013 22.4749 18.1567 23.9288 20.1023 23.9288H29.2803C29.6375 23.9288 29.9845 24.0614 30.2454 24.3041L34.1568 27.885C34.4887 28.1903 34.9066 28.3405 35.3322 28.343C35.7553 28.343 36.1809 28.1928 36.5153 27.8875L36.6799 27.7374L39.6742 24.9973L40.4266 24.3092C40.6901 24.0689 41.0346 23.9338 41.3918 23.9338H50.5698C52.6217 23.9338 54.2481 22.3123 54.3038 20.3579L54.2709 27.6198C54.5749 29.8294 52.832 31.7987 50.5698 31.7987Z" fill="#1B1B1B"/>
<g opacity="0.55">
<path opacity="0.55" d="M50.5698 31.7989H50.5267C51.991 31.1583 52.9435 29.6144 52.7105 27.9303L52.7307 23.2458C53.6605 22.5927 54.2685 21.5317 54.3039 20.3506L54.271 27.6125C54.575 29.8296 52.8321 31.7989 50.5698 31.7989Z" fill="white"/>
</g>
<g opacity="0.25">
<path opacity="0.25" d="M39.9681 26.5363V32.4694L37.7921 34.4613C37.5438 34.689 37.2677 34.8717 36.9738 35.0043V29.3139C36.9738 29.0387 37.0903 28.7734 37.2955 28.5857L39.6717 26.4087C39.7857 26.3061 39.9681 26.3836 39.9681 26.5363Z" fill="white"/>
</g>
<path d="M35.3348 36.1229C34.4482 36.1229 33.5615 35.8076 32.8699 35.1745L29.9415 32.4945C29.7591 32.3293 29.5235 32.2367 29.2778 32.2367H20.0997C18.8762 32.2367 17.7185 31.7087 16.923 30.7903C16.1352 29.882 15.7881 28.6833 15.9654 27.5022L15.9452 20.6733C15.9452 20.4405 16.1276 20.2479 16.3632 20.2353C16.5987 20.2203 16.8014 20.3905 16.8293 20.6207C17.0243 22.2573 18.4303 23.4909 20.1023 23.4909H29.2803C29.7515 23.4909 30.2024 23.6661 30.5469 23.9814L34.4583 27.5623C34.9498 28.0127 35.7199 28.0127 36.2139 27.5623L40.1252 23.9814C40.4698 23.6661 40.9207 23.4909 41.3919 23.4909H50.5699C52.3331 23.4909 53.81 22.0771 53.8606 20.3404C53.8682 20.1027 54.0633 19.915 54.304 19.915C54.423 19.915 54.5345 19.9626 54.6181 20.0452C54.7017 20.1277 54.7473 20.2403 54.7473 20.3555L54.7143 27.5873C54.8663 28.7584 54.5041 29.937 53.7162 30.8279C52.9233 31.7262 51.7757 32.2392 50.5674 32.2392H41.3893C41.1411 32.2392 40.9055 32.3293 40.7256 32.497L37.7972 35.177C37.1081 35.8076 36.2215 36.1229 35.3348 36.1229ZM16.8369 22.8228L16.8521 27.5348C16.8521 27.5573 16.8495 27.5823 16.847 27.6048C16.6975 28.5457 16.9711 29.4991 17.5969 30.2223C18.2226 30.9455 19.1371 31.3609 20.0997 31.3609H29.2778C29.749 31.3609 30.1999 31.536 30.5444 31.8513L33.4729 34.5314C34.5166 35.4873 36.1505 35.4873 37.1942 34.5314L40.1227 31.8513C40.4672 31.536 40.9181 31.3609 41.3893 31.3609H50.5674C51.5174 31.3609 52.4217 30.9555 53.0475 30.2473C53.6732 29.5392 53.9594 28.6008 53.8302 27.6699C53.8277 27.6499 53.8252 27.6298 53.8252 27.6098L53.848 22.7803C53.0779 23.7437 51.8847 24.3643 50.5674 24.3643H41.3893C41.1411 24.3643 40.9055 24.4568 40.7256 24.622L36.8143 28.2029C35.9833 28.9636 34.6838 28.9636 33.8554 28.2029L29.944 24.622C29.7616 24.4568 29.526 24.3643 29.2803 24.3643H20.0997C18.79 24.3668 17.607 23.7687 16.8369 22.8228Z" fill="#1B1B1B"/>
<path d="M35.4159 18.0383C47.7174 13.6792 43.9859 3.87745 35.4159 9.27255C26.8205 4.07013 23.1144 13.6792 35.4159 18.0383Z" fill="#E07153"/>
<g opacity="0.35">
<path opacity="0.35" d="M39.2563 16.0688C38.1366 17.1248 36.5507 18.1383 34.4355 18.9891C33.8655 19.2193 33.222 19.2168 32.652 18.9866C24.4062 15.6835 24.239 9.94053 28.0542 9.14478C27.0307 11.3894 28.9737 15.3381 35.6945 17.7179C37.0777 17.2299 38.2607 16.6694 39.2563 16.0688Z" fill="#1B1B1B"/>
</g>
<g opacity="0.35">
<path opacity="0.35" d="M43.2868 10.9716C43.074 13.2262 40.756 16.1465 35.4134 18.0408C27.9655 15.4008 26.3873 10.8365 28.2087 8.79956C28.2847 11.0592 30.5799 14.0745 36.1049 16.0314C39.953 14.6676 42.2329 12.7708 43.2868 10.9716Z" fill="#1B1B1B"/>
</g>
<g opacity="0.55">
<path opacity="0.55" d="M41.445 14.4699C44.2797 10.4436 40.9003 6.62749 35.0688 9.97817C34.7623 10.1533 34.3873 10.1583 34.0757 9.98568C31.2816 8.44422 29.0523 8.49927 27.7983 9.41514C28.6723 7.5884 31.5476 6.93278 35.4133 9.2725C42.0403 5.10354 45.7743 10.0132 41.445 14.4699Z" fill="white"/>
</g>
<g opacity="0.35">
<path opacity="0.35" d="M35.3297 30.4926V35.69C34.5546 35.6875 33.7794 35.4097 33.1714 34.8517L30.2455 32.1691C29.982 31.9289 29.6375 31.7963 29.2803 31.7963H20.0997C18.2124 31.7963 16.6899 30.4275 16.4087 28.6933C16.3479 28.323 16.3454 27.9351 16.4087 27.5398C16.4087 27.5373 16.4087 27.5348 16.4087 27.5323L16.391 21.9495C16.619 23.7412 18.1668 25.1775 20.0997 25.1775H29.2778C29.6349 25.1775 29.982 25.3101 30.2429 25.5529L34.1543 29.1338C34.2962 29.2639 34.4532 29.3665 34.6204 29.4391C35.046 29.6292 35.3297 30.0346 35.3297 30.4926Z" fill="#1B1B1B"/>
</g>
<path d="M30.6331 7.77368C31.0257 8.09649 31.3348 8.51188 31.5602 8.96731C31.7857 9.42525 31.9275 9.91822 32.0314 10.4137C32.2366 11.4071 32.2872 12.4206 32.5406 13.369C32.6647 13.8419 32.842 14.2924 33.0928 14.7028C33.3411 15.1156 33.6501 15.4885 33.9997 15.8213C34.7014 16.4895 35.55 16.9899 36.4544 17.3678L36.1352 18.0484C35.2004 17.5855 34.3088 16.9874 33.5919 16.2117C33.2347 15.8238 32.9206 15.3959 32.6774 14.928C32.4291 14.4625 32.267 13.9545 32.1707 13.4516C31.9706 12.4381 31.9858 11.4297 31.8465 10.4462C31.7755 9.95575 31.6666 9.46779 31.4766 9.00735C31.2816 8.54942 31.0029 8.11901 30.6331 7.77368Z" fill="white"/>
<path d="M34.2861 8.50921C34.1974 9.40757 34.1746 10.3034 34.4203 11.1367C34.6661 11.965 35.2006 12.7107 35.8972 13.2812C36.5939 13.8543 37.4324 14.2647 38.3216 14.5049C39.2133 14.7451 40.1506 14.8302 41.0854 14.8252C40.1532 14.8928 39.2083 14.8728 38.2785 14.6876C37.3514 14.4999 36.4495 14.1371 35.6642 13.5765C35.2741 13.2963 34.9143 12.9659 34.6103 12.5856C34.3038 12.2077 34.0581 11.7748 33.8807 11.3144C33.7085 10.8539 33.6147 10.3685 33.5666 9.89053C33.5185 9.41007 33.5159 8.93212 33.5311 8.46167L34.2861 8.50921Z" fill="white"/>
<path d="M37.5413 8.19409C37.3108 8.97483 37.3057 9.80813 37.521 10.5739C37.6274 10.9542 37.7895 11.3246 38.0353 11.6148C38.2759 11.9076 38.6154 12.0903 38.9827 12.1378C39.35 12.1879 39.7325 12.1228 40.0897 11.9927C40.4495 11.8626 40.7712 11.6599 41.0878 11.4222C41.4045 11.1869 41.711 10.9217 42.0378 10.6614C42.3671 10.4012 42.7167 10.1484 43.1372 9.94576L43.4336 10.6364C43.269 10.7115 43.0992 10.7765 42.932 10.8766C42.7648 10.9717 42.6002 11.0768 42.433 11.1894C42.1011 11.4122 41.7693 11.6599 41.4096 11.8876C40.7053 12.348 39.806 12.6959 38.9092 12.5082C38.4659 12.4156 38.0555 12.1479 37.8047 11.7875C37.5489 11.4297 37.4146 11.0218 37.3336 10.6164C37.174 9.80312 37.2525 8.95481 37.5413 8.19409Z" fill="white"/>
<path d="M28.4975 8.37939C28.9054 8.65716 29.2803 9.00749 29.5488 9.43539C29.6806 9.6506 29.787 9.88582 29.8478 10.1336C29.9086 10.3813 29.9162 10.639 29.8858 10.8843C29.8199 11.3747 29.5995 11.8151 29.3107 12.183C29.0194 12.5533 28.6546 12.8411 28.2746 13.0914C28.6166 12.7936 28.9333 12.4583 29.1536 12.0779C29.3766 11.7 29.5108 11.2721 29.5058 10.8592C29.5032 10.4464 29.3436 10.0685 29.0827 9.7607C28.8218 9.45041 28.4798 9.21018 28.1049 9.0225L28.4975 8.37939Z" fill="white"/>
<path d="M35.4159 18.4762C35.3653 18.4762 35.3146 18.4687 35.2665 18.4512C29.6274 16.4543 27.3525 13.3639 27.1017 11.1393C26.9498 9.78047 27.4817 8.60936 28.566 7.92871C30.2025 6.90274 32.7459 7.21304 35.4109 8.757C38.0809 7.14297 40.5508 6.80014 42.2203 7.82111C43.3222 8.49425 43.872 9.67537 43.725 11.0617C43.4844 13.3213 41.2146 16.4468 35.5654 18.4487C35.5173 18.4687 35.4666 18.4762 35.4159 18.4762ZM30.856 8.20147C30.1569 8.20147 29.5413 8.35662 29.0422 8.66941C28.2544 9.16238 27.8693 10.0282 27.9833 11.0442C28.2012 12.9885 30.2734 15.7136 35.4159 17.5754C40.5686 15.7111 42.6332 12.9485 42.8435 10.9741C42.9549 9.93561 42.5572 9.05978 41.7541 8.56932C40.3583 7.71601 38.0784 8.11639 35.654 9.64284C35.5122 9.73292 35.3298 9.73542 35.1854 9.64784C33.6097 8.69444 32.1024 8.20147 30.856 8.20147Z" fill="#1B1B1B"/>
<g opacity="0.25">
<path opacity="0.25" d="M41.1511 10.0958C41.3437 10.2459 41.521 10.4311 41.5945 10.6638C41.6705 10.894 41.6198 11.1768 41.4247 11.3244C41.2677 11.442 41.0574 11.4521 40.8598 11.442C40.2569 11.407 39.6793 11.2043 39.1169 10.9891C38.9117 10.909 38.6862 10.8115 38.5925 10.6138C38.5114 10.4461 38.5494 10.2359 38.6533 10.0808C38.7572 9.92562 38.9193 9.81552 39.089 9.73294C39.4285 9.57029 39.8135 9.51023 40.1859 9.55527C40.5735 9.60282 40.8547 9.86056 41.1511 10.0958Z" fill="white"/>
</g>
<g opacity="0.25">
<path opacity="0.25" d="M36.6774 10.0432C36.5634 10.0958 36.452 10.1583 36.3785 10.2559C36.2594 10.4136 36.267 10.6413 36.3684 10.8089C36.4697 10.9766 36.6571 11.0842 36.8497 11.1242C37.0447 11.1618 37.2474 11.1342 37.4374 11.0767C37.5717 11.0366 37.7034 10.9766 37.8022 10.879C37.9314 10.7464 37.9821 10.5512 37.9567 10.3685C37.8529 9.63785 37.1891 9.81051 36.6774 10.0432Z" fill="white"/>
</g>
<path d="M53.8226 14.1572C54.3014 14.5601 54.4204 15.4009 53.9239 15.7862C53.6453 16.0014 53.2552 16.024 52.9157 15.9289C52.9031 15.9264 52.8904 15.9214 52.8777 15.9164C52.5535 15.8213 52.2672 15.6311 51.9835 15.4459L52.0266 13.7868C52.3078 13.7493 52.6041 13.7393 52.8904 13.7768C53.2324 13.8194 53.5592 13.9345 53.8226 14.1572Z" fill="white"/>
<path d="M52.0088 13.6617C52.4901 13.4965 53.0474 13.4439 53.5997 13.6441C53.7364 13.6967 53.8707 13.7643 53.9923 13.8518C54.0531 13.8919 54.1164 13.9494 54.1747 14.002C54.2304 14.0595 54.2836 14.1196 54.3292 14.1847C54.5141 14.4399 54.6155 14.7427 54.6231 15.063C54.6256 15.2231 54.6003 15.3883 54.542 15.5484C54.4812 15.7086 54.3799 15.8612 54.2507 15.9839C53.9847 16.2316 53.6351 16.3167 53.3311 16.3017C53.1766 16.2967 53.0297 16.2666 52.8904 16.2191C52.751 16.1715 52.6269 16.109 52.5104 16.0389C52.2799 15.8938 52.0899 15.7286 51.9176 15.5459C51.8695 15.4934 51.872 15.4133 51.9227 15.3633C51.9607 15.3282 52.0114 15.3207 52.057 15.3357C52.2925 15.4208 52.5104 15.5234 52.7232 15.581C52.936 15.6485 53.1335 15.6686 53.3159 15.6485C53.4983 15.626 53.6478 15.556 53.7314 15.4584C53.7744 15.4108 53.8074 15.3558 53.8302 15.2907C53.853 15.2231 53.8606 15.1456 53.8631 15.0655C53.8631 14.9028 53.8124 14.7252 53.7238 14.58C53.6782 14.505 53.6301 14.4474 53.5642 14.3848C53.4958 14.3223 53.4198 14.2647 53.3311 14.2172C52.9866 14.0145 52.5231 13.9419 52.0443 13.9044H52.0417C51.9708 13.8994 51.9176 13.8368 51.9227 13.7668C51.9278 13.7217 51.9632 13.6792 52.0088 13.6617Z" fill="#1B1B1B"/>
<path d="M44.1023 24.9998C43.7527 25.5178 42.9218 25.7305 42.4785 25.29C42.2303 25.0423 42.1619 24.6619 42.2151 24.3166C42.2176 24.3041 42.2176 24.2916 42.2227 24.2791C42.2809 23.9513 42.438 23.646 42.5925 23.3482L44.267 23.1956C44.3379 23.4683 44.3835 23.7586 44.3784 24.0414C44.3708 24.3842 44.2923 24.717 44.1023 24.9998Z" fill="white"/>
<path d="M44.3861 23.1656C44.6065 23.6186 44.7256 24.1591 44.5888 24.7246C44.5533 24.8647 44.5001 25.0024 44.4267 25.1325C44.3937 25.1976 44.3431 25.2651 44.2975 25.3302C44.2468 25.3902 44.1936 25.4503 44.1328 25.5029C43.8972 25.7131 43.6059 25.8482 43.2842 25.8932C43.1246 25.9157 42.9549 25.9082 42.7852 25.8707C42.6155 25.8307 42.4508 25.7481 42.314 25.6355C42.0354 25.4053 41.9062 25.0699 41.8859 24.7697C41.8733 24.617 41.8859 24.4694 41.9163 24.3267C41.9492 24.1841 41.9974 24.0565 42.0531 23.9339C42.1722 23.6911 42.3166 23.4834 42.4787 23.2958C42.5243 23.2407 42.6079 23.2357 42.6611 23.2807C42.6991 23.3133 42.7143 23.3633 42.7041 23.4084C42.6459 23.6486 42.5699 23.8738 42.5344 24.0915C42.4913 24.3067 42.4939 24.5044 42.5369 24.6821C42.58 24.8572 42.6687 24.9974 42.7751 25.0674C42.8282 25.105 42.889 25.13 42.9574 25.145C43.0284 25.16 43.1069 25.16 43.188 25.1525C43.3501 25.1325 43.5249 25.0624 43.6591 24.9598C43.73 24.9073 43.7832 24.8522 43.8364 24.7797C43.8896 24.7046 43.9403 24.622 43.9783 24.5319C44.1404 24.1691 44.1607 23.7061 44.1429 23.2332V23.2307C44.1404 23.1606 44.1961 23.1006 44.2671 23.0981C44.3177 23.0906 44.3659 23.1206 44.3861 23.1656Z" fill="#1B1B1B"/>
<path d="M18.6229 15.1131C18.3392 15.2982 18.0529 15.4884 17.7286 15.5835C17.716 15.5885 17.7033 15.591 17.6906 15.596C17.3512 15.6911 16.9585 15.6661 16.6824 15.4534C16.6621 15.4359 16.6418 15.4208 16.6241 15.4033C16.196 15.0004 16.3227 14.2122 16.7837 13.8268C17.0472 13.6041 17.374 13.489 17.716 13.4465C17.906 13.4215 18.1061 13.4165 18.2986 13.4265C18.3924 13.434 18.4861 13.4415 18.5773 13.454L18.6229 15.1131Z" fill="white"/>
<path d="M18.5621 13.5793C18.0833 13.6168 17.6197 13.6894 17.2752 13.8921C17.189 13.9396 17.1105 13.9972 17.0421 14.0597C16.9737 14.1223 16.9256 14.1798 16.8825 14.2549C16.7938 14.4 16.7432 14.5777 16.7432 14.7404C16.7457 14.8204 16.7533 14.898 16.7761 14.9656C16.8014 15.0306 16.8318 15.0882 16.8749 15.1332C16.9585 15.2308 17.108 15.3009 17.2904 15.3234C17.4728 15.3434 17.6703 15.3234 17.8831 15.2558C18.0959 15.1958 18.3138 15.0957 18.5494 15.0106C18.6178 14.9856 18.6912 15.0206 18.7166 15.0857C18.7343 15.1332 18.7216 15.1833 18.6887 15.2183C18.5165 15.3985 18.3265 15.5661 18.0959 15.7113C17.9794 15.7788 17.8553 15.8414 17.7159 15.8915C17.5766 15.939 17.4297 15.9665 17.2752 15.974C16.9712 15.989 16.6216 15.9015 16.3556 15.6562C16.2264 15.5336 16.1251 15.381 16.0643 15.2208C16.006 15.0607 15.9807 14.8955 15.9832 14.7354C15.9908 14.415 16.0921 14.1123 16.2771 13.857C16.3227 13.792 16.3759 13.7344 16.4316 13.6743C16.4899 13.6218 16.5532 13.5642 16.614 13.5242C16.7356 13.4366 16.8698 13.3666 17.0066 13.3165C17.5589 13.1163 18.1162 13.1689 18.5975 13.334C18.6659 13.3565 18.7014 13.4291 18.6786 13.4967C18.6608 13.5467 18.6152 13.5793 18.5671 13.5818L18.5621 13.5793Z" fill="#1B1B1B"/>
<g opacity="0.6">
<g opacity="0.6">
<path opacity="0.6" d="M24.001 14.2795C23.8262 14.6273 23.6945 14.9877 23.7021 15.308C23.7046 15.4681 23.7401 15.6183 23.8034 15.7334C23.8364 15.7934 23.8718 15.836 23.9073 15.8835C23.9428 15.9286 23.9757 15.9761 24.0162 16.0186C24.0948 16.1012 24.186 16.1613 24.2923 16.1713C24.3987 16.1838 24.533 16.1488 24.6419 16.0712C24.7559 15.9911 24.8522 15.8635 24.9104 15.7134C24.9763 15.5557 25.0092 15.3855 25.0092 15.2054V15.2029C25.0092 15.1328 25.0675 15.0753 25.1359 15.0753C25.1942 15.0753 25.2423 15.1128 25.2575 15.1628C25.3233 15.3655 25.336 15.5882 25.3081 15.8059C25.2777 16.0312 25.1866 16.2589 25.0219 16.4541C24.8547 16.6467 24.6115 16.7869 24.3278 16.8244C24.0416 16.8644 23.7426 16.7693 23.5197 16.6092C23.2892 16.454 23.1397 16.1963 23.0967 15.9386C23.0486 15.6833 23.0739 15.4356 23.1423 15.2154C23.2841 14.7675 23.5856 14.4472 23.8997 14.2019C23.9276 14.1794 23.9681 14.1844 23.9909 14.2119C24.0112 14.2295 24.0137 14.257 24.001 14.2795Z" fill="#1B1B1B"/>
</g>
<g opacity="0.6">
<path opacity="0.6" d="M45.9111 10.5911C46.1797 10.9314 46.4837 11.2342 46.8181 11.3818C46.9853 11.4569 47.1576 11.4944 47.3121 11.4894C47.3906 11.4869 47.4565 11.4719 47.5249 11.4569C47.5933 11.4419 47.6592 11.4269 47.725 11.4043C47.8517 11.3568 47.9632 11.2842 48.024 11.1716C48.0873 11.0615 48.1076 10.9039 48.0746 10.7512C48.0392 10.5961 47.948 10.4384 47.8162 10.3108C47.6794 10.1732 47.5173 10.0656 47.3298 9.98551C47.264 9.95798 47.2361 9.88291 47.2614 9.82035C47.2842 9.7678 47.34 9.73778 47.3957 9.74528C47.6288 9.77531 47.8618 9.8654 48.0696 9.99051C48.2824 10.1231 48.4698 10.3158 48.5889 10.5636C48.7054 10.8138 48.7358 11.1116 48.6472 11.4043C48.5585 11.6996 48.333 11.9449 48.0746 12.09C47.8162 12.2426 47.497 12.2752 47.2184 12.2051C46.9397 12.14 46.7015 12.0074 46.509 11.8423C46.1163 11.5069 45.9213 11.0665 45.8047 10.6436C45.7946 10.6086 45.8149 10.5736 45.8503 10.5661C45.8681 10.5611 45.8934 10.5711 45.9111 10.5911Z" fill="#1B1B1B"/>
</g>
<g opacity="0.3">
<path opacity="0.3" d="M24.9206 16.1665C24.0112 18.9692 21.3209 16.6395 23.4057 14.9229C23.4032 14.9204 22.9472 17.0273 24.9206 16.1665Z" fill="#1B1B1B"/>
</g>
<g opacity="0.35">
<path opacity="0.35" d="M48.523 11.0488C48.8878 14.0392 45.3261 13.8039 46.1063 11.0488C46.9524 12.1248 47.7656 12.315 48.523 11.0488Z" fill="#1B1B1B"/>
</g>
<g opacity="0.6">
<path opacity="0.6" d="M39.7909 18.3084C40.0594 18.6487 40.3634 18.9515 40.6978 19.0991C40.865 19.1742 41.0373 19.2117 41.1918 19.2067C41.2703 19.2042 41.3362 19.1892 41.4046 19.1742C41.473 19.1592 41.5389 19.1442 41.6047 19.1216C41.7314 19.0741 41.8428 19.0015 41.9036 18.8889C41.967 18.7788 41.9872 18.6212 41.9543 18.4685C41.9188 18.3134 41.8276 18.1557 41.6959 18.0281C41.5591 17.8905 41.397 17.7829 41.2095 17.7028C41.1437 17.6753 41.1158 17.6002 41.1411 17.5376C41.1639 17.4851 41.2197 17.4551 41.2754 17.4626C41.5085 17.4926 41.7415 17.5827 41.9492 17.7078C42.162 17.8404 42.3495 18.0331 42.4686 18.2808C42.5851 18.5311 42.6155 18.8289 42.5268 19.1216C42.4382 19.4169 42.2127 19.6621 41.9543 19.8073C41.6959 19.9599 41.3767 19.9925 41.0981 19.9224C40.8194 19.8598 40.5813 19.7247 40.3887 19.5595C39.9961 19.2242 39.801 18.7838 39.6845 18.3609C39.6744 18.3259 39.6946 18.2908 39.7301 18.2833C39.7478 18.2783 39.7757 18.2883 39.7909 18.3084Z" fill="#1B1B1B"/>
</g>
<g opacity="0.35">
<path opacity="0.35" d="M42.4026 18.7639C42.7673 21.7542 39.2057 21.519 39.9859 18.7639C40.832 19.8399 41.6451 20.0326 42.4026 18.7639Z" fill="#1B1B1B"/>
</g>
</g>
<g opacity="0.35">
<path opacity="0.35" d="M18.6229 15.1129C18.3392 15.2981 18.0529 15.4883 17.7286 15.5834C17.716 15.5884 17.7033 15.5909 17.6907 15.5959C17.3512 15.691 16.9585 15.6659 16.6824 15.4532C16.6621 15.4357 16.6419 15.4207 16.6241 15.4032C17.8325 15.2556 18.3898 14.5974 18.2986 13.4263L18.3012 13.4238C18.3949 13.4313 18.4886 13.4388 18.5798 13.4514L18.6229 15.1129Z" fill="#1B1B1B"/>
</g>
<g opacity="0.35">
<path opacity="0.35" d="M62.9827 53.144C63.0055 54.0199 62.2835 54.7506 61.369 54.7731H61.3488L24.3074 55.3036L17.3435 55.4037L6.4074 55.5589C5.86275 55.5664 5.4169 55.1535 5.4017 54.6355C5.3941 54.3752 5.49796 54.135 5.67022 53.9598C5.84248 53.7846 6.08314 53.6695 6.35674 53.6595L17.2574 53.2491L24.0693 52.9938L61.2652 51.5975C62.1847 51.5699 62.9574 52.2606 62.9827 53.144Z" fill="#1B1B1B"/>
</g>
<path d="M62.9827 51.7525C63.0055 52.6284 62.2835 53.3591 61.369 53.3816H61.3488L24.3074 53.9121L17.3435 54.0122L6.4074 54.1674C5.86275 54.1749 5.4169 53.762 5.4017 53.244C5.3941 52.9837 5.49796 52.7435 5.67022 52.5683C5.84248 52.3931 6.08314 52.278 6.35674 52.268L17.2574 51.8576L24.0693 51.6024L61.2652 50.206C62.1847 50.176 62.9574 50.8692 62.9827 51.7525Z" fill="#FFD78F"/>
<path d="M6.39475 54.2324C5.8273 54.2324 5.35611 53.7945 5.34091 53.249C5.33331 52.9787 5.43464 52.7235 5.62717 52.5283C5.8197 52.3331 6.07809 52.2205 6.35675 52.2105L61.2652 50.1486C61.7364 50.1286 62.1848 50.2937 62.5268 50.609C62.8536 50.9118 63.0385 51.3147 63.0512 51.7501C63.0638 52.1905 62.8941 52.6109 62.5775 52.9312C62.2608 53.2515 61.8352 53.4342 61.3767 53.4442H61.3564L24.3151 53.9747L6.41502 54.2324C6.40235 54.2324 6.39982 54.2324 6.39475 54.2324ZM61.3311 50.2712C61.3108 50.2712 61.288 50.2712 61.2678 50.2712L24.0719 51.67L6.35929 52.3356C6.11356 52.3456 5.88557 52.4432 5.71584 52.6159C5.54864 52.7861 5.45998 53.0113 5.46504 53.2465C5.47771 53.7244 5.89316 54.1098 6.39222 54.1098C6.39728 54.1098 6.39982 54.1098 6.40488 54.1098L24.3049 53.852L61.3666 53.3215C61.7921 53.309 62.1873 53.1414 62.4812 52.8461C62.7751 52.5508 62.9296 52.163 62.9195 51.7576C62.9093 51.3572 62.7371 50.9819 62.4356 50.7041C62.1367 50.4239 61.7466 50.2712 61.3311 50.2712Z" fill="#1B1B1B"/>
<path d="M45.0371 53.6169L43.5627 53.6569C44.1555 52.696 44.0744 51.7025 43.4816 50.6841L44.9561 50.644C45.4906 51.6225 45.5185 52.6134 45.0371 53.6169Z" fill="#1B1B1B"/>
<path d="M48.3507 53.5292L46.324 53.5843C46.9168 52.6234 46.8358 51.6299 46.243 50.6114L48.2696 50.5564C48.8067 51.5348 48.832 52.5233 48.3507 53.5292Z" fill="#1B1B1B"/>
<g opacity="0.55">
<path opacity="0.55" d="M62.9828 51.7528C62.9854 51.8253 62.9803 51.9004 62.9727 51.973C62.694 51.43 62.0987 51.0621 61.4249 51.0897L24.2289 52.486L17.4144 52.7387L6.5163 53.1466C6.24271 53.1566 6.00205 53.2692 5.82979 53.4468C5.73099 53.5469 5.65499 53.6695 5.61193 53.8022C5.4878 53.6495 5.40927 53.4568 5.4042 53.2467C5.3966 52.9864 5.50046 52.7487 5.67273 52.571C5.84499 52.3959 6.08565 52.2808 6.35924 52.2708L17.2574 51.8604L24.0693 51.6051L61.2653 50.2089C62.1874 50.1763 62.96 50.8695 62.9828 51.7528Z" fill="white"/>
</g>
<path d="M6.39223 54.6078C5.61958 54.6078 4.9812 54.0072 4.96093 53.259C4.94067 52.5033 5.55878 51.8627 6.34156 51.8351L61.2501 49.7756C61.8226 49.7531 62.3698 49.9533 62.7852 50.3362C63.1855 50.7065 63.4135 51.207 63.4287 51.7425C63.4439 52.2781 63.2412 52.7911 62.8612 53.1814C62.4686 53.5868 61.934 53.8145 61.359 53.822L6.41756 54.6078C6.40489 54.6078 6.39983 54.6078 6.39223 54.6078ZM61.3311 50.6465C61.3134 50.6465 61.2982 50.6465 61.2805 50.6465L6.37196 52.706C6.07304 52.716 5.83744 52.9537 5.84504 53.2315C5.85264 53.5067 6.09584 53.7295 6.39223 53.7295C6.39476 53.7295 6.39729 53.7295 6.39983 53.7295L61.3413 52.9462C61.6782 52.9412 61.9898 52.8086 62.2178 52.5733C62.4331 52.3531 62.5471 52.0654 62.5395 51.7651C62.5319 51.4648 62.4027 51.1845 62.1747 50.9743C61.9467 50.7616 61.6478 50.6465 61.3311 50.6465Z" fill="#1B1B1B"/>
<g opacity="0.35">
<path opacity="0.35" d="M62.9625 59.3049C62.9599 60.1833 62.2152 60.8889 61.3032 60.8889H61.2829L24.2416 60.3684L17.2776 60.2708L6.34155 60.1157C5.79943 60.1082 5.36371 59.6828 5.36371 59.1648C5.36371 58.9045 5.47264 58.6693 5.64997 58.4967C5.8273 58.3265 6.07302 58.2189 6.34408 58.2164L17.2523 58.1163L24.0693 58.0537L61.2905 57.7159C62.2126 57.7059 62.965 58.4216 62.9625 59.3049Z" fill="#1B1B1B"/>
</g>
<path d="M63.0031 57.9136C63.0006 58.7919 62.2558 59.4976 61.3439 59.4976H61.3236L24.2821 58.9771L17.3182 58.8795L6.38208 58.7243C5.83996 58.7168 5.40424 58.2914 5.40424 57.7734C5.40424 57.5132 5.51317 57.278 5.6905 57.1053C5.86782 56.9351 6.11355 56.8275 6.38461 56.825L17.2929 56.7249L24.1099 56.6624L61.3312 56.3246C62.2533 56.3146 63.0057 57.0302 63.0031 57.9136Z" fill="#FFD78F"/>
<path d="M45.0119 59.2673L43.535 59.2648C44.1556 58.3214 44.1024 57.3255 43.54 56.292L45.0169 56.2945C45.5236 57.2854 45.521 58.2764 45.0119 59.2673Z" fill="#1B1B1B"/>
<path d="M48.3279 59.2722L46.3013 59.2697C46.9219 58.3263 46.8687 57.3304 46.3063 56.2969L48.3329 56.2994C48.8396 57.2903 48.8371 58.2813 48.3279 59.2722Z" fill="#1B1B1B"/>
<g opacity="0.55">
<path opacity="0.55" d="M63.0032 57.9112C63.0032 57.9862 62.9981 58.0588 62.9855 58.1289C62.722 57.5758 62.1394 57.1955 61.463 57.2005L24.2417 57.5383L17.4247 57.6009L6.51893 57.701C6.24534 57.7035 6.00215 57.8111 5.82482 57.9812C5.72349 58.0788 5.64496 58.1964 5.59683 58.3291C5.47523 58.1714 5.4043 57.9787 5.4043 57.7685C5.4043 57.5083 5.51576 57.273 5.69309 57.1004C5.87042 56.9277 6.11615 56.8226 6.3872 56.8201L17.2929 56.72L24.1099 56.6574L61.3313 56.3196C62.2534 56.3146 63.0057 57.0278 63.0032 57.9112Z" fill="white"/>
</g>
<path d="M61.3489 59.9355C61.3388 59.9355 61.3286 59.9355 61.316 59.9355L6.37451 59.1598C5.59426 59.1498 4.95841 58.5242 4.96095 57.7685C4.96348 57.0127 5.59933 56.3897 6.38211 56.3821L61.3286 55.8817C61.9037 55.8767 62.4433 56.0919 62.846 56.4872C63.2362 56.8701 63.449 57.3756 63.449 57.9111C63.449 58.4466 63.2311 58.9521 62.841 59.3324C62.4407 59.7228 61.9113 59.9355 61.3489 59.9355ZM61.3286 59.0597C61.663 59.0597 61.9797 58.9421 62.2153 58.7118C62.4357 58.4966 62.5598 58.2139 62.5598 57.9111C62.5598 57.6108 62.4382 57.3255 62.2203 57.1103C61.9898 56.8826 61.6807 56.76 61.3489 56.76C61.3438 56.76 61.3413 56.76 61.3362 56.76L6.38971 57.2605C6.09078 57.263 5.84759 57.4932 5.84759 57.771C5.84759 58.0487 6.08825 58.2789 6.38717 58.2839L61.3286 59.0597Z" fill="#1B1B1B"/>
</svg>
