<svg width="64" height="64" viewBox="0 0 64 64" fill="none" xmlns="http://www.w3.org/2000/svg">
<g clip-path="url(#clip0_766_11229)">
<g opacity="0.3">
<path opacity="0.3" d="M35.9754 63.9998C48.2327 63.9998 58.1692 62.345 58.1692 60.3038C58.1692 58.2626 48.2327 56.6079 35.9754 56.6079C23.7182 56.6079 13.7817 58.2626 13.7817 60.3038C13.7817 62.345 23.7182 63.9998 35.9754 63.9998Z" fill="#1B1B1B"/>
</g>
<path d="M52.7122 31.645C52.7122 31.645 51.9999 39.2028 52.4502 45.9387C52.7224 49.9945 50.7636 53.8921 47.3063 56.0132C39.4556 60.8347 25.8147 59.6683 22.7467 54.326C22.5533 53.9916 22.4033 53.6394 22.299 53.2718L24.123 6.36048C26.1327 1.20965 35.3928 -0.860381 43.2792 1.28112C44.7877 1.68951 46.248 2.2536 47.5963 2.97849C51.972 5.3344 54.7118 9.93135 54.8034 14.9137C54.9001 20.353 54.1114 25.9454 52.7122 31.645Z" fill="#E07153"/>
<path d="M31.0197 1.13312C31.4242 0.931477 31.8618 0.793644 32.3121 0.709414C32.7623 0.627735 33.2253 0.604763 33.6884 0.625183C34.1488 0.650707 34.6093 0.724728 35.0596 0.831931C35.5098 0.944239 35.9474 1.10249 36.3723 1.28116C37.2245 1.64106 38.0106 2.13113 38.7611 2.64927C39.509 3.17508 40.206 3.74938 40.9184 4.28539C41.623 4.82651 42.3404 5.337 43.1036 5.74284C43.4827 5.94959 43.877 6.1206 44.2815 6.26099C44.485 6.3248 44.6911 6.39116 44.8997 6.43711C45.1057 6.49581 45.3194 6.52899 45.5331 6.56983C47.2401 6.83784 49.054 6.54941 50.6491 5.70711C49.2219 6.82508 47.3139 7.34067 45.4594 7.162C44.9964 7.11606 44.5333 7.03438 44.0805 6.90165C43.6302 6.76637 43.1927 6.59536 42.7729 6.38861C41.9334 5.97511 41.1753 5.4442 40.4553 4.89287C39.7379 4.33389 39.0485 3.76469 38.3388 3.23378C37.9851 2.96833 37.6264 2.71308 37.2576 2.47571C36.8861 2.24088 36.5096 2.01882 36.1204 1.81973C35.3419 1.42665 34.5151 1.12802 33.6502 0.992735C33.2177 0.921267 32.7776 0.898295 32.3375 0.916162C31.8948 0.941686 31.4547 1.01315 31.0197 1.13312Z" fill="white"/>
<path d="M28.2849 2.28162C28.842 2.14889 29.445 2.22292 29.9945 2.43732C30.5439 2.65428 31.0451 3.02183 31.4216 3.49658C31.7981 3.97134 32.0423 4.54309 32.1314 5.12759C32.2179 5.7121 32.1568 6.31958 31.9024 6.83518C31.8414 6.26854 31.7294 5.75549 31.5514 5.27564C31.3733 4.79833 31.1291 4.35931 30.8263 3.97389C30.5211 3.58847 30.1496 3.2541 29.7248 2.97333C29.2949 2.69001 28.8217 2.4654 28.2849 2.28162Z" fill="white"/>
<path d="M53.6026 9.41333C52.5469 10.1586 51.7938 11.2205 51.4351 12.3793C51.3486 12.6703 51.2825 12.9638 51.2443 13.2624C51.2113 13.5585 51.1985 13.8597 51.2113 14.1634C51.2392 14.7684 51.3512 15.3759 51.4962 15.9884C51.6412 16.601 51.8142 17.2187 51.9592 17.8543C52.0304 18.1733 52.0991 18.4924 52.1449 18.8268C52.1882 19.1586 52.2187 19.493 52.2187 19.8273C52.2212 20.4961 52.1322 21.175 51.888 21.8055C51.7582 22.1169 51.6056 22.4181 51.3995 22.681C51.1935 22.9413 50.9467 23.1685 50.6745 23.342C50.8933 23.1021 51.079 22.8443 51.2214 22.5687C51.3614 22.2904 51.4631 21.9944 51.5293 21.6957C51.6641 21.0933 51.6768 20.4731 51.6183 19.858C51.5903 19.5517 51.5394 19.2454 51.4809 18.9416C51.4173 18.643 51.3385 18.3341 51.2571 18.0304C51.0892 17.4204 50.906 16.8027 50.7533 16.1646C50.6796 15.8455 50.6134 15.5188 50.5651 15.1895C50.5193 14.8577 50.4913 14.5208 50.4888 14.1813C50.4888 13.8418 50.5193 13.4972 50.5804 13.1603C50.644 12.8234 50.7457 12.4941 50.8704 12.1802C51.3843 10.9193 52.3891 9.87788 53.6026 9.41333Z" fill="white"/>
<path d="M54.0123 26.678C53.9106 27.3365 53.6231 27.9644 53.2364 28.5183C52.8472 29.0722 52.3511 29.5546 51.7914 29.9374C51.2292 30.3203 50.6008 30.6036 49.9444 30.7619C49.2881 30.9176 48.6012 30.9533 47.9525 30.8027C48.5935 30.6317 49.1888 30.4377 49.7562 30.1901C50.3235 29.9426 50.8577 29.6465 51.364 29.3044C51.8677 28.9624 52.3409 28.5719 52.7785 28.1354C53.2186 27.6964 53.618 27.2114 54.0123 26.678Z" fill="white"/>
<path d="M47.9423 43.759C48.652 44.0041 49.2931 44.461 49.8045 45.0404C50.3107 45.6249 50.6796 46.3498 50.8449 47.1283C51.0078 47.9068 50.9721 48.7261 50.7534 49.497C50.6414 49.8824 50.4812 50.255 50.2802 50.6047C50.0767 50.9544 49.8299 51.2709 49.5602 51.5594C49.0184 52.1362 48.3951 52.5982 47.7693 53.0168C47.1409 53.4354 46.51 53.8132 45.9223 54.2394C45.3372 54.6632 44.7877 55.1379 44.3654 55.7122C43.9457 56.2891 43.6557 56.9808 43.5895 57.7287C43.5361 57.356 43.5615 56.9706 43.6429 56.5954C43.7243 56.2202 43.8668 55.8577 44.05 55.5131C44.4265 54.8265 44.9734 54.2573 45.556 53.7647C46.1386 53.2695 46.7669 52.8483 47.3597 52.4195C47.955 51.9907 48.5274 51.5491 49.0031 51.0361C49.4865 50.5282 49.8477 49.9411 50.0614 49.2851C50.2751 48.6291 50.3438 47.9221 50.2547 47.2304C50.1657 46.5387 49.9037 45.8674 49.5068 45.2675C49.1125 44.6703 48.5757 44.1572 47.9423 43.759Z" fill="white"/>
<path d="M28.7302 58.2082C28.9388 57.7105 29.239 57.2715 29.5798 56.8682C29.9207 56.4649 30.31 56.1025 30.7297 55.7835C31.1495 55.4644 31.6048 55.1913 32.0856 54.9744C32.5664 54.7574 33.0727 54.5915 33.6069 54.5303C33.2024 54.885 32.7929 55.1888 32.3909 55.495L31.1902 56.3986L29.992 57.3072C29.5849 57.6058 29.1804 57.9172 28.7302 58.2082Z" fill="white"/>
<g opacity="0.55">
<path opacity="0.55" d="M48.8759 3.76479C47.5556 3.06286 46.131 2.51664 44.6555 2.11846C36.7717 -0.0230476 27.5116 2.04444 25.4993 7.19783L23.6752 54.1093C23.7821 54.4768 23.9322 54.8265 24.1255 55.1635C24.5555 55.9113 25.194 56.5801 25.9954 57.1595C24.5377 56.4167 23.4005 55.4672 22.7467 54.3288C22.5533 53.9944 22.4033 53.6422 22.299 53.2746L24.123 6.36318C26.1327 1.21234 35.3928 -0.857698 43.2792 1.28381C44.7877 1.6922 46.248 2.25629 47.5963 2.98119C48.039 3.21856 48.4663 3.48147 48.8759 3.76479Z" fill="white"/>
</g>
<path d="M35.2224 59.505C32.2256 59.505 29.3814 59.0277 27.0536 58.119C24.2324 57.0189 22.4389 55.3853 21.869 53.3944C21.8003 53.1571 21.9377 52.9095 22.1743 52.8406C22.4109 52.7716 22.6577 52.9095 22.7263 53.1469C23.3445 55.3088 25.5959 56.5901 27.3767 57.2844C32.4876 59.2804 41.2541 59.2064 47.0748 55.6304C50.3794 53.6012 52.267 49.8976 52.005 45.9668C51.5572 39.2718 52.2619 31.6782 52.2696 31.6017C52.2721 31.5787 52.2746 31.5583 52.2797 31.5379C53.7705 25.4733 54.4497 20.0391 54.3582 14.924C54.2717 10.0693 51.6005 5.64333 47.3851 3.37421C42.3328 0.655854 35.1333 0.112183 29.8749 2.05204C27.1274 3.06536 25.283 4.61214 24.5377 6.52392C24.4486 6.75364 24.1891 6.86595 23.9602 6.77661C23.7312 6.68728 23.6193 6.42693 23.7083 6.19721C24.5504 4.04039 26.5754 2.31749 29.5671 1.21229C32.1543 0.257672 35.3394 -0.153271 38.5372 0.0509245C41.9232 0.267882 45.1286 1.14592 47.8074 2.58805C52.3052 5.01032 55.157 9.72979 55.2486 14.9087C55.3427 20.0927 54.6558 25.5907 53.1523 31.7191C53.104 32.2653 52.468 39.5066 52.8928 45.9081C53.1778 50.1733 51.1248 54.1908 47.5378 56.3936C44.7903 58.0807 41.1244 59.1604 37.2168 59.4335C36.5478 59.482 35.8813 59.505 35.2224 59.505Z" fill="#1B1B1B"/>
<path d="M11.5863 30.8692C10.416 30.0473 9.20509 28.9472 8.16206 27.722C7.16736 26.5504 6.32784 25.2666 5.82414 24.0005C5.38912 22.9055 5.11945 21.1162 6.23626 20.376C7.07069 19.8247 8.48005 19.7149 9.30176 20.3505C9.78512 20.7257 10.1616 21.2081 10.5127 21.7161C10.7162 22.0096 10.9096 22.3108 11.1131 22.6043C11.4234 23.051 11.7542 23.4849 12.1103 23.8959C14.7128 26.7495 14.0743 28.988 11.5863 30.8692Z" fill="white"/>
<path d="M11.5888 30.9482L11.5507 30.9227C10.3524 30.0829 9.13387 28.9599 8.11373 27.7628C7.05035 26.5095 6.23882 25.2154 5.76564 24.0209C5.36878 23.0178 5.01262 21.1085 6.2032 20.3198C7.03 19.7736 8.4877 19.6358 9.34248 20.2994C9.85382 20.695 10.2481 21.2183 10.5661 21.6777C10.6704 21.8283 10.7722 21.9789 10.8714 22.1295C10.9681 22.275 11.0673 22.4205 11.1665 22.5634C11.4769 23.0127 11.8127 23.4466 12.1587 23.8499C13.3772 25.1874 13.9395 26.4661 13.8326 27.6454C13.7258 28.8042 13.0033 29.8736 11.627 30.9176L11.5888 30.9482ZM7.8746 19.9804C7.28948 19.9804 6.69419 20.1488 6.27189 20.427C5.14999 21.1698 5.50106 23.005 5.8852 23.9749C6.3533 25.1567 7.1572 26.438 8.21041 27.6811C9.21019 28.8578 10.4084 29.9604 11.5837 30.7925C12.9066 29.7818 13.6011 28.7506 13.7029 27.6377C13.8072 26.4942 13.2551 25.2486 12.062 23.9367C11.7109 23.5257 11.3726 23.0892 11.0597 22.6375C10.9605 22.4945 10.8612 22.3465 10.7646 22.201C10.6628 22.0504 10.5636 21.8998 10.4593 21.7492C10.1464 21.2974 9.75969 20.7844 9.26361 20.399C8.88711 20.108 8.3834 19.9804 7.8746 19.9804Z" fill="#1B1B1B"/>
<g opacity="0.3">
<path opacity="0.3" d="M44.7293 57.3075C45.2254 57.065 45.7037 56.8047 46.1616 56.5239C49.6189 54.4028 51.5752 50.5078 51.303 46.4494C50.8552 39.7109 51.565 32.1557 51.565 32.1557C52.9668 26.4561 53.7529 20.8637 53.6562 15.427C53.5671 10.4446 50.8273 5.84762 46.4491 3.49171C45.6681 3.07055 44.8463 2.70555 44.0017 2.3916C50.695 14.0027 46.6144 49.3311 32.2027 54.8367C29.7172 56.1053 26.8985 56.4627 23.749 55.5948C27.8448 59.5792 38.7713 60.3398 46.0268 56.7179C45.607 56.9297 45.1745 57.1263 44.7293 57.3075Z" fill="#1B1B1B"/>
</g>
<g opacity="0.3">
<path opacity="0.3" d="M11.4591 30.7416C10.2888 29.9197 9.07789 28.8196 8.03485 27.5944C8.06792 27.5484 8.08827 27.5255 8.08827 27.5255C9.92249 28.8119 11.6499 24.5264 10.3855 21.5859C10.589 21.8795 10.7824 22.1807 10.9859 22.4742C11.2962 22.9209 11.627 23.3548 11.9831 23.7657C14.5856 26.6219 13.9471 28.8604 11.4591 30.7416Z" fill="#1B1B1B"/>
</g>
<path d="M20.4011 58.507C19.7728 57.2921 19.2233 55.365 18.8646 52.5828L22.0878 52.6542L24.9854 52.718C25.367 58.8287 22.4643 62.5068 20.4011 58.507Z" fill="white"/>
<path d="M22.3015 60.2426C21.6019 60.2426 20.9176 59.6504 20.3427 58.535C19.6532 57.2026 19.1343 55.2015 18.801 52.5878L18.7908 52.5112L25.049 52.6491L25.0516 52.7103C25.3136 56.904 24.0314 59.8087 22.6424 60.1941C22.5305 60.2273 22.416 60.2426 22.3015 60.2426ZM18.9409 52.6491C19.2742 55.2092 19.7855 57.1694 20.4597 58.4737C21.0957 59.7091 21.8589 60.2732 22.6093 60.0665C23.9398 59.6964 25.166 56.8734 24.9244 52.7818L18.9409 52.6491Z" fill="#1B1B1B"/>
<path d="M35.0468 58.9842C34.3498 57.8126 33.7341 55.8447 33.3271 52.8813L36.8709 52.5469L40.0228 52.2483C40.2823 58.3741 37.2575 62.7005 35.0468 58.9842Z" fill="white"/>
<path d="M36.8353 60.4264C36.3087 60.4264 35.6498 60.1226 34.991 59.0174C34.2252 57.7336 33.6452 55.6712 33.2636 52.8916L33.2534 52.8252L40.0814 52.1794L40.084 52.2458C40.2519 56.2021 38.9799 59.8444 37.2449 60.3651C37.1228 60.4009 36.9854 60.4264 36.8353 60.4264ZM33.3984 52.9401C33.7775 55.6712 34.3499 57.6927 35.1003 58.9536C35.7363 60.0206 36.4665 60.4672 37.2118 60.2426C38.6695 59.8061 40.1298 56.6539 39.9619 52.3173L33.3984 52.9401Z" fill="#1B1B1B"/>
<path d="M11.5863 31.3159C11.4972 31.3159 11.4082 31.2904 11.3319 31.2343C8.71157 29.394 6.38891 26.6194 5.41202 24.1614C4.86507 22.7831 4.68953 20.8637 5.99205 20.001C6.92315 19.3858 8.55893 19.2071 9.57398 19.9959C10.2558 20.5242 10.729 21.2312 11.1869 21.9153C11.2835 22.0608 11.3802 22.2037 11.4794 22.3467C11.7822 22.7831 12.1078 23.2068 12.4487 23.6025C12.609 23.7888 12.5886 24.0721 12.4029 24.2329C12.2172 24.3937 11.9348 24.3733 11.7745 24.187C11.4158 23.7684 11.0698 23.3217 10.7493 22.8571C10.6475 22.7117 10.5483 22.5636 10.4491 22.413C10.0115 21.7596 9.59942 21.1445 9.03211 20.7029C8.35796 20.1822 7.14956 20.3073 6.48304 20.7463C5.56466 21.3538 5.92336 23.0307 6.23882 23.8322C7.27931 26.4535 9.80294 29.0723 11.8432 30.5043C12.0442 30.6446 12.0925 30.9254 11.9526 31.1271C11.8661 31.2496 11.7262 31.3159 11.5863 31.3159Z" fill="#1B1B1B"/>
<g opacity="0.3">
<path opacity="0.3" d="M35.0468 58.9843C35.085 58.9026 35.1104 58.8541 35.1104 58.8541C37.7587 58.6295 38.1708 53.6369 36.2298 53.5961L36.8708 52.5445L40.0228 52.2458C40.2823 58.3743 37.2575 62.7007 35.0468 58.9843Z" fill="#1B1B1B"/>
</g>
<path d="M47.4894 26.4714C48.5528 27.1963 48.2654 27.9186 47.2656 28.641C49.1379 30.2184 48.6698 31.561 47.1078 32.7887C47.8431 33.3655 47.6904 34.144 47.3165 34.9736C47.2529 35.1165 47.1816 35.2595 47.1078 35.405L46.7262 42.3272C46.8992 42.4191 47.0544 42.5161 47.1918 42.6156C48.4307 43.5064 48.2959 44.6525 46.7898 46.0589C48.5706 46.2171 48.3162 48.9304 46.9806 49.1218C46.1615 50.7758 45.1159 51.0285 43.9279 50.398C43.5056 51.4981 42.8365 51.6972 42.0199 51.3756C41.1702 52.6416 40.0686 52.4502 38.8831 51.7585C38.4023 53.8744 36.1789 54.048 35.113 53.0398C34.9578 52.8918 34.828 52.7182 34.7288 52.5242C33.958 53.1368 33.2609 53.1827 32.6936 52.2256C31.8821 53.3946 30.9993 53.3665 30.0657 52.5242C29.1753 53.609 26.9773 53.8081 26.1836 52.5676C25.5781 53.5579 24.3392 53.5886 23.894 52.7258C23.4157 53.5554 21.4136 53.4609 20.9048 52.3736C19.6201 53.7468 18.4728 53.3665 17.3865 52.2664C15.2673 54.5636 13.8427 52.3175 13.9954 50.9468C12.6394 51.3373 12.4486 49.3107 13.657 49.1192C12.7234 48.2565 12.469 47.3683 12.9142 46.4596C11.8686 45.602 11.8482 44.7112 12.5529 43.7999L12.1611 36.038C10.678 35.0195 11.3165 32.73 12.385 32.5922C11.2326 31.8264 11.3979 30.4532 12.2578 29.593C10.6475 28.9958 11.113 27.0406 12.4308 26.6577C11.23 24.4524 12.7641 22.5381 12.7641 22.5381C12.24 21.4661 12.3265 20.5012 13.0388 19.6462C11.4056 16.9227 13.6239 15.21 13.6239 15.21C12.7335 14.7302 12.8302 12.9766 14.1327 12.7546C13.4331 11.5421 14.1633 10.1383 15.2673 9.77585C13.9114 6.92477 17.6841 4.84198 19.4649 7.22341C20.1442 5.31929 22.2429 5.63834 22.393 7.61649C23.5785 5.70215 26.3133 5.95229 27.107 7.77474C27.9008 6.09523 29.6816 6.2739 30.0962 7.74411C31.124 6.011 33.1592 6.56488 33.7952 7.89215C34.1132 6.15649 36.764 5.73278 36.7208 8.19844C36.8785 7.86152 37.0744 7.57309 37.2932 7.33316C37.517 7.08302 37.7714 6.88393 38.0335 6.73844C39.4072 5.97271 41.1244 6.57509 41.3839 8.41285C42.4956 8.08614 43.2791 8.28267 43.2613 9.7733C44.4519 9.52061 45.6145 10.6769 45.2965 11.8255C46.9196 10.9832 47.7769 12.5606 46.6321 13.5484C48.3442 13.043 49.6213 14.8552 48.4434 15.8762C49.4559 17.0018 49.0794 19.0361 47.9041 19.8019C49.3542 20.5395 48.5757 21.729 47.7769 22.7678C49.5017 24.1895 48.8047 25.2973 47.4894 26.4714Z" fill="white"/>
<path d="M36.675 53.7008C36.0873 53.7008 35.5022 53.489 35.085 53.1061L35.0646 53.0882C34.9196 52.9504 34.7975 52.7947 34.7034 52.6237C34.2709 52.9529 33.8893 53.0806 33.5408 53.0168C33.2228 52.9581 32.9353 52.7309 32.686 52.3429C32.3095 52.856 31.9025 53.1418 31.47 53.1903C31.0324 53.2414 30.5592 53.0474 30.0683 52.6186C29.5595 53.198 28.6742 53.5349 27.7914 53.4813C27.0893 53.4405 26.5219 53.1572 26.181 52.6849C25.8631 53.152 25.3619 53.4277 24.8607 53.4073C24.4486 53.392 24.1001 53.1903 23.8864 52.8483C23.6345 53.1801 23.1257 53.3664 22.5228 53.3409C21.7952 53.3103 21.1643 52.9785 20.887 52.4859C20.3452 53.0423 19.8135 53.318 19.2589 53.3231C19.2512 53.3231 19.2436 53.3231 19.236 53.3231C18.6432 53.3231 18.0352 53.0091 17.384 52.3608C16.3511 53.4532 15.5548 53.4201 15.0664 53.1954C14.3057 52.8457 13.8733 51.8197 13.9216 51.0335C13.568 51.1101 13.2627 51.0335 13.049 50.8089C12.7997 50.546 12.7183 50.1121 12.848 49.7292C12.9574 49.4025 13.2017 49.1728 13.5222 49.0834C12.6522 48.2386 12.4206 47.3631 12.8328 46.4799C11.861 45.6606 11.7439 44.7545 12.4868 43.782L12.0976 36.0736C11.2428 35.4687 11.1181 34.4886 11.2911 33.7713C11.4412 33.1511 11.7999 32.6942 12.2273 32.564C11.805 32.245 11.5582 31.8187 11.5099 31.3261C11.4514 30.7441 11.688 30.1111 12.1434 29.6185C11.5074 29.3505 11.1461 28.8221 11.1665 28.1891C11.1919 27.4846 11.6676 26.8491 12.3342 26.6219C11.2784 24.5851 12.497 22.7881 12.6878 22.5252C12.179 21.4583 12.2706 20.4858 12.96 19.6333C11.5252 17.1957 13.1457 15.5417 13.512 15.2125C13.1152 14.9496 12.904 14.4008 12.993 13.8418C13.0897 13.2496 13.4739 12.831 14.031 12.7009C13.7486 12.1649 13.713 11.5625 13.9292 10.9907C14.1531 10.4037 14.6161 9.93657 15.1758 9.72982C14.5245 8.28769 15.1682 7.07017 16.1094 6.49843C17.0456 5.92923 18.4728 5.88073 19.442 7.08549C19.7728 6.2636 20.424 5.7965 21.1236 5.89094C21.813 5.98283 22.3142 6.57755 22.4338 7.42496C23.0138 6.59797 23.9398 6.15385 24.9447 6.22531C25.8885 6.29423 26.7051 6.82514 27.1045 7.6215C27.4988 6.87874 28.145 6.45759 28.8166 6.51119C29.4043 6.55969 29.8902 6.96808 30.109 7.58322C30.5567 6.90427 31.2003 6.54692 31.9355 6.58266C32.6733 6.61584 33.3882 7.05741 33.7647 7.70063C34.014 6.80727 34.8611 6.33252 35.5556 6.40143C36.1178 6.45759 36.708 6.89406 36.7717 7.93545C36.9065 7.69297 37.0617 7.47346 37.2397 7.27948C37.4636 7.02934 37.7206 6.82514 37.9978 6.67199C38.7178 6.27126 39.5497 6.23042 40.2238 6.56479C40.87 6.8864 41.2974 7.5092 41.4322 8.32087C42.0835 8.13965 42.5516 8.16773 42.8645 8.4051C43.1672 8.63738 43.3173 9.05598 43.3199 9.68643C43.8948 9.59454 44.5028 9.80895 44.9251 10.2633C45.3067 10.6717 45.4721 11.2 45.383 11.7003C46.2225 11.3149 46.8 11.5855 47.0468 11.9505C47.2885 12.3103 47.3088 12.9025 46.8382 13.4232C47.7617 13.2496 48.4867 13.727 48.7894 14.2808C49.0922 14.8347 48.9904 15.4396 48.5299 15.8736C48.9726 16.3943 49.1659 17.1319 49.0642 17.9053C48.9624 18.6889 48.5757 19.3832 48.0211 19.7865C48.4282 20.0136 48.6724 20.2995 48.7487 20.6364C48.8988 21.3026 48.3773 22.0735 47.8609 22.7499C48.5248 23.3063 48.853 23.8449 48.8632 24.3911C48.8785 25.167 48.2374 25.8664 47.5887 26.4535C48.0059 26.7546 48.2196 27.0737 48.2247 27.4055C48.2297 27.7986 47.9499 28.1993 47.3673 28.6332C48.1738 29.3275 48.5605 29.9962 48.5477 30.6778C48.535 31.3771 48.0975 32.0637 47.2071 32.7784C47.9423 33.4114 47.7057 34.2486 47.3724 34.9888C47.3063 35.1343 47.2325 35.2824 47.1689 35.41L46.7899 42.2786C46.9527 42.368 47.1002 42.4598 47.2274 42.5517C47.7693 42.9397 48.0593 43.3864 48.0898 43.8764C48.1305 44.5069 47.7388 45.2216 46.9298 46.0026C47.7769 46.1456 48.1 46.8807 48.1153 47.4933C48.1331 48.2182 47.7566 49.0426 47.0214 49.1702C46.6067 49.9972 46.1081 50.5077 45.5433 50.6915C45.0727 50.8446 44.5384 50.7706 43.9584 50.4771C43.7523 50.9876 43.475 51.3219 43.1341 51.4725C42.8238 51.6104 42.4651 51.6002 42.0402 51.4445C41.0837 52.8228 39.8193 52.3582 38.9188 51.8477C38.6924 52.7309 38.1403 53.3486 37.3568 53.5885C37.138 53.6676 36.9065 53.7008 36.675 53.7008ZM35.1384 52.9836L35.1537 52.9963C35.7006 53.5145 36.5707 53.7085 37.3211 53.4788C38.0843 53.2465 38.616 52.6313 38.817 51.7482L38.8374 51.664L38.9111 51.7074C40.3078 52.5216 41.2491 52.4093 41.9639 51.3449L41.9919 51.3015L42.0402 51.3194C42.4524 51.4802 42.7933 51.4981 43.0833 51.3679C43.4064 51.2249 43.6684 50.8906 43.8668 50.3775L43.8923 50.3112L43.9559 50.3443C44.5359 50.6532 45.0421 50.7298 45.5051 50.5817C46.0419 50.4082 46.5202 49.9079 46.9221 49.0962L46.9374 49.0656L46.9705 49.0605C47.6548 48.9635 48.0059 48.1875 47.9881 47.5086C47.9728 46.8909 47.6472 46.2017 46.7822 46.1252L46.6398 46.1124L46.7441 46.0154C47.5912 45.2241 48.0008 44.512 47.9626 43.8994C47.9346 43.4502 47.6624 43.0367 47.1536 42.6717C47.0214 42.5747 46.8662 42.4803 46.6957 42.3884L46.6601 42.368L47.0519 35.3794C47.118 35.2492 47.1943 35.0986 47.2579 34.9505C47.581 34.2359 47.81 33.4242 47.0671 32.8422L47.0035 32.7912L47.0671 32.7401C47.9677 32.0331 48.4104 31.3618 48.4205 30.688C48.4307 30.032 48.0389 29.3786 47.2223 28.6919L47.1587 28.6383L47.2249 28.5898C47.8151 28.1636 48.1 27.7807 48.0949 27.4183C48.0898 27.1145 47.8736 26.8133 47.4487 26.5249L47.3801 26.479L47.4411 26.4254C48.0873 25.8485 48.7487 25.1568 48.7335 24.4064C48.7233 23.8857 48.3951 23.3675 47.7311 22.8213L47.6828 22.783L47.721 22.7345C48.2323 22.0709 48.764 21.3077 48.6241 20.6798C48.5503 20.3531 48.3035 20.0851 47.871 19.8656L47.7718 19.8145L47.8634 19.7533C48.4333 19.3832 48.8327 18.6915 48.937 17.9028C49.0362 17.1421 48.8378 16.4223 48.3926 15.9246L48.3493 15.8761L48.3977 15.8327C48.8505 15.4396 48.9573 14.873 48.6749 14.3549C48.3722 13.7984 47.6065 13.3288 46.6423 13.6121L46.3599 13.6963L46.5838 13.5023C47.1689 12.997 47.1765 12.3869 46.9399 12.0347C46.711 11.6952 46.1513 11.4527 45.3194 11.8866L45.1897 11.953L45.2278 11.8126C45.3652 11.3174 45.2177 10.7763 44.831 10.3628C44.4189 9.92126 43.8185 9.72217 43.2664 9.83958L43.1876 9.85489V9.77577C43.1952 9.15552 43.0604 8.73182 42.7805 8.51996C42.4931 8.30045 42.0377 8.28514 41.3915 8.47657L41.3203 8.49699L41.3101 8.42297C41.1956 7.61895 40.7886 7.00381 40.1602 6.69241C39.5242 6.37591 38.7381 6.4142 38.0538 6.79706C37.7892 6.9451 37.545 7.14164 37.3288 7.37902C37.1075 7.6215 36.9192 7.90738 36.7666 8.22899L36.6394 8.49699L36.6445 8.20091C36.6623 7.23353 36.2476 6.61329 35.5378 6.54182C34.8586 6.4729 34.0165 6.97573 33.8461 7.90482L33.8105 8.09881L33.7265 7.92269C33.3983 7.23864 32.6758 6.75622 31.9254 6.72304C31.1952 6.68986 30.5618 7.06507 30.1395 7.7772L30.0632 7.90482L30.0225 7.76189C29.8418 7.12378 29.3737 6.69752 28.7988 6.64902C28.1475 6.59287 27.5166 7.03699 27.1529 7.80528L27.0918 7.93035L27.0358 7.80273C26.6771 6.98339 25.8707 6.42951 24.9269 6.36315C23.9118 6.28913 22.9782 6.77154 22.4338 7.65213L22.332 7.81804L22.3167 7.62406C22.2506 6.74601 21.7723 6.12066 21.0982 6.02878C20.4316 5.93944 19.8084 6.41675 19.5133 7.24629L19.4726 7.3586L19.4013 7.26416C18.4804 6.03133 17.0787 6.06451 16.1654 6.61839C15.2597 7.16972 14.6441 8.34895 15.3106 9.75024L15.3411 9.81661L15.2725 9.83958C14.7179 10.0208 14.2574 10.4726 14.0386 11.0469C13.8249 11.6084 13.8733 12.2031 14.1735 12.7238L14.2192 12.803L14.1302 12.8183C13.5832 12.9127 13.2017 13.3058 13.1101 13.8699C13.021 14.411 13.2398 14.9394 13.6418 15.1563L13.7283 15.2023L13.6494 15.2635C13.5604 15.3324 11.4972 16.9737 13.0821 19.6154L13.105 19.6537L13.077 19.6895C12.3799 20.5292 12.2909 21.4532 12.8099 22.5125L12.8277 22.5482L12.8022 22.5788C12.787 22.5967 11.3089 24.4881 12.4715 26.6347L12.5097 26.7036L12.4334 26.7266C11.7897 26.9129 11.3064 27.5331 11.2835 28.1993C11.2606 28.8119 11.6193 29.302 12.2655 29.5419L12.3596 29.5751L12.2884 29.6466C11.8152 30.1213 11.5684 30.7467 11.6244 31.3184C11.6753 31.8161 11.9449 32.2398 12.4054 32.5461L12.5478 32.6406L12.3774 32.6636C11.9449 32.7197 11.5532 33.1791 11.4031 33.8071C11.2377 34.4911 11.3573 35.4253 12.1841 35.9945L12.2095 36.0124L12.6038 43.8305L12.5886 43.8484C11.861 44.7877 11.9755 45.6274 12.9396 46.4187L12.9778 46.4519L12.9549 46.4978C12.5275 47.3708 12.7717 48.2386 13.6825 49.0809L13.7791 49.1702L13.6494 49.1906C13.3161 49.2442 13.0617 49.4586 12.9549 49.7777C12.8404 50.1172 12.9091 50.4975 13.1279 50.7272C13.2653 50.8727 13.5222 51.0182 13.9623 50.8931L14.0539 50.8676L14.0437 50.962C13.9598 51.7125 14.3668 52.7437 15.1071 53.0857C15.565 53.2975 16.3231 53.318 17.3254 52.2332L17.3712 52.1847L17.417 52.2332C18.0632 52.8866 18.6534 53.2031 19.2258 53.2031C19.2334 53.2031 19.2385 53.2031 19.2462 53.2031C19.7855 53.1954 20.307 52.9147 20.8438 52.3404L20.9074 52.2714L20.9481 52.3557C21.1796 52.8509 21.7952 53.1903 22.5152 53.221C23.1156 53.2465 23.6294 53.0423 23.8228 52.7028L23.8813 52.6007L23.9347 52.7054C24.1179 53.0602 24.4537 53.272 24.8531 53.2873C25.3441 53.3026 25.8173 53.027 26.1149 52.542L26.1683 52.4552L26.2243 52.542C26.5347 53.0295 27.0918 53.3205 27.7888 53.3613C28.6436 53.4124 29.534 53.0627 30.0021 52.4935L30.0454 52.4425L30.0937 52.4884C30.5771 52.9249 31.0299 53.1189 31.4445 53.0729C31.8592 53.0244 32.2561 52.7309 32.625 52.2L32.6809 52.1183L32.7318 52.2025C32.9735 52.6084 33.2482 52.8432 33.551 52.8993C33.8766 52.9606 34.2455 52.8228 34.6729 52.4833L34.7339 52.4348L34.7695 52.5063C34.8713 52.6773 34.9909 52.8381 35.1384 52.9836Z" fill="#1B1B1B"/>
<path d="M36.6674 54.0863C35.8559 54.0863 35.085 53.734 34.6042 53.1546C34.2073 53.3844 33.8334 53.4635 33.4721 53.3971C33.1796 53.3435 32.915 53.1929 32.6759 52.9504C32.3172 53.318 31.9279 53.5273 31.5133 53.5732C31.0528 53.6268 30.5771 53.4762 30.0937 53.1291C29.4959 53.6345 28.6309 53.9178 27.7685 53.8668C27.1453 53.8285 26.5957 53.6141 26.1913 53.2618C25.8173 53.6141 25.3365 53.8106 24.8455 53.7953C24.4664 53.7825 24.1205 53.6396 23.8508 53.3997C23.5048 53.6294 23.0291 53.7519 22.505 53.7289C21.9504 53.706 21.2865 53.512 20.8362 53.0576C20.3274 53.4865 19.7982 53.706 19.2614 53.7111C18.6407 53.7213 18.0276 53.4507 17.3891 52.8968C16.2621 53.928 15.3615 53.7621 14.9036 53.5503C14.1124 53.1853 13.6392 52.274 13.5477 51.447C13.2449 51.4215 12.9753 51.2965 12.7692 51.0795C12.4181 50.7094 12.3062 50.1351 12.4817 49.6118C12.5657 49.3591 12.7132 49.1473 12.904 48.9865C12.1561 48.0702 12.1586 47.2279 12.3749 46.5897C11.4769 45.7143 11.3776 44.6907 12.0925 43.6723L11.7185 36.2779C10.8434 35.5581 10.7213 34.486 10.9146 33.6871C11.0367 33.1843 11.281 32.7657 11.5964 32.4926C11.3293 32.1684 11.1665 31.783 11.1258 31.3695C11.0698 30.8233 11.2301 30.2439 11.5634 29.7411C11.0444 29.3761 10.7595 28.8222 10.7823 28.179C10.8078 27.4592 11.2174 26.8006 11.8254 26.4407C11.0774 24.6183 11.8813 23.0613 12.2502 22.4896C11.8228 21.4558 11.9093 20.4706 12.5021 19.6078C11.3776 17.4817 12.3622 15.9119 12.9625 15.2304C12.6624 14.8552 12.525 14.3294 12.614 13.7857C12.7081 13.2012 13.0414 12.7392 13.5222 12.4891C13.3518 11.9607 13.3645 11.3992 13.5706 10.8632C13.7842 10.3016 14.1862 9.83197 14.6874 9.5461C14.1862 8.04526 14.9011 6.79456 15.9085 6.18198C16.865 5.60002 18.2667 5.49026 19.3479 6.44743C19.788 5.77869 20.4546 5.42645 21.172 5.52345C21.7189 5.59747 22.2939 5.97268 22.6042 6.66439C23.2428 6.08498 24.0772 5.79145 24.9701 5.85526C25.83 5.91652 26.5983 6.31726 27.1071 6.94261C27.5726 6.38362 28.1985 6.08754 28.8472 6.14369C29.389 6.18963 29.8571 6.4704 30.1777 6.91198C30.6636 6.43212 31.2843 6.18708 31.9534 6.21516C32.6072 6.24579 33.2254 6.53166 33.6833 6.98855C34.1361 6.31215 34.9222 5.96757 35.5938 6.03649C36.1204 6.09009 36.6648 6.38872 36.9523 7.04215C37.7435 6.16921 38.7942 5.87313 39.6388 6.00075C40.6513 6.1539 41.4145 6.85838 41.7146 7.87935C42.2972 7.77726 42.75 7.85638 43.0909 8.11673C43.4191 8.36687 43.6125 8.75739 43.6761 9.30107C44.2383 9.32659 44.7929 9.58183 45.2024 10.0183C45.5204 10.3578 45.7138 10.7662 45.7698 11.1873C46.5024 11.0418 47.0723 11.3252 47.3597 11.7514C47.6192 12.1343 47.6625 12.5988 47.5098 13.0378C48.2603 13.1348 48.8378 13.5968 49.1176 14.115C49.4458 14.7174 49.3975 15.3861 49.0133 15.9119C49.3822 16.4862 49.5349 17.2136 49.4356 17.9717C49.3441 18.666 49.054 19.3015 48.6241 19.7686C48.881 19.9984 49.0439 20.2664 49.1125 20.5727C49.2754 21.2976 48.8556 22.0429 48.3672 22.7193C48.9396 23.2706 49.2245 23.8245 49.2347 24.4039C49.2499 25.1951 48.7437 25.8766 48.1509 26.4612C48.4409 26.7572 48.591 27.0789 48.5961 27.4209C48.6012 27.8446 48.385 28.2581 47.9372 28.6716C48.6088 29.3429 48.9294 30.0116 48.9192 30.7033C48.9065 31.4308 48.5223 32.1301 47.749 32.8321C48.4079 33.7305 47.8813 34.851 47.5353 35.5326L47.174 42.0872C47.9372 42.5569 48.3672 43.1184 48.4486 43.7591C48.5351 44.4227 48.2552 45.117 47.5989 45.8649C48.1357 46.1763 48.4664 46.7608 48.4867 47.5035C48.5096 48.328 48.0899 49.2622 47.2707 49.5225C46.823 50.3521 46.2786 50.8753 45.6527 51.0769C45.1846 51.2275 44.6758 51.202 44.1365 50.9978C43.9101 51.4088 43.6226 51.6921 43.2817 51.8452C42.9536 51.9907 42.5847 52.0111 42.1777 51.909C41.1626 53.1419 39.8982 52.7845 39.135 52.417C38.7509 53.3486 37.9801 53.9535 36.9981 54.071C36.8913 54.0786 36.7793 54.0863 36.6674 54.0863ZM34.7263 52.0826C34.7594 52.0826 34.7899 52.0852 34.823 52.0928C34.9527 52.1209 35.0647 52.2077 35.1257 52.3302C35.4208 52.9198 36.1484 53.272 36.8989 53.1802C37.6875 53.0857 38.2523 52.5318 38.4482 51.664C38.4787 51.5262 38.5754 51.4113 38.7051 51.3526C38.8349 51.2965 38.9849 51.3041 39.1071 51.3756C40.3383 52.0928 41.0507 52.0239 41.651 51.1305C41.7681 50.957 41.9894 50.8881 42.1827 50.9646C42.4956 51.0872 42.7399 51.105 42.9307 51.0208C43.1571 50.9212 43.353 50.6583 43.5107 50.2423C43.5565 50.1223 43.6506 50.0279 43.7702 49.9845C43.8898 49.9386 44.022 49.9488 44.134 50.0075C44.6199 50.2653 45.0295 50.3342 45.3882 50.2193C45.8232 50.0789 46.2251 49.645 46.5813 48.9278C46.6474 48.7951 46.7721 48.7057 46.9171 48.6853C47.3597 48.6215 47.6218 48.0319 47.6065 47.5214C47.5989 47.2406 47.4997 46.577 46.7492 46.5106C46.5737 46.4953 46.4236 46.3779 46.3676 46.2094C46.3116 46.0435 46.3574 45.8572 46.4846 45.7372C47.2631 45.0123 47.6396 44.364 47.576 43.8688C47.5226 43.463 47.1664 43.0776 46.5126 42.7253C46.36 42.6437 46.2684 42.4803 46.2785 42.3067L46.6601 35.3845C46.6627 35.3233 46.6805 35.262 46.7085 35.2058C47.2961 34.0547 47.3267 33.534 46.8306 33.1435C46.7238 33.0592 46.6601 32.9291 46.6601 32.7912C46.6601 32.6534 46.7238 32.5232 46.8306 32.439C47.6218 31.8162 48.0288 31.224 48.039 30.6804C48.0466 30.1545 47.6905 29.5854 46.9781 28.9855C46.8738 28.8962 46.8153 28.7635 46.8204 28.6256C46.8255 28.4878 46.8942 28.3602 47.0061 28.2785C47.6294 27.8293 47.7184 27.5511 47.7184 27.4234C47.7159 27.2575 47.5455 27.0508 47.2402 26.8415C47.1257 26.7649 47.0545 26.6373 47.0468 26.502C47.0392 26.3642 47.0926 26.2314 47.1944 26.1395C48.0085 25.4121 48.3672 24.8812 48.357 24.4141C48.3494 24.0185 48.0593 23.582 47.4946 23.1175C47.3089 22.9643 47.2783 22.6912 47.4233 22.4998C47.7541 22.071 48.3697 21.2695 48.2552 20.7615C48.2069 20.5522 48.0263 20.3685 47.7006 20.2026C47.5582 20.1311 47.4666 19.9882 47.4564 19.8274C47.4462 19.6665 47.5251 19.516 47.6599 19.4292C48.128 19.1229 48.474 18.5179 48.563 17.8492C48.647 17.2009 48.4842 16.5909 48.1128 16.1799C48.0314 16.0906 47.9907 15.9732 47.9983 15.8532C48.0059 15.7332 48.0619 15.6209 48.1509 15.5418C48.6038 15.1487 48.4359 14.7071 48.3443 14.5387C48.1128 14.1124 47.5175 13.7551 46.7543 13.9797C46.5533 14.0384 46.3371 13.9491 46.2378 13.7653C46.1386 13.5815 46.1793 13.3518 46.3396 13.214C46.7466 12.8617 46.7746 12.4661 46.6296 12.2491C46.4439 11.9735 46.0013 11.9658 45.5001 12.2262C45.3424 12.3078 45.1516 12.2874 45.0142 12.1751C44.8768 12.0628 44.8183 11.879 44.8666 11.708C44.9684 11.343 44.8539 10.9372 44.5588 10.6232C44.2383 10.2787 43.7753 10.1204 43.3504 10.2123C43.2181 10.2404 43.0808 10.2072 42.9765 10.1204C42.8722 10.0336 42.8111 9.906 42.8136 9.76816C42.8187 9.42869 42.778 8.98967 42.5592 8.82376C42.3786 8.68593 42.0148 8.69358 41.5086 8.84163C41.3839 8.87736 41.2516 8.85949 41.1422 8.78802C41.0329 8.71911 40.9616 8.60425 40.9438 8.47663C40.8192 7.59348 40.2824 6.99876 39.5141 6.88135C38.7356 6.76393 37.6952 7.18509 37.1228 8.39239C37.0337 8.58128 36.8226 8.68337 36.619 8.63488C36.4155 8.58638 36.2731 8.4026 36.2756 8.1933C36.2883 7.43523 36.011 6.97324 35.5124 6.92219C34.9985 6.87114 34.36 7.28208 34.2328 7.97379C34.1972 8.16523 34.0445 8.31072 33.8537 8.33624C33.6629 8.36177 33.4772 8.26222 33.3933 8.0861C33.1262 7.52712 32.5334 7.13149 31.9203 7.10341C31.3377 7.07789 30.8264 7.38673 30.4779 7.97124C30.3863 8.12439 30.2133 8.20862 30.0378 8.18565C29.8622 8.16268 29.7147 8.03505 29.6663 7.86404C29.529 7.37652 29.1957 7.06257 28.7785 7.02684C28.2799 6.986 27.8067 7.33568 27.509 7.96614C27.4353 8.12439 27.2775 8.21883 27.0995 8.22138C26.9239 8.21883 26.7687 8.11418 26.6975 7.95337C26.3973 7.26421 25.713 6.79967 24.9091 6.74096C24.0365 6.6797 23.2351 7.0932 22.7671 7.85128C22.6653 8.01463 22.4694 8.09631 22.2837 8.05037C22.0954 8.00442 21.9606 7.84362 21.9453 7.64963C21.8919 6.96047 21.5434 6.4704 21.0575 6.40404C20.5767 6.34023 20.1162 6.71799 19.8822 7.37142C19.8262 7.52712 19.6914 7.63687 19.5286 7.6624C19.3657 7.68792 19.2029 7.619 19.1063 7.48883C18.3278 6.44743 17.1449 6.47551 16.374 6.94261C15.6719 7.36886 15.0639 8.31582 15.6668 9.58183C15.7228 9.69669 15.7253 9.83197 15.6744 9.94939C15.6235 10.0668 15.5243 10.1587 15.4048 10.197C14.9672 10.3399 14.5831 10.7177 14.4075 11.1771C14.2371 11.6289 14.2752 12.1062 14.5169 12.5248C14.5907 12.6524 14.5958 12.8056 14.5347 12.9383C14.4737 13.071 14.349 13.1655 14.2065 13.1884C13.6596 13.2829 13.5299 13.7347 13.4993 13.9235C13.4383 14.2988 13.5782 14.674 13.8351 14.8092C13.9674 14.8807 14.0565 15.016 14.0692 15.1666C14.0819 15.3172 14.0158 15.4652 13.8962 15.5571C13.8199 15.6158 12.0213 17.0707 13.423 19.4088C13.5197 19.5721 13.5044 19.7789 13.3848 19.9243C12.7845 20.6467 12.7158 21.4124 13.1686 22.3339C13.2449 22.4896 13.2246 22.6759 13.1152 22.8112C13.0618 22.8801 11.7872 24.5315 12.8226 26.4458C12.8862 26.5658 12.8939 26.7062 12.843 26.8313C12.7921 26.9563 12.6852 27.0508 12.5555 27.0891C12.0009 27.2499 11.6956 27.7731 11.6804 28.207C11.6651 28.6512 11.9246 28.9957 12.413 29.177C12.5555 29.2306 12.6624 29.3505 12.6929 29.5011C12.726 29.6492 12.6802 29.8049 12.5733 29.9121C12.1815 30.3051 11.9729 30.8156 12.0187 31.2751C12.0569 31.6605 12.2629 31.977 12.6318 32.222C12.787 32.3241 12.8608 32.513 12.8201 32.6942C12.7768 32.8755 12.6267 33.0133 12.4436 33.0363C12.1765 33.072 11.9017 33.4293 11.7898 33.8888C11.6549 34.4503 11.7491 35.2109 12.4156 35.6704C12.5301 35.7495 12.6013 35.8771 12.6089 36.015L13.0007 43.7795C13.0058 43.8867 12.9727 43.9914 12.9066 44.0756C12.3087 44.8464 12.3952 45.4565 13.1966 46.115C13.3569 46.2477 13.4052 46.4723 13.3136 46.6587C13.0897 47.113 12.9142 47.8277 13.9572 48.7925C14.0819 48.9074 14.1302 49.086 14.0819 49.2494C14.0336 49.4128 13.8936 49.5353 13.7257 49.5608C13.479 49.5991 13.3772 49.7624 13.3314 49.8926C13.2627 50.0943 13.3009 50.3316 13.4205 50.4567C13.5146 50.5562 13.6672 50.5792 13.8733 50.5205C14.0158 50.4797 14.1709 50.5129 14.2829 50.6098C14.3973 50.7068 14.4533 50.8523 14.4381 51.0004C14.3694 51.6027 14.7179 52.4731 15.2827 52.7309C15.9059 53.0168 16.5928 52.4731 17.0609 51.9652C17.1423 51.8759 17.2593 51.8248 17.3789 51.8223C17.501 51.8172 17.618 51.8682 17.702 51.955C18.2718 52.5318 18.7755 52.8126 19.2411 52.8126C19.2462 52.8126 19.2513 52.8126 19.2564 52.8126C19.6863 52.8075 20.1188 52.565 20.5818 52.0698C20.6835 51.9626 20.8311 51.9116 20.9761 51.9346C21.1211 51.9575 21.2458 52.052 21.3094 52.1847C21.5052 52.6033 22.0725 52.8101 22.5483 52.8305C22.9935 52.8483 23.3878 52.7156 23.5099 52.5038C23.5913 52.3634 23.7439 52.274 23.9068 52.2791C24.0696 52.2817 24.2171 52.3761 24.2909 52.5191C24.4537 52.833 24.731 52.8892 24.8836 52.8943C25.2373 52.9096 25.5858 52.6926 25.8046 52.3328C25.8834 52.2026 26.0259 52.1209 26.1785 52.1183C26.3388 52.1158 26.4762 52.1949 26.5576 52.3251C26.8858 52.8381 27.4912 52.9479 27.8245 52.9683C28.5648 53.0143 29.328 52.7207 29.7198 52.2383C29.7961 52.1439 29.9106 52.0852 30.0301 52.0775C30.1522 52.0673 30.2718 52.1107 30.3608 52.1924C30.7577 52.5523 31.1113 52.7156 31.4115 52.6799C31.7117 52.6467 32.0195 52.4068 32.3248 51.9703C32.4113 51.8452 32.5563 51.7789 32.7064 51.7789C32.8565 51.784 32.9964 51.8657 33.0727 51.9958C33.2559 52.3021 33.4442 52.4757 33.6324 52.5114C33.8944 52.5599 34.2201 52.3532 34.449 52.1719C34.5279 52.1158 34.6271 52.0826 34.7263 52.0826Z" fill="#1B1B1B"/>
<g opacity="0.3">
<path opacity="0.3" d="M42.8264 36.4769C44.0399 36.1732 45.2076 35.7699 46.1692 35.2313H46.1718C46.5457 34.4018 46.6958 33.6233 45.9632 33.0464C47.5277 31.8187 47.9958 30.4761 46.1209 28.8987C47.1207 28.1789 47.4081 27.454 46.3448 26.7291C47.66 25.555 48.3596 24.4472 46.6297 23.0281C47.4285 21.9892 48.207 20.7998 46.7569 20.0621C47.9322 19.2964 48.3113 17.2647 47.2962 16.1365C48.4715 15.1155 47.197 13.3033 45.4849 13.8086C46.6297 12.8208 45.7724 11.2434 44.1493 12.0857C44.4673 10.9371 43.3047 9.78089 42.1141 10.0336C42.1344 8.54295 41.3509 8.34641 40.2366 8.67312C40.0534 7.38414 39.1554 6.70264 38.1607 6.67456C38.1175 6.69498 38.0742 6.71795 38.031 6.74348L37.2881 7.3382C39.6846 6.83026 40.0305 8.09627 38.3261 11.1388C39.0893 11.7769 38.985 12.4737 38.1149 13.2241C40.1399 14.5386 39.5268 15.9655 37.8605 17.4357C38.8069 18.2167 38.9137 19.0769 37.5222 20.0698C38.1276 21.3639 38.1938 22.5686 37.0134 23.5615C37.8859 24.2762 37.7893 24.9424 36.7997 25.5601C37.7969 27.1988 37.8503 28.595 36.3875 29.6006C37.0388 30.3995 36.965 31.0759 36.2603 31.6477C37.166 32.9545 37.1355 33.8326 36.2603 34.3226C36.9472 35.1956 36.6979 36.1502 36.1026 37.1303C36.1026 37.1303 39.6464 37.1482 43.1215 36.4156C43.0248 36.4361 42.9256 36.4565 42.8264 36.4769Z" fill="#1B1B1B"/>
</g>
<path d="M50.3311 25.4631C49.2754 28.1304 46.7161 30.8819 44.3731 32.4721L39.9313 28.817C40.4197 28.526 40.8954 28.212 41.3559 27.8726C41.3559 27.87 41.3559 27.87 41.3559 27.87C42.7805 26.8133 44.0322 25.5218 45.0422 24.0618C45.5917 23.2654 46.0877 22.4052 46.8509 21.8105C47.6065 21.2235 48.8607 21.2694 49.7053 21.711C49.7791 21.7493 49.8503 21.7901 49.9165 21.8335C51.0358 22.5763 50.7636 24.3681 50.3311 25.4631Z" fill="white"/>
<path d="M39.8549 28.6894C40.206 28.2121 40.6156 27.8726 41.0328 27.5331C41.4449 27.1911 41.8672 26.867 42.2743 26.5198C42.6838 26.1753 43.0604 25.7924 43.4191 25.3942C43.7778 24.996 44.1161 24.5825 44.4341 24.1486C44.7496 23.7198 45.037 23.2604 45.3678 22.7933C45.6959 22.3287 46.0724 21.8616 46.5558 21.4788C46.8204 21.2669 47.1384 21.1189 47.4487 21.0372C47.7642 20.953 48.0822 20.9223 48.3951 20.9326C48.708 20.9428 49.0184 20.9913 49.3186 21.0806C49.6188 21.1699 49.9139 21.295 50.1912 21.4839C50.4837 21.6779 50.7178 21.9663 50.8679 22.2726C51.0205 22.5789 51.0968 22.903 51.1324 23.2195C51.1884 23.85 51.1045 24.4498 50.9467 25.0216C50.8679 25.3049 50.7661 25.5959 50.6491 25.8536C50.5397 26.1217 50.41 26.3769 50.2828 26.6321C50.0131 27.135 49.7205 27.625 49.3974 28.0896C49.0744 28.5541 48.7335 29.0059 48.3646 29.4347C48.0033 29.8686 47.6166 30.2796 47.2198 30.6777L46.9171 30.9738L46.6067 31.2623L45.991 31.8417C45.7773 32.0254 45.5535 32.199 45.3016 32.3343C45.0523 32.4721 44.775 32.5717 44.4545 32.5946C44.3603 32.6023 44.2789 32.5308 44.2713 32.4338C44.2688 32.4057 44.2738 32.3777 44.284 32.3547L44.2866 32.347C44.4163 32.051 44.5918 31.8417 44.7776 31.64C44.9684 31.4486 45.1668 31.2674 45.3805 31.1066C45.5891 30.9381 45.8104 30.7824 46.0038 30.5961C46.103 30.5042 46.2022 30.4148 46.2989 30.323L46.5863 30.0396C46.9654 29.6593 47.3343 29.2663 47.6777 28.8553C48.0262 28.4469 48.3519 28.0181 48.6571 27.5791C48.965 27.1401 49.2346 26.6806 49.4865 26.2161C49.6035 25.9787 49.7256 25.7439 49.8223 25.5014C49.9342 25.2589 50.0131 25.0267 50.0818 24.7791C50.2192 24.2916 50.2828 23.7811 50.2395 23.3089C50.1886 22.8392 50.0105 22.441 49.6798 22.219C49.3211 21.9714 48.8301 21.8387 48.3595 21.8234C47.8863 21.8106 47.4182 21.9203 47.0977 22.1807C46.7161 22.4819 46.3904 22.8775 46.0852 23.3114C45.7799 23.7453 45.4822 24.2201 45.1439 24.677C44.8081 25.1339 44.4519 25.5729 44.0729 25.9915C43.6938 26.4126 43.2919 26.8083 42.8848 27.2013C42.4778 27.5944 42.0479 27.9671 41.5721 28.2785C41.1015 28.5924 40.5927 28.8604 39.9974 28.9421C39.9084 28.9549 39.8295 28.8936 39.8168 28.8043C39.8193 28.766 39.8295 28.7226 39.8549 28.6894Z" fill="#1B1B1B"/>
<path d="M52.3053 40.1804C48.5428 42.0743 44.882 43.3965 40.8319 44.3128C39.6515 44.4838 38.4711 44.6293 37.2932 44.7518C37.2296 44.7595 37.1686 44.7646 37.105 44.7722C28.8141 45.6273 20.625 45.3363 12.5504 43.8074C10.5432 42.4266 10.5432 37.577 12.1586 36.0455C19.5693 37.6535 27.9517 37.9752 37.105 37.2758L37.1075 37.2732C38.0412 37.2018 38.9824 37.1201 39.9339 37.0282C47.9576 36.0455 52.7123 31.6477 52.7123 31.6477C53.59 32.7452 54.1141 37.7276 52.3053 40.1804Z" fill="#CA2C02"/>
<g opacity="0.55">
<path opacity="0.55" d="M13.5578 43.9912C13.222 43.9325 12.8862 43.8687 12.5504 43.8074C10.5432 42.4265 10.5432 37.5769 12.1586 36.0454C12.5682 36.1347 12.9804 36.219 13.395 36.2981C13.3823 36.3211 13.3747 36.344 13.3696 36.3696C13.3594 36.367 13.3492 36.3645 13.3416 36.3645C11.7745 37.8474 11.7287 42.4546 13.5578 43.9912Z" fill="white"/>
</g>
<path d="M28.0204 45.6862C22.7391 45.6862 17.5417 45.2063 12.469 44.2466C12.408 44.2364 12.3495 44.2109 12.2986 44.1752C11.3369 43.5141 10.7086 42.1332 10.5738 40.3924C10.4211 38.4347 10.9248 36.5995 11.8534 35.7163C11.9602 35.6142 12.1103 35.5734 12.2528 35.604C19.989 37.2835 29.2873 37.6102 39.8881 36.5791C47.6523 35.6295 52.3638 31.3567 52.4096 31.3159C52.5011 31.2317 52.6207 31.1883 52.7454 31.1985C52.8675 31.2087 52.982 31.2674 53.0583 31.3644C54.081 32.6432 54.5592 37.8706 52.6614 40.4435C52.6207 40.4996 52.5647 40.5456 52.5037 40.5762C48.6877 42.4982 45.0091 43.8229 40.9286 44.7444C40.9158 44.7469 40.9057 44.7495 40.8929 44.752C36.5656 45.3774 32.2663 45.6862 28.0204 45.6862ZM12.731 43.3865C21.7469 45.0813 31.1749 45.2446 40.7505 43.8714C44.7166 42.973 48.2959 41.6891 52.0076 39.8283C53.445 37.7608 53.2084 33.8173 52.5927 32.3318C51.2495 33.4242 46.7975 36.6327 39.9873 37.4673C29.2466 38.5138 20.1926 38.2075 12.3138 36.5306C11.6906 37.2861 11.3446 38.7946 11.4641 40.321C11.571 41.7248 12.0416 42.8606 12.731 43.3865Z" fill="#1B1B1B"/>
<path d="M22.3092 60.6229C21.3272 60.6229 19.3353 59.7729 18.4271 53.2821C18.394 53.037 18.5619 52.8124 18.8061 52.7767C19.0503 52.741 19.2742 52.912 19.3098 53.157C20.0094 58.17 21.4061 59.8291 22.388 59.7244C23.6015 59.5968 24.7845 56.9576 24.5428 53.374C24.525 53.1289 24.7107 52.9145 24.9574 52.8967C25.2042 52.8813 25.4154 53.0651 25.4306 53.3127C25.6952 57.2052 24.4003 60.4136 22.4822 60.6127C22.4287 60.6203 22.3702 60.6229 22.3092 60.6229Z" fill="#1B1B1B"/>
<path d="M36.8378 60.8092C35.6956 60.8092 33.813 59.6937 32.887 52.9425C32.8539 52.6975 33.0244 52.4728 33.2686 52.4397C33.5128 52.4065 33.7367 52.5775 33.7697 52.8225C34.5075 58.2006 35.9296 60.0051 36.9167 59.9133C38.1581 59.8009 39.771 56.8375 39.5777 52.2686C39.5675 52.0211 39.7583 51.8143 40.0025 51.8041C40.2468 51.7939 40.4554 51.9853 40.4655 52.2304C40.6589 56.7661 39.102 60.6126 36.9955 60.8041C36.9447 60.8066 36.8938 60.8092 36.8378 60.8092Z" fill="#1B1B1B"/>
<path d="M25.3441 28.3168C25.0999 28.5032 24.8404 28.664 24.5707 28.7992C24.1128 29.029 23.6167 29.1847 23.1054 29.2561C21.4773 29.4807 20.1264 28.8605 19.3352 27.8778C18.4932 26.8339 18.2846 25.379 19.0503 24.09C19.2869 23.6918 19.8008 23.5846 20.1875 23.8322C21.2788 24.529 22.762 24.2533 24.1433 23.3676C24.7412 22.9848 25.5222 22.9924 26.0793 23.4366C27.1249 24.2789 27.509 26.6679 25.3441 28.3168Z" fill="#1B1B1B"/>
<path d="M24.5707 28.7992C24.1128 29.0289 23.6167 29.1846 23.1054 29.2561C21.4772 29.4807 20.1264 28.8604 19.3352 27.8778C20.6581 26.3361 23.3572 26.1983 24.5707 28.7992Z" fill="#CA2C02"/>
<path d="M22.4592 29.6849C20.9557 29.6849 19.5998 29.0034 18.8188 27.819C18.0175 26.6066 17.9818 25.1415 18.7221 23.8959C18.8849 23.6202 19.147 23.4262 19.4599 23.3522C19.7753 23.2756 20.1162 23.3343 20.3935 23.513C21.2915 24.0873 22.5839 23.9163 23.9373 23.0485C24.6877 22.566 25.6443 22.6043 26.3133 23.1404C26.9341 23.6355 27.3131 24.5289 27.3004 25.4682C27.2851 26.6653 26.6746 27.7859 25.5756 28.6231C24.8607 29.1667 24.0263 29.519 23.1563 29.6364C22.9222 29.6696 22.6882 29.6849 22.4592 29.6849ZM19.7346 24.0848C19.7016 24.0848 19.6659 24.0899 19.6329 24.0975C19.5235 24.1231 19.4319 24.192 19.3759 24.289C18.7908 25.2768 18.8188 26.4381 19.4548 27.3979C20.1925 28.5159 21.5714 29.0825 23.0545 28.8809C23.7923 28.7788 24.5046 28.4801 25.1151 28.0156C26.0208 27.3239 26.527 26.4177 26.5397 25.4631C26.5474 24.7637 26.2726 24.0899 25.8402 23.7427C25.4255 23.4109 24.8251 23.3931 24.3494 23.6968C22.734 24.7331 21.144 24.9016 19.9839 24.1613C19.9051 24.1077 19.8211 24.0848 19.7346 24.0848Z" fill="#1B1B1B"/>
<path d="M28.9183 22.6119C28.7759 22.0657 28.7784 21.4506 29.0328 20.8635C29.1626 20.5751 29.3585 20.2943 29.6307 20.0774C29.9003 19.8579 30.2514 19.7047 30.6279 19.6894C31.0044 19.6613 31.3911 19.7889 31.6862 20.011C31.9889 20.2331 32.1822 20.547 32.2891 20.8584C32.3985 21.1724 32.4214 21.4914 32.3934 21.7901C32.3629 22.0887 32.2815 22.3695 32.1568 22.6298C32.1263 22.6962 32.0449 22.7242 31.9787 22.6936C31.9406 22.6757 31.9151 22.64 31.905 22.5992L31.9024 22.5915C31.849 22.321 31.8108 22.0683 31.7447 21.836C31.6785 21.6037 31.592 21.3919 31.4852 21.2183C31.2664 20.8661 30.979 20.6976 30.6686 20.7078C30.3557 20.7078 30.0122 20.9222 29.7553 21.2745C29.6256 21.4506 29.5136 21.6573 29.417 21.8819C29.3177 22.1091 29.2491 22.3541 29.1677 22.6145L29.1651 22.6221C29.1422 22.6911 29.0684 22.7294 28.9998 22.7064C28.9591 22.6885 28.9285 22.6528 28.9183 22.6119Z" fill="#1B1B1B"/>
<g opacity="0.3">
<g opacity="0.3">
<path opacity="0.3" d="M16.4783 48.3484C16.491 48.1442 16.5419 47.94 16.6335 47.7409C16.7251 47.5443 16.8675 47.358 17.0558 47.21C17.244 47.0645 17.4806 46.9624 17.7325 46.9368C17.9818 46.9088 18.2413 46.9496 18.4702 47.0543C18.6992 47.1589 18.9002 47.3274 19.0426 47.5316C19.1876 47.7358 19.2716 47.9783 19.2919 48.2182C19.3123 48.4556 19.2716 48.6904 19.1876 48.8921C19.1037 49.0963 18.9841 49.2724 18.8366 49.4179C18.7959 49.4562 18.7348 49.4562 18.6941 49.4153C18.6712 49.3924 18.6636 49.3617 18.6661 49.3337V49.3285C18.6916 49.1346 18.7119 48.9584 18.7119 48.79C18.7119 48.6215 18.6865 48.4684 18.6432 48.3331C18.5542 48.0625 18.3761 47.8634 18.1472 47.746C17.9182 47.6388 17.6511 47.6235 17.389 47.7383C17.2593 47.797 17.127 47.8838 17.0075 48.0012C16.8853 48.1161 16.7759 48.259 16.6564 48.4096L16.6538 48.4147C16.6208 48.4581 16.5572 48.4658 16.5139 48.4326C16.491 48.4122 16.4758 48.3816 16.4783 48.3484Z" fill="#1B1B1B"/>
</g>
</g>
<g opacity="0.3">
<g opacity="0.3">
<path opacity="0.3" d="M15.2776 33.3807C15.2827 33.1714 15.3285 32.9621 15.4201 32.7579C15.5116 32.5537 15.6541 32.3623 15.85 32.2066C16.0433 32.0534 16.2901 31.9488 16.5496 31.9207C16.8091 31.8901 17.0787 31.9335 17.3179 32.0432C17.557 32.153 17.7631 32.3291 17.9106 32.5435C18.0607 32.7579 18.1447 33.0106 18.1599 33.2582C18.1777 33.5058 18.1319 33.7457 18.0403 33.9499C17.9488 34.1567 17.819 34.3328 17.6613 34.4732C17.613 34.5166 17.5366 34.5115 17.4934 34.463C17.4705 34.4375 17.4629 34.4068 17.4654 34.3762V34.3685C17.4807 34.172 17.4959 33.9933 17.4883 33.83C17.4832 33.6666 17.4527 33.5186 17.4069 33.3909C17.3128 33.1357 17.1474 32.9596 16.9413 32.8498C16.7302 32.7503 16.4911 32.7273 16.2392 32.8268C16.1146 32.8779 15.9823 32.957 15.8602 33.0668C15.7355 33.1765 15.6185 33.3093 15.4913 33.4573L15.4862 33.4624C15.4429 33.5109 15.3692 33.516 15.3208 33.4752C15.2903 33.4496 15.2776 33.4139 15.2776 33.3807Z" fill="#1B1B1B"/>
</g>
</g>
<g opacity="0.3">
<g opacity="0.3">
<path opacity="0.3" d="M29.6714 30.3025C29.5467 30.1341 29.4526 29.9401 29.3992 29.7257C29.3457 29.5087 29.3381 29.2688 29.3966 29.0263C29.4551 28.7863 29.5823 28.549 29.7706 28.3652C29.9563 28.1814 30.1954 28.0461 30.4498 27.9849C30.7042 27.9236 30.9764 27.9338 31.2257 28.0104C31.475 28.087 31.6989 28.2325 31.8617 28.4162C32.027 28.6 32.139 28.817 32.1949 29.0339C32.2509 29.2535 32.2585 29.4704 32.2178 29.6797C32.2051 29.7435 32.1441 29.7869 32.0805 29.7742C32.0474 29.7691 32.022 29.7486 32.0041 29.7231L31.9991 29.718C31.8897 29.5546 31.7905 29.404 31.6836 29.279C31.5768 29.1539 31.4623 29.0569 31.3478 28.9829C31.1163 28.8425 30.8797 28.8042 30.6482 28.8476C30.4218 28.8987 30.2183 29.0314 30.0809 29.2662C30.0123 29.3836 29.9588 29.5266 29.9308 29.6899C29.9003 29.8533 29.8901 30.032 29.8825 30.2259V30.2336C29.88 30.2974 29.824 30.3485 29.7604 30.3459C29.7248 30.3459 29.6917 30.328 29.6714 30.3025Z" fill="#1B1B1B"/>
</g>
</g>
<g opacity="0.3">
<g opacity="0.3">
<path opacity="0.3" d="M29.4832 13.7167C29.4323 13.5151 29.4196 13.2981 29.4527 13.0786C29.4857 12.8591 29.5722 12.6319 29.7198 12.4328C29.8648 12.2337 30.0759 12.0653 30.3176 11.9683C30.5593 11.8688 30.8315 11.8381 31.091 11.8815C31.3505 11.9224 31.5972 12.0372 31.7957 12.2031C31.9966 12.369 32.1467 12.5885 32.2281 12.8234C32.3121 13.0556 32.3299 13.3007 32.2968 13.5227C32.2637 13.7448 32.1874 13.9515 32.0704 14.1277C32.0348 14.1838 31.961 14.1991 31.905 14.1634C31.8771 14.1455 31.8592 14.1174 31.8542 14.0868L31.8516 14.0792C31.8135 13.8852 31.7804 13.7091 31.7295 13.5534C31.6786 13.3977 31.6099 13.2624 31.5336 13.1526C31.3759 12.9331 31.1698 12.808 30.9409 12.757C30.7119 12.7162 30.4728 12.7596 30.2566 12.9255C30.1497 13.0071 30.0454 13.1194 29.9538 13.2573C29.8623 13.3951 29.7859 13.5559 29.702 13.732L29.6994 13.7371C29.6715 13.7958 29.6028 13.8214 29.5443 13.7933C29.5137 13.778 29.4908 13.7473 29.4832 13.7167Z" fill="#1B1B1B"/>
</g>
</g>
<g opacity="0.3">
<g opacity="0.3">
<path opacity="0.3" d="M24.9523 49.8057C24.9192 49.604 24.9243 49.3922 24.9675 49.1778C25.0133 48.966 25.11 48.7516 25.2627 48.5653C25.4128 48.3789 25.6214 48.2283 25.8605 48.1467C26.0971 48.0624 26.3591 48.0446 26.6059 48.0956C26.8527 48.1467 27.0842 48.2641 27.2699 48.4325C27.4556 48.5984 27.593 48.8154 27.6642 49.0451C27.738 49.2722 27.7507 49.5096 27.7151 49.7266C27.6795 49.9435 27.6006 50.1426 27.4887 50.3187C27.4581 50.3646 27.3971 50.3799 27.3513 50.3493C27.3259 50.3314 27.308 50.3034 27.3055 50.2753V50.2702C27.2852 50.0762 27.2673 49.8976 27.2292 49.7342C27.191 49.5709 27.1325 49.4254 27.0587 49.3029C26.9112 49.0578 26.6924 48.9047 26.4456 48.8435C26.1989 48.7899 25.9343 48.8358 25.7053 49.0068C25.5908 49.0936 25.484 49.2084 25.3924 49.3488C25.2983 49.4892 25.2245 49.6525 25.1405 49.8261L25.138 49.8312C25.1151 49.8797 25.0566 49.9027 25.0057 49.8797C24.9752 49.8644 24.9574 49.8363 24.9523 49.8057Z" fill="#1B1B1B"/>
</g>
</g>
<g opacity="0.3">
<g opacity="0.3">
<path opacity="0.3" d="M31.1317 34.9991C30.8671 34.8817 30.6203 34.6418 30.5364 34.2845C30.4957 34.1109 30.5033 33.9118 30.5669 33.7306C30.6305 33.5494 30.745 33.3834 30.8951 33.2635C31.1902 33.0159 31.6303 32.9546 31.961 33.1078C32.2943 33.2507 32.4953 33.5417 32.5512 33.8352C32.5614 33.8914 32.5258 33.9475 32.4673 33.9578C32.4444 33.9629 32.4215 33.9577 32.4037 33.9501L32.3961 33.9475C32.2689 33.8888 32.162 33.8327 32.0577 33.7969C31.9534 33.7612 31.8593 33.7433 31.7753 33.7408C31.6074 33.7357 31.4802 33.7842 31.3708 33.8608C31.2665 33.945 31.1851 34.0547 31.1597 34.2207C31.1291 34.3891 31.18 34.6112 31.2691 34.8664L31.2716 34.8715C31.2894 34.9251 31.2614 34.9838 31.208 35.0043C31.18 35.0094 31.1546 35.0094 31.1317 34.9991Z" fill="#1B1B1B"/>
</g>
</g>
<g opacity="0.3">
<g opacity="0.3">
<path opacity="0.3" d="M22.5407 15.9017C22.2761 15.7843 22.0293 15.5444 21.9454 15.187C21.9047 15.0135 21.9123 14.8144 21.9759 14.6332C22.0395 14.4519 22.154 14.286 22.3041 14.1661C22.5992 13.9185 23.0393 13.8572 23.37 14.0104C23.7032 14.1533 23.9042 14.4443 23.9602 14.7378C23.9704 14.794 23.9347 14.8501 23.8762 14.8603C23.8533 14.8654 23.8304 14.8603 23.8126 14.8527L23.805 14.8501C23.6778 14.7914 23.571 14.7353 23.4667 14.6995C23.3624 14.6612 23.2682 14.6459 23.1843 14.6434C23.0164 14.6383 22.8892 14.6868 22.7798 14.7633C22.6755 14.8476 22.5941 14.9573 22.5687 15.1232C22.5381 15.2917 22.589 15.5138 22.6806 15.769L22.6831 15.7741C22.7009 15.8277 22.673 15.8864 22.6195 15.9068C22.589 15.9145 22.5636 15.9119 22.5407 15.9017Z" fill="#1B1B1B"/>
</g>
</g>
<g opacity="0.3">
<g opacity="0.3">
<path opacity="0.3" d="M32.5486 49.788C32.2841 49.6706 32.0373 49.4306 31.9533 49.0733C31.9126 48.8997 31.9203 48.7006 31.9839 48.5194C32.0475 48.3382 32.1619 48.1723 32.312 48.0523C32.6071 47.8047 33.0473 47.7435 33.378 47.8966C33.7112 48.0395 33.9122 48.3305 33.9682 48.624C33.9784 48.6802 33.9427 48.7364 33.8842 48.7466C33.8613 48.7517 33.8384 48.7466 33.8206 48.7389L33.813 48.7364C33.6858 48.6777 33.579 48.6215 33.4747 48.5858C33.3703 48.55 33.2762 48.5322 33.1923 48.5296C33.0244 48.5245 32.8972 48.573 32.7878 48.6496C32.6835 48.7338 32.6021 48.8436 32.5766 49.0095C32.5461 49.1779 32.597 49.4 32.686 49.6552L32.6885 49.6603C32.7064 49.7139 32.6784 49.7727 32.6249 49.7931C32.597 49.7982 32.5715 49.7982 32.5486 49.788Z" fill="#1B1B1B"/>
</g>
</g>
<path d="M14.9469 22.0402C14.8044 21.494 14.8069 20.8788 15.0613 20.2918C15.1911 20.0033 15.387 19.7226 15.6592 19.5056C15.9288 19.2861 16.2799 19.1329 16.6564 19.1176C17.0329 19.0895 17.4196 19.2172 17.7147 19.4392C18.0174 19.6613 18.2108 19.9752 18.3176 20.2867C18.427 20.6006 18.4499 20.9197 18.4219 21.2183C18.3914 21.5169 18.31 21.7977 18.1853 22.0581C18.1548 22.1244 18.0734 22.1525 18.0073 22.1219C17.9691 22.104 17.9437 22.0683 17.9335 22.0274L17.9309 22.0198C17.8775 21.7492 17.8394 21.4991 17.7732 21.2643C17.7071 21.032 17.6206 20.8201 17.5137 20.6466C17.2949 20.2943 17.0075 20.1258 16.6971 20.1361C16.3842 20.1361 16.0408 20.3505 15.7838 20.7002C15.6541 20.8763 15.5421 21.083 15.4455 21.3076C15.3463 21.5348 15.2776 21.7799 15.1962 22.0402L15.1936 22.0479C15.1707 22.1168 15.0969 22.1551 15.0283 22.1321C14.9901 22.1193 14.9596 22.0836 14.9469 22.0402Z" fill="#1B1B1B"/>
<g opacity="0.3">
<path opacity="0.3" d="M50.331 25.4633C49.2753 28.1306 46.716 30.8821 44.373 32.4723L39.9313 28.8172C40.4197 28.5262 40.8954 28.2123 41.3559 27.8728C41.4068 27.9417 42.9917 30.0883 45.4975 28.8733C48.2119 26.9233 49.4381 23.4902 49.4839 21.7699L49.7103 21.7112C49.7841 21.7495 49.8553 21.7903 49.9215 21.8337C51.0357 22.5765 50.7635 24.3683 50.331 25.4633Z" fill="#1B1B1B"/>
</g>
<g opacity="0.3">
<path opacity="0.3" d="M51.5445 32.5667C51.0027 32.9572 50.2776 33.437 49.3796 33.9399C47.2579 35.308 43.5742 37.1917 38.6593 37.7941C38.4049 37.8196 38.153 37.84 37.9012 37.863C39.1426 39.5961 38.8653 44.3972 37.2932 44.752C38.4685 44.6295 39.6514 44.484 40.8318 44.313C44.4774 43.4886 47.8074 42.3349 51.1808 40.7294C52.7428 38.3148 52.3332 33.8735 51.5445 32.5667Z" fill="#1B1B1B"/>
</g>
<g opacity="0.3">
<path opacity="0.3" d="M44.8259 50.7041C45.1414 50.4438 45.4365 50.0533 45.7087 49.507C47.0442 49.3156 47.2986 46.6023 45.5179 46.4441C47.0264 45.0377 47.1587 43.8916 45.9198 42.9983L36.759 44.9152C36.7488 44.8999 36.7361 44.8846 36.7234 44.8667C37.3416 45.6886 37.2296 46.513 36.3825 47.3349C36.8353 47.8505 36.5631 48.2589 36.1052 48.6418C36.7437 49.3258 36.8175 49.9767 36.1052 50.5867C37.6112 52.2535 36.8989 52.8941 35.113 53.0371C36.179 54.0453 38.4024 53.8717 38.8832 51.7557C40.0712 52.4475 41.1702 52.6389 42.0199 51.3729C42.8365 51.6945 43.5081 51.4954 43.9279 50.3953C44.457 50.6761 44.9582 50.7807 45.4237 50.6658C45.2304 50.7194 45.0294 50.7297 44.8259 50.7041Z" fill="#1B1B1B"/>
</g>
<g opacity="0.3">
<path opacity="0.3" d="M20.4011 58.6475C22.3295 59.0712 23.5099 54.4411 22.0878 53.2874L24.9854 53.3461C25.367 58.9411 22.4643 62.3103 20.4011 58.6475Z" fill="#1B1B1B"/>
</g>
</g>
<defs>
<clipPath id="clip0_766_11229">
<rect width="64" height="64" fill="white"/>
</clipPath>
</defs>
</svg>
