<svg width="53" height="52" viewBox="0 0 53 52" fill="none" xmlns="http://www.w3.org/2000/svg">
<path fill-rule="evenodd" clip-rule="evenodd" d="M23.1513 1.77648L19.2588 5.66558C18.9445 5.98002 18.5184 6.15714 18.0738 6.15817H11.9491C9.11752 6.15817 6.82333 8.45236 6.82333 11.2839V17.4087C6.82246 17.8543 6.64538 18.2815 6.33074 18.5971L2.4382 22.4862C1.4773 23.4474 0.9375 24.7509 0.9375 26.11C0.9375 27.4692 1.4773 28.7727 2.4382 29.7339L6.33074 33.6264C6.64518 33.9407 6.8223 34.3668 6.82333 34.8114V40.9361C6.82333 43.7677 9.11752 46.0619 11.9491 46.0619H18.0738C18.5195 46.0628 18.9467 46.2398 19.2622 46.5545L23.1513 50.447C24.1126 51.4079 25.4161 51.9477 26.7752 51.9477C28.1343 51.9477 29.4378 51.4079 30.399 50.447L34.2916 46.5545C34.6059 46.2401 35.032 46.0629 35.4766 46.0619H41.6013C44.4329 46.0619 46.7271 43.7677 46.7271 40.9361V34.8114C46.7279 34.3658 46.905 33.9386 47.2197 33.623L51.1122 29.7339C52.0731 28.7727 52.6129 27.4692 52.6129 26.11C52.6129 24.7509 52.0731 23.4474 51.1122 22.4862L47.2197 18.5936C46.9052 18.2793 46.7281 17.8532 46.7271 17.4087V11.2839C46.7271 8.45236 44.4329 6.15817 41.6013 6.15817H35.4766C35.0308 6.15805 34.6033 5.98086 34.2881 5.66558L30.399 1.77304C29.4378 0.812138 28.1343 0.272339 26.7752 0.272339C25.4161 0.272339 24.1126 0.815583 23.1513 1.77648ZM16.9439 33.5024L34.1676 16.2788L36.6064 18.7177L19.3828 35.9413L16.9439 33.5024ZM18.1634 17.4982V20.9429H21.6081V17.4982H18.1634ZM31.9423 34.7219H35.387V31.2771H31.9423V34.7219Z" fill="#E07153"/>
</svg>
