<svg width="72" height="71" viewBox="0 0 72 71" fill="none" xmlns="http://www.w3.org/2000/svg">
<path fill-rule="evenodd" clip-rule="evenodd" d="M29.4065 4.03595C29.4071 3.37936 29.1995 2.73901 28.8128 2.20451C28.4262 1.67002 27.8797 1.26813 27.25 1.05509C26.6203 0.842055 25.9387 0.828524 25.3008 1.0164C24.6629 1.20427 24.1005 1.58414 23.6923 2.10285L1.34642 30.4382C0.910501 30.9909 0.673828 31.6711 0.673828 32.3713C0.673828 33.0715 0.910501 33.7517 1.34642 34.3044L23.6923 62.6398C24.1005 63.1585 24.6629 63.5384 25.3008 63.7262C25.9387 63.9141 26.6203 63.9006 27.25 63.6875C27.8797 63.4745 28.4262 63.0726 28.8128 62.5381C29.1995 62.0036 29.4071 61.3633 29.4065 60.7067V48.1447C46.5777 48.4973 54.8266 51.7118 58.9701 55.2065C62.9094 58.528 63.6308 62.4351 64.381 66.528L64.5758 67.5827C64.719 68.3374 65.1369 69.0145 65.751 69.4865C66.365 69.9585 67.1327 70.193 67.9097 70.1458C68.6868 70.0986 69.4195 69.773 69.9702 69.2302C70.5208 68.6875 70.8514 67.965 70.8996 67.1986C71.4455 58.5469 70.6251 46.0101 64.4289 35.5228C58.4147 25.3441 47.5833 17.5173 29.4065 16.6987V4.03595Z" fill="#E07153"/>
</svg>
