<svg width="69" height="49" viewBox="0 0 69 49" fill="none" xmlns="http://www.w3.org/2000/svg">
<path d="M0.164062 6.51831C0.164062 3.1803 2.89076 0.471191 6.25045 0.471191H52.507C55.8667 0.471191 58.5934 3.1803 58.5934 6.51831V33.1256C58.5934 36.4637 55.8667 39.1728 52.507 39.1728H6.25045C2.89076 39.1728 0.164062 36.4637 0.164062 33.1256V6.51831ZM14.7714 7.72774V5.30889H9.90228V7.72774C9.90228 8.36925 9.64579 8.9845 9.18922 9.43812C8.73265 9.89174 8.11341 10.1466 7.46773 10.1466H5.03317V14.9843H7.46773C9.40478 14.9843 11.2625 14.2198 12.6322 12.8589C14.0019 11.498 14.7714 9.65229 14.7714 7.72774ZM39.1169 19.822C39.1169 17.2559 38.091 14.7949 36.2647 12.9804C34.4384 11.166 31.9615 10.1466 29.3787 10.1466C26.796 10.1466 24.319 11.166 22.4928 12.9804C20.6665 14.7949 19.6405 17.2559 19.6405 19.822C19.6405 22.3881 20.6665 24.849 22.4928 26.6635C24.319 28.478 26.796 29.4974 29.3787 29.4974C31.9615 29.4974 34.4384 28.478 36.2647 26.6635C38.091 24.849 39.1169 22.3881 39.1169 19.822ZM48.8552 5.30889H43.9861V7.72774C43.9861 9.65229 44.7555 11.498 46.1252 12.8589C47.4949 14.2198 49.3527 14.9843 51.2897 14.9843H53.7243V10.1466H51.2897C50.644 10.1466 50.0248 9.89174 49.5682 9.43812C49.1117 8.9845 48.8552 8.36925 48.8552 7.72774V5.30889ZM14.7714 31.9162C14.7714 29.9917 14.0019 28.1459 12.6322 26.7851C11.2625 25.4242 9.40478 24.6597 7.46773 24.6597H5.03317V29.4974H7.46773C8.11341 29.4974 8.73265 29.7522 9.18922 30.2058C9.64579 30.6595 9.90228 31.2747 9.90228 31.9162V34.3351H14.7714V31.9162ZM48.8552 34.3351V31.9162C48.8552 31.2747 49.1117 30.6595 49.5682 30.2058C50.0248 29.7522 50.644 29.4974 51.2897 29.4974H53.7243V24.6597H51.2897C49.3527 24.6597 47.4949 25.4242 46.1252 26.7851C44.7555 28.1459 43.9861 29.9917 43.9861 31.9162V34.3351H48.8552ZM17.2059 48.8482C15.6635 48.8487 14.1605 48.3641 12.9123 47.4638C11.6641 46.5635 10.7349 45.2936 10.2577 43.8363C10.9345 43.9524 11.6259 44.0105 12.3368 44.0105H52.507C55.4126 44.0105 58.1991 42.8637 60.2537 40.8224C62.3083 38.7811 63.4625 36.0125 63.4625 33.1256V10.5578C64.8871 11.0582 66.1204 11.9853 66.9925 13.2113C67.8645 14.4373 68.3324 15.9019 68.3316 17.4031V33.1256C68.3316 35.1904 67.9223 37.2348 67.127 39.1424C66.3318 41.0499 65.1661 42.7832 63.6967 44.2431C62.2272 45.7031 60.4827 46.8612 58.5628 47.6514C56.6429 48.4415 54.5851 48.8482 52.507 48.8482H17.2059Z" fill="#E07153"/>
</svg>
