<svg width="70" height="71" viewBox="0 0 70 71" fill="none" xmlns="http://www.w3.org/2000/svg">
<path fill-rule="evenodd" clip-rule="evenodd" d="M0.0664062 28.6741C0.0664062 13.2661 12.5576 0.774902 27.9656 0.774902H41.4342C56.8423 0.774902 69.3334 13.2661 69.3334 28.6741C69.3334 44.0822 56.8423 56.5733 41.4342 56.5733H40.0873V70.0419C40.0873 70.0419 0.0664062 63.3076 0.0664062 28.6741ZM41.8017 13.2468C43.7835 14.5629 45.2785 16.6967 45.2785 19.5578C45.2785 22.594 44.0529 24.8259 42.0692 26.192C41.286 26.7222 40.4216 27.1213 39.5101 27.3734V30.3211C39.5101 30.7001 39.4355 31.0754 39.2904 31.4256C39.1454 31.7758 38.9328 32.0939 38.6648 32.3619C38.3968 32.6299 38.0786 32.8425 37.7285 32.9876C37.3783 33.1326 37.003 33.2073 36.624 33.2073C36.245 33.2073 35.8697 33.1326 35.5195 32.9876C35.1694 32.8425 34.8512 32.6299 34.5832 32.3619C34.3152 32.0939 34.1026 31.7758 33.9576 31.4256C33.8125 31.0754 33.7379 30.7001 33.7379 30.3211V24.9395C33.7377 24.2072 34.0159 23.5023 34.516 22.9675C35.0162 22.4326 35.701 22.1079 36.4316 22.0591C37.4975 21.9879 38.3056 21.7763 38.7944 21.4396C38.9917 21.3088 39.151 21.1283 39.2561 20.9162C39.3716 20.6853 39.5063 20.2736 39.5063 19.5559C39.5063 18.9536 39.2696 18.4938 38.6058 18.0513C37.8516 17.551 36.6394 17.1816 35.1829 17.1354C33.7436 17.0892 32.3448 17.3701 31.3154 17.8685C30.2841 18.3687 29.907 18.9306 29.7993 19.3442C29.712 19.7186 29.5508 20.0718 29.3251 20.383C29.0994 20.6942 28.8139 20.9572 28.4852 21.1565C28.1565 21.3559 27.7913 21.4875 27.411 21.5438C27.0307 21.6001 26.643 21.5798 26.2707 21.4842C25.8984 21.3886 25.5489 21.2195 25.2428 20.987C24.9366 20.7545 24.6801 20.4631 24.4881 20.1301C24.2961 19.797 24.1726 19.429 24.1248 19.0476C24.077 18.6661 24.1059 18.279 24.2098 17.9089C24.8717 15.3287 26.8035 13.6432 28.7987 12.6754C30.7998 11.7037 33.1529 11.2939 35.3676 11.3651C37.5649 11.4343 39.9123 11.9885 41.8017 13.2468ZM36.624 45.0288C37.6446 45.0288 38.6234 44.6234 39.3451 43.9017C40.0667 43.1801 40.4722 42.2013 40.4722 41.1807C40.4722 40.1601 40.0667 39.1813 39.3451 38.4596C38.6234 37.7379 37.6446 37.3325 36.624 37.3325C35.6034 37.3325 34.6246 37.7379 33.9029 38.4596C33.1813 39.1813 32.7758 40.1601 32.7758 41.1807C32.7758 42.2013 33.1813 43.1801 33.9029 43.9017C34.6246 44.6234 35.6034 45.0288 36.624 45.0288Z" fill="#E07153"/>
</svg>
