<svg width="89" height="72" viewBox="0 0 89 72" fill="none" xmlns="http://www.w3.org/2000/svg">
<path d="M86.6068 49.1466H84.4079V34.2899C84.4079 32.5445 83.707 30.8678 82.47 29.6309L68.7403 15.9012C67.5034 14.6643 65.8267 13.9634 64.0813 13.9634H58.0204V7.36651C58.0204 3.7245 55.0656 0.769653 51.4236 0.769653H16.2403C12.5983 0.769653 9.64347 3.7245 9.64347 7.36651V13.9634H1.94713C1.34242 13.9634 0.847656 14.4581 0.847656 15.0628V17.2618C0.847656 17.8665 1.34242 18.3613 1.94713 18.3613H39.3293C39.934 18.3613 40.4288 18.856 40.4288 19.4608V21.6597C40.4288 22.2644 39.934 22.7592 39.3293 22.7592H6.34504C5.74033 22.7592 5.24556 23.2539 5.24556 23.8587V26.0576C5.24556 26.6623 5.74033 27.1571 6.34504 27.1571H34.9314C35.5361 27.1571 36.0309 27.6519 36.0309 28.2566V30.4555C36.0309 31.0602 35.5361 31.555 34.9314 31.555H1.94713C1.34242 31.555 0.847656 32.0498 0.847656 32.6545V34.8534C0.847656 35.4581 1.34242 35.9529 1.94713 35.9529H30.5335C31.1382 35.9529 31.633 36.4477 31.633 37.0524V39.2513C31.633 39.856 31.1382 40.3508 30.5335 40.3508H9.64347V57.9424C9.64347 65.2265 15.5532 71.1361 22.8372 71.1361C30.1212 71.1361 36.0309 65.2265 36.0309 57.9424H53.6225C53.6225 65.2265 59.5322 71.1361 66.8162 71.1361C74.1003 71.1361 80.01 65.2265 80.01 57.9424H86.6068C87.8162 57.9424 88.8058 56.9529 88.8058 55.7435V51.3456C88.8058 50.1361 87.8162 49.1466 86.6068 49.1466ZM22.8372 64.5393C19.1952 64.5393 16.2403 61.5844 16.2403 57.9424C16.2403 54.3004 19.1952 51.3456 22.8372 51.3456C26.4792 51.3456 29.434 54.3004 29.434 57.9424C29.434 61.5844 26.4792 64.5393 22.8372 64.5393ZM66.8162 64.5393C63.1742 64.5393 60.2194 61.5844 60.2194 57.9424C60.2194 54.3004 63.1742 51.3456 66.8162 51.3456C70.4583 51.3456 73.4131 54.3004 73.4131 57.9424C73.4131 61.5844 70.4583 64.5393 66.8162 64.5393ZM77.811 35.9529H58.0204V20.5602H64.0813L77.811 34.2899V35.9529Z" fill="#E07153"/>
</svg>
