<svg width="66" height="71" viewBox="0 0 66 71" fill="none" xmlns="http://www.w3.org/2000/svg">
<path d="M40.7847 0.884766V18.2015C40.7847 20.1698 41.5733 22.0575 42.977 23.4493C44.3807 24.8411 46.2845 25.623 48.2696 25.623H65.7343V62.7303C65.7343 64.6986 64.9458 66.5863 63.5421 67.9781C62.1384 69.3699 60.2346 70.1518 58.2494 70.1518H39.1031C44.4137 66.4586 48.2333 61.0197 49.8845 54.7999C51.5356 48.5801 50.9115 41.9815 48.1228 36.1746C45.3342 30.3676 40.5613 25.7277 34.6507 23.0779C28.7402 20.4282 22.0741 19.9398 15.835 21.6995V8.30623C15.835 6.33794 16.6236 4.45026 18.0273 3.05846C19.431 1.66667 21.3348 0.884766 23.3199 0.884766H40.7847ZM45.7746 2.12168V18.2015C45.7746 18.8576 46.0375 19.4868 46.5054 19.9508C46.9733 20.4147 47.6079 20.6753 48.2696 20.6753H64.4869L45.7746 2.12168ZM45.7746 47.8874C45.7746 53.7923 43.4089 59.4553 39.1978 63.6307C34.9867 67.8061 29.2753 70.1518 23.3199 70.1518C17.3646 70.1518 11.6531 67.8061 7.44206 63.6307C3.23099 59.4553 0.865234 53.7923 0.865234 47.8874C0.865234 41.9825 3.23099 36.3195 7.44206 32.1441C11.6531 27.9687 17.3646 25.623 23.3199 25.623C29.2753 25.623 34.9867 27.9687 39.1978 32.1441C43.4089 36.3195 45.7746 41.9825 45.7746 47.8874ZM25.8149 37.9921C25.8149 37.336 25.552 36.7068 25.0841 36.2428C24.6162 35.7789 23.9816 35.5183 23.3199 35.5183C22.6582 35.5183 22.0236 35.7789 21.5557 36.2428C21.0878 36.7068 20.825 37.336 20.825 37.9921V45.4136H13.3401C12.6784 45.4136 12.0438 45.6742 11.5759 46.1381C11.108 46.6021 10.8451 47.2313 10.8451 47.8874C10.8451 48.5435 11.108 49.1727 11.5759 49.6366C12.0438 50.1006 12.6784 50.3612 13.3401 50.3612H20.825V57.7827C20.825 58.4388 21.0878 59.068 21.5557 59.5319C22.0236 59.9959 22.6582 60.2565 23.3199 60.2565C23.9816 60.2565 24.6162 59.9959 25.0841 59.5319C25.552 59.068 25.8149 58.4388 25.8149 57.7827V50.3612H33.2998C33.9615 50.3612 34.5961 50.1006 35.064 49.6366C35.5319 49.1727 35.7948 48.5435 35.7948 47.8874C35.7948 47.2313 35.5319 46.6021 35.064 46.1381C34.5961 45.6742 33.9615 45.4136 33.2998 45.4136H25.8149V37.9921Z" fill="#E07153"/>
</svg>
