<svg width="24" height="24" viewBox="0 0 24 24" fill="none" xmlns="http://www.w3.org/2000/svg">
<path fill-rule="evenodd" clip-rule="evenodd" d="M12.846 0.12899L12.719 0.256336V5.67245V11.0886L12.8387 11.2014L12.9585 11.3143H18.3522H23.7458L23.8804 11.1792C24.015 11.0444 24.015 11.0437 23.9812 10.4138C23.6872 4.93874 19.5434 0.58378 14.1236 0.0539532C13.2315 -0.033227 12.9938 -0.0192678 12.846 0.12899ZM14.2087 0.886627C15.9649 1.07806 17.7355 1.77566 19.1325 2.82664C21.4492 4.56952 22.881 7.16541 23.1482 10.1077L23.1824 10.484H22.9453C22.7402 10.484 22.7052 10.4682 22.6868 10.3672C22.5749 9.75632 22.3957 9.14067 22.1672 8.58277C20.7382 5.09426 20.6218 4.86261 19.9447 4.16154C19.3314 3.52642 18.7984 3.2187 17.1434 2.54393C16.6026 2.32349 15.8458 2.01405 15.4616 1.85635C14.8642 1.6111 14.282 1.43623 13.6892 1.32388C13.5592 1.29928 13.5469 1.27697 13.5469 1.06441C13.5469 0.796385 13.499 0.809307 14.2087 0.886627ZM10.0799 2.28732C6.59732 2.53937 3.40137 4.50056 1.57822 7.50427C0.425709 9.40314 -0.14356 11.6984 0.030983 13.7425C0.201955 15.7444 0.743643 17.5048 1.64621 18.992C3.2631 21.6563 5.99255 23.4246 9.23155 23.9063C10.0705 24.0311 11.6926 24.0312 12.512 23.9065C15.7928 23.4074 18.5068 21.6386 20.1287 18.9425C21.0018 17.491 21.5651 15.6425 21.7171 13.7296C21.7577 13.2186 21.7532 13.0836 21.6916 12.9641C21.6505 12.8844 21.6116 12.8136 21.6052 12.8068C21.5988 12.8 19.2766 12.7825 16.4448 12.7679L11.2959 12.7413L11.2695 7.57796C11.2549 4.73812 11.2374 2.40937 11.2306 2.40299C11.2239 2.39656 11.1496 2.35572 11.0657 2.31218C10.9025 2.22754 10.905 2.22759 10.0799 2.28732ZM10.4421 3.33701V3.5588L10.067 3.61884C9.57924 3.69689 8.89955 3.92776 7.96277 4.33356C7.5476 4.51342 6.88193 4.79313 6.48348 4.95519C4.29214 5.84635 3.59816 6.52786 2.72964 8.64177C2.55375 9.06988 2.28182 9.71206 2.12539 10.0688C1.12854 12.342 1.05066 13.6386 1.8013 15.4657C1.93615 15.7939 2.21378 16.4711 2.41828 16.9706C3.62005 19.9056 4.19119 20.477 7.10444 21.659C7.55981 21.8437 8.07211 22.0578 8.24288 22.1347C10.136 22.9874 11.597 22.9724 13.6361 22.0791C13.9997 21.9198 14.6931 21.6264 15.177 21.4271C16.6433 20.8232 17.3634 20.3655 17.9401 19.6705C18.378 19.1428 18.6306 18.666 19.1365 17.4117C19.2746 17.0692 19.5537 16.3929 19.7566 15.9089C20.1363 15.0032 20.3541 14.3371 20.419 13.883L20.4561 13.6235L20.7007 13.6077C20.9425 13.5921 20.9451 13.5936 20.9226 13.7374C20.91 13.8175 20.886 14.0452 20.869 14.2436C20.7881 15.1933 20.4386 16.4563 19.9912 17.4164C18.8255 19.9181 16.6467 21.8617 14.0385 22.7267C12.519 23.2307 11.0765 23.3549 9.49474 23.1179C6.05087 22.602 3.4083 20.74 1.94857 17.8009C1.0994 16.091 0.720047 13.9825 0.923516 12.1036C1.34986 8.16632 3.72748 5.05534 7.29808 3.76274C7.83418 3.56866 8.68019 3.34718 9.25194 3.25118C9.95306 3.13349 9.97878 3.13006 10.2222 3.12223L10.4421 3.11517V3.33701ZM15.1033 3.88957C15.1866 3.97301 15.2546 4.0878 15.2546 4.14472C15.2546 4.2016 15.2837 4.25863 15.3193 4.27145C15.4244 4.30923 15.5651 4.20938 15.5651 4.09693C15.5651 3.94883 15.7941 3.73788 15.9548 3.73788C16.1125 3.73788 16.3932 3.99315 16.3927 4.13606C16.3917 4.49054 16.1019 4.93713 15.7875 5.06889C15.4491 5.21066 15.0001 5.13396 14.7187 4.88622C14.4233 4.62624 14.3356 4.08391 14.5537 3.86528C14.7246 3.69388 14.9167 3.70239 15.1033 3.88957ZM15.2424 6.52236C15.8685 6.91052 16.0003 7.75014 15.5231 8.30934C15.1773 8.71442 14.5917 8.85442 14.3787 8.58287C14.3197 8.50768 14.2714 8.39408 14.2714 8.33041C14.2714 8.15916 14.4522 7.95943 14.6416 7.92144C14.8776 7.87411 14.9959 7.74807 14.9959 7.54397C14.9959 7.335 14.8428 7.16282 14.6572 7.16282C14.5847 7.16282 14.4683 7.10548 14.3984 7.03542C14.2277 6.86428 14.2303 6.62848 14.4047 6.4536C14.5192 6.33881 14.5707 6.32361 14.7691 6.34602C14.8962 6.3604 15.1092 6.43974 15.2424 6.52236ZM18.8307 6.7154C19.0739 6.83133 19.3232 7.0788 19.4617 7.34169C19.6174 7.63748 19.6164 8.19497 19.4595 8.49304C18.9542 9.45337 17.7563 9.46702 17.262 8.51816C16.7118 7.46208 17.7923 6.22044 18.8307 6.7154ZM8.24484 7.12992C8.55527 7.27486 8.89949 7.64797 8.9841 7.9312C9.24097 8.79106 8.57876 9.65923 7.67366 9.64922C7.50289 9.64735 7.28902 9.61839 7.19841 9.58487C6.65559 9.3842 6.27949 8.87155 6.27794 8.33041C6.27644 7.80302 6.65942 7.26328 7.16276 7.08332C7.48271 6.969 7.94264 6.98877 8.24484 7.12992ZM5.1913 10.5696C5.23953 10.5881 5.30861 10.674 5.34483 10.7605C5.44797 11.0065 5.35539 11.1986 5.07575 11.3188C4.80625 11.4346 4.79047 11.57 5.03885 11.6345C5.39917 11.7282 5.5082 12.1093 5.24072 12.3401C5.11891 12.4451 5.05417 12.4629 4.86892 12.4419C4.23 12.3697 3.83294 11.6366 4.1235 11.0657C4.23522 10.8462 4.3471 10.7336 4.56894 10.6176C4.72884 10.534 5.03709 10.5102 5.1913 10.5696ZM8.25674 13.3665C8.51248 13.4736 8.67631 13.6317 8.79191 13.883C8.91264 14.1453 8.91279 14.3459 8.79243 14.6116C8.49328 15.2721 7.59604 15.3826 7.59604 14.7589C7.59604 14.5971 7.77684 14.3759 7.90921 14.3759C7.9577 14.3759 8.02461 14.343 8.05793 14.3027C8.12432 14.2225 8.11118 14.2089 7.82947 14.0655C7.54377 13.9201 7.52126 13.514 7.79076 13.3674C7.97182 13.2689 8.02357 13.2688 8.25674 13.3665ZM15.9365 14.4571C16.5464 14.8879 16.5493 15.8339 15.9421 16.2628C15.1781 16.8025 14.149 16.0466 14.373 15.1103C14.4437 14.8151 14.6699 14.5192 14.9359 14.3741C15.2179 14.2203 15.6524 14.2564 15.9365 14.4571ZM7.01611 15.5479C7.57834 15.8289 7.88867 16.3799 7.84313 17.0165C7.73399 18.541 5.69376 18.9517 5.01329 17.5862C4.63605 16.8291 4.93712 15.9252 5.69211 15.5479C5.90996 15.439 6.03452 15.4138 6.35411 15.4138C6.6737 15.4138 6.79825 15.439 7.01611 15.5479ZM13.4848 17.6143C13.7894 17.7733 14.0127 18.1404 14.0127 18.4825C14.0127 18.9485 13.6581 19.3666 13.2013 19.4392C13.0133 19.4691 12.9677 19.4562 12.852 19.3401C12.599 19.0864 12.7049 18.7334 13.0627 18.6374C13.2998 18.5738 13.2791 18.4382 13.0149 18.3247C12.772 18.2202 12.719 18.1443 12.719 17.9004C12.719 17.5842 13.1316 17.43 13.4848 17.6143ZM8.69571 18.1632C8.77354 18.2246 8.8406 18.3449 8.86208 18.4616C8.91031 18.7235 9.07228 18.8906 9.27782 18.8906C9.48335 18.8906 9.64532 18.7235 9.69355 18.4616C9.73355 18.2443 9.92258 18.0603 10.1058 18.0603C10.1693 18.0603 10.2825 18.1088 10.3575 18.1679C10.4721 18.2583 10.4939 18.3166 10.4939 18.5328C10.4939 19.0016 10.2387 19.3921 9.79741 19.5981C9.16511 19.8933 8.39972 19.5989 8.13152 18.9571C8.09317 18.8653 8.06176 18.6743 8.06176 18.5328C8.06176 18.3166 8.08355 18.2583 8.19811 18.1679C8.3694 18.0328 8.52842 18.0313 8.69571 18.1632Z" fill="#1B1B1B"/>
<path fill-rule="evenodd" clip-rule="evenodd" d="M12.846 0.12899L12.719 0.256336V5.67245V11.0886L12.8387 11.2014L12.9585 11.3143H18.3522H23.7458L23.8804 11.1792C24.015 11.0444 24.015 11.0437 23.9812 10.4138C23.6872 4.93874 19.5434 0.58378 14.1236 0.0539532C13.2315 -0.033227 12.9938 -0.0192678 12.846 0.12899ZM14.2087 0.886627C15.9649 1.07806 17.7355 1.77566 19.1325 2.82664C21.4492 4.56952 22.881 7.16541 23.1482 10.1077L23.1824 10.484H22.9453C22.7402 10.484 22.7052 10.4682 22.6868 10.3672C22.5749 9.75632 22.3957 9.14067 22.1672 8.58277C20.7382 5.09426 20.6218 4.86261 19.9447 4.16154C19.3314 3.52642 18.7984 3.2187 17.1434 2.54393C16.6026 2.32349 15.8458 2.01405 15.4616 1.85635C14.8642 1.6111 14.282 1.43623 13.6892 1.32388C13.5592 1.29928 13.5469 1.27697 13.5469 1.06441C13.5469 0.796385 13.499 0.809307 14.2087 0.886627ZM15.1033 3.88957C15.1866 3.97301 15.2546 4.0878 15.2546 4.14472C15.2546 4.2016 15.2837 4.25863 15.3193 4.27145C15.4244 4.30923 15.5651 4.20938 15.5651 4.09693C15.5651 3.94883 15.7941 3.73788 15.9548 3.73788C16.1125 3.73788 16.3932 3.99315 16.3927 4.13606C16.3917 4.49054 16.1019 4.93713 15.7875 5.06889C15.4491 5.21066 15.0001 5.13396 14.7187 4.88622C14.4233 4.62624 14.3356 4.08391 14.5537 3.86528C14.7246 3.69388 14.9167 3.70239 15.1033 3.88957ZM15.2424 6.52236C15.8685 6.91052 16.0003 7.75014 15.5231 8.30934C15.1773 8.71442 14.5917 8.85443 14.3787 8.58287C14.3197 8.50768 14.2714 8.39408 14.2714 8.33041C14.2714 8.15916 14.4522 7.95943 14.6416 7.92144C14.8776 7.87411 14.9959 7.74807 14.9959 7.54397C14.9959 7.335 14.8428 7.16282 14.6572 7.16282C14.5847 7.16282 14.4683 7.10548 14.3984 7.03542C14.2277 6.86428 14.2303 6.62848 14.4047 6.4536C14.5192 6.33881 14.5707 6.32361 14.7691 6.34602C14.8962 6.3604 15.1092 6.43974 15.2424 6.52236ZM18.8307 6.7154C19.0739 6.83133 19.3232 7.0788 19.4617 7.34169C19.6174 7.63748 19.6164 8.19497 19.4595 8.49304C18.9542 9.45337 17.7563 9.46702 17.262 8.51816C16.7118 7.46208 17.7923 6.22044 18.8307 6.7154Z" fill="white"/>
</svg>
