<svg width="24" height="24" viewBox="0 0 24 24" fill="none" xmlns="http://www.w3.org/2000/svg">
<path fill-rule="evenodd" clip-rule="evenodd" d="M11.7084 10.153C12.1666 10.153 12.6248 10.153 13.0684 10.1914C14.0213 9.19856 14.7497 7.99167 15.1993 6.66056C19.0248 -4.38479 27.3812 2.1933 17.9266 8.66393C17.1367 9.10302 16.4848 9.77505 16.0502 10.5982C17.5734 10.8473 19.0274 11.4417 20.3121 12.3406C18.4939 13.4306 15.3375 14.1521 11.7521 14.1521C8.16662 14.1521 4.95934 13.4229 3.14843 12.3176C3.43118 12.0979 3.73033 11.9028 4.04296 11.7342C4.06059 11.6566 4.09274 11.5836 4.13751 11.5193L5.30117 9.88436C5.40948 9.74719 5.55217 9.64494 5.71293 9.58929C5.87368 9.53364 6.04602 9.52683 6.21026 9.56966L8.39208 10.1377C8.45207 10.1514 8.5077 10.1811 8.55357 10.2242C8.59944 10.2672 8.63398 10.322 8.65389 10.3833C9.67901 10.2454 10.7114 10.1761 11.7448 10.176L11.7084 10.153ZM23.4466 12.5632C23.4466 18.8803 18.1957 24 11.723 24C5.25023 24 0.0066056 18.8803 0.0066056 12.5632C-0.022818 11.9995 0.0462295 11.4349 0.210263 10.8976C1.00299 8.59485 5.85387 6.80641 11.723 6.80641C12.4939 6.80641 13.6212 6.87548 14.3484 6.93689L13.7012 7.92705C13.1703 7.92705 12.2466 7.84262 11.7157 7.84262C11.1848 7.84262 10.6394 7.84263 10.1157 7.88868C5.17026 8.15733 1.38844 9.64642 1.38844 11.4502C1.38844 13.4382 6.01387 15.0578 11.723 15.0578C17.4321 15.0578 22.0502 13.4382 22.0502 11.4502C22.0502 10.3986 20.7557 9.44685 18.6902 8.78674L19.8611 8.16501C21.6939 8.93258 22.9303 9.86901 23.2648 10.9666C23.4138 11.4835 23.4777 12.0235 23.4539 12.5632H23.4466ZM15.7957 11.6421L14.4866 13.0391C14.3412 13.1926 14.3411 13.5764 14.5448 13.538L17.3593 13.0698C17.563 13.0698 17.4539 12.7321 17.3012 12.5709L16.3775 11.5807C16.2894 11.5163 16.1825 11.4871 16.0759 11.4984C15.9693 11.5096 15.87 11.5606 15.7957 11.6421ZM6.21754 10.0302L7.85391 10.46C8.10118 10.5291 8.11571 10.7901 8.02117 11.0434L7.33753 12.7474C7.26705 12.8765 7.15296 12.9728 7.0181 13.0169C6.88325 13.061 6.73758 13.0498 6.61025 12.9854L4.83571 12.095C4.78303 12.0747 4.73563 12.0416 4.69735 11.9984C4.65906 11.9552 4.63099 11.903 4.6154 11.8462C4.59981 11.7893 4.59715 11.7294 4.60764 11.6713C4.61812 11.6131 4.64145 11.5584 4.67573 11.5116L5.56298 10.2681C5.64415 10.1646 5.75139 10.0873 5.87233 10.0452C5.99327 10.0031 6.123 9.99792 6.24662 10.0302H6.21754ZM12.0794 11.3274L12.8575 12.5632C12.9957 12.7858 12.8575 12.9086 12.5739 12.9777L10.5157 13.5303C10.3645 13.5594 10.2085 13.5372 10.0699 13.4669C9.93145 13.3966 9.81762 13.2817 9.7448 13.1389L9.3666 11.6037C9.30115 11.3504 9.36661 11.2353 9.65025 11.1892L11.3157 10.9513C11.4632 10.9431 11.6103 10.9739 11.7436 11.041C11.877 11.108 11.9924 11.2091 12.0794 11.3351V11.3274Z" fill="#E07153"/>
<path fill-rule="evenodd" clip-rule="evenodd" d="M23.4466 12.5632C23.4466 18.8803 18.1957 24 11.723 24C5.25023 24 0.0066056 18.8803 0.0066056 12.5632C-0.022818 11.9995 0.0462295 11.4349 0.210263 10.8976C1.00299 8.59484 5.85387 6.8064 11.723 6.8064C12.4939 6.8064 13.6212 6.87548 14.3484 6.93688L13.7012 7.92704C13.1703 7.92704 12.2466 7.84261 11.7157 7.84261C11.1848 7.84261 10.6394 7.84262 10.1157 7.88868C5.17026 8.15733 1.38844 9.64641 1.38844 11.4502C1.38844 13.4382 6.01387 15.0578 11.723 15.0578C17.4321 15.0578 22.0502 13.4382 22.0502 11.4502C22.0502 10.3986 20.7557 9.44684 18.6902 8.78673L19.8611 8.165C21.6939 8.93257 22.9303 9.86901 23.2648 10.9666C23.4138 11.4835 23.4777 12.0235 23.4539 12.5632H23.4466Z" fill="#1B1B1B"/>
</svg>
