<svg width="24" height="24" viewBox="0 0 24 24" fill="none" xmlns="http://www.w3.org/2000/svg">
<path fill-rule="evenodd" clip-rule="evenodd" d="M0.180586 9.74148C0.180586 10.1197 0.768254 10.775 1.106 10.7547L5.97621 10.4507C5.11159 9.53882 4.65905 6.80987 4.65905 5.51294L0.275122 8.11356C-0.278775 8.43779 0.173831 9.03897 0.180586 9.74148Z" fill="#E07153"/>
<path fill-rule="evenodd" clip-rule="evenodd" d="M9.90764 3.01351C7.05709 3.37827 6.18572 4.36448 5.47646 5.16831C5.33419 6.93693 5.70226 8.70923 6.53697 10.275L7.46238 10.1669L7.3408 6.78947C7.02332 4.66169 9.09705 3.25668 9.90764 3V3.01351Z" fill="#E07153"/>
<path fill-rule="evenodd" clip-rule="evenodd" d="M15.9733 5.77612C16.9122 6.56644 17.6687 7.4851 18.6077 8.28217C16.2165 9.67367 15.6288 9.7142 14.3048 12.6931L13.2511 11.9095C13.2511 8.88335 13.0484 7.18113 15.953 5.83016L15.9733 5.77612Z" fill="#E07153"/>
<path fill-rule="evenodd" clip-rule="evenodd" d="M19.182 8.85645C19.898 9.33702 20.5074 9.95985 20.9722 10.6862C21.4371 11.4125 21.7474 12.2268 21.8839 13.0782C20.283 13.7537 17.831 16.0774 17.0879 15.1047L14.8724 13.4903C16.2233 10.2209 18.0134 9.67377 19.1955 8.88345L19.182 8.85645Z" fill="#E07153"/>
<path fill-rule="evenodd" clip-rule="evenodd" d="M16.7908 5.56001L19.3374 7.89718L22.2689 7.15415C21.8299 6.66781 21.1409 5.01287 16.7908 5.56001Z" fill="#E07153"/>
<path fill-rule="evenodd" clip-rule="evenodd" d="M22.8363 7.78931L20.0803 8.46479C21.3394 9.51674 22.1726 10.991 22.4243 12.6123C24.4507 11.9368 24.4507 9.64689 22.8363 7.78931Z" fill="#E07153"/>
<path fill-rule="evenodd" clip-rule="evenodd" d="M12.2785 3.06074H12.6838C15.5141 2.97968 17.2771 3.62815 18.189 4.82376C17.6431 4.77298 17.0936 4.77298 16.5476 4.82376C15.4812 4.95225 14.4985 5.46603 13.7844 6.26843C13.0704 7.07082 12.6742 8.10651 12.6703 9.18063V18.5564C12.6609 18.8094 12.7094 19.0612 12.8122 19.2926L17.75 20.1708C17.8902 20.1976 18.0327 20.2112 18.1755 20.2113C19.2159 20.1983 20.218 19.8174 21.0044 19.1362C21.7908 18.4549 22.3105 17.5173 22.4716 16.4894C22.4862 16.3253 22.4862 16.1603 22.4716 15.9963V14.0441C22.4784 13.9159 22.4784 13.7873 22.4716 13.6591L23.424 12.9836C23.4997 13.3366 23.5382 13.6966 23.5389 14.0576V15.9625C23.5377 16.1887 23.5196 16.4145 23.4849 16.638C23.3424 17.9461 22.7187 19.1545 21.735 20.0283C20.7513 20.9022 19.4778 21.3791 18.162 21.3664C17.965 21.3639 17.7685 21.3459 17.5744 21.3123L7.51639 19.5156C6.44742 19.2973 5.49973 18.6848 4.86174 17.7998C4.15982 16.8818 3.77572 15.7603 3.76746 14.6048V11.3895L4.80769 11.3354V14.6115C4.81493 15.5001 5.11398 16.3616 5.6588 17.0635C6.13996 17.7531 6.86369 18.2356 7.68526 18.4145L8.90788 18.6307C8.35123 17.8731 8.05284 16.9566 8.05677 16.0165V6.59353C8.05677 4.36443 10.2926 3.06074 12.2718 3.06074H12.2785Z" fill="#1B1B1B"/>
</svg>
